<svg xmlns="http://www.w3.org/2000/svg" viewBox="0 0 400 560" preserveAspectRatio="xMidYMid slice">
  <defs>
    <linearGradient id="bg" x1="0" y1="0" x2="0" y2="1">
      <stop offset="0" stop-color="#0a1a0f"/>
      <stop offset="1" stop-color="#1a3d24"/>
    </linearGradient>
    <radialGradient id="glow" cx="50%" cy="42%" r="50%">
      <stop offset="0" stop-color="#f5d23a" stop-opacity="0.55"/>
      <stop offset="0.5" stop-color="#f5d23a" stop-opacity="0.12"/>
      <stop offset="1" stop-color="#f5d23a" stop-opacity="0"/>
    </radialGradient>
  </defs>
  <rect width="400" height="560" fill="url(#bg)"/>
  <rect width="400" height="560" fill="url(#glow)"/>
  <circle cx="323.9" cy="20.0" r="1.8" fill="#3acf5c" opacity="0.47"/><circle cx="176.2" cy="507.5" r="1.0" fill="#3acf5c" opacity="0.22"/><circle cx="367.6" cy="322.1" r="0.9" fill="#3acf5c" opacity="0.37"/><circle cx="285.8" cy="265.7" r="1.4" fill="#3acf5c" opacity="0.28"/><circle cx="59.1" cy="61.8" r="1.0" fill="#3acf5c" opacity="0.54"/><circle cx="112.2" cy="346.5" r="1.2" fill="#3acf5c" opacity="0.47"/><circle cx="188.4" cy="552.8" r="0.9" fill="#3acf5c" opacity="0.35"/><circle cx="238.2" cy="528.6" r="1.3" fill="#3acf5c" opacity="0.56"/><circle cx="375.3" cy="287.9" r="1.7" fill="#3acf5c" opacity="0.54"/><circle cx="298.4" cy="134.7" r="1.4" fill="#3acf5c" opacity="0.51"/><circle cx="180.4" cy="41.4" r="1.3" fill="#3acf5c" opacity="0.63"/><circle cx="223.6" cy="519.7" r="1.8" fill="#3acf5c" opacity="0.43"/><circle cx="82.5" cy="504.8" r="0.8" fill="#3acf5c" opacity="0.59"/><circle cx="152.1" cy="93.5" r="0.6" fill="#3acf5c" opacity="0.56"/><circle cx="323.8" cy="295.2" r="1.0" fill="#3acf5c" opacity="0.47"/><circle cx="207.4" cy="356.3" r="1.6" fill="#3acf5c" opacity="0.44"/><circle cx="20.2" cy="498.1" r="1.7" fill="#3acf5c" opacity="0.69"/><circle cx="142.4" cy="547.8" r="1.8" fill="#3acf5c" opacity="0.49"/><circle cx="139.6" cy="62.7" r="1.9" fill="#3acf5c" opacity="0.38"/><circle cx="51.2" cy="508.7" r="1.1" fill="#3acf5c" opacity="0.37"/><circle cx="346.3" cy="530.7" r="0.7" fill="#3acf5c" opacity="0.32"/><circle cx="145.9" cy="557.2" r="1.2" fill="#3acf5c" opacity="0.24"/><circle cx="111.8" cy="498.5" r="1.3" fill="#3acf5c" opacity="0.41"/><circle cx="2.0" cy="57.3" r="1.8" fill="#3acf5c" opacity="0.30"/><circle cx="93.0" cy="533.2" r="1.8" fill="#3acf5c" opacity="0.37"/><circle cx="68.7" cy="281.0" r="1.7" fill="#3acf5c" opacity="0.66"/><circle cx="176.2" cy="61.0" r="1.4" fill="#3acf5c" opacity="0.26"/><circle cx="247.4" cy="364.1" r="2.0" fill="#3acf5c" opacity="0.58"/><circle cx="188.6" cy="229.3" r="1.9" fill="#3acf5c" opacity="0.44"/><circle cx="335.6" cy="355.0" r="0.7" fill="#3acf5c" opacity="0.54"/><circle cx="76.0" cy="423.0" r="1.0" fill="#3acf5c" opacity="0.22"/><circle cx="338.2" cy="156.9" r="1.4" fill="#3acf5c" opacity="0.60"/><circle cx="346.9" cy="192.7" r="0.5" fill="#3acf5c" opacity="0.47"/><circle cx="245.3" cy="523.5" r="1.6" fill="#3acf5c" opacity="0.63"/><circle cx="384.0" cy="437.1" r="1.2" fill="#3acf5c" opacity="0.46"/><circle cx="76.6" cy="507.5" r="0.5" fill="#3acf5c" opacity="0.38"/><circle cx="221.9" cy="478.7" r="1.5" fill="#3acf5c" opacity="0.62"/><circle cx="192.8" cy="323.3" r="0.8" fill="#3acf5c" opacity="0.35"/><circle cx="191.6" cy="552.6" r="1.6" fill="#3acf5c" opacity="0.60"/><circle cx="272.7" cy="102.2" r="1.9" fill="#3acf5c" opacity="0.54"/>
  <circle cx="200" cy="240" r="63.79276406035665" fill="none" stroke="#f5d23a" stroke-opacity="0.08" stroke-width="2.54727366255144"/><circle cx="200" cy="240" r="88.45991083676269" fill="none" stroke="#f5d23a" stroke-opacity="0.12" stroke-width="2.330315500685871"/><circle cx="200" cy="240" r="110.74845679012346" fill="none" stroke="#f5d23a" stroke-opacity="0.16" stroke-width="1.2717935528120714"/><circle cx="200" cy="240" r="127.49790809327847" fill="none" stroke="#f5d23a" stroke-opacity="0.20" stroke-width="2.4334362139917696"/><circle cx="200" cy="240" r="151.25147462277093" fill="none" stroke="#f5d23a" stroke-opacity="0.24" stroke-width="1.914008916323731"/>
  <text x="200" y="270" font-family="sans-serif" font-size="140" text-anchor="middle" fill="#3acf5c" opacity="0.85">🎤</text>
  <rect x="4" y="4" width="392" height="552" fill="none" stroke="#f5d23a" stroke-width="1.5" opacity="0.7"/>
  <rect x="20" y="440" width="360" height="100" fill="#000" opacity="0.55"/>
  <text x="200" y="475" font-family="sans-serif" font-size="22" font-weight="bold" text-anchor="middle" fill="#3acf5c">Sample Titan</text>
  <text x="200" y="500" font-family="sans-serif" font-size="11" text-anchor="middle" fill="#f5d23a" letter-spacing="3">BOOM-BAP 1990S</text>
  <text x="200" y="525" font-family="sans-serif" font-size="10" text-anchor="middle" fill="#ffffff" opacity="0.7" letter-spacing="2">COMMON</text>
</svg>