<svg xmlns="http://www.w3.org/2000/svg" viewBox="0 0 400 560" preserveAspectRatio="xMidYMid slice">
  <defs>
    <linearGradient id="bg" x1="0" y1="0" x2="0" y2="1">
      <stop offset="0" stop-color="#0a0a0a"/>
      <stop offset="1" stop-color="#1f1f1f"/>
    </linearGradient>
    <radialGradient id="glow" cx="50%" cy="42%" r="50%">
      <stop offset="0" stop-color="#c9a84c" stop-opacity="0.55"/>
      <stop offset="0.5" stop-color="#c9a84c" stop-opacity="0.12"/>
      <stop offset="1" stop-color="#c9a84c" stop-opacity="0"/>
    </radialGradient>
  </defs>
  <rect width="400" height="560" fill="url(#bg)"/>
  <rect width="400" height="560" fill="url(#glow)"/>
  <circle cx="159.2" cy="309.8" r="1.3" fill="#f0d78c" opacity="0.54"/><circle cx="142.8" cy="510.9" r="0.8" fill="#f0d78c" opacity="0.64"/><circle cx="55.6" cy="232.7" r="1.3" fill="#f0d78c" opacity="0.52"/><circle cx="277.8" cy="422.3" r="1.8" fill="#f0d78c" opacity="0.44"/><circle cx="375.0" cy="77.3" r="0.7" fill="#f0d78c" opacity="0.45"/><circle cx="386.6" cy="103.3" r="1.8" fill="#f0d78c" opacity="0.57"/><circle cx="381.7" cy="265.3" r="1.8" fill="#f0d78c" opacity="0.64"/><circle cx="281.3" cy="431.8" r="1.1" fill="#f0d78c" opacity="0.69"/><circle cx="347.2" cy="513.1" r="1.6" fill="#f0d78c" opacity="0.49"/><circle cx="337.4" cy="211.9" r="1.0" fill="#f0d78c" opacity="0.50"/><circle cx="128.4" cy="267.8" r="1.4" fill="#f0d78c" opacity="0.69"/><circle cx="204.2" cy="155.6" r="1.7" fill="#f0d78c" opacity="0.61"/><circle cx="11.6" cy="75.5" r="1.7" fill="#f0d78c" opacity="0.34"/><circle cx="182.8" cy="518.7" r="1.2" fill="#f0d78c" opacity="0.28"/><circle cx="224.1" cy="523.9" r="1.5" fill="#f0d78c" opacity="0.27"/><circle cx="71.0" cy="229.6" r="0.6" fill="#f0d78c" opacity="0.49"/><circle cx="311.4" cy="437.6" r="1.4" fill="#f0d78c" opacity="0.30"/><circle cx="273.6" cy="311.5" r="0.6" fill="#f0d78c" opacity="0.30"/><circle cx="382.3" cy="487.3" r="1.6" fill="#f0d78c" opacity="0.29"/><circle cx="380.7" cy="398.1" r="1.5" fill="#f0d78c" opacity="0.58"/><circle cx="219.4" cy="451.7" r="1.5" fill="#f0d78c" opacity="0.53"/><circle cx="12.0" cy="102.1" r="1.2" fill="#f0d78c" opacity="0.58"/><circle cx="257.4" cy="213.3" r="1.1" fill="#f0d78c" opacity="0.45"/><circle cx="328.2" cy="197.8" r="0.7" fill="#f0d78c" opacity="0.30"/><circle cx="27.0" cy="7.2" r="1.9" fill="#f0d78c" opacity="0.67"/><circle cx="208.1" cy="256.7" r="1.1" fill="#f0d78c" opacity="0.24"/><circle cx="66.6" cy="483.2" r="0.7" fill="#f0d78c" opacity="0.44"/><circle cx="293.8" cy="16.1" r="1.7" fill="#f0d78c" opacity="0.42"/><circle cx="99.6" cy="341.6" r="1.1" fill="#f0d78c" opacity="0.29"/><circle cx="101.3" cy="1.2" r="0.9" fill="#f0d78c" opacity="0.29"/><circle cx="279.1" cy="501.9" r="1.7" fill="#f0d78c" opacity="0.65"/><circle cx="198.5" cy="281.3" r="2.0" fill="#f0d78c" opacity="0.44"/><circle cx="299.0" cy="245.1" r="0.9" fill="#f0d78c" opacity="0.67"/><circle cx="249.7" cy="158.2" r="1.2" fill="#f0d78c" opacity="0.69"/><circle cx="371.5" cy="449.2" r="1.9" fill="#f0d78c" opacity="0.51"/><circle cx="126.3" cy="468.3" r="1.7" fill="#f0d78c" opacity="0.42"/><circle cx="72.0" cy="478.1" r="1.4" fill="#f0d78c" opacity="0.38"/><circle cx="85.2" cy="98.5" r="1.7" fill="#f0d78c" opacity="0.35"/><circle cx="249.9" cy="484.0" r="1.3" fill="#f0d78c" opacity="0.37"/><circle cx="12.9" cy="155.1" r="1.6" fill="#f0d78c" opacity="0.55"/><circle cx="6.4" cy="162.7" r="0.9" fill="#f0d78c" opacity="0.27"/><circle cx="136.5" cy="105.7" r="0.6" fill="#f0d78c" opacity="0.37"/><circle cx="339.0" cy="122.5" r="1.5" fill="#f0d78c" opacity="0.54"/><circle cx="1.6" cy="455.0" r="0.6" fill="#f0d78c" opacity="0.62"/><circle cx="52.7" cy="266.7" r="0.7" fill="#f0d78c" opacity="0.23"/><circle cx="116.9" cy="193.6" r="0.5" fill="#f0d78c" opacity="0.67"/><circle cx="337.5" cy="228.8" r="1.8" fill="#f0d78c" opacity="0.23"/><circle cx="265.1" cy="220.2" r="1.1" fill="#f0d78c" opacity="0.30"/><circle cx="13.3" cy="181.7" r="1.1" fill="#f0d78c" opacity="0.29"/><circle cx="80.9" cy="417.4" r="0.8" fill="#f0d78c" opacity="0.43"/>
  <circle cx="200" cy="240" r="63.18072702331962" fill="none" stroke="#c9a84c" stroke-opacity="0.08" stroke-width="1.40815329218107"/><circle cx="200" cy="240" r="84.62565157750343" fill="none" stroke="#c9a84c" stroke-opacity="0.12" stroke-width="2.7189729080932787"/><circle cx="200" cy="240" r="106.35864197530864" fill="none" stroke="#c9a84c" stroke-opacity="0.16" stroke-width="1.8548954046639232"/><circle cx="200" cy="240" r="133.21920438957477" fill="none" stroke="#c9a84c" stroke-opacity="0.20" stroke-width="1.8776491769547325"/><circle cx="200" cy="240" r="153.750548696845" fill="none" stroke="#c9a84c" stroke-opacity="0.24" stroke-width="2.885999657064472"/><circle cx="200" cy="240" r="170.4218106995885" fill="none" stroke="#c9a84c" stroke-opacity="0.28" stroke-width="2.237971536351166"/>
  <text x="200" y="270" font-family="serif" font-size="140" text-anchor="middle" fill="#f0d78c" opacity="0.85">🎷</text>
  <rect x="8" y="8" width="384" height="544" fill="none" stroke="#c9a84c" stroke-width="3" opacity="0.7"/>
  <rect x="20" y="440" width="360" height="100" fill="#000" opacity="0.55"/>
  <text x="200" y="475" font-family="serif" font-size="22" font-weight="bold" text-anchor="middle" fill="#f0d78c">Pearl Tycoon</text>
  <text x="200" y="500" font-family="sans-serif" font-size="11" text-anchor="middle" fill="#c9a84c" letter-spacing="3">ROARING 1920S</text>
  <text x="200" y="525" font-family="sans-serif" font-size="10" text-anchor="middle" fill="#ffffff" opacity="0.7" letter-spacing="2">RARE</text>
</svg>