<svg xmlns="http://www.w3.org/2000/svg" viewBox="0 0 400 560" preserveAspectRatio="xMidYMid slice">
  <defs>
    <linearGradient id="bg" x1="0" y1="0" x2="0" y2="1">
      <stop offset="0" stop-color="#050a1a"/>
      <stop offset="1" stop-color="#0f1f3d"/>
    </linearGradient>
    <radialGradient id="glow" cx="50%" cy="42%" r="50%">
      <stop offset="0" stop-color="#3acff5" stop-opacity="0.55"/>
      <stop offset="0.5" stop-color="#3acff5" stop-opacity="0.12"/>
      <stop offset="1" stop-color="#3acff5" stop-opacity="0"/>
    </radialGradient>
  </defs>
  <rect width="400" height="560" fill="url(#bg)"/>
  <rect width="400" height="560" fill="url(#glow)"/>
  <circle cx="226.7" cy="253.4" r="1.1" fill="#a855f7" opacity="0.46"/><circle cx="134.6" cy="72.0" r="0.9" fill="#a855f7" opacity="0.28"/><circle cx="248.2" cy="151.0" r="1.0" fill="#a855f7" opacity="0.34"/><circle cx="355.3" cy="172.4" r="1.3" fill="#a855f7" opacity="0.48"/><circle cx="184.1" cy="419.6" r="1.6" fill="#a855f7" opacity="0.31"/><circle cx="159.5" cy="408.7" r="0.5" fill="#a855f7" opacity="0.64"/><circle cx="24.6" cy="132.8" r="1.4" fill="#a855f7" opacity="0.26"/><circle cx="130.0" cy="559.8" r="1.0" fill="#a855f7" opacity="0.54"/><circle cx="189.3" cy="23.5" r="1.6" fill="#a855f7" opacity="0.42"/><circle cx="301.2" cy="508.1" r="1.0" fill="#a855f7" opacity="0.63"/><circle cx="238.7" cy="306.0" r="1.6" fill="#a855f7" opacity="0.31"/><circle cx="204.2" cy="488.7" r="0.8" fill="#a855f7" opacity="0.52"/><circle cx="252.0" cy="551.5" r="1.0" fill="#a855f7" opacity="0.42"/><circle cx="377.2" cy="31.3" r="1.6" fill="#a855f7" opacity="0.45"/><circle cx="71.0" cy="497.5" r="0.7" fill="#a855f7" opacity="0.27"/><circle cx="143.5" cy="76.4" r="1.0" fill="#a855f7" opacity="0.47"/><circle cx="11.9" cy="109.3" r="1.8" fill="#a855f7" opacity="0.30"/><circle cx="56.4" cy="423.4" r="0.6" fill="#a855f7" opacity="0.49"/><circle cx="242.4" cy="16.1" r="1.9" fill="#a855f7" opacity="0.62"/><circle cx="209.5" cy="353.2" r="1.8" fill="#a855f7" opacity="0.68"/><circle cx="26.9" cy="79.6" r="1.6" fill="#a855f7" opacity="0.53"/><circle cx="15.4" cy="184.0" r="1.8" fill="#a855f7" opacity="0.69"/><circle cx="36.8" cy="16.4" r="1.1" fill="#a855f7" opacity="0.43"/><circle cx="249.2" cy="399.6" r="1.8" fill="#a855f7" opacity="0.22"/><circle cx="129.1" cy="393.3" r="1.6" fill="#a855f7" opacity="0.53"/><circle cx="160.4" cy="32.1" r="0.7" fill="#a855f7" opacity="0.39"/><circle cx="190.1" cy="76.6" r="0.6" fill="#a855f7" opacity="0.40"/><circle cx="50.3" cy="457.5" r="0.8" fill="#a855f7" opacity="0.45"/><circle cx="47.0" cy="213.8" r="1.5" fill="#a855f7" opacity="0.38"/><circle cx="116.2" cy="43.9" r="1.9" fill="#a855f7" opacity="0.38"/><circle cx="45.5" cy="189.8" r="0.5" fill="#a855f7" opacity="0.30"/><circle cx="363.2" cy="374.8" r="1.6" fill="#a855f7" opacity="0.24"/><circle cx="294.1" cy="115.0" r="0.9" fill="#a855f7" opacity="0.52"/><circle cx="381.4" cy="523.5" r="1.7" fill="#a855f7" opacity="0.41"/><circle cx="175.7" cy="328.3" r="0.5" fill="#a855f7" opacity="0.31"/><circle cx="190.6" cy="103.1" r="1.5" fill="#a855f7" opacity="0.63"/><circle cx="124.8" cy="152.1" r="0.7" fill="#a855f7" opacity="0.61"/><circle cx="151.1" cy="447.8" r="0.7" fill="#a855f7" opacity="0.41"/><circle cx="72.2" cy="381.6" r="1.7" fill="#a855f7" opacity="0.56"/><circle cx="342.2" cy="8.9" r="1.8" fill="#a855f7" opacity="0.24"/>
  <circle cx="200" cy="240" r="64.40480109739369" fill="none" stroke="#3acff5" stroke-opacity="0.08" stroke-width="1.6863940329218106"/><circle cx="200" cy="240" r="84.29417009602194" fill="none" stroke="#3acff5" stroke-opacity="0.12" stroke-width="1.9416580932784635"/><circle cx="200" cy="240" r="107.13827160493827" fill="none" stroke="#3acff5" stroke-opacity="0.16" stroke-width="2.6886917009602196"/><circle cx="200" cy="240" r="129.77661179698217" fill="none" stroke="#3acff5" stroke-opacity="0.20" stroke-width="2.9892232510288066"/><circle cx="200" cy="240" r="148.75240054869684" fill="none" stroke="#3acff5" stroke-opacity="0.24" stroke-width="2.9420181755829904"/>
  <text x="200" y="270" font-family="sans-serif" font-size="140" text-anchor="middle" fill="#a855f7" opacity="0.85">💎</text>
  <rect x="4" y="4" width="392" height="552" fill="none" stroke="#3acff5" stroke-width="1.5" opacity="0.7"/>
  <rect x="20" y="440" width="360" height="100" fill="#000" opacity="0.55"/>
  <text x="200" y="475" font-family="sans-serif" font-size="22" font-weight="bold" text-anchor="middle" fill="#a855f7">Neon Prophet</text>
  <text x="200" y="500" font-family="sans-serif" font-size="11" text-anchor="middle" fill="#3acff5" letter-spacing="3">NEON 2020S</text>
  <text x="200" y="525" font-family="sans-serif" font-size="10" text-anchor="middle" fill="#ffffff" opacity="0.7" letter-spacing="2">COMMON</text>
</svg>