<svg xmlns="http://www.w3.org/2000/svg" viewBox="0 0 400 560" preserveAspectRatio="xMidYMid slice">
  <defs>
    <linearGradient id="bg" x1="0" y1="0" x2="0" y2="1">
      <stop offset="0" stop-color="#0a0a0a"/>
      <stop offset="1" stop-color="#1f1f1f"/>
    </linearGradient>
    <radialGradient id="glow" cx="50%" cy="42%" r="50%">
      <stop offset="0" stop-color="#c9a84c" stop-opacity="0.55"/>
      <stop offset="0.5" stop-color="#c9a84c" stop-opacity="0.12"/>
      <stop offset="1" stop-color="#c9a84c" stop-opacity="0"/>
    </radialGradient>
  </defs>
  <rect width="400" height="560" fill="url(#bg)"/>
  <rect width="400" height="560" fill="url(#glow)"/>
  <circle cx="53.9" cy="303.4" r="1.3" fill="#f0d78c" opacity="0.20"/><circle cx="18.1" cy="90.3" r="0.7" fill="#f0d78c" opacity="0.51"/><circle cx="138.8" cy="545.5" r="1.6" fill="#f0d78c" opacity="0.45"/><circle cx="366.4" cy="396.9" r="0.6" fill="#f0d78c" opacity="0.39"/><circle cx="14.6" cy="218.4" r="1.7" fill="#f0d78c" opacity="0.26"/><circle cx="382.1" cy="314.1" r="1.0" fill="#f0d78c" opacity="0.28"/><circle cx="41.8" cy="96.4" r="1.1" fill="#f0d78c" opacity="0.62"/><circle cx="396.2" cy="76.9" r="0.8" fill="#f0d78c" opacity="0.31"/><circle cx="299.6" cy="310.9" r="0.9" fill="#f0d78c" opacity="0.53"/><circle cx="146.9" cy="335.1" r="0.9" fill="#f0d78c" opacity="0.22"/><circle cx="229.7" cy="39.1" r="2.0" fill="#f0d78c" opacity="0.52"/><circle cx="157.7" cy="349.1" r="0.8" fill="#f0d78c" opacity="0.54"/><circle cx="148.3" cy="366.4" r="1.1" fill="#f0d78c" opacity="0.52"/><circle cx="181.7" cy="478.3" r="1.8" fill="#f0d78c" opacity="0.20"/><circle cx="223.3" cy="242.1" r="1.6" fill="#f0d78c" opacity="0.65"/><circle cx="312.6" cy="3.7" r="0.9" fill="#f0d78c" opacity="0.36"/><circle cx="118.9" cy="87.9" r="1.2" fill="#f0d78c" opacity="0.20"/><circle cx="362.9" cy="363.3" r="1.3" fill="#f0d78c" opacity="0.68"/><circle cx="106.6" cy="180.2" r="1.6" fill="#f0d78c" opacity="0.57"/><circle cx="307.9" cy="361.1" r="1.2" fill="#f0d78c" opacity="0.35"/><circle cx="43.3" cy="526.0" r="1.0" fill="#f0d78c" opacity="0.47"/><circle cx="196.9" cy="149.3" r="1.0" fill="#f0d78c" opacity="0.49"/><circle cx="215.5" cy="551.5" r="1.4" fill="#f0d78c" opacity="0.48"/><circle cx="331.1" cy="543.5" r="1.6" fill="#f0d78c" opacity="0.35"/><circle cx="50.1" cy="284.3" r="1.8" fill="#f0d78c" opacity="0.44"/><circle cx="108.2" cy="472.2" r="1.1" fill="#f0d78c" opacity="0.42"/><circle cx="293.0" cy="229.1" r="1.2" fill="#f0d78c" opacity="0.66"/><circle cx="333.0" cy="398.6" r="1.8" fill="#f0d78c" opacity="0.26"/><circle cx="252.8" cy="496.6" r="1.5" fill="#f0d78c" opacity="0.52"/><circle cx="195.6" cy="516.2" r="0.7" fill="#f0d78c" opacity="0.23"/><circle cx="112.1" cy="305.4" r="0.5" fill="#f0d78c" opacity="0.28"/><circle cx="115.9" cy="438.0" r="2.0" fill="#f0d78c" opacity="0.59"/><circle cx="305.6" cy="98.2" r="1.2" fill="#f0d78c" opacity="0.39"/><circle cx="54.3" cy="378.2" r="0.6" fill="#f0d78c" opacity="0.34"/><circle cx="364.2" cy="109.8" r="0.6" fill="#f0d78c" opacity="0.48"/><circle cx="89.7" cy="468.2" r="0.6" fill="#f0d78c" opacity="0.48"/><circle cx="26.0" cy="430.3" r="1.4" fill="#f0d78c" opacity="0.28"/><circle cx="64.3" cy="445.3" r="1.3" fill="#f0d78c" opacity="0.52"/><circle cx="214.6" cy="319.8" r="1.4" fill="#f0d78c" opacity="0.32"/><circle cx="294.0" cy="274.9" r="1.0" fill="#f0d78c" opacity="0.41"/>
  <circle cx="200" cy="240" r="61.58590534979424" fill="none" stroke="#c9a84c" stroke-opacity="0.08" stroke-width="1.049056927297668"/><circle cx="200" cy="240" r="84.80449245541838" fill="none" stroke="#c9a84c" stroke-opacity="0.12" stroke-width="2.568724279835391"/><circle cx="200" cy="240" r="108.50867626886145" fill="none" stroke="#c9a84c" stroke-opacity="0.16" stroke-width="1.222136488340192"/><circle cx="200" cy="240" r="128.05648148148148" fill="none" stroke="#c9a84c" stroke-opacity="0.20" stroke-width="1.256207133058985"/><circle cx="200" cy="240" r="153.6207475994513" fill="none" stroke="#c9a84c" stroke-opacity="0.24" stroke-width="1.0659979423868313"/>
  <text x="200" y="270" font-family="serif" font-size="140" text-anchor="middle" fill="#f0d78c" opacity="0.85">🎷</text>
  <rect x="4" y="4" width="392" height="552" fill="none" stroke="#c9a84c" stroke-width="1.5" opacity="0.7"/>
  <rect x="20" y="440" width="360" height="100" fill="#000" opacity="0.55"/>
  <text x="200" y="475" font-family="serif" font-size="22" font-weight="bold" text-anchor="middle" fill="#f0d78c">Tommy Diva</text>
  <text x="200" y="500" font-family="sans-serif" font-size="11" text-anchor="middle" fill="#c9a84c" letter-spacing="3">ROARING 1920S</text>
  <text x="200" y="525" font-family="sans-serif" font-size="10" text-anchor="middle" fill="#ffffff" opacity="0.7" letter-spacing="2">COMMON</text>
</svg>