<svg xmlns="http://www.w3.org/2000/svg" viewBox="0 0 400 560" preserveAspectRatio="xMidYMid slice">
  <defs>
    <linearGradient id="bg" x1="0" y1="0" x2="0" y2="1">
      <stop offset="0" stop-color="#1a0f04"/>
      <stop offset="1" stop-color="#3d2410"/>
    </linearGradient>
    <radialGradient id="glow" cx="50%" cy="42%" r="50%">
      <stop offset="0" stop-color="#d4a84c" stop-opacity="0.55"/>
      <stop offset="0.5" stop-color="#d4a84c" stop-opacity="0.12"/>
      <stop offset="1" stop-color="#d4a84c" stop-opacity="0"/>
    </radialGradient>
  </defs>
  <rect width="400" height="560" fill="url(#bg)"/>
  <rect width="400" height="560" fill="url(#glow)"/>
  <circle cx="85.5" cy="156.5" r="1.7" fill="#f5d77a" opacity="0.26"/><circle cx="59.2" cy="551.2" r="1.4" fill="#f5d77a" opacity="0.23"/><circle cx="154.7" cy="51.7" r="1.2" fill="#f5d77a" opacity="0.40"/><circle cx="396.7" cy="414.2" r="1.2" fill="#f5d77a" opacity="0.56"/><circle cx="128.4" cy="511.6" r="1.6" fill="#f5d77a" opacity="0.51"/><circle cx="100.5" cy="191.9" r="0.6" fill="#f5d77a" opacity="0.63"/><circle cx="26.5" cy="29.0" r="0.8" fill="#f5d77a" opacity="0.34"/><circle cx="5.1" cy="326.9" r="1.1" fill="#f5d77a" opacity="0.38"/><circle cx="209.3" cy="498.1" r="1.3" fill="#f5d77a" opacity="0.40"/><circle cx="41.4" cy="494.1" r="1.5" fill="#f5d77a" opacity="0.44"/><circle cx="355.9" cy="370.3" r="1.2" fill="#f5d77a" opacity="0.68"/><circle cx="347.7" cy="223.5" r="1.2" fill="#f5d77a" opacity="0.54"/><circle cx="308.3" cy="502.9" r="1.3" fill="#f5d77a" opacity="0.69"/><circle cx="247.4" cy="455.2" r="1.1" fill="#f5d77a" opacity="0.23"/><circle cx="382.4" cy="301.4" r="1.5" fill="#f5d77a" opacity="0.39"/><circle cx="293.6" cy="428.8" r="1.2" fill="#f5d77a" opacity="0.41"/><circle cx="346.3" cy="394.9" r="0.6" fill="#f5d77a" opacity="0.38"/><circle cx="180.1" cy="545.3" r="1.5" fill="#f5d77a" opacity="0.27"/><circle cx="264.1" cy="85.1" r="0.8" fill="#f5d77a" opacity="0.46"/><circle cx="119.3" cy="2.8" r="1.9" fill="#f5d77a" opacity="0.45"/><circle cx="7.4" cy="208.5" r="0.8" fill="#f5d77a" opacity="0.52"/><circle cx="86.5" cy="405.0" r="0.9" fill="#f5d77a" opacity="0.65"/><circle cx="233.0" cy="212.1" r="1.7" fill="#f5d77a" opacity="0.28"/><circle cx="131.0" cy="224.3" r="1.8" fill="#f5d77a" opacity="0.48"/><circle cx="27.3" cy="82.0" r="1.2" fill="#f5d77a" opacity="0.32"/><circle cx="154.1" cy="276.2" r="1.0" fill="#f5d77a" opacity="0.21"/><circle cx="17.6" cy="405.9" r="1.2" fill="#f5d77a" opacity="0.47"/><circle cx="353.4" cy="49.4" r="1.1" fill="#f5d77a" opacity="0.30"/><circle cx="149.4" cy="8.5" r="0.7" fill="#f5d77a" opacity="0.56"/><circle cx="333.8" cy="6.9" r="1.3" fill="#f5d77a" opacity="0.33"/><circle cx="131.3" cy="120.4" r="1.6" fill="#f5d77a" opacity="0.44"/><circle cx="85.3" cy="342.3" r="1.8" fill="#f5d77a" opacity="0.67"/><circle cx="146.3" cy="520.4" r="1.7" fill="#f5d77a" opacity="0.40"/><circle cx="27.8" cy="108.6" r="0.7" fill="#f5d77a" opacity="0.55"/><circle cx="228.7" cy="530.9" r="0.9" fill="#f5d77a" opacity="0.37"/><circle cx="121.7" cy="79.9" r="1.9" fill="#f5d77a" opacity="0.50"/><circle cx="309.4" cy="387.0" r="0.9" fill="#f5d77a" opacity="0.48"/><circle cx="46.1" cy="387.7" r="1.9" fill="#f5d77a" opacity="0.50"/><circle cx="126.8" cy="178.6" r="1.3" fill="#f5d77a" opacity="0.48"/><circle cx="42.9" cy="209.2" r="1.7" fill="#f5d77a" opacity="0.56"/>
  <circle cx="200" cy="240" r="64.16351165980795" fill="none" stroke="#d4a84c" stroke-opacity="0.08" stroke-width="2.6281292866941017"/><circle cx="200" cy="240" r="88.61255144032921" fill="none" stroke="#d4a84c" stroke-opacity="0.12" stroke-width="1.2578789437585733"/><circle cx="200" cy="240" r="107.81879286694101" fill="none" stroke="#d4a84c" stroke-opacity="0.16" stroke-width="1.070756172839506"/><circle cx="200" cy="240" r="128.10322359396434" fill="none" stroke="#d4a84c" stroke-opacity="0.20" stroke-width="1.943304183813443"/><circle cx="200" cy="240" r="148.37942386831276" fill="none" stroke="#d4a84c" stroke-opacity="0.24" stroke-width="1.6779921124828532"/>
  <text x="200" y="270" font-family="serif" font-size="140" text-anchor="middle" fill="#f5d77a" opacity="0.85">☥</text>
  <rect x="4" y="4" width="392" height="552" fill="none" stroke="#d4a84c" stroke-width="1.5" opacity="0.7"/>
  <rect x="20" y="440" width="360" height="100" fill="#000" opacity="0.55"/>
  <text x="200" y="475" font-family="serif" font-size="22" font-weight="bold" text-anchor="middle" fill="#f5d77a">Sand Acolyte</text>
  <text x="200" y="500" font-family="sans-serif" font-size="11" text-anchor="middle" fill="#d4a84c" letter-spacing="3">DYNASTY</text>
  <text x="200" y="525" font-family="sans-serif" font-size="10" text-anchor="middle" fill="#ffffff" opacity="0.7" letter-spacing="2">COMMON</text>
</svg>