<svg xmlns="http://www.w3.org/2000/svg" viewBox="0 0 400 560" preserveAspectRatio="xMidYMid slice">
  <defs>
    <linearGradient id="bg" x1="0" y1="0" x2="0" y2="1">
      <stop offset="0" stop-color="#0a0a0a"/>
      <stop offset="1" stop-color="#1f1f1f"/>
    </linearGradient>
    <radialGradient id="glow" cx="50%" cy="42%" r="50%">
      <stop offset="0" stop-color="#c9a84c" stop-opacity="0.55"/>
      <stop offset="0.5" stop-color="#c9a84c" stop-opacity="0.12"/>
      <stop offset="1" stop-color="#c9a84c" stop-opacity="0"/>
    </radialGradient>
  </defs>
  <rect width="400" height="560" fill="url(#bg)"/>
  <rect width="400" height="560" fill="url(#glow)"/>
  <circle cx="6.4" cy="28.7" r="0.9" fill="#f0d78c" opacity="0.38"/><circle cx="20.4" cy="286.3" r="1.5" fill="#f0d78c" opacity="0.28"/><circle cx="269.8" cy="223.6" r="1.7" fill="#f0d78c" opacity="0.28"/><circle cx="364.5" cy="206.9" r="1.1" fill="#f0d78c" opacity="0.52"/><circle cx="121.8" cy="457.6" r="0.5" fill="#f0d78c" opacity="0.21"/><circle cx="321.8" cy="242.8" r="1.9" fill="#f0d78c" opacity="0.59"/><circle cx="130.1" cy="240.0" r="0.8" fill="#f0d78c" opacity="0.25"/><circle cx="386.1" cy="234.9" r="0.8" fill="#f0d78c" opacity="0.67"/><circle cx="359.0" cy="552.4" r="1.7" fill="#f0d78c" opacity="0.22"/><circle cx="369.8" cy="501.2" r="0.9" fill="#f0d78c" opacity="0.41"/><circle cx="280.1" cy="551.4" r="1.8" fill="#f0d78c" opacity="0.51"/><circle cx="248.0" cy="405.7" r="0.6" fill="#f0d78c" opacity="0.49"/><circle cx="150.1" cy="243.9" r="1.0" fill="#f0d78c" opacity="0.32"/><circle cx="70.4" cy="100.5" r="1.6" fill="#f0d78c" opacity="0.55"/><circle cx="255.6" cy="176.0" r="1.1" fill="#f0d78c" opacity="0.25"/><circle cx="137.9" cy="401.3" r="2.0" fill="#f0d78c" opacity="0.33"/><circle cx="23.6" cy="375.5" r="1.2" fill="#f0d78c" opacity="0.62"/><circle cx="248.3" cy="236.7" r="1.2" fill="#f0d78c" opacity="0.32"/><circle cx="199.8" cy="227.0" r="1.9" fill="#f0d78c" opacity="0.26"/><circle cx="6.4" cy="69.8" r="1.6" fill="#f0d78c" opacity="0.57"/><circle cx="92.9" cy="401.1" r="2.0" fill="#f0d78c" opacity="0.54"/><circle cx="202.4" cy="94.1" r="1.8" fill="#f0d78c" opacity="0.46"/><circle cx="285.6" cy="116.6" r="0.7" fill="#f0d78c" opacity="0.22"/><circle cx="56.0" cy="482.5" r="1.3" fill="#f0d78c" opacity="0.23"/><circle cx="12.4" cy="376.0" r="1.1" fill="#f0d78c" opacity="0.24"/><circle cx="327.7" cy="329.4" r="1.2" fill="#f0d78c" opacity="0.40"/><circle cx="4.3" cy="294.3" r="1.8" fill="#f0d78c" opacity="0.25"/><circle cx="296.5" cy="326.1" r="0.9" fill="#f0d78c" opacity="0.46"/><circle cx="399.5" cy="521.5" r="0.9" fill="#f0d78c" opacity="0.46"/><circle cx="204.5" cy="209.8" r="1.4" fill="#f0d78c" opacity="0.41"/><circle cx="121.4" cy="317.7" r="0.6" fill="#f0d78c" opacity="0.43"/><circle cx="367.5" cy="506.1" r="0.9" fill="#f0d78c" opacity="0.22"/><circle cx="123.1" cy="42.4" r="1.0" fill="#f0d78c" opacity="0.55"/><circle cx="153.6" cy="164.0" r="1.3" fill="#f0d78c" opacity="0.49"/><circle cx="98.5" cy="96.7" r="0.6" fill="#f0d78c" opacity="0.52"/><circle cx="27.0" cy="165.3" r="1.8" fill="#f0d78c" opacity="0.51"/><circle cx="259.9" cy="238.5" r="0.9" fill="#f0d78c" opacity="0.48"/><circle cx="259.2" cy="226.5" r="1.2" fill="#f0d78c" opacity="0.69"/><circle cx="182.7" cy="391.9" r="1.8" fill="#f0d78c" opacity="0.62"/><circle cx="307.0" cy="354.6" r="2.0" fill="#f0d78c" opacity="0.23"/><circle cx="316.1" cy="148.9" r="2.0" fill="#f0d78c" opacity="0.56"/><circle cx="56.9" cy="535.6" r="1.8" fill="#f0d78c" opacity="0.21"/><circle cx="161.5" cy="325.4" r="1.0" fill="#f0d78c" opacity="0.57"/><circle cx="136.0" cy="237.3" r="1.1" fill="#f0d78c" opacity="0.47"/><circle cx="316.3" cy="409.6" r="1.4" fill="#f0d78c" opacity="0.61"/><circle cx="90.0" cy="524.3" r="1.9" fill="#f0d78c" opacity="0.34"/><circle cx="385.5" cy="304.9" r="0.9" fill="#f0d78c" opacity="0.25"/><circle cx="27.5" cy="387.4" r="1.6" fill="#f0d78c" opacity="0.66"/><circle cx="359.3" cy="204.8" r="1.3" fill="#f0d78c" opacity="0.36"/><circle cx="131.3" cy="165.1" r="1.1" fill="#f0d78c" opacity="0.23"/><circle cx="257.3" cy="282.1" r="2.0" fill="#f0d78c" opacity="0.69"/><circle cx="36.0" cy="300.1" r="1.6" fill="#f0d78c" opacity="0.48"/><circle cx="40.1" cy="191.2" r="1.0" fill="#f0d78c" opacity="0.25"/><circle cx="72.3" cy="467.3" r="2.0" fill="#f0d78c" opacity="0.54"/><circle cx="186.7" cy="63.5" r="0.9" fill="#f0d78c" opacity="0.53"/><circle cx="378.5" cy="196.6" r="1.7" fill="#f0d78c" opacity="0.64"/><circle cx="139.1" cy="196.1" r="1.0" fill="#f0d78c" opacity="0.54"/><circle cx="278.2" cy="428.4" r="1.6" fill="#f0d78c" opacity="0.33"/><circle cx="213.3" cy="554.6" r="1.2" fill="#f0d78c" opacity="0.24"/><circle cx="324.4" cy="402.0" r="1.7" fill="#f0d78c" opacity="0.51"/><circle cx="177.1" cy="88.1" r="1.8" fill="#f0d78c" opacity="0.23"/><circle cx="210.9" cy="518.5" r="2.0" fill="#f0d78c" opacity="0.37"/><circle cx="94.9" cy="338.2" r="0.5" fill="#f0d78c" opacity="0.31"/><circle cx="150.1" cy="535.9" r="0.9" fill="#f0d78c" opacity="0.55"/><circle cx="238.2" cy="461.7" r="2.0" fill="#f0d78c" opacity="0.37"/><circle cx="117.3" cy="378.2" r="1.4" fill="#f0d78c" opacity="0.25"/><circle cx="63.8" cy="465.3" r="1.5" fill="#f0d78c" opacity="0.63"/><circle cx="161.8" cy="197.4" r="0.8" fill="#f0d78c" opacity="0.58"/><circle cx="258.2" cy="335.2" r="0.9" fill="#f0d78c" opacity="0.67"/><circle cx="185.0" cy="249.4" r="1.5" fill="#f0d78c" opacity="0.31"/>
  <circle cx="200" cy="240" r="65.09451303155006" fill="none" stroke="#c9a84c" stroke-opacity="0.08" stroke-width="1.4390689300411523"/><circle cx="200" cy="240" r="82.81104252400549" fill="none" stroke="#c9a84c" stroke-opacity="0.12" stroke-width="1.2992712620027436"/><circle cx="200" cy="240" r="111.77860082304527" fill="none" stroke="#c9a84c" stroke-opacity="0.16" stroke-width="2.6142061042524007"/><circle cx="200" cy="240" r="126.6144718792867" fill="none" stroke="#c9a84c" stroke-opacity="0.20" stroke-width="2.2233796296296298"/><circle cx="200" cy="240" r="152.30631001371742" fill="none" stroke="#c9a84c" stroke-opacity="0.24" stroke-width="2.6700017146776407"/><circle cx="200" cy="240" r="174.4343621399177" fill="none" stroke="#c9a84c" stroke-opacity="0.28" stroke-width="2.423208161865569"/><circle cx="200" cy="240" r="198.7270233196159" fill="none" stroke="#c9a84c" stroke-opacity="0.32" stroke-width="1.4336162551440328"/><circle cx="200" cy="240" r="219.9497256515775" fill="none" stroke="#c9a84c" stroke-opacity="0.36" stroke-width="2.022213648834019"/>
  <text x="200" y="270" font-family="serif" font-size="140" text-anchor="middle" fill="#f0d78c" opacity="0.85">🎷</text>
  <rect x="16" y="16" width="368" height="528" fill="none" stroke="#c9a84c" stroke-width="6" opacity="0.7"/>
  <rect x="20" y="440" width="360" height="100" fill="#000" opacity="0.55"/>
  <text x="200" y="475" font-family="serif" font-size="22" font-weight="bold" text-anchor="middle" fill="#f0d78c">Brass Tycoon</text>
  <text x="200" y="500" font-family="sans-serif" font-size="11" text-anchor="middle" fill="#c9a84c" letter-spacing="3">ROARING 1920S</text>
  <text x="200" y="525" font-family="sans-serif" font-size="10" text-anchor="middle" fill="#ffffff" opacity="0.7" letter-spacing="2">LEGENDARY</text>
</svg>