<svg xmlns="http://www.w3.org/2000/svg" viewBox="0 0 400 560" preserveAspectRatio="xMidYMid slice">
  <defs>
    <linearGradient id="bg" x1="0" y1="0" x2="0" y2="1">
      <stop offset="0" stop-color="#050a1a"/>
      <stop offset="1" stop-color="#0f1f3d"/>
    </linearGradient>
    <radialGradient id="glow" cx="50%" cy="42%" r="50%">
      <stop offset="0" stop-color="#3acff5" stop-opacity="0.55"/>
      <stop offset="0.5" stop-color="#3acff5" stop-opacity="0.12"/>
      <stop offset="1" stop-color="#3acff5" stop-opacity="0"/>
    </radialGradient>
  </defs>
  <rect width="400" height="560" fill="url(#bg)"/>
  <rect width="400" height="560" fill="url(#glow)"/>
  <circle cx="219.5" cy="291.8" r="1.5" fill="#a855f7" opacity="0.63"/><circle cx="110.5" cy="487.7" r="0.8" fill="#a855f7" opacity="0.45"/><circle cx="286.2" cy="515.5" r="1.4" fill="#a855f7" opacity="0.49"/><circle cx="193.7" cy="15.5" r="1.8" fill="#a855f7" opacity="0.35"/><circle cx="64.9" cy="38.6" r="1.7" fill="#a855f7" opacity="0.42"/><circle cx="206.1" cy="183.8" r="0.9" fill="#a855f7" opacity="0.53"/><circle cx="153.1" cy="29.5" r="1.9" fill="#a855f7" opacity="0.38"/><circle cx="93.5" cy="377.5" r="1.5" fill="#a855f7" opacity="0.31"/><circle cx="155.7" cy="391.4" r="1.1" fill="#a855f7" opacity="0.43"/><circle cx="364.4" cy="147.2" r="1.0" fill="#a855f7" opacity="0.55"/><circle cx="62.8" cy="198.0" r="1.2" fill="#a855f7" opacity="0.46"/><circle cx="1.5" cy="391.6" r="1.7" fill="#a855f7" opacity="0.54"/><circle cx="294.1" cy="182.0" r="1.7" fill="#a855f7" opacity="0.21"/><circle cx="239.4" cy="433.2" r="2.0" fill="#a855f7" opacity="0.20"/><circle cx="10.3" cy="557.8" r="2.0" fill="#a855f7" opacity="0.68"/><circle cx="209.1" cy="507.1" r="0.5" fill="#a855f7" opacity="0.68"/><circle cx="90.2" cy="336.7" r="1.6" fill="#a855f7" opacity="0.37"/><circle cx="48.7" cy="143.1" r="1.5" fill="#a855f7" opacity="0.20"/><circle cx="375.9" cy="376.0" r="1.5" fill="#a855f7" opacity="0.30"/><circle cx="281.7" cy="281.6" r="1.2" fill="#a855f7" opacity="0.30"/><circle cx="383.4" cy="81.1" r="1.4" fill="#a855f7" opacity="0.42"/><circle cx="261.2" cy="161.8" r="1.0" fill="#a855f7" opacity="0.40"/><circle cx="280.6" cy="81.3" r="1.7" fill="#a855f7" opacity="0.33"/><circle cx="81.1" cy="185.0" r="1.0" fill="#a855f7" opacity="0.68"/><circle cx="131.7" cy="238.1" r="1.7" fill="#a855f7" opacity="0.32"/><circle cx="353.6" cy="109.1" r="1.2" fill="#a855f7" opacity="0.27"/><circle cx="208.4" cy="268.2" r="1.4" fill="#a855f7" opacity="0.30"/><circle cx="254.1" cy="418.1" r="1.5" fill="#a855f7" opacity="0.39"/><circle cx="367.3" cy="178.5" r="0.7" fill="#a855f7" opacity="0.48"/><circle cx="232.0" cy="144.0" r="0.6" fill="#a855f7" opacity="0.63"/><circle cx="95.0" cy="515.0" r="1.4" fill="#a855f7" opacity="0.43"/><circle cx="188.5" cy="102.6" r="1.0" fill="#a855f7" opacity="0.28"/><circle cx="18.5" cy="185.6" r="1.1" fill="#a855f7" opacity="0.50"/><circle cx="321.1" cy="342.4" r="0.9" fill="#a855f7" opacity="0.29"/><circle cx="83.7" cy="254.9" r="1.9" fill="#a855f7" opacity="0.51"/><circle cx="234.7" cy="206.6" r="0.8" fill="#a855f7" opacity="0.24"/><circle cx="399.0" cy="273.5" r="1.0" fill="#a855f7" opacity="0.30"/><circle cx="319.6" cy="448.7" r="1.1" fill="#a855f7" opacity="0.49"/><circle cx="347.2" cy="20.1" r="0.9" fill="#a855f7" opacity="0.68"/><circle cx="195.4" cy="121.6" r="1.2" fill="#a855f7" opacity="0.29"/><circle cx="363.0" cy="497.3" r="1.3" fill="#a855f7" opacity="0.57"/><circle cx="222.7" cy="559.6" r="0.7" fill="#a855f7" opacity="0.66"/><circle cx="377.0" cy="260.1" r="1.1" fill="#a855f7" opacity="0.60"/><circle cx="80.4" cy="214.0" r="2.0" fill="#a855f7" opacity="0.57"/><circle cx="127.8" cy="518.3" r="1.3" fill="#a855f7" opacity="0.51"/><circle cx="10.5" cy="502.2" r="1.5" fill="#a855f7" opacity="0.55"/><circle cx="138.6" cy="532.3" r="1.1" fill="#a855f7" opacity="0.33"/><circle cx="329.1" cy="269.6" r="0.6" fill="#a855f7" opacity="0.56"/><circle cx="162.5" cy="101.4" r="0.6" fill="#a855f7" opacity="0.49"/><circle cx="4.1" cy="145.3" r="1.1" fill="#a855f7" opacity="0.69"/>
  <circle cx="200" cy="240" r="67.27548010973936" fill="none" stroke="#3acff5" stroke-opacity="0.08" stroke-width="2.732767489711934"/><circle cx="200" cy="240" r="85.57225651577504" fill="none" stroke="#3acff5" stroke-opacity="0.12" stroke-width="1.8121056241426612"/><circle cx="200" cy="240" r="111.26820987654321" fill="none" stroke="#3acff5" stroke-opacity="0.16" stroke-width="1.8276577503429356"/><circle cx="200" cy="240" r="127.86951303155007" fill="none" stroke="#3acff5" stroke-opacity="0.20" stroke-width="2.507818930041152"/><circle cx="200" cy="240" r="150.58604252400548" fill="none" stroke="#3acff5" stroke-opacity="0.24" stroke-width="2.6180212620027437"/><circle cx="200" cy="240" r="176.55360082304526" fill="none" stroke="#3acff5" stroke-opacity="0.28" stroke-width="2.1829561042524004"/>
  <text x="200" y="270" font-family="sans-serif" font-size="140" text-anchor="middle" fill="#a855f7" opacity="0.85">💎</text>
  <rect x="8" y="8" width="384" height="544" fill="none" stroke="#3acff5" stroke-width="3" opacity="0.7"/>
  <rect x="20" y="440" width="360" height="100" fill="#000" opacity="0.55"/>
  <text x="200" y="475" font-family="sans-serif" font-size="22" font-weight="bold" text-anchor="middle" fill="#a855f7">Chrome Crown</text>
  <text x="200" y="500" font-family="sans-serif" font-size="11" text-anchor="middle" fill="#3acff5" letter-spacing="3">NEON 2020S</text>
  <text x="200" y="525" font-family="sans-serif" font-size="10" text-anchor="middle" fill="#ffffff" opacity="0.7" letter-spacing="2">RARE</text>
</svg>