<svg xmlns="http://www.w3.org/2000/svg" viewBox="0 0 400 560" preserveAspectRatio="xMidYMid slice">
  <defs>
    <linearGradient id="bg" x1="0" y1="0" x2="0" y2="1">
      <stop offset="0" stop-color="#1a0533"/>
      <stop offset="1" stop-color="#3d0f5c"/>
    </linearGradient>
    <radialGradient id="glow" cx="50%" cy="42%" r="50%">
      <stop offset="0" stop-color="#e94ec7" stop-opacity="0.55"/>
      <stop offset="0.5" stop-color="#e94ec7" stop-opacity="0.12"/>
      <stop offset="1" stop-color="#e94ec7" stop-opacity="0"/>
    </radialGradient>
  </defs>
  <rect width="400" height="560" fill="url(#bg)"/>
  <rect width="400" height="560" fill="url(#glow)"/>
  <circle cx="136.4" cy="555.9" r="2.0" fill="#ff9f43" opacity="0.43"/><circle cx="158.7" cy="465.5" r="1.7" fill="#ff9f43" opacity="0.60"/><circle cx="55.8" cy="400.5" r="1.4" fill="#ff9f43" opacity="0.37"/><circle cx="267.4" cy="146.5" r="1.7" fill="#ff9f43" opacity="0.23"/><circle cx="62.5" cy="28.4" r="1.0" fill="#ff9f43" opacity="0.56"/><circle cx="162.2" cy="475.0" r="1.0" fill="#ff9f43" opacity="0.36"/><circle cx="28.1" cy="276.3" r="0.8" fill="#ff9f43" opacity="0.40"/><circle cx="218.2" cy="255.0" r="0.9" fill="#ff9f43" opacity="0.66"/><circle cx="209.2" cy="31.0" r="0.6" fill="#ff9f43" opacity="0.61"/><circle cx="85.0" cy="198.7" r="1.6" fill="#ff9f43" opacity="0.27"/><circle cx="92.4" cy="398.7" r="0.9" fill="#ff9f43" opacity="0.25"/><circle cx="63.7" cy="1.8" r="1.1" fill="#ff9f43" opacity="0.45"/><circle cx="304.9" cy="287.1" r="0.7" fill="#ff9f43" opacity="0.68"/><circle cx="351.8" cy="272.7" r="0.5" fill="#ff9f43" opacity="0.66"/><circle cx="392.2" cy="200.8" r="0.5" fill="#ff9f43" opacity="0.21"/><circle cx="154.4" cy="354.7" r="0.6" fill="#ff9f43" opacity="0.46"/><circle cx="63.1" cy="250.5" r="0.8" fill="#ff9f43" opacity="0.21"/><circle cx="261.5" cy="441.2" r="1.4" fill="#ff9f43" opacity="0.24"/><circle cx="300.2" cy="214.9" r="0.7" fill="#ff9f43" opacity="0.44"/><circle cx="292.9" cy="145.2" r="1.1" fill="#ff9f43" opacity="0.24"/><circle cx="338.2" cy="536.5" r="1.8" fill="#ff9f43" opacity="0.36"/><circle cx="209.0" cy="241.0" r="0.6" fill="#ff9f43" opacity="0.46"/><circle cx="107.8" cy="330.4" r="1.1" fill="#ff9f43" opacity="0.59"/><circle cx="89.0" cy="299.9" r="1.0" fill="#ff9f43" opacity="0.40"/><circle cx="147.4" cy="246.4" r="1.3" fill="#ff9f43" opacity="0.36"/><circle cx="174.6" cy="59.2" r="1.7" fill="#ff9f43" opacity="0.58"/><circle cx="180.5" cy="104.8" r="1.8" fill="#ff9f43" opacity="0.21"/><circle cx="382.1" cy="44.4" r="0.8" fill="#ff9f43" opacity="0.45"/><circle cx="360.0" cy="265.1" r="0.9" fill="#ff9f43" opacity="0.56"/><circle cx="79.4" cy="324.5" r="1.9" fill="#ff9f43" opacity="0.60"/><circle cx="379.8" cy="8.3" r="1.6" fill="#ff9f43" opacity="0.58"/><circle cx="130.5" cy="201.4" r="1.1" fill="#ff9f43" opacity="0.35"/><circle cx="52.3" cy="212.4" r="1.0" fill="#ff9f43" opacity="0.43"/><circle cx="7.1" cy="511.4" r="1.6" fill="#ff9f43" opacity="0.58"/><circle cx="152.9" cy="241.3" r="0.6" fill="#ff9f43" opacity="0.29"/><circle cx="366.1" cy="141.7" r="1.6" fill="#ff9f43" opacity="0.51"/><circle cx="330.7" cy="247.2" r="1.9" fill="#ff9f43" opacity="0.29"/><circle cx="293.7" cy="198.3" r="1.6" fill="#ff9f43" opacity="0.21"/><circle cx="87.2" cy="485.9" r="1.6" fill="#ff9f43" opacity="0.68"/><circle cx="17.3" cy="148.9" r="0.5" fill="#ff9f43" opacity="0.53"/><circle cx="19.8" cy="445.7" r="0.7" fill="#ff9f43" opacity="0.45"/><circle cx="282.4" cy="498.2" r="0.5" fill="#ff9f43" opacity="0.28"/><circle cx="133.5" cy="29.8" r="1.4" fill="#ff9f43" opacity="0.64"/><circle cx="397.7" cy="236.7" r="1.9" fill="#ff9f43" opacity="0.33"/><circle cx="18.4" cy="551.9" r="0.9" fill="#ff9f43" opacity="0.64"/><circle cx="146.0" cy="263.4" r="1.1" fill="#ff9f43" opacity="0.46"/><circle cx="94.2" cy="504.8" r="1.8" fill="#ff9f43" opacity="0.70"/><circle cx="361.7" cy="460.5" r="0.8" fill="#ff9f43" opacity="0.60"/><circle cx="321.4" cy="102.8" r="2.0" fill="#ff9f43" opacity="0.31"/><circle cx="175.8" cy="503.3" r="1.3" fill="#ff9f43" opacity="0.38"/><circle cx="379.1" cy="37.3" r="1.0" fill="#ff9f43" opacity="0.48"/><circle cx="126.5" cy="481.5" r="0.7" fill="#ff9f43" opacity="0.54"/><circle cx="109.3" cy="45.5" r="1.3" fill="#ff9f43" opacity="0.21"/><circle cx="337.3" cy="215.5" r="1.3" fill="#ff9f43" opacity="0.61"/><circle cx="227.9" cy="92.9" r="1.2" fill="#ff9f43" opacity="0.47"/><circle cx="161.3" cy="64.7" r="1.5" fill="#ff9f43" opacity="0.52"/><circle cx="102.9" cy="248.5" r="0.9" fill="#ff9f43" opacity="0.34"/><circle cx="92.2" cy="430.1" r="1.4" fill="#ff9f43" opacity="0.43"/><circle cx="198.4" cy="374.3" r="1.3" fill="#ff9f43" opacity="0.64"/><circle cx="342.5" cy="509.7" r="1.0" fill="#ff9f43" opacity="0.50"/>
  <circle cx="200" cy="240" r="62.83587105624143" fill="none" stroke="#e94ec7" stroke-opacity="0.08" stroke-width="1.5318158436213993"/><circle cx="200" cy="240" r="85.36721536351166" fill="none" stroke="#e94ec7" stroke-opacity="0.12" stroke-width="1.0401663237311385"/><circle cx="200" cy="240" r="104.03847736625515" fill="none" stroke="#e94ec7" stroke-opacity="0.16" stroke-width="2.892138203017833"/><circle cx="200" cy="240" r="130.8002743484225" fill="none" stroke="#e94ec7" stroke-opacity="0.20" stroke-width="1.260570987654321"/><circle cx="200" cy="240" r="155.9735939643347" fill="none" stroke="#e94ec7" stroke-opacity="0.24" stroke-width="2.0220078875171468"/><circle cx="200" cy="240" r="170.47201646090534" fill="none" stroke="#e94ec7" stroke-opacity="0.28" stroke-width="2.9789180384087794"/><circle cx="200" cy="240" r="193.35727023319615" fill="none" stroke="#e94ec7" stroke-opacity="0.32" stroke-width="1.4152520576131686"/>
  <text x="200" y="270" font-family="sans-serif" font-size="140" text-anchor="middle" fill="#ff9f43" opacity="0.85">🪩</text>
  <rect x="12" y="12" width="376" height="536" fill="none" stroke="#e94ec7" stroke-width="4.5" opacity="0.7"/>
  <rect x="20" y="440" width="360" height="100" fill="#000" opacity="0.55"/>
  <text x="200" y="475" font-family="sans-serif" font-size="22" font-weight="bold" text-anchor="middle" fill="#ff9f43">Velvet Warlord</text>
  <text x="200" y="500" font-family="sans-serif" font-size="11" text-anchor="middle" fill="#e94ec7" letter-spacing="3">COSMIC 1970S</text>
  <text x="200" y="525" font-family="sans-serif" font-size="10" text-anchor="middle" fill="#ffffff" opacity="0.7" letter-spacing="2">DIVINE</text>
</svg>