<svg xmlns="http://www.w3.org/2000/svg" viewBox="0 0 400 560" preserveAspectRatio="xMidYMid slice">
  <defs>
    <linearGradient id="bg" x1="0" y1="0" x2="0" y2="1">
      <stop offset="0" stop-color="#1a0533"/>
      <stop offset="1" stop-color="#3d0f5c"/>
    </linearGradient>
    <radialGradient id="glow" cx="50%" cy="42%" r="50%">
      <stop offset="0" stop-color="#e94ec7" stop-opacity="0.55"/>
      <stop offset="0.5" stop-color="#e94ec7" stop-opacity="0.12"/>
      <stop offset="1" stop-color="#e94ec7" stop-opacity="0"/>
    </radialGradient>
  </defs>
  <rect width="400" height="560" fill="url(#bg)"/>
  <rect width="400" height="560" fill="url(#glow)"/>
  <circle cx="22.3" cy="450.4" r="0.9" fill="#ff9f43" opacity="0.64"/><circle cx="377.1" cy="189.4" r="1.5" fill="#ff9f43" opacity="0.30"/><circle cx="122.9" cy="479.3" r="1.9" fill="#ff9f43" opacity="0.50"/><circle cx="336.1" cy="379.7" r="1.5" fill="#ff9f43" opacity="0.22"/><circle cx="300.7" cy="485.2" r="1.8" fill="#ff9f43" opacity="0.50"/><circle cx="263.7" cy="436.3" r="1.5" fill="#ff9f43" opacity="0.42"/><circle cx="57.2" cy="163.9" r="1.5" fill="#ff9f43" opacity="0.40"/><circle cx="387.3" cy="386.9" r="1.9" fill="#ff9f43" opacity="0.24"/><circle cx="389.8" cy="123.7" r="0.6" fill="#ff9f43" opacity="0.66"/><circle cx="252.4" cy="176.2" r="1.9" fill="#ff9f43" opacity="0.50"/><circle cx="103.5" cy="267.8" r="1.3" fill="#ff9f43" opacity="0.36"/><circle cx="367.7" cy="474.7" r="1.8" fill="#ff9f43" opacity="0.55"/><circle cx="388.4" cy="229.9" r="0.8" fill="#ff9f43" opacity="0.36"/><circle cx="116.0" cy="501.4" r="0.9" fill="#ff9f43" opacity="0.67"/><circle cx="64.2" cy="182.8" r="1.7" fill="#ff9f43" opacity="0.41"/><circle cx="331.7" cy="138.5" r="0.7" fill="#ff9f43" opacity="0.31"/><circle cx="291.4" cy="340.8" r="1.9" fill="#ff9f43" opacity="0.53"/><circle cx="145.8" cy="181.3" r="1.2" fill="#ff9f43" opacity="0.59"/><circle cx="349.1" cy="275.3" r="0.9" fill="#ff9f43" opacity="0.69"/><circle cx="96.5" cy="159.5" r="0.6" fill="#ff9f43" opacity="0.25"/><circle cx="79.3" cy="283.5" r="1.2" fill="#ff9f43" opacity="0.42"/><circle cx="307.3" cy="453.5" r="1.2" fill="#ff9f43" opacity="0.33"/><circle cx="197.9" cy="330.9" r="1.1" fill="#ff9f43" opacity="0.68"/><circle cx="131.3" cy="302.7" r="1.4" fill="#ff9f43" opacity="0.23"/><circle cx="72.9" cy="486.5" r="0.8" fill="#ff9f43" opacity="0.56"/><circle cx="62.2" cy="108.1" r="1.3" fill="#ff9f43" opacity="0.64"/><circle cx="168.4" cy="52.3" r="1.2" fill="#ff9f43" opacity="0.36"/><circle cx="312.5" cy="187.7" r="0.9" fill="#ff9f43" opacity="0.21"/><circle cx="356.2" cy="424.6" r="0.9" fill="#ff9f43" opacity="0.48"/><circle cx="57.5" cy="465.6" r="1.6" fill="#ff9f43" opacity="0.63"/><circle cx="92.9" cy="490.4" r="1.0" fill="#ff9f43" opacity="0.63"/><circle cx="146.5" cy="533.7" r="0.7" fill="#ff9f43" opacity="0.52"/><circle cx="65.0" cy="235.9" r="0.6" fill="#ff9f43" opacity="0.38"/><circle cx="80.7" cy="87.9" r="2.0" fill="#ff9f43" opacity="0.63"/><circle cx="99.7" cy="248.7" r="1.8" fill="#ff9f43" opacity="0.59"/><circle cx="57.8" cy="296.6" r="0.8" fill="#ff9f43" opacity="0.45"/><circle cx="142.6" cy="473.5" r="1.9" fill="#ff9f43" opacity="0.57"/><circle cx="82.6" cy="503.0" r="0.6" fill="#ff9f43" opacity="0.54"/><circle cx="302.4" cy="461.0" r="1.5" fill="#ff9f43" opacity="0.67"/><circle cx="145.2" cy="340.6" r="1.8" fill="#ff9f43" opacity="0.26"/>
  <circle cx="200" cy="240" r="67.00829903978052" fill="none" stroke="#e94ec7" stroke-opacity="0.08" stroke-width="1.4699845679012347"/><circle cx="200" cy="240" r="88.99643347050754" fill="none" stroke="#e94ec7" stroke-opacity="0.12" stroke-width="1.8795696159122084"/><circle cx="200" cy="240" r="109.19855967078189" fill="none" stroke="#e94ec7" stroke-opacity="0.16" stroke-width="1.3735168038408778"/><circle cx="200" cy="240" r="128.00973936899862" fill="none" stroke="#e94ec7" stroke-opacity="0.20" stroke-width="2.569110082304527"/><circle cx="200" cy="240" r="150.86207133058986" fill="none" stroke="#e94ec7" stroke-opacity="0.24" stroke-width="2.4540037722908092"/>
  <text x="200" y="270" font-family="sans-serif" font-size="140" text-anchor="middle" fill="#ff9f43" opacity="0.85">🪩</text>
  <rect x="4" y="4" width="392" height="552" fill="none" stroke="#e94ec7" stroke-width="1.5" opacity="0.7"/>
  <rect x="20" y="440" width="360" height="100" fill="#000" opacity="0.55"/>
  <text x="200" y="475" font-family="sans-serif" font-size="22" font-weight="bold" text-anchor="middle" fill="#ff9f43">Astro Rider</text>
  <text x="200" y="500" font-family="sans-serif" font-size="11" text-anchor="middle" fill="#e94ec7" letter-spacing="3">COSMIC 1970S</text>
  <text x="200" y="525" font-family="sans-serif" font-size="10" text-anchor="middle" fill="#ffffff" opacity="0.7" letter-spacing="2">COMMON</text>
</svg>