<svg xmlns="http://www.w3.org/2000/svg" viewBox="0 0 400 560" preserveAspectRatio="xMidYMid slice">
  <defs>
    <linearGradient id="bg" x1="0" y1="0" x2="0" y2="1">
      <stop offset="0" stop-color="#1a0f04"/>
      <stop offset="1" stop-color="#3d2410"/>
    </linearGradient>
    <radialGradient id="glow" cx="50%" cy="42%" r="50%">
      <stop offset="0" stop-color="#d4a84c" stop-opacity="0.55"/>
      <stop offset="0.5" stop-color="#d4a84c" stop-opacity="0.12"/>
      <stop offset="1" stop-color="#d4a84c" stop-opacity="0"/>
    </radialGradient>
  </defs>
  <rect width="400" height="560" fill="url(#bg)"/>
  <rect width="400" height="560" fill="url(#glow)"/>
  <circle cx="351.7" cy="121.9" r="1.2" fill="#f5d77a" opacity="0.54"/><circle cx="139.4" cy="429.0" r="1.8" fill="#f5d77a" opacity="0.52"/><circle cx="276.1" cy="429.7" r="1.3" fill="#f5d77a" opacity="0.53"/><circle cx="356.8" cy="220.6" r="0.7" fill="#f5d77a" opacity="0.51"/><circle cx="272.9" cy="251.2" r="1.1" fill="#f5d77a" opacity="0.60"/><circle cx="34.2" cy="327.9" r="0.8" fill="#f5d77a" opacity="0.42"/><circle cx="258.2" cy="111.9" r="1.9" fill="#f5d77a" opacity="0.69"/><circle cx="124.9" cy="550.4" r="0.5" fill="#f5d77a" opacity="0.66"/><circle cx="399.8" cy="80.9" r="1.2" fill="#f5d77a" opacity="0.40"/><circle cx="322.5" cy="169.1" r="1.4" fill="#f5d77a" opacity="0.41"/><circle cx="362.1" cy="20.0" r="1.1" fill="#f5d77a" opacity="0.54"/><circle cx="39.5" cy="62.1" r="0.5" fill="#f5d77a" opacity="0.31"/><circle cx="16.5" cy="205.6" r="1.7" fill="#f5d77a" opacity="0.49"/><circle cx="51.1" cy="153.3" r="0.7" fill="#f5d77a" opacity="0.56"/><circle cx="19.9" cy="84.8" r="1.3" fill="#f5d77a" opacity="0.47"/><circle cx="6.7" cy="34.7" r="0.8" fill="#f5d77a" opacity="0.28"/><circle cx="258.6" cy="203.6" r="2.0" fill="#f5d77a" opacity="0.56"/><circle cx="207.7" cy="522.3" r="1.6" fill="#f5d77a" opacity="0.23"/><circle cx="160.0" cy="29.8" r="1.1" fill="#f5d77a" opacity="0.60"/><circle cx="51.4" cy="544.3" r="1.4" fill="#f5d77a" opacity="0.38"/><circle cx="69.5" cy="67.9" r="0.8" fill="#f5d77a" opacity="0.41"/><circle cx="342.8" cy="4.0" r="0.7" fill="#f5d77a" opacity="0.30"/><circle cx="96.0" cy="428.7" r="1.4" fill="#f5d77a" opacity="0.35"/><circle cx="272.2" cy="215.0" r="1.4" fill="#f5d77a" opacity="0.36"/><circle cx="22.0" cy="330.9" r="0.6" fill="#f5d77a" opacity="0.20"/><circle cx="259.1" cy="230.1" r="1.5" fill="#f5d77a" opacity="0.30"/><circle cx="282.2" cy="217.0" r="1.5" fill="#f5d77a" opacity="0.39"/><circle cx="264.1" cy="263.7" r="1.8" fill="#f5d77a" opacity="0.64"/><circle cx="7.4" cy="321.9" r="1.2" fill="#f5d77a" opacity="0.57"/><circle cx="366.3" cy="447.0" r="0.5" fill="#f5d77a" opacity="0.35"/><circle cx="135.9" cy="175.7" r="0.8" fill="#f5d77a" opacity="0.44"/><circle cx="7.5" cy="517.5" r="1.5" fill="#f5d77a" opacity="0.48"/><circle cx="391.1" cy="158.6" r="1.0" fill="#f5d77a" opacity="0.58"/><circle cx="303.9" cy="440.4" r="1.5" fill="#f5d77a" opacity="0.46"/><circle cx="126.2" cy="70.0" r="1.9" fill="#f5d77a" opacity="0.37"/><circle cx="223.3" cy="285.0" r="0.9" fill="#f5d77a" opacity="0.39"/><circle cx="234.9" cy="311.0" r="0.5" fill="#f5d77a" opacity="0.50"/><circle cx="230.0" cy="472.9" r="2.0" fill="#f5d77a" opacity="0.58"/><circle cx="129.7" cy="79.5" r="1.3" fill="#f5d77a" opacity="0.63"/><circle cx="195.6" cy="160.8" r="1.8" fill="#f5d77a" opacity="0.42"/>
  <circle cx="200" cy="240" r="62.88765432098766" fill="none" stroke="#d4a84c" stroke-opacity="0.08" stroke-width="1.94085219478738"/><circle cx="200" cy="240" r="87.15562414266118" fill="none" stroke="#d4a84c" stroke-opacity="0.12" stroke-width="1.5376800411522633"/><circle cx="200" cy="240" r="109.53882030178326" fill="none" stroke="#d4a84c" stroke-opacity="0.16" stroke-width="2.5645490397805215"/><circle cx="200" cy="240" r="127.17304526748971" fill="none" stroke="#d4a84c" stroke-opacity="0.20" stroke-width="1.046150548696845"/><circle cx="200" cy="240" r="154.6755829903978" fill="none" stroke="#d4a84c" stroke-opacity="0.24" stroke-width="1.8219907407407407"/>
  <text x="200" y="270" font-family="serif" font-size="140" text-anchor="middle" fill="#f5d77a" opacity="0.85">☥</text>
  <rect x="4" y="4" width="392" height="552" fill="none" stroke="#d4a84c" stroke-width="1.5" opacity="0.7"/>
  <rect x="20" y="440" width="360" height="100" fill="#000" opacity="0.55"/>
  <text x="200" y="475" font-family="serif" font-size="22" font-weight="bold" text-anchor="middle" fill="#f5d77a">Sand Lion</text>
  <text x="200" y="500" font-family="sans-serif" font-size="11" text-anchor="middle" fill="#d4a84c" letter-spacing="3">DYNASTY</text>
  <text x="200" y="525" font-family="sans-serif" font-size="10" text-anchor="middle" fill="#ffffff" opacity="0.7" letter-spacing="2">COMMON</text>
</svg>