<svg xmlns="http://www.w3.org/2000/svg" viewBox="0 0 400 560" preserveAspectRatio="xMidYMid slice">
  <defs>
    <linearGradient id="bg" x1="0" y1="0" x2="0" y2="1">
      <stop offset="0" stop-color="#1a0533"/>
      <stop offset="1" stop-color="#3d0f5c"/>
    </linearGradient>
    <radialGradient id="glow" cx="50%" cy="42%" r="50%">
      <stop offset="0" stop-color="#e94ec7" stop-opacity="0.55"/>
      <stop offset="0.5" stop-color="#e94ec7" stop-opacity="0.12"/>
      <stop offset="1" stop-color="#e94ec7" stop-opacity="0"/>
    </radialGradient>
  </defs>
  <rect width="400" height="560" fill="url(#bg)"/>
  <rect width="400" height="560" fill="url(#glow)"/>
  <circle cx="120.2" cy="366.6" r="1.8" fill="#ff9f43" opacity="0.44"/><circle cx="310.8" cy="103.9" r="1.3" fill="#ff9f43" opacity="0.66"/><circle cx="144.2" cy="495.8" r="1.3" fill="#ff9f43" opacity="0.59"/><circle cx="385.8" cy="539.6" r="1.8" fill="#ff9f43" opacity="0.29"/><circle cx="275.1" cy="21.2" r="1.9" fill="#ff9f43" opacity="0.25"/><circle cx="281.4" cy="385.4" r="1.4" fill="#ff9f43" opacity="0.34"/><circle cx="325.4" cy="380.8" r="0.8" fill="#ff9f43" opacity="0.57"/><circle cx="269.1" cy="477.7" r="1.8" fill="#ff9f43" opacity="0.21"/><circle cx="270.4" cy="378.6" r="0.7" fill="#ff9f43" opacity="0.24"/><circle cx="205.8" cy="263.5" r="1.2" fill="#ff9f43" opacity="0.61"/><circle cx="159.4" cy="166.8" r="0.5" fill="#ff9f43" opacity="0.38"/><circle cx="378.0" cy="289.0" r="1.6" fill="#ff9f43" opacity="0.62"/><circle cx="293.6" cy="1.0" r="1.1" fill="#ff9f43" opacity="0.24"/><circle cx="212.6" cy="21.8" r="2.0" fill="#ff9f43" opacity="0.58"/><circle cx="70.7" cy="489.7" r="0.6" fill="#ff9f43" opacity="0.31"/><circle cx="55.5" cy="526.6" r="1.4" fill="#ff9f43" opacity="0.30"/><circle cx="295.5" cy="416.1" r="1.2" fill="#ff9f43" opacity="0.65"/><circle cx="15.3" cy="234.1" r="1.7" fill="#ff9f43" opacity="0.66"/><circle cx="158.1" cy="533.7" r="1.7" fill="#ff9f43" opacity="0.62"/><circle cx="274.6" cy="42.9" r="0.8" fill="#ff9f43" opacity="0.42"/><circle cx="78.4" cy="455.5" r="1.5" fill="#ff9f43" opacity="0.48"/><circle cx="68.1" cy="395.7" r="1.4" fill="#ff9f43" opacity="0.53"/><circle cx="16.8" cy="395.7" r="1.6" fill="#ff9f43" opacity="0.23"/><circle cx="126.7" cy="407.3" r="0.8" fill="#ff9f43" opacity="0.62"/><circle cx="52.2" cy="485.7" r="1.5" fill="#ff9f43" opacity="0.37"/><circle cx="188.5" cy="167.8" r="1.6" fill="#ff9f43" opacity="0.42"/><circle cx="26.8" cy="462.8" r="0.8" fill="#ff9f43" opacity="0.41"/><circle cx="377.1" cy="57.3" r="1.6" fill="#ff9f43" opacity="0.46"/><circle cx="256.5" cy="292.4" r="0.5" fill="#ff9f43" opacity="0.30"/><circle cx="45.5" cy="435.4" r="0.8" fill="#ff9f43" opacity="0.68"/><circle cx="109.3" cy="43.7" r="1.2" fill="#ff9f43" opacity="0.65"/><circle cx="87.6" cy="23.0" r="0.6" fill="#ff9f43" opacity="0.23"/><circle cx="49.3" cy="138.3" r="2.0" fill="#ff9f43" opacity="0.26"/><circle cx="315.6" cy="258.2" r="1.2" fill="#ff9f43" opacity="0.27"/><circle cx="348.2" cy="292.8" r="1.5" fill="#ff9f43" opacity="0.52"/><circle cx="305.0" cy="504.9" r="0.8" fill="#ff9f43" opacity="0.49"/><circle cx="62.7" cy="514.2" r="1.1" fill="#ff9f43" opacity="0.64"/><circle cx="105.1" cy="355.2" r="1.2" fill="#ff9f43" opacity="0.52"/><circle cx="279.2" cy="228.6" r="1.2" fill="#ff9f43" opacity="0.20"/><circle cx="17.2" cy="65.0" r="2.0" fill="#ff9f43" opacity="0.61"/><circle cx="25.0" cy="23.6" r="0.7" fill="#ff9f43" opacity="0.55"/><circle cx="238.7" cy="242.6" r="1.2" fill="#ff9f43" opacity="0.23"/><circle cx="45.7" cy="404.0" r="1.8" fill="#ff9f43" opacity="0.50"/><circle cx="374.5" cy="231.2" r="1.0" fill="#ff9f43" opacity="0.46"/><circle cx="49.9" cy="360.3" r="1.8" fill="#ff9f43" opacity="0.41"/><circle cx="15.0" cy="224.4" r="1.6" fill="#ff9f43" opacity="0.65"/><circle cx="220.4" cy="231.4" r="1.5" fill="#ff9f43" opacity="0.56"/><circle cx="379.7" cy="395.1" r="1.0" fill="#ff9f43" opacity="0.57"/><circle cx="191.7" cy="459.7" r="0.8" fill="#ff9f43" opacity="0.39"/><circle cx="229.2" cy="397.5" r="1.8" fill="#ff9f43" opacity="0.21"/>
  <circle cx="200" cy="240" r="61.24104938271605" fill="none" stroke="#e94ec7" stroke-opacity="0.08" stroke-width="1.1727194787379973"/><circle cx="200" cy="240" r="85.54605624142661" fill="none" stroke="#e94ec7" stroke-opacity="0.12" stroke-width="2.889917695473251"/><circle cx="200" cy="240" r="106.18851165980796" fill="none" stroke="#e94ec7" stroke-opacity="0.16" stroke-width="2.2593792866941014"/><circle cx="200" cy="240" r="133.63755144032922" fill="none" stroke="#e94ec7" stroke-opacity="0.20" stroke-width="2.6391289437585734"/><circle cx="200" cy="240" r="155.84379286694102" fill="none" stroke="#e94ec7" stroke-opacity="0.24" stroke-width="2.202006172839506"/><circle cx="200" cy="240" r="171.12822359396432" fill="none" stroke="#e94ec7" stroke-opacity="0.28" stroke-width="2.824554183813443"/>
  <text x="200" y="270" font-family="sans-serif" font-size="140" text-anchor="middle" fill="#ff9f43" opacity="0.85">🪩</text>
  <rect x="8" y="8" width="384" height="544" fill="none" stroke="#e94ec7" stroke-width="3" opacity="0.7"/>
  <rect x="20" y="440" width="360" height="100" fill="#000" opacity="0.55"/>
  <text x="200" y="475" font-family="sans-serif" font-size="22" font-weight="bold" text-anchor="middle" fill="#ff9f43">Wah-Wah Warlord</text>
  <text x="200" y="500" font-family="sans-serif" font-size="11" text-anchor="middle" fill="#e94ec7" letter-spacing="3">COSMIC 1970S</text>
  <text x="200" y="525" font-family="sans-serif" font-size="10" text-anchor="middle" fill="#ffffff" opacity="0.7" letter-spacing="2">RARE</text>
</svg>