<svg xmlns="http://www.w3.org/2000/svg" viewBox="0 0 400 560" preserveAspectRatio="xMidYMid slice">
  <defs>
    <linearGradient id="bg" x1="0" y1="0" x2="0" y2="1">
      <stop offset="0" stop-color="#0a0a0a"/>
      <stop offset="1" stop-color="#1f1f1f"/>
    </linearGradient>
    <radialGradient id="glow" cx="50%" cy="42%" r="50%">
      <stop offset="0" stop-color="#c9a84c" stop-opacity="0.55"/>
      <stop offset="0.5" stop-color="#c9a84c" stop-opacity="0.12"/>
      <stop offset="1" stop-color="#c9a84c" stop-opacity="0"/>
    </radialGradient>
  </defs>
  <rect width="400" height="560" fill="url(#bg)"/>
  <rect width="400" height="560" fill="url(#glow)"/>
  <circle cx="186.4" cy="234.3" r="1.9" fill="#f0d78c" opacity="0.26"/><circle cx="178.6" cy="406.0" r="1.4" fill="#f0d78c" opacity="0.59"/><circle cx="381.6" cy="181.4" r="1.7" fill="#f0d78c" opacity="0.22"/><circle cx="286.5" cy="9.8" r="1.1" fill="#f0d78c" opacity="0.29"/><circle cx="303.5" cy="257.6" r="0.7" fill="#f0d78c" opacity="0.43"/><circle cx="249.6" cy="26.0" r="1.4" fill="#f0d78c" opacity="0.36"/><circle cx="105.2" cy="262.3" r="1.9" fill="#f0d78c" opacity="0.31"/><circle cx="235.7" cy="523.9" r="1.0" fill="#f0d78c" opacity="0.37"/><circle cx="280.6" cy="36.6" r="0.7" fill="#f0d78c" opacity="0.53"/><circle cx="309.1" cy="245.2" r="0.8" fill="#f0d78c" opacity="0.65"/><circle cx="242.0" cy="458.5" r="1.8" fill="#f0d78c" opacity="0.24"/><circle cx="341.2" cy="26.4" r="0.9" fill="#f0d78c" opacity="0.57"/><circle cx="364.8" cy="331.9" r="1.9" fill="#f0d78c" opacity="0.63"/><circle cx="189.1" cy="434.5" r="1.0" fill="#f0d78c" opacity="0.36"/><circle cx="298.2" cy="368.9" r="1.3" fill="#f0d78c" opacity="0.32"/><circle cx="139.0" cy="335.5" r="1.5" fill="#f0d78c" opacity="0.59"/><circle cx="343.5" cy="265.3" r="1.1" fill="#f0d78c" opacity="0.58"/><circle cx="18.1" cy="317.2" r="1.6" fill="#f0d78c" opacity="0.60"/><circle cx="298.4" cy="69.5" r="0.8" fill="#f0d78c" opacity="0.37"/><circle cx="172.1" cy="324.3" r="1.6" fill="#f0d78c" opacity="0.22"/><circle cx="167.6" cy="244.8" r="1.1" fill="#f0d78c" opacity="0.26"/><circle cx="309.6" cy="467.3" r="0.6" fill="#f0d78c" opacity="0.30"/><circle cx="341.4" cy="424.7" r="0.7" fill="#f0d78c" opacity="0.62"/><circle cx="213.4" cy="525.0" r="0.8" fill="#f0d78c" opacity="0.62"/><circle cx="39.4" cy="222.0" r="0.6" fill="#f0d78c" opacity="0.20"/><circle cx="318.1" cy="380.0" r="0.6" fill="#f0d78c" opacity="0.62"/><circle cx="22.2" cy="411.1" r="1.9" fill="#f0d78c" opacity="0.51"/><circle cx="154.4" cy="267.2" r="1.7" fill="#f0d78c" opacity="0.43"/><circle cx="368.8" cy="3.4" r="1.0" fill="#f0d78c" opacity="0.54"/><circle cx="260.6" cy="276.5" r="0.7" fill="#f0d78c" opacity="0.28"/><circle cx="121.2" cy="416.0" r="1.9" fill="#f0d78c" opacity="0.30"/><circle cx="360.3" cy="228.3" r="1.4" fill="#f0d78c" opacity="0.21"/><circle cx="395.3" cy="494.5" r="1.3" fill="#f0d78c" opacity="0.25"/><circle cx="206.5" cy="481.9" r="0.7" fill="#f0d78c" opacity="0.65"/><circle cx="159.2" cy="308.0" r="1.2" fill="#f0d78c" opacity="0.49"/><circle cx="293.0" cy="318.4" r="1.7" fill="#f0d78c" opacity="0.25"/><circle cx="277.0" cy="278.2" r="0.6" fill="#f0d78c" opacity="0.32"/><circle cx="32.2" cy="55.8" r="1.4" fill="#f0d78c" opacity="0.68"/><circle cx="220.3" cy="121.6" r="1.4" fill="#f0d78c" opacity="0.63"/><circle cx="199.4" cy="178.1" r="1.2" fill="#f0d78c" opacity="0.63"/>
  <circle cx="200" cy="240" r="67.03419067215364" fill="none" stroke="#c9a84c" stroke-opacity="0.08" stroke-width="1.674502743484225"/><circle cx="200" cy="240" r="89.89063786008231" fill="none" stroke="#c9a84c" stroke-opacity="0.12" stroke-width="1.1283264746227708"/><circle cx="200" cy="240" r="111.94873113854595" fill="none" stroke="#c9a84c" stroke-opacity="0.16" stroke-width="2.209722222222222"/><circle cx="200" cy="240" r="126.19612482853223" fill="none" stroke="#c9a84c" stroke-opacity="0.20" stroke-width="1.4618998628257889"/><circle cx="200" cy="240" r="150.2130658436214" fill="none" stroke="#c9a84c" stroke-opacity="0.24" stroke-width="1.3539951989026062"/>
  <text x="200" y="270" font-family="serif" font-size="140" text-anchor="middle" fill="#f0d78c" opacity="0.85">🎷</text>
  <rect x="4" y="4" width="392" height="552" fill="none" stroke="#c9a84c" stroke-width="1.5" opacity="0.7"/>
  <rect x="20" y="440" width="360" height="100" fill="#000" opacity="0.55"/>
  <text x="200" y="475" font-family="serif" font-size="22" font-weight="bold" text-anchor="middle" fill="#f0d78c">Bourbon Maven</text>
  <text x="200" y="500" font-family="sans-serif" font-size="11" text-anchor="middle" fill="#c9a84c" letter-spacing="3">ROARING 1920S</text>
  <text x="200" y="525" font-family="sans-serif" font-size="10" text-anchor="middle" fill="#ffffff" opacity="0.7" letter-spacing="2">COMMON</text>
</svg>