<svg xmlns="http://www.w3.org/2000/svg" viewBox="0 0 400 560" preserveAspectRatio="xMidYMid slice">
  <defs>
    <linearGradient id="bg" x1="0" y1="0" x2="0" y2="1">
      <stop offset="0" stop-color="#050a1a"/>
      <stop offset="1" stop-color="#0f1f3d"/>
    </linearGradient>
    <radialGradient id="glow" cx="50%" cy="42%" r="50%">
      <stop offset="0" stop-color="#3acff5" stop-opacity="0.55"/>
      <stop offset="0.5" stop-color="#3acff5" stop-opacity="0.12"/>
      <stop offset="1" stop-color="#3acff5" stop-opacity="0"/>
    </radialGradient>
  </defs>
  <rect width="400" height="560" fill="url(#bg)"/>
  <rect width="400" height="560" fill="url(#glow)"/>
  <circle cx="360.5" cy="288.0" r="1.5" fill="#a855f7" opacity="0.68"/><circle cx="54.4" cy="194.2" r="0.6" fill="#a855f7" opacity="0.49"/><circle cx="126.8" cy="333.1" r="0.9" fill="#a855f7" opacity="0.20"/><circle cx="395.2" cy="366.0" r="1.8" fill="#a855f7" opacity="0.53"/><circle cx="39.7" cy="120.0" r="0.5" fill="#a855f7" opacity="0.22"/><circle cx="225.8" cy="272.8" r="1.9" fill="#a855f7" opacity="0.35"/><circle cx="192.9" cy="49.9" r="1.8" fill="#a855f7" opacity="0.41"/><circle cx="10.2" cy="336.3" r="1.6" fill="#a855f7" opacity="0.26"/><circle cx="398.7" cy="440.6" r="1.7" fill="#a855f7" opacity="0.42"/><circle cx="20.2" cy="273.1" r="1.0" fill="#a855f7" opacity="0.66"/><circle cx="232.6" cy="96.3" r="1.7" fill="#a855f7" opacity="0.45"/><circle cx="112.5" cy="90.0" r="1.5" fill="#a855f7" opacity="0.26"/><circle cx="143.8" cy="288.8" r="0.6" fill="#a855f7" opacity="0.62"/><circle cx="173.5" cy="333.2" r="0.5" fill="#a855f7" opacity="0.62"/><circle cx="33.6" cy="154.1" r="0.8" fill="#a855f7" opacity="0.68"/><circle cx="30.3" cy="470.5" r="1.5" fill="#a855f7" opacity="0.61"/><circle cx="99.5" cy="300.6" r="1.9" fill="#a855f7" opacity="0.61"/><circle cx="28.8" cy="446.4" r="2.0" fill="#a855f7" opacity="0.53"/><circle cx="346.5" cy="71.4" r="1.6" fill="#a855f7" opacity="0.47"/><circle cx="277.5" cy="371.7" r="0.9" fill="#a855f7" opacity="0.25"/><circle cx="364.7" cy="220.2" r="1.6" fill="#a855f7" opacity="0.64"/><circle cx="159.0" cy="25.0" r="2.0" fill="#a855f7" opacity="0.54"/><circle cx="173.9" cy="359.8" r="1.5" fill="#a855f7" opacity="0.36"/><circle cx="108.1" cy="408.8" r="0.7" fill="#a855f7" opacity="0.34"/><circle cx="134.5" cy="144.4" r="0.7" fill="#a855f7" opacity="0.64"/><circle cx="55.5" cy="78.2" r="1.7" fill="#a855f7" opacity="0.29"/><circle cx="325.5" cy="265.6" r="1.7" fill="#a855f7" opacity="0.47"/><circle cx="139.6" cy="243.2" r="1.6" fill="#a855f7" opacity="0.62"/><circle cx="189.0" cy="460.4" r="1.0" fill="#a855f7" opacity="0.37"/><circle cx="83.7" cy="163.8" r="1.2" fill="#a855f7" opacity="0.36"/><circle cx="40.9" cy="134.5" r="1.3" fill="#a855f7" opacity="0.29"/><circle cx="41.0" cy="199.6" r="1.9" fill="#a855f7" opacity="0.43"/><circle cx="49.3" cy="476.8" r="1.6" fill="#a855f7" opacity="0.34"/><circle cx="105.3" cy="191.7" r="0.8" fill="#a855f7" opacity="0.51"/><circle cx="278.2" cy="229.2" r="1.0" fill="#a855f7" opacity="0.31"/><circle cx="88.9" cy="458.0" r="1.0" fill="#a855f7" opacity="0.24"/><circle cx="199.3" cy="228.2" r="1.1" fill="#a855f7" opacity="0.59"/><circle cx="367.2" cy="362.5" r="0.7" fill="#a855f7" opacity="0.33"/><circle cx="69.3" cy="480.7" r="1.8" fill="#a855f7" opacity="0.41"/><circle cx="189.5" cy="57.3" r="1.7" fill="#a855f7" opacity="0.38"/>
  <circle cx="200" cy="240" r="65.68065843621399" fill="none" stroke="#3acff5" stroke-opacity="0.08" stroke-width="2.3736711248285323"/><circle cx="200" cy="240" r="85.75109739368999" fill="none" stroke="#3acff5" stroke-opacity="0.12" stroke-width="1.6618569958847735"/><circle cx="200" cy="240" r="105.41824417009602" fill="none" stroke="#3acff5" stroke-opacity="0.16" stroke-width="1.1948988340192044"/><circle cx="200" cy="240" r="130.70679012345678" fill="none" stroke="#3acff5" stroke-opacity="0.20" stroke-width="1.8863768861454047"/><circle cx="200" cy="240" r="150.4562414266118" fill="none" stroke="#3acff5" stroke-opacity="0.24" stroke-width="2.7980195473251026"/>
  <text x="200" y="270" font-family="sans-serif" font-size="140" text-anchor="middle" fill="#a855f7" opacity="0.85">💎</text>
  <rect x="4" y="4" width="392" height="552" fill="none" stroke="#3acff5" stroke-width="1.5" opacity="0.7"/>
  <rect x="20" y="440" width="360" height="100" fill="#000" opacity="0.55"/>
  <text x="200" y="475" font-family="sans-serif" font-size="22" font-weight="bold" text-anchor="middle" fill="#a855f7">Crypto Oracle</text>
  <text x="200" y="500" font-family="sans-serif" font-size="11" text-anchor="middle" fill="#3acff5" letter-spacing="3">NEON 2020S</text>
  <text x="200" y="525" font-family="sans-serif" font-size="10" text-anchor="middle" fill="#ffffff" opacity="0.7" letter-spacing="2">COMMON</text>
</svg>