<svg xmlns="http://www.w3.org/2000/svg" viewBox="0 0 400 560" preserveAspectRatio="xMidYMid slice">
  <defs>
    <linearGradient id="bg" x1="0" y1="0" x2="0" y2="1">
      <stop offset="0" stop-color="#0a1a0f"/>
      <stop offset="1" stop-color="#1a3d24"/>
    </linearGradient>
    <radialGradient id="glow" cx="50%" cy="42%" r="50%">
      <stop offset="0" stop-color="#f5d23a" stop-opacity="0.55"/>
      <stop offset="0.5" stop-color="#f5d23a" stop-opacity="0.12"/>
      <stop offset="1" stop-color="#f5d23a" stop-opacity="0"/>
    </radialGradient>
  </defs>
  <rect width="400" height="560" fill="url(#bg)"/>
  <rect width="400" height="560" fill="url(#glow)"/>
  <circle cx="358.0" cy="80.5" r="1.9" fill="#3acf5c" opacity="0.36"/><circle cx="135.8" cy="21.3" r="1.1" fill="#3acf5c" opacity="0.22"/><circle cx="55.2" cy="360.7" r="1.5" fill="#3acf5c" opacity="0.51"/><circle cx="155.7" cy="324.4" r="1.9" fill="#3acf5c" opacity="0.24"/><circle cx="106.3" cy="237.5" r="0.7" fill="#3acf5c" opacity="0.26"/><circle cx="228.2" cy="528.5" r="1.3" fill="#3acf5c" opacity="0.58"/><circle cx="383.0" cy="547.6" r="1.2" fill="#3acf5c" opacity="0.49"/><circle cx="328.7" cy="557.5" r="0.8" fill="#3acf5c" opacity="0.45"/><circle cx="341.9" cy="177.9" r="1.1" fill="#3acf5c" opacity="0.42"/><circle cx="106.6" cy="3.4" r="0.7" fill="#3acf5c" opacity="0.45"/><circle cx="269.6" cy="234.5" r="1.1" fill="#3acf5c" opacity="0.62"/><circle cx="263.0" cy="242.0" r="1.9" fill="#3acf5c" opacity="0.34"/><circle cx="393.1" cy="185.1" r="1.6" fill="#3acf5c" opacity="0.44"/><circle cx="195.6" cy="201.8" r="1.0" fill="#3acf5c" opacity="0.61"/><circle cx="258.2" cy="534.3" r="1.6" fill="#3acf5c" opacity="0.69"/><circle cx="309.3" cy="346.0" r="1.7" fill="#3acf5c" opacity="0.30"/><circle cx="373.6" cy="272.9" r="1.5" fill="#3acf5c" opacity="0.24"/><circle cx="194.2" cy="308.1" r="1.2" fill="#3acf5c" opacity="0.30"/><circle cx="121.8" cy="299.5" r="0.6" fill="#3acf5c" opacity="0.37"/><circle cx="270.0" cy="261.0" r="0.6" fill="#3acf5c" opacity="0.36"/><circle cx="337.5" cy="496.7" r="1.8" fill="#3acf5c" opacity="0.50"/><circle cx="97.3" cy="419.0" r="0.8" fill="#3acf5c" opacity="0.47"/><circle cx="151.6" cy="539.5" r="0.8" fill="#3acf5c" opacity="0.29"/><circle cx="155.0" cy="353.4" r="1.3" fill="#3acf5c" opacity="0.63"/><circle cx="102.3" cy="517.7" r="1.7" fill="#3acf5c" opacity="0.44"/><circle cx="285.1" cy="361.6" r="1.6" fill="#3acf5c" opacity="0.37"/><circle cx="313.1" cy="251.7" r="0.8" fill="#3acf5c" opacity="0.52"/><circle cx="3.7" cy="409.0" r="1.4" fill="#3acf5c" opacity="0.62"/><circle cx="137.1" cy="100.9" r="1.1" fill="#3acf5c" opacity="0.43"/><circle cx="278.7" cy="4.7" r="1.2" fill="#3acf5c" opacity="0.50"/><circle cx="68.1" cy="466.3" r="1.0" fill="#3acf5c" opacity="0.34"/><circle cx="374.3" cy="130.4" r="1.6" fill="#3acf5c" opacity="0.30"/><circle cx="318.4" cy="545.9" r="0.6" fill="#3acf5c" opacity="0.41"/><circle cx="162.0" cy="502.8" r="1.2" fill="#3acf5c" opacity="0.42"/><circle cx="63.3" cy="263.7" r="1.3" fill="#3acf5c" opacity="0.32"/><circle cx="298.8" cy="8.6" r="1.4" fill="#3acf5c" opacity="0.57"/><circle cx="152.3" cy="331.8" r="1.8" fill="#3acf5c" opacity="0.21"/><circle cx="270.9" cy="314.1" r="1.0" fill="#3acf5c" opacity="0.33"/><circle cx="86.6" cy="446.1" r="1.6" fill="#3acf5c" opacity="0.33"/><circle cx="305.5" cy="326.9" r="0.7" fill="#3acf5c" opacity="0.54"/>
  <circle cx="200" cy="240" r="66.02551440329218" fill="none" stroke="#f5d23a" stroke-opacity="0.08" stroke-width="2.250008573388203"/><circle cx="200" cy="240" r="85.00953360768176" fill="none" stroke="#f5d23a" stroke-opacity="0.12" stroke-width="1.3406635802469136"/><circle cx="200" cy="240" r="107.73840877914952" fill="none" stroke="#f5d23a" stroke-opacity="0.16" stroke-width="2.157656035665295"/><circle cx="200" cy="240" r="133.12572016460905" fill="none" stroke="#f5d23a" stroke-opacity="0.20" stroke-width="2.5034550754458165"/><circle cx="200" cy="240" r="148.2331961591221" fill="none" stroke="#f5d23a" stroke-opacity="0.24" stroke-width="1.662011316872428"/>
  <text x="200" y="270" font-family="sans-serif" font-size="140" text-anchor="middle" fill="#3acf5c" opacity="0.85">🎤</text>
  <rect x="4" y="4" width="392" height="552" fill="none" stroke="#f5d23a" stroke-width="1.5" opacity="0.7"/>
  <rect x="20" y="440" width="360" height="100" fill="#000" opacity="0.55"/>
  <text x="200" y="475" font-family="sans-serif" font-size="22" font-weight="bold" text-anchor="middle" fill="#3acf5c">Boom-Bap King</text>
  <text x="200" y="500" font-family="sans-serif" font-size="11" text-anchor="middle" fill="#f5d23a" letter-spacing="3">BOOM-BAP 1990S</text>
  <text x="200" y="525" font-family="sans-serif" font-size="10" text-anchor="middle" fill="#ffffff" opacity="0.7" letter-spacing="2">COMMON</text>
</svg>