<svg xmlns="http://www.w3.org/2000/svg" viewBox="0 0 400 560" preserveAspectRatio="xMidYMid slice">
  <defs>
    <linearGradient id="bg" x1="0" y1="0" x2="0" y2="1">
      <stop offset="0" stop-color="#0a1a0f"/>
      <stop offset="1" stop-color="#1a3d24"/>
    </linearGradient>
    <radialGradient id="glow" cx="50%" cy="42%" r="50%">
      <stop offset="0" stop-color="#f5d23a" stop-opacity="0.55"/>
      <stop offset="0.5" stop-color="#f5d23a" stop-opacity="0.12"/>
      <stop offset="1" stop-color="#f5d23a" stop-opacity="0"/>
    </radialGradient>
  </defs>
  <rect width="400" height="560" fill="url(#bg)"/>
  <rect width="400" height="560" fill="url(#glow)"/>
  <circle cx="57.7" cy="54.6" r="0.8" fill="#3acf5c" opacity="0.69"/><circle cx="96.0" cy="69.7" r="0.6" fill="#3acf5c" opacity="0.43"/><circle cx="246.2" cy="504.1" r="0.8" fill="#3acf5c" opacity="0.24"/><circle cx="325.7" cy="459.3" r="1.9" fill="#3acf5c" opacity="0.33"/><circle cx="314.6" cy="322.2" r="1.5" fill="#3acf5c" opacity="0.45"/><circle cx="178.5" cy="210.5" r="1.1" fill="#3acf5c" opacity="0.68"/><circle cx="356.7" cy="469.8" r="1.3" fill="#3acf5c" opacity="0.50"/><circle cx="118.5" cy="305.1" r="1.9" fill="#3acf5c" opacity="0.28"/><circle cx="184.8" cy="145.0" r="1.8" fill="#3acf5c" opacity="0.54"/><circle cx="17.4" cy="459.7" r="1.4" fill="#3acf5c" opacity="0.54"/><circle cx="174.2" cy="391.7" r="1.4" fill="#3acf5c" opacity="0.27"/><circle cx="131.9" cy="121.0" r="1.0" fill="#3acf5c" opacity="0.66"/><circle cx="374.3" cy="242.1" r="1.9" fill="#3acf5c" opacity="0.29"/><circle cx="348.4" cy="395.4" r="1.1" fill="#3acf5c" opacity="0.23"/><circle cx="286.3" cy="511.8" r="1.1" fill="#3acf5c" opacity="0.38"/><circle cx="94.2" cy="190.4" r="0.6" fill="#3acf5c" opacity="0.57"/><circle cx="107.8" cy="129.4" r="1.8" fill="#3acf5c" opacity="0.51"/><circle cx="114.9" cy="10.8" r="1.7" fill="#3acf5c" opacity="0.52"/><circle cx="243.7" cy="118.0" r="1.6" fill="#3acf5c" opacity="0.23"/><circle cx="119.1" cy="527.2" r="1.7" fill="#3acf5c" opacity="0.43"/><circle cx="284.1" cy="111.3" r="0.7" fill="#3acf5c" opacity="0.42"/><circle cx="289.5" cy="398.2" r="1.4" fill="#3acf5c" opacity="0.59"/><circle cx="248.8" cy="281.9" r="1.7" fill="#3acf5c" opacity="0.34"/><circle cx="260.8" cy="66.5" r="0.7" fill="#3acf5c" opacity="0.42"/><circle cx="98.3" cy="284.4" r="0.9" fill="#3acf5c" opacity="0.48"/><circle cx="363.8" cy="327.1" r="1.2" fill="#3acf5c" opacity="0.56"/><circle cx="311.6" cy="249.9" r="1.1" fill="#3acf5c" opacity="0.34"/><circle cx="336.7" cy="149.8" r="1.2" fill="#3acf5c" opacity="0.25"/><circle cx="330.6" cy="475.9" r="1.4" fill="#3acf5c" opacity="0.43"/><circle cx="303.1" cy="474.8" r="1.4" fill="#3acf5c" opacity="0.52"/><circle cx="71.5" cy="367.7" r="1.8" fill="#3acf5c" opacity="0.22"/><circle cx="15.9" cy="541.8" r="1.7" fill="#3acf5c" opacity="0.29"/><circle cx="102.0" cy="554.5" r="1.2" fill="#3acf5c" opacity="0.29"/><circle cx="369.1" cy="191.6" r="0.7" fill="#3acf5c" opacity="0.22"/><circle cx="86.5" cy="338.0" r="1.7" fill="#3acf5c" opacity="0.45"/><circle cx="375.0" cy="302.4" r="1.4" fill="#3acf5c" opacity="0.49"/><circle cx="296.4" cy="554.8" r="1.9" fill="#3acf5c" opacity="0.60"/><circle cx="8.8" cy="238.0" r="0.7" fill="#3acf5c" opacity="0.27"/><circle cx="188.7" cy="91.7" r="1.6" fill="#3acf5c" opacity="0.44"/><circle cx="120.0" cy="150.6" r="1.8" fill="#3acf5c" opacity="0.68"/>
  <circle cx="200" cy="240" r="65.06862139917695" fill="none" stroke="#f5d23a" stroke-opacity="0.08" stroke-width="1.2345507544581618"/><circle cx="200" cy="240" r="89.91683813443073" fill="none" stroke="#f5d23a" stroke-opacity="0.12" stroke-width="2.050514403292181"/><circle cx="200" cy="240" r="109.0284293552812" fill="none" stroke="#f5d23a" stroke-opacity="0.16" stroke-width="1.7780006858710562"/><circle cx="200" cy="240" r="128.4280864197531" fill="none" stroke="#f5d23a" stroke-opacity="0.20" stroke-width="1.3305898491083676"/><circle cx="200" cy="240" r="152.95531550068588" fill="none" stroke="#f5d23a" stroke-opacity="0.24" stroke-width="1.7700102880658437"/>
  <text x="200" y="270" font-family="sans-serif" font-size="140" text-anchor="middle" fill="#3acf5c" opacity="0.85">🎤</text>
  <rect x="4" y="4" width="392" height="552" fill="none" stroke="#f5d23a" stroke-width="1.5" opacity="0.7"/>
  <rect x="20" y="440" width="360" height="100" fill="#000" opacity="0.55"/>
  <text x="200" y="475" font-family="sans-serif" font-size="22" font-weight="bold" text-anchor="middle" fill="#3acf5c">Brass Oracle</text>
  <text x="200" y="500" font-family="sans-serif" font-size="11" text-anchor="middle" fill="#f5d23a" letter-spacing="3">BOOM-BAP 1990S</text>
  <text x="200" y="525" font-family="sans-serif" font-size="10" text-anchor="middle" fill="#ffffff" opacity="0.7" letter-spacing="2">COMMON</text>
</svg>