<svg xmlns="http://www.w3.org/2000/svg" viewBox="0 0 400 560" preserveAspectRatio="xMidYMid slice">
  <defs>
    <linearGradient id="bg" x1="0" y1="0" x2="0" y2="1">
      <stop offset="0" stop-color="#0a0a0a"/>
      <stop offset="1" stop-color="#1f1f1f"/>
    </linearGradient>
    <radialGradient id="glow" cx="50%" cy="42%" r="50%">
      <stop offset="0" stop-color="#c9a84c" stop-opacity="0.55"/>
      <stop offset="0.5" stop-color="#c9a84c" stop-opacity="0.12"/>
      <stop offset="1" stop-color="#c9a84c" stop-opacity="0"/>
    </radialGradient>
  </defs>
  <rect width="400" height="560" fill="url(#bg)"/>
  <rect width="400" height="560" fill="url(#glow)"/>
  <circle cx="47.8" cy="495.6" r="1.5" fill="#f0d78c" opacity="0.50"/><circle cx="274.6" cy="269.8" r="1.6" fill="#f0d78c" opacity="0.51"/><circle cx="238.0" cy="539.5" r="0.7" fill="#f0d78c" opacity="0.40"/><circle cx="273.8" cy="323.0" r="1.0" fill="#f0d78c" opacity="0.36"/><circle cx="169.8" cy="422.1" r="0.9" fill="#f0d78c" opacity="0.24"/><circle cx="54.2" cy="0.5" r="1.9" fill="#f0d78c" opacity="0.64"/><circle cx="351.8" cy="254.0" r="1.1" fill="#f0d78c" opacity="0.37"/><circle cx="5.7" cy="55.9" r="1.7" fill="#f0d78c" opacity="0.22"/><circle cx="166.7" cy="374.0" r="1.9" fill="#f0d78c" opacity="0.58"/><circle cx="148.2" cy="102.1" r="1.3" fill="#f0d78c" opacity="0.36"/><circle cx="49.1" cy="104.5" r="1.9" fill="#f0d78c" opacity="0.30"/><circle cx="42.1" cy="353.5" r="1.7" fill="#f0d78c" opacity="0.56"/><circle cx="329.8" cy="240.6" r="1.2" fill="#f0d78c" opacity="0.67"/><circle cx="166.5" cy="381.3" r="1.1" fill="#f0d78c" opacity="0.30"/><circle cx="347.2" cy="312.2" r="0.8" fill="#f0d78c" opacity="0.41"/><circle cx="363.3" cy="482.8" r="1.6" fill="#f0d78c" opacity="0.62"/><circle cx="224.7" cy="139.5" r="1.7" fill="#f0d78c" opacity="0.57"/><circle cx="148.6" cy="63.5" r="1.7" fill="#f0d78c" opacity="0.46"/><circle cx="115.3" cy="82.0" r="0.7" fill="#f0d78c" opacity="0.56"/><circle cx="90.2" cy="312.5" r="1.7" fill="#f0d78c" opacity="0.42"/><circle cx="112.9" cy="540.7" r="0.8" fill="#f0d78c" opacity="0.55"/><circle cx="252.5" cy="531.6" r="0.8" fill="#f0d78c" opacity="0.31"/><circle cx="29.9" cy="153.7" r="0.7" fill="#f0d78c" opacity="0.20"/><circle cx="106.9" cy="437.2" r="0.7" fill="#f0d78c" opacity="0.51"/><circle cx="241.5" cy="524.9" r="1.6" fill="#f0d78c" opacity="0.20"/><circle cx="310.3" cy="36.4" r="1.1" fill="#f0d78c" opacity="0.24"/><circle cx="397.2" cy="126.3" r="0.9" fill="#f0d78c" opacity="0.67"/><circle cx="349.1" cy="435.2" r="1.0" fill="#f0d78c" opacity="0.58"/><circle cx="398.1" cy="333.9" r="1.0" fill="#f0d78c" opacity="0.37"/><circle cx="50.4" cy="541.3" r="0.9" fill="#f0d78c" opacity="0.37"/><circle cx="41.8" cy="75.9" r="1.5" fill="#f0d78c" opacity="0.28"/><circle cx="160.0" cy="299.5" r="1.3" fill="#f0d78c" opacity="0.43"/><circle cx="133.3" cy="375.6" r="1.6" fill="#f0d78c" opacity="0.45"/><circle cx="386.4" cy="380.3" r="1.1" fill="#f0d78c" opacity="0.62"/><circle cx="262.6" cy="306.6" r="1.6" fill="#f0d78c" opacity="0.25"/><circle cx="112.4" cy="2.5" r="1.2" fill="#f0d78c" opacity="0.22"/><circle cx="49.5" cy="41.7" r="0.9" fill="#f0d78c" opacity="0.45"/><circle cx="172.6" cy="168.5" r="1.3" fill="#f0d78c" opacity="0.66"/><circle cx="254.5" cy="355.3" r="2.0" fill="#f0d78c" opacity="0.53"/><circle cx="97.8" cy="553.5" r="1.7" fill="#f0d78c" opacity="0.58"/><circle cx="156.7" cy="258.6" r="1.4" fill="#f0d78c" opacity="0.50"/><circle cx="26.3" cy="127.3" r="0.5" fill="#f0d78c" opacity="0.21"/><circle cx="397.9" cy="49.0" r="1.6" fill="#f0d78c" opacity="0.37"/><circle cx="81.5" cy="390.2" r="1.5" fill="#f0d78c" opacity="0.59"/><circle cx="94.3" cy="252.0" r="0.9" fill="#f0d78c" opacity="0.60"/><circle cx="16.6" cy="21.6" r="1.7" fill="#f0d78c" opacity="0.64"/><circle cx="213.8" cy="376.6" r="1.1" fill="#f0d78c" opacity="0.28"/><circle cx="325.3" cy="542.5" r="1.0" fill="#f0d78c" opacity="0.52"/><circle cx="20.4" cy="284.5" r="1.4" fill="#f0d78c" opacity="0.22"/><circle cx="20.1" cy="31.1" r="1.1" fill="#f0d78c" opacity="0.40"/>
  <circle cx="200" cy="240" r="64.13762002743485" fill="none" stroke="#c9a84c" stroke-opacity="0.08" stroke-width="2.423611111111111"/><circle cx="200" cy="240" r="87.71834705075446" fill="none" stroke="#c9a84c" stroke-opacity="0.12" stroke-width="2.009122085048011"/><circle cx="200" cy="240" r="105.06862139917695" fill="none" stroke="#c9a84c" stroke-opacity="0.16" stroke-width="2.2345507544581618"/><circle cx="200" cy="240" r="129.91683813443072" fill="none" stroke="#c9a84c" stroke-opacity="0.20" stroke-width="1.0505144032921812"/><circle cx="200" cy="240" r="149.02842935528122" fill="none" stroke="#c9a84c" stroke-opacity="0.24" stroke-width="2.7780006858710564"/><circle cx="200" cy="240" r="176.42808641975307" fill="none" stroke="#c9a84c" stroke-opacity="0.28" stroke-width="2.3305898491083674"/>
  <text x="200" y="270" font-family="serif" font-size="140" text-anchor="middle" fill="#f0d78c" opacity="0.85">🎷</text>
  <rect x="8" y="8" width="384" height="544" fill="none" stroke="#c9a84c" stroke-width="3" opacity="0.7"/>
  <rect x="20" y="440" width="360" height="100" fill="#000" opacity="0.55"/>
  <text x="200" y="475" font-family="serif" font-size="22" font-weight="bold" text-anchor="middle" fill="#f0d78c">Brass Hustler</text>
  <text x="200" y="500" font-family="sans-serif" font-size="11" text-anchor="middle" fill="#c9a84c" letter-spacing="3">ROARING 1920S</text>
  <text x="200" y="525" font-family="sans-serif" font-size="10" text-anchor="middle" fill="#ffffff" opacity="0.7" letter-spacing="2">RARE</text>
</svg>