<svg xmlns="http://www.w3.org/2000/svg" viewBox="0 0 400 560" preserveAspectRatio="xMidYMid slice">
  <defs>
    <linearGradient id="bg" x1="0" y1="0" x2="0" y2="1">
      <stop offset="0" stop-color="#050a1a"/>
      <stop offset="1" stop-color="#0f1f3d"/>
    </linearGradient>
    <radialGradient id="glow" cx="50%" cy="42%" r="50%">
      <stop offset="0" stop-color="#3acff5" stop-opacity="0.55"/>
      <stop offset="0.5" stop-color="#3acff5" stop-opacity="0.12"/>
      <stop offset="1" stop-color="#3acff5" stop-opacity="0"/>
    </radialGradient>
  </defs>
  <rect width="400" height="560" fill="url(#bg)"/>
  <rect width="400" height="560" fill="url(#glow)"/>
  <circle cx="259.5" cy="210.2" r="1.3" fill="#a855f7" opacity="0.69"/><circle cx="334.9" cy="339.3" r="0.6" fill="#a855f7" opacity="0.64"/><circle cx="300.0" cy="203.4" r="1.9" fill="#a855f7" opacity="0.38"/><circle cx="105.4" cy="210.4" r="1.8" fill="#a855f7" opacity="0.29"/><circle cx="264.7" cy="374.1" r="1.3" fill="#a855f7" opacity="0.30"/><circle cx="76.7" cy="438.7" r="1.1" fill="#a855f7" opacity="0.63"/><circle cx="114.2" cy="376.5" r="0.6" fill="#a855f7" opacity="0.44"/><circle cx="179.6" cy="139.2" r="1.7" fill="#a855f7" opacity="0.27"/><circle cx="327.4" cy="342.1" r="0.7" fill="#a855f7" opacity="0.30"/><circle cx="152.6" cy="521.9" r="1.7" fill="#a855f7" opacity="0.46"/><circle cx="346.4" cy="8.1" r="1.1" fill="#a855f7" opacity="0.39"/><circle cx="118.9" cy="287.0" r="1.8" fill="#a855f7" opacity="0.23"/><circle cx="87.3" cy="459.9" r="1.5" fill="#a855f7" opacity="0.67"/><circle cx="231.8" cy="354.0" r="0.7" fill="#a855f7" opacity="0.49"/><circle cx="117.8" cy="86.7" r="0.9" fill="#a855f7" opacity="0.25"/><circle cx="185.0" cy="3.8" r="1.2" fill="#a855f7" opacity="0.43"/><circle cx="102.3" cy="430.2" r="1.4" fill="#a855f7" opacity="0.41"/><circle cx="190.8" cy="114.6" r="1.9" fill="#a855f7" opacity="0.69"/><circle cx="312.3" cy="87.0" r="1.6" fill="#a855f7" opacity="0.56"/><circle cx="224.7" cy="50.2" r="1.1" fill="#a855f7" opacity="0.47"/><circle cx="204.5" cy="183.9" r="1.3" fill="#a855f7" opacity="0.40"/><circle cx="335.9" cy="522.7" r="0.8" fill="#a855f7" opacity="0.39"/><circle cx="65.5" cy="147.2" r="1.0" fill="#a855f7" opacity="0.52"/><circle cx="25.7" cy="108.0" r="1.7" fill="#a855f7" opacity="0.20"/><circle cx="122.4" cy="4.4" r="1.2" fill="#a855f7" opacity="0.26"/><circle cx="291.6" cy="534.5" r="0.5" fill="#a855f7" opacity="0.38"/><circle cx="320.9" cy="260.3" r="1.0" fill="#a855f7" opacity="0.43"/><circle cx="338.6" cy="25.4" r="1.0" fill="#a855f7" opacity="0.49"/><circle cx="369.5" cy="465.6" r="0.7" fill="#a855f7" opacity="0.39"/><circle cx="156.8" cy="454.1" r="1.8" fill="#a855f7" opacity="0.41"/><circle cx="51.1" cy="398.9" r="1.0" fill="#a855f7" opacity="0.44"/><circle cx="166.0" cy="313.7" r="0.9" fill="#a855f7" opacity="0.38"/><circle cx="200.2" cy="502.7" r="2.0" fill="#a855f7" opacity="0.49"/><circle cx="326.6" cy="378.4" r="0.8" fill="#a855f7" opacity="0.41"/><circle cx="347.6" cy="452.2" r="0.7" fill="#a855f7" opacity="0.69"/><circle cx="317.6" cy="219.5" r="1.1" fill="#a855f7" opacity="0.49"/><circle cx="231.6" cy="337.1" r="1.4" fill="#a855f7" opacity="0.26"/><circle cx="381.1" cy="134.3" r="1.2" fill="#a855f7" opacity="0.64"/><circle cx="375.8" cy="537.7" r="1.7" fill="#a855f7" opacity="0.25"/><circle cx="33.0" cy="88.4" r="0.7" fill="#a855f7" opacity="0.32"/>
  <circle cx="200" cy="240" r="62.80997942386831" fill="none" stroke="#3acff5" stroke-opacity="0.08" stroke-width="1.3272976680384088"/><circle cx="200" cy="240" r="84.4730109739369" fill="none" stroke="#3acff5" stroke-opacity="0.12" stroke-width="1.791409465020576"/><circle cx="200" cy="240" r="109.28830589849109" fill="none" stroke="#3acff5" stroke-opacity="0.16" stroke-width="2.0559327846364885"/><circle cx="200" cy="240" r="132.61388888888888" fill="none" stroke="#3acff5" stroke-opacity="0.20" stroke-width="2.367781207133059"/><circle cx="200" cy="240" r="148.62259945130316" fill="none" stroke="#3acff5" stroke-opacity="0.24" stroke-width="1.1220164609053498"/>
  <text x="200" y="270" font-family="sans-serif" font-size="140" text-anchor="middle" fill="#a855f7" opacity="0.85">💎</text>
  <rect x="4" y="4" width="392" height="552" fill="none" stroke="#3acff5" stroke-width="1.5" opacity="0.7"/>
  <rect x="20" y="440" width="360" height="100" fill="#000" opacity="0.55"/>
  <text x="200" y="475" font-family="sans-serif" font-size="22" font-weight="bold" text-anchor="middle" fill="#a855f7">Hologram Oracle</text>
  <text x="200" y="500" font-family="sans-serif" font-size="11" text-anchor="middle" fill="#3acff5" letter-spacing="3">NEON 2020S</text>
  <text x="200" y="525" font-family="sans-serif" font-size="10" text-anchor="middle" fill="#ffffff" opacity="0.7" letter-spacing="2">COMMON</text>
</svg>