<svg xmlns="http://www.w3.org/2000/svg" viewBox="0 0 400 560" preserveAspectRatio="xMidYMid slice">
  <defs>
    <linearGradient id="bg" x1="0" y1="0" x2="0" y2="1">
      <stop offset="0" stop-color="#1a0533"/>
      <stop offset="1" stop-color="#3d0f5c"/>
    </linearGradient>
    <radialGradient id="glow" cx="50%" cy="42%" r="50%">
      <stop offset="0" stop-color="#e94ec7" stop-opacity="0.55"/>
      <stop offset="0.5" stop-color="#e94ec7" stop-opacity="0.12"/>
      <stop offset="1" stop-color="#e94ec7" stop-opacity="0"/>
    </radialGradient>
  </defs>
  <rect width="400" height="560" fill="url(#bg)"/>
  <rect width="400" height="560" fill="url(#glow)"/>
  <circle cx="288.6" cy="415.8" r="2.0" fill="#ff9f43" opacity="0.42"/><circle cx="57.4" cy="67.3" r="1.9" fill="#ff9f43" opacity="0.58"/><circle cx="244.2" cy="297.2" r="0.5" fill="#ff9f43" opacity="0.64"/><circle cx="296.1" cy="186.1" r="1.0" fill="#ff9f43" opacity="0.67"/><circle cx="45.2" cy="224.8" r="1.4" fill="#ff9f43" opacity="0.59"/><circle cx="197.5" cy="12.3" r="1.6" fill="#ff9f43" opacity="0.21"/><circle cx="288.9" cy="246.8" r="1.1" fill="#ff9f43" opacity="0.24"/><circle cx="107.0" cy="50.4" r="1.3" fill="#ff9f43" opacity="0.52"/><circle cx="180.3" cy="266.5" r="2.0" fill="#ff9f43" opacity="0.66"/><circle cx="133.5" cy="411.2" r="1.9" fill="#ff9f43" opacity="0.46"/><circle cx="109.7" cy="477.5" r="1.2" fill="#ff9f43" opacity="0.22"/><circle cx="59.5" cy="313.4" r="1.1" fill="#ff9f43" opacity="0.31"/><circle cx="96.6" cy="492.6" r="1.2" fill="#ff9f43" opacity="0.66"/><circle cx="319.7" cy="199.5" r="0.5" fill="#ff9f43" opacity="0.50"/><circle cx="101.6" cy="526.2" r="1.6" fill="#ff9f43" opacity="0.50"/><circle cx="44.9" cy="304.4" r="1.7" fill="#ff9f43" opacity="0.67"/><circle cx="203.8" cy="149.5" r="1.8" fill="#ff9f43" opacity="0.21"/><circle cx="173.4" cy="158.2" r="1.3" fill="#ff9f43" opacity="0.55"/><circle cx="245.0" cy="220.0" r="1.3" fill="#ff9f43" opacity="0.34"/><circle cx="28.6" cy="141.1" r="1.5" fill="#ff9f43" opacity="0.69"/><circle cx="141.4" cy="142.9" r="1.3" fill="#ff9f43" opacity="0.32"/><circle cx="163.7" cy="52.5" r="0.9" fill="#ff9f43" opacity="0.48"/><circle cx="60.8" cy="547.5" r="0.7" fill="#ff9f43" opacity="0.25"/><circle cx="272.4" cy="293.5" r="1.0" fill="#ff9f43" opacity="0.61"/><circle cx="67.5" cy="175.4" r="1.7" fill="#ff9f43" opacity="0.44"/><circle cx="167.2" cy="62.0" r="1.8" fill="#ff9f43" opacity="0.24"/><circle cx="33.1" cy="423.3" r="1.6" fill="#ff9f43" opacity="0.28"/><circle cx="223.2" cy="402.0" r="1.7" fill="#ff9f43" opacity="0.55"/><circle cx="214.2" cy="178.0" r="1.4" fill="#ff9f43" opacity="0.49"/><circle cx="90.0" cy="345.7" r="0.9" fill="#ff9f43" opacity="0.65"/><circle cx="97.4" cy="545.7" r="1.7" fill="#ff9f43" opacity="0.63"/><circle cx="68.7" cy="148.8" r="1.9" fill="#ff9f43" opacity="0.33"/><circle cx="309.9" cy="434.1" r="1.5" fill="#ff9f43" opacity="0.56"/><circle cx="356.8" cy="419.7" r="1.3" fill="#ff9f43" opacity="0.54"/><circle cx="397.2" cy="347.8" r="1.3" fill="#ff9f43" opacity="0.59"/><circle cx="159.4" cy="501.7" r="1.3" fill="#ff9f43" opacity="0.34"/><circle cx="68.1" cy="397.5" r="1.5" fill="#ff9f43" opacity="0.59"/><circle cx="266.5" cy="28.2" r="0.7" fill="#ff9f43" opacity="0.62"/><circle cx="305.2" cy="361.9" r="1.5" fill="#ff9f43" opacity="0.33"/><circle cx="297.9" cy="292.2" r="1.9" fill="#ff9f43" opacity="0.62"/>
  <circle cx="200" cy="240" r="65.73244170096022" fill="none" stroke="#e94ec7" stroke-opacity="0.08" stroke-width="2.782707475994513"/><circle cx="200" cy="240" r="87.53950617283951" fill="none" stroke="#e94ec7" stroke-opacity="0.12" stroke-width="2.159370713305899"/><circle cx="200" cy="240" r="110.91858710562414" fill="none" stroke="#e94ec7" stroke-opacity="0.16" stroke-width="2.867309670781893"/><circle cx="200" cy="240" r="127.079561042524" fill="none" stroke="#e94ec7" stroke-opacity="0.20" stroke-width="1.6719564471879287"/><circle cx="200" cy="240" r="149.1582304526749" fill="none" stroke="#e94ec7" stroke-opacity="0.24" stroke-width="2.5980024005486966"/>
  <text x="200" y="270" font-family="sans-serif" font-size="140" text-anchor="middle" fill="#ff9f43" opacity="0.85">🪩</text>
  <rect x="4" y="4" width="392" height="552" fill="none" stroke="#e94ec7" stroke-width="1.5" opacity="0.7"/>
  <rect x="20" y="440" width="360" height="100" fill="#000" opacity="0.55"/>
  <text x="200" y="475" font-family="sans-serif" font-size="22" font-weight="bold" text-anchor="middle" fill="#ff9f43">Funk Witch</text>
  <text x="200" y="500" font-family="sans-serif" font-size="11" text-anchor="middle" fill="#e94ec7" letter-spacing="3">COSMIC 1970S</text>
  <text x="200" y="525" font-family="sans-serif" font-size="10" text-anchor="middle" fill="#ffffff" opacity="0.7" letter-spacing="2">COMMON</text>
</svg>