<svg xmlns="http://www.w3.org/2000/svg" viewBox="0 0 400 560" preserveAspectRatio="xMidYMid slice">
  <defs>
    <linearGradient id="bg" x1="0" y1="0" x2="0" y2="1">
      <stop offset="0" stop-color="#050a1a"/>
      <stop offset="1" stop-color="#0f1f3d"/>
    </linearGradient>
    <radialGradient id="glow" cx="50%" cy="42%" r="50%">
      <stop offset="0" stop-color="#3acff5" stop-opacity="0.55"/>
      <stop offset="0.5" stop-color="#3acff5" stop-opacity="0.12"/>
      <stop offset="1" stop-color="#3acff5" stop-opacity="0"/>
    </radialGradient>
  </defs>
  <rect width="400" height="560" fill="url(#bg)"/>
  <rect width="400" height="560" fill="url(#glow)"/>
  <circle cx="127.1" cy="279.4" r="0.7" fill="#a855f7" opacity="0.63"/><circle cx="174.4" cy="23.6" r="1.4" fill="#a855f7" opacity="0.57"/><circle cx="57.2" cy="7.6" r="1.7" fill="#a855f7" opacity="0.61"/><circle cx="185.2" cy="37.6" r="1.3" fill="#a855f7" opacity="0.39"/><circle cx="375.8" cy="334.9" r="0.8" fill="#a855f7" opacity="0.62"/><circle cx="209.2" cy="166.8" r="0.8" fill="#a855f7" opacity="0.55"/><circle cx="50.8" cy="210.6" r="1.3" fill="#a855f7" opacity="0.25"/><circle cx="340.1" cy="252.2" r="1.4" fill="#a855f7" opacity="0.21"/><circle cx="346.4" cy="56.4" r="0.9" fill="#a855f7" opacity="0.30"/><circle cx="390.4" cy="51.8" r="1.8" fill="#a855f7" opacity="0.53"/><circle cx="334.1" cy="148.7" r="1.3" fill="#a855f7" opacity="0.67"/><circle cx="335.4" cy="49.6" r="1.7" fill="#a855f7" opacity="0.70"/><circle cx="270.8" cy="494.5" r="0.7" fill="#a855f7" opacity="0.57"/><circle cx="224.4" cy="397.8" r="1.5" fill="#a855f7" opacity="0.33"/><circle cx="43.0" cy="520.0" r="1.1" fill="#a855f7" opacity="0.58"/><circle cx="358.6" cy="232.0" r="0.6" fill="#a855f7" opacity="0.20"/><circle cx="277.6" cy="252.8" r="1.5" fill="#a855f7" opacity="0.53"/><circle cx="135.7" cy="160.7" r="1.6" fill="#a855f7" opacity="0.27"/><circle cx="120.5" cy="197.6" r="0.9" fill="#a855f7" opacity="0.26"/><circle cx="360.5" cy="87.1" r="0.7" fill="#a855f7" opacity="0.60"/><circle cx="80.3" cy="465.1" r="1.2" fill="#a855f7" opacity="0.61"/><circle cx="223.1" cy="204.7" r="1.2" fill="#a855f7" opacity="0.58"/><circle cx="339.6" cy="273.9" r="1.8" fill="#a855f7" opacity="0.38"/><circle cx="143.4" cy="126.5" r="1.0" fill="#a855f7" opacity="0.44"/><circle cx="133.1" cy="66.7" r="0.9" fill="#a855f7" opacity="0.49"/><circle cx="81.8" cy="66.7" r="1.1" fill="#a855f7" opacity="0.69"/><circle cx="191.7" cy="78.3" r="1.8" fill="#a855f7" opacity="0.58"/><circle cx="117.2" cy="156.7" r="1.0" fill="#a855f7" opacity="0.32"/><circle cx="253.5" cy="398.8" r="1.1" fill="#a855f7" opacity="0.37"/><circle cx="91.8" cy="133.8" r="1.8" fill="#a855f7" opacity="0.36"/><circle cx="42.1" cy="288.3" r="1.1" fill="#a855f7" opacity="0.42"/><circle cx="321.5" cy="523.4" r="1.5" fill="#a855f7" opacity="0.26"/><circle cx="110.5" cy="106.4" r="1.8" fill="#a855f7" opacity="0.63"/><circle cx="174.3" cy="274.7" r="0.7" fill="#a855f7" opacity="0.61"/><circle cx="152.6" cy="254.0" r="1.6" fill="#a855f7" opacity="0.68"/><circle cx="114.3" cy="369.3" r="1.5" fill="#a855f7" opacity="0.22"/><circle cx="380.6" cy="489.2" r="0.7" fill="#a855f7" opacity="0.22"/><circle cx="13.2" cy="523.8" r="1.0" fill="#a855f7" opacity="0.48"/><circle cx="370.0" cy="175.9" r="1.8" fill="#a855f7" opacity="0.45"/><circle cx="127.7" cy="185.2" r="0.6" fill="#a855f7" opacity="0.60"/>
  <circle cx="200" cy="240" r="65.36169410150892" fill="none" stroke="#3acff5" stroke-opacity="0.08" stroke-width="2.7018518518518517"/><circle cx="200" cy="240" r="87.38686556927297" fill="none" stroke="#3acff5" stroke-opacity="0.12" stroke-width="1.2318072702331961"/><circle cx="200" cy="240" r="105.84825102880659" fill="none" stroke="#3acff5" stroke-opacity="0.16" stroke-width="1.0683470507544581"/><circle cx="200" cy="240" r="126.47424554183813" fill="none" stroke="#3acff5" stroke-opacity="0.20" stroke-width="2.162088477366255"/><circle cx="200" cy="240" r="152.03028120713307" fill="none" stroke="#3acff5" stroke-opacity="0.24" stroke-width="2.8340192043895747"/>
  <text x="200" y="270" font-family="sans-serif" font-size="140" text-anchor="middle" fill="#a855f7" opacity="0.85">💎</text>
  <rect x="4" y="4" width="392" height="552" fill="none" stroke="#3acff5" stroke-width="1.5" opacity="0.7"/>
  <rect x="20" y="440" width="360" height="100" fill="#000" opacity="0.55"/>
  <text x="200" y="475" font-family="sans-serif" font-size="22" font-weight="bold" text-anchor="middle" fill="#a855f7">Glass Ronin</text>
  <text x="200" y="500" font-family="sans-serif" font-size="11" text-anchor="middle" fill="#3acff5" letter-spacing="3">NEON 2020S</text>
  <text x="200" y="525" font-family="sans-serif" font-size="10" text-anchor="middle" fill="#ffffff" opacity="0.7" letter-spacing="2">COMMON</text>
</svg>