<svg xmlns="http://www.w3.org/2000/svg" viewBox="0 0 400 560" preserveAspectRatio="xMidYMid slice">
  <defs>
    <linearGradient id="bg" x1="0" y1="0" x2="0" y2="1">
      <stop offset="0" stop-color="#1a0f04"/>
      <stop offset="1" stop-color="#3d2410"/>
    </linearGradient>
    <radialGradient id="glow" cx="50%" cy="42%" r="50%">
      <stop offset="0" stop-color="#d4a84c" stop-opacity="0.55"/>
      <stop offset="0.5" stop-color="#d4a84c" stop-opacity="0.12"/>
      <stop offset="1" stop-color="#d4a84c" stop-opacity="0"/>
    </radialGradient>
  </defs>
  <rect width="400" height="560" fill="url(#bg)"/>
  <rect width="400" height="560" fill="url(#glow)"/>
  <circle cx="317.6" cy="61.4" r="1.2" fill="#f5d77a" opacity="0.65"/><circle cx="179.8" cy="355.3" r="1.6" fill="#f5d77a" opacity="0.52"/><circle cx="188.5" cy="391.0" r="0.7" fill="#f5d77a" opacity="0.39"/><circle cx="86.9" cy="161.8" r="1.7" fill="#f5d77a" opacity="0.55"/><circle cx="225.6" cy="75.5" r="1.4" fill="#f5d77a" opacity="0.38"/><circle cx="318.3" cy="145.8" r="0.7" fill="#f5d77a" opacity="0.30"/><circle cx="63.6" cy="117.1" r="1.7" fill="#f5d77a" opacity="0.55"/><circle cx="34.4" cy="521.6" r="0.9" fill="#f5d77a" opacity="0.28"/><circle cx="33.2" cy="191.0" r="1.7" fill="#f5d77a" opacity="0.52"/><circle cx="114.4" cy="300.5" r="0.6" fill="#f5d77a" opacity="0.47"/><circle cx="272.9" cy="387.0" r="1.3" fill="#f5d77a" opacity="0.54"/><circle cx="0.1" cy="339.8" r="1.9" fill="#f5d77a" opacity="0.40"/><circle cx="105.9" cy="525.4" r="0.9" fill="#f5d77a" opacity="0.65"/><circle cx="7.6" cy="45.0" r="1.9" fill="#f5d77a" opacity="0.51"/><circle cx="85.4" cy="405.7" r="0.8" fill="#f5d77a" opacity="0.25"/><circle cx="304.8" cy="45.1" r="0.7" fill="#f5d77a" opacity="0.42"/><circle cx="305.2" cy="428.9" r="0.7" fill="#f5d77a" opacity="0.52"/><circle cx="155.9" cy="201.9" r="0.7" fill="#f5d77a" opacity="0.41"/><circle cx="177.8" cy="352.9" r="0.9" fill="#f5d77a" opacity="0.62"/><circle cx="232.5" cy="232.0" r="1.9" fill="#f5d77a" opacity="0.40"/><circle cx="78.3" cy="101.9" r="1.2" fill="#f5d77a" opacity="0.23"/><circle cx="391.5" cy="142.3" r="1.1" fill="#f5d77a" opacity="0.57"/><circle cx="56.1" cy="387.8" r="1.8" fill="#f5d77a" opacity="0.48"/><circle cx="119.2" cy="478.9" r="1.9" fill="#f5d77a" opacity="0.53"/><circle cx="12.6" cy="346.4" r="0.8" fill="#f5d77a" opacity="0.62"/><circle cx="42.7" cy="149.5" r="1.6" fill="#f5d77a" opacity="0.59"/><circle cx="145.2" cy="26.2" r="0.6" fill="#f5d77a" opacity="0.64"/><circle cx="107.8" cy="218.7" r="0.8" fill="#f5d77a" opacity="0.60"/><circle cx="58.9" cy="450.4" r="0.6" fill="#f5d77a" opacity="0.58"/><circle cx="23.1" cy="237.3" r="1.5" fill="#f5d77a" opacity="0.40"/><circle cx="143.8" cy="132.5" r="0.8" fill="#f5d77a" opacity="0.33"/><circle cx="371.4" cy="543.9" r="1.3" fill="#f5d77a" opacity="0.27"/><circle cx="19.6" cy="365.4" r="1.0" fill="#f5d77a" opacity="0.64"/><circle cx="387.1" cy="461.1" r="1.8" fill="#f5d77a" opacity="0.66"/><circle cx="46.8" cy="243.4" r="1.9" fill="#f5d77a" opacity="0.50"/><circle cx="1.2" cy="223.9" r="1.5" fill="#f5d77a" opacity="0.69"/><circle cx="304.6" cy="457.9" r="1.7" fill="#f5d77a" opacity="0.41"/><circle cx="151.9" cy="482.1" r="1.7" fill="#f5d77a" opacity="0.60"/><circle cx="234.7" cy="186.1" r="1.2" fill="#f5d77a" opacity="0.40"/><circle cx="162.7" cy="496.1" r="1.5" fill="#f5d77a" opacity="0.43"/>
  <circle cx="200" cy="240" r="60.654903978052126" fill="none" stroke="#d4a84c" stroke-opacity="0.08" stroke-width="2.2381172839506176"/><circle cx="200" cy="240" r="82.60600137174211" fill="none" stroke="#d4a84c" stroke-opacity="0.12" stroke-width="2.527331961591221"/><circle cx="200" cy="240" r="104.54886831275721" fill="none" stroke="#d4a84c" stroke-opacity="0.16" stroke-width="1.6786865569272975"/><circle cx="200" cy="240" r="129.54523319615913" fill="none" stroke="#d4a84c" stroke-opacity="0.20" stroke-width="2.9761316872427983"/><circle cx="200" cy="240" r="149.69386145404664" fill="none" stroke="#d4a84c" stroke-opacity="0.24" stroke-width="2.073988340192044"/>
  <text x="200" y="270" font-family="serif" font-size="140" text-anchor="middle" fill="#f5d77a" opacity="0.85">☥</text>
  <rect x="4" y="4" width="392" height="552" fill="none" stroke="#d4a84c" stroke-width="1.5" opacity="0.7"/>
  <rect x="20" y="440" width="360" height="100" fill="#000" opacity="0.55"/>
  <text x="200" y="475" font-family="serif" font-size="22" font-weight="bold" text-anchor="middle" fill="#f5d77a">Gold Warden</text>
  <text x="200" y="500" font-family="sans-serif" font-size="11" text-anchor="middle" fill="#d4a84c" letter-spacing="3">DYNASTY</text>
  <text x="200" y="525" font-family="sans-serif" font-size="10" text-anchor="middle" fill="#ffffff" opacity="0.7" letter-spacing="2">COMMON</text>
</svg>