<svg xmlns="http://www.w3.org/2000/svg" viewBox="0 0 400 560" preserveAspectRatio="xMidYMid slice">
  <defs>
    <linearGradient id="bg" x1="0" y1="0" x2="0" y2="1">
      <stop offset="0" stop-color="#0a1a0f"/>
      <stop offset="1" stop-color="#1a3d24"/>
    </linearGradient>
    <radialGradient id="glow" cx="50%" cy="42%" r="50%">
      <stop offset="0" stop-color="#f5d23a" stop-opacity="0.55"/>
      <stop offset="0.5" stop-color="#f5d23a" stop-opacity="0.12"/>
      <stop offset="1" stop-color="#f5d23a" stop-opacity="0"/>
    </radialGradient>
  </defs>
  <rect width="400" height="560" fill="url(#bg)"/>
  <rect width="400" height="560" fill="url(#glow)"/>
  <circle cx="24.9" cy="97.8" r="0.6" fill="#3acf5c" opacity="0.47"/><circle cx="295.7" cy="362.3" r="1.0" fill="#3acf5c" opacity="0.57"/><circle cx="194.5" cy="451.7" r="1.4" fill="#3acf5c" opacity="0.69"/><circle cx="175.6" cy="421.2" r="1.4" fill="#3acf5c" opacity="0.51"/><circle cx="234.1" cy="367.7" r="1.7" fill="#3acf5c" opacity="0.46"/><circle cx="261.3" cy="180.6" r="2.0" fill="#3acf5c" opacity="0.69"/><circle cx="267.1" cy="226.1" r="0.6" fill="#3acf5c" opacity="0.32"/><circle cx="68.8" cy="165.7" r="1.2" fill="#3acf5c" opacity="0.56"/><circle cx="46.6" cy="386.4" r="1.2" fill="#3acf5c" opacity="0.67"/><circle cx="166.0" cy="445.8" r="0.8" fill="#3acf5c" opacity="0.21"/><circle cx="66.5" cy="129.6" r="1.9" fill="#3acf5c" opacity="0.69"/><circle cx="217.2" cy="322.7" r="1.5" fill="#3acf5c" opacity="0.46"/><circle cx="139.0" cy="333.7" r="1.4" fill="#3acf5c" opacity="0.54"/><circle cx="93.8" cy="72.8" r="1.9" fill="#3acf5c" opacity="0.69"/><circle cx="239.5" cy="362.6" r="0.9" fill="#3acf5c" opacity="0.40"/><circle cx="52.7" cy="263.0" r="1.9" fill="#3acf5c" opacity="0.62"/><circle cx="17.4" cy="368.5" r="0.8" fill="#3acf5c" opacity="0.40"/><circle cx="380.4" cy="319.6" r="1.9" fill="#3acf5c" opacity="0.32"/><circle cx="173.9" cy="47.2" r="1.9" fill="#3acf5c" opacity="0.29"/><circle cx="104.0" cy="270.2" r="0.9" fill="#3acf5c" opacity="0.64"/><circle cx="106.5" cy="7.0" r="1.0" fill="#3acf5c" opacity="0.56"/><circle cx="369.1" cy="59.5" r="0.9" fill="#3acf5c" opacity="0.39"/><circle cx="220.2" cy="151.2" r="1.7" fill="#3acf5c" opacity="0.25"/><circle cx="84.4" cy="358.1" r="0.8" fill="#3acf5c" opacity="0.44"/><circle cx="105.0" cy="113.3" r="1.3" fill="#3acf5c" opacity="0.25"/><circle cx="232.6" cy="384.7" r="1.4" fill="#3acf5c" opacity="0.57"/><circle cx="180.8" cy="66.2" r="0.6" fill="#3acf5c" opacity="0.31"/><circle cx="48.4" cy="21.9" r="1.1" fill="#3acf5c" opacity="0.21"/><circle cx="8.1" cy="224.2" r="0.8" fill="#3acf5c" opacity="0.42"/><circle cx="262.5" cy="64.6" r="1.6" fill="#3acf5c" opacity="0.49"/><circle cx="65.8" cy="158.6" r="1.4" fill="#3acf5c" opacity="0.58"/><circle cx="213.2" cy="42.9" r="1.0" fill="#3acf5c" opacity="0.65"/><circle cx="195.9" cy="166.8" r="1.7" fill="#3acf5c" opacity="0.32"/><circle cx="24.0" cy="336.8" r="1.6" fill="#3acf5c" opacity="0.22"/><circle cx="314.6" cy="214.2" r="1.5" fill="#3acf5c" opacity="0.57"/><circle cx="247.9" cy="186.0" r="1.8" fill="#3acf5c" opacity="0.63"/><circle cx="189.5" cy="369.9" r="1.3" fill="#3acf5c" opacity="0.45"/><circle cx="178.9" cy="551.4" r="1.8" fill="#3acf5c" opacity="0.54"/><circle cx="285.1" cy="495.6" r="1.6" fill="#3acf5c" opacity="0.25"/><circle cx="29.2" cy="71.1" r="1.4" fill="#3acf5c" opacity="0.61"/>
  <circle cx="200" cy="240" r="66.66344307270234" fill="none" stroke="#f5d23a" stroke-opacity="0.08" stroke-width="1.5936471193415638"/><circle cx="200" cy="240" r="89.73799725651577" fill="none" stroke="#f5d23a" stroke-opacity="0.12" stroke-width="2.2007630315500686"/><circle cx="200" cy="240" r="106.8783950617284" fill="none" stroke="#f5d23a" stroke-opacity="0.16" stroke-width="2.4107596021947875"/><circle cx="200" cy="240" r="133.59080932784636" fill="none" stroke="#f5d23a" stroke-opacity="0.20" stroke-width="1.9520318930041154"/><circle cx="200" cy="240" r="153.08511659807957" fill="none" stroke="#f5d23a" stroke-opacity="0.24" stroke-width="1.5900120027434843"/>
  <text x="200" y="270" font-family="sans-serif" font-size="140" text-anchor="middle" fill="#3acf5c" opacity="0.85">🎤</text>
  <rect x="4" y="4" width="392" height="552" fill="none" stroke="#f5d23a" stroke-width="1.5" opacity="0.7"/>
  <rect x="20" y="440" width="360" height="100" fill="#000" opacity="0.55"/>
  <text x="200" y="475" font-family="sans-serif" font-size="22" font-weight="bold" text-anchor="middle" fill="#3acf5c">Graffiti Warden</text>
  <text x="200" y="500" font-family="sans-serif" font-size="11" text-anchor="middle" fill="#f5d23a" letter-spacing="3">BOOM-BAP 1990S</text>
  <text x="200" y="525" font-family="sans-serif" font-size="10" text-anchor="middle" fill="#ffffff" opacity="0.7" letter-spacing="2">COMMON</text>
</svg>