<svg xmlns="http://www.w3.org/2000/svg" viewBox="0 0 400 560" preserveAspectRatio="xMidYMid slice">
  <defs>
    <linearGradient id="bg" x1="0" y1="0" x2="0" y2="1">
      <stop offset="0" stop-color="#0a0a0a"/>
      <stop offset="1" stop-color="#1f1f1f"/>
    </linearGradient>
    <radialGradient id="glow" cx="50%" cy="42%" r="50%">
      <stop offset="0" stop-color="#c9a84c" stop-opacity="0.55"/>
      <stop offset="0.5" stop-color="#c9a84c" stop-opacity="0.12"/>
      <stop offset="1" stop-color="#c9a84c" stop-opacity="0"/>
    </radialGradient>
  </defs>
  <rect width="400" height="560" fill="url(#bg)"/>
  <rect width="400" height="560" fill="url(#glow)"/>
  <circle cx="253.3" cy="251.5" r="0.6" fill="#f0d78c" opacity="0.37"/><circle cx="338.5" cy="187.1" r="1.2" fill="#f0d78c" opacity="0.45"/><circle cx="120.9" cy="272.4" r="1.7" fill="#f0d78c" opacity="0.40"/><circle cx="306.5" cy="106.6" r="0.6" fill="#f0d78c" opacity="0.57"/><circle cx="31.2" cy="387.8" r="1.7" fill="#f0d78c" opacity="0.64"/><circle cx="282.7" cy="238.1" r="0.5" fill="#f0d78c" opacity="0.46"/><circle cx="389.4" cy="500.8" r="1.3" fill="#f0d78c" opacity="0.64"/><circle cx="375.8" cy="132.2" r="1.3" fill="#f0d78c" opacity="0.48"/><circle cx="385.3" cy="245.2" r="0.8" fill="#f0d78c" opacity="0.28"/><circle cx="368.5" cy="127.7" r="0.9" fill="#f0d78c" opacity="0.42"/><circle cx="38.9" cy="353.6" r="1.1" fill="#f0d78c" opacity="0.31"/><circle cx="295.4" cy="107.1" r="2.0" fill="#f0d78c" opacity="0.69"/><circle cx="110.6" cy="480.5" r="1.7" fill="#f0d78c" opacity="0.23"/><circle cx="87.2" cy="305.4" r="1.9" fill="#f0d78c" opacity="0.45"/><circle cx="279.5" cy="197.2" r="0.6" fill="#f0d78c" opacity="0.53"/><circle cx="282.4" cy="252.6" r="1.7" fill="#f0d78c" opacity="0.41"/><circle cx="387.4" cy="360.9" r="1.9" fill="#f0d78c" opacity="0.23"/><circle cx="204.3" cy="328.7" r="0.7" fill="#f0d78c" opacity="0.62"/><circle cx="350.4" cy="377.2" r="0.6" fill="#f0d78c" opacity="0.30"/><circle cx="6.0" cy="333.5" r="1.9" fill="#f0d78c" opacity="0.50"/><circle cx="336.5" cy="315.1" r="1.8" fill="#f0d78c" opacity="0.31"/><circle cx="181.4" cy="107.8" r="0.7" fill="#f0d78c" opacity="0.22"/><circle cx="9.9" cy="36.4" r="1.6" fill="#f0d78c" opacity="0.59"/><circle cx="142.9" cy="529.6" r="1.8" fill="#f0d78c" opacity="0.43"/><circle cx="42.1" cy="377.6" r="1.7" fill="#f0d78c" opacity="0.51"/><circle cx="265.6" cy="403.0" r="1.9" fill="#f0d78c" opacity="0.32"/><circle cx="289.9" cy="225.6" r="1.7" fill="#f0d78c" opacity="0.30"/><circle cx="199.0" cy="440.0" r="1.3" fill="#f0d78c" opacity="0.51"/><circle cx="239.8" cy="126.7" r="0.8" fill="#f0d78c" opacity="0.53"/><circle cx="244.4" cy="336.5" r="1.1" fill="#f0d78c" opacity="0.27"/><circle cx="118.9" cy="108.4" r="0.8" fill="#f0d78c" opacity="0.54"/><circle cx="199.2" cy="140.7" r="0.8" fill="#f0d78c" opacity="0.56"/><circle cx="272.9" cy="115.4" r="0.9" fill="#f0d78c" opacity="0.66"/><circle cx="68.4" cy="316.0" r="1.1" fill="#f0d78c" opacity="0.45"/><circle cx="10.5" cy="258.4" r="1.4" fill="#f0d78c" opacity="0.23"/><circle cx="242.2" cy="495.9" r="0.7" fill="#f0d78c" opacity="0.31"/><circle cx="314.3" cy="316.2" r="1.6" fill="#f0d78c" opacity="0.56"/><circle cx="340.2" cy="293.2" r="0.6" fill="#f0d78c" opacity="0.39"/><circle cx="18.9" cy="171.1" r="1.4" fill="#f0d78c" opacity="0.55"/><circle cx="323.0" cy="482.3" r="1.9" fill="#f0d78c" opacity="0.20"/>
  <circle cx="200" cy="240" r="67.67211934156379" fill="none" stroke="#c9a84c" stroke-opacity="0.08" stroke-width="1.0181412894375856"/><circle cx="200" cy="240" r="86.61910150891633" fill="none" stroke="#c9a84c" stroke-opacity="0.12" stroke-width="1.988425925925926"/><circle cx="200" cy="240" r="111.08871742112483" fill="none" stroke="#c9a84c" stroke-opacity="0.16" stroke-width="2.4628257887517147"/><circle cx="200" cy="240" r="126.66121399176954" fill="none" stroke="#c9a84c" stroke-opacity="0.20" stroke-width="2.910476680384088"/><circle cx="200" cy="240" r="155.06498628257887" fill="none" stroke="#c9a84c" stroke-opacity="0.24" stroke-width="1.2819958847736626"/>
  <text x="200" y="270" font-family="serif" font-size="140" text-anchor="middle" fill="#f0d78c" opacity="0.85">🎷</text>
  <rect x="4" y="4" width="392" height="552" fill="none" stroke="#c9a84c" stroke-width="1.5" opacity="0.7"/>
  <rect x="20" y="440" width="360" height="100" fill="#000" opacity="0.55"/>
  <text x="200" y="475" font-family="serif" font-size="22" font-weight="bold" text-anchor="middle" fill="#f0d78c">Silk Gunner</text>
  <text x="200" y="500" font-family="sans-serif" font-size="11" text-anchor="middle" fill="#c9a84c" letter-spacing="3">ROARING 1920S</text>
  <text x="200" y="525" font-family="sans-serif" font-size="10" text-anchor="middle" fill="#ffffff" opacity="0.7" letter-spacing="2">COMMON</text>
</svg>