<svg xmlns="http://www.w3.org/2000/svg" viewBox="0 0 400 560" preserveAspectRatio="xMidYMid slice">
  <defs>
    <linearGradient id="bg" x1="0" y1="0" x2="0" y2="1">
      <stop offset="0" stop-color="#050a1a"/>
      <stop offset="1" stop-color="#0f1f3d"/>
    </linearGradient>
    <radialGradient id="glow" cx="50%" cy="42%" r="50%">
      <stop offset="0" stop-color="#3acff5" stop-opacity="0.55"/>
      <stop offset="0.5" stop-color="#3acff5" stop-opacity="0.12"/>
      <stop offset="1" stop-color="#3acff5" stop-opacity="0"/>
    </radialGradient>
  </defs>
  <rect width="400" height="560" fill="url(#bg)"/>
  <rect width="400" height="560" fill="url(#glow)"/>
  <circle cx="389.9" cy="229.9" r="1.9" fill="#a855f7" opacity="0.48"/><circle cx="333.2" cy="8.1" r="0.5" fill="#a855f7" opacity="0.66"/><circle cx="92.1" cy="413.2" r="0.6" fill="#a855f7" opacity="0.70"/><circle cx="61.7" cy="421.9" r="1.6" fill="#a855f7" opacity="0.54"/><circle cx="133.3" cy="483.6" r="1.6" fill="#a855f7" opacity="0.32"/><circle cx="316.9" cy="404.8" r="1.9" fill="#a855f7" opacity="0.67"/><circle cx="29.7" cy="406.6" r="1.6" fill="#a855f7" opacity="0.30"/><circle cx="52.0" cy="316.2" r="1.3" fill="#a855f7" opacity="0.47"/><circle cx="349.2" cy="251.1" r="1.0" fill="#a855f7" opacity="0.23"/><circle cx="160.7" cy="557.1" r="1.3" fill="#a855f7" opacity="0.60"/><circle cx="355.9" cy="439.1" r="0.6" fill="#a855f7" opacity="0.42"/><circle cx="55.5" cy="325.7" r="0.6" fill="#a855f7" opacity="0.22"/><circle cx="321.4" cy="127.0" r="1.9" fill="#a855f7" opacity="0.27"/><circle cx="111.6" cy="105.7" r="2.0" fill="#a855f7" opacity="0.53"/><circle cx="102.6" cy="441.7" r="1.7" fill="#a855f7" opacity="0.47"/><circle cx="378.3" cy="49.4" r="1.2" fill="#a855f7" opacity="0.64"/><circle cx="385.8" cy="249.4" r="0.5" fill="#a855f7" opacity="0.62"/><circle cx="357.0" cy="412.5" r="0.7" fill="#a855f7" opacity="0.31"/><circle cx="198.2" cy="137.7" r="1.8" fill="#a855f7" opacity="0.55"/><circle cx="245.2" cy="123.4" r="1.6" fill="#a855f7" opacity="0.52"/><circle cx="285.6" cy="51.5" r="1.6" fill="#a855f7" opacity="0.58"/><circle cx="47.7" cy="205.3" r="1.7" fill="#a855f7" opacity="0.33"/><circle cx="356.4" cy="101.1" r="1.9" fill="#a855f7" opacity="0.57"/><circle cx="154.8" cy="291.9" r="1.0" fill="#a855f7" opacity="0.61"/><circle cx="193.6" cy="65.5" r="1.8" fill="#a855f7" opacity="0.31"/><circle cx="186.2" cy="555.9" r="0.7" fill="#a855f7" opacity="0.61"/><circle cx="231.5" cy="387.2" r="1.4" fill="#a855f7" opacity="0.23"/><circle cx="102.4" cy="91.7" r="1.7" fill="#a855f7" opacity="0.33"/><circle cx="1.2" cy="181.0" r="0.7" fill="#a855f7" opacity="0.45"/><circle cx="382.3" cy="150.6" r="0.6" fill="#a855f7" opacity="0.27"/><circle cx="40.8" cy="97.1" r="0.9" fill="#a855f7" opacity="0.22"/><circle cx="68.0" cy="469.9" r="1.3" fill="#a855f7" opacity="0.45"/><circle cx="73.8" cy="515.5" r="1.4" fill="#a855f7" opacity="0.57"/><circle cx="275.5" cy="455.0" r="1.9" fill="#a855f7" opacity="0.32"/><circle cx="253.3" cy="115.8" r="2.0" fill="#a855f7" opacity="0.43"/><circle cx="372.7" cy="175.2" r="1.5" fill="#a855f7" opacity="0.47"/><circle cx="273.2" cy="418.9" r="1.2" fill="#a855f7" opacity="0.45"/><circle cx="23.8" cy="52.0" r="0.7" fill="#a855f7" opacity="0.22"/><circle cx="345.7" cy="63.0" r="0.6" fill="#a855f7" opacity="0.29"/><circle cx="300.5" cy="362.1" r="1.2" fill="#a855f7" opacity="0.45"/><circle cx="46.2" cy="92.0" r="1.7" fill="#a855f7" opacity="0.66"/><circle cx="259.4" cy="552.4" r="1.2" fill="#a855f7" opacity="0.38"/><circle cx="224.1" cy="97.9" r="1.5" fill="#a855f7" opacity="0.65"/><circle cx="187.1" cy="49.0" r="1.2" fill="#a855f7" opacity="0.58"/><circle cx="380.5" cy="336.5" r="1.2" fill="#a855f7" opacity="0.55"/><circle cx="310.6" cy="559.6" r="1.6" fill="#a855f7" opacity="0.40"/><circle cx="313.1" cy="296.3" r="1.8" fill="#a855f7" opacity="0.32"/><circle cx="175.7" cy="348.8" r="1.6" fill="#a855f7" opacity="0.65"/><circle cx="26.8" cy="440.5" r="1.0" fill="#a855f7" opacity="0.51"/><circle cx="291.1" cy="87.4" r="1.5" fill="#a855f7" opacity="0.70"/>
  <circle cx="200" cy="240" r="66.95651577503429" fill="none" stroke="#3acff5" stroke-opacity="0.08" stroke-width="1.0609482167352537"/><circle cx="200" cy="240" r="87.20802469135802" fill="none" stroke="#3acff5" stroke-opacity="0.12" stroke-width="1.3820558984910836"/><circle cx="200" cy="240" r="111.69821673525377" fill="none" stroke="#3acff5" stroke-opacity="0.16" stroke-width="1.7011059670781892"/><circle cx="200" cy="240" r="131.6369684499314" fill="none" stroke="#3acff5" stroke-opacity="0.20" stroke-width="2.7835305212620027"/><circle cx="200" cy="240" r="152.16008230452675" fill="none" stroke="#3acff5" stroke-opacity="0.24" stroke-width="2.6540209190672153"/><circle cx="200" cy="240" r="171.88484224965705" fill="none" stroke="#3acff5" stroke-opacity="0.28" stroke-width="2.1520833333333336"/>
  <text x="200" y="270" font-family="sans-serif" font-size="140" text-anchor="middle" fill="#a855f7" opacity="0.85">💎</text>
  <rect x="8" y="8" width="384" height="544" fill="none" stroke="#3acff5" stroke-width="3" opacity="0.7"/>
  <rect x="20" y="440" width="360" height="100" fill="#000" opacity="0.55"/>
  <text x="200" y="475" font-family="sans-serif" font-size="22" font-weight="bold" text-anchor="middle" fill="#a855f7">Glass CEO</text>
  <text x="200" y="500" font-family="sans-serif" font-size="11" text-anchor="middle" fill="#3acff5" letter-spacing="3">NEON 2020S</text>
  <text x="200" y="525" font-family="sans-serif" font-size="10" text-anchor="middle" fill="#ffffff" opacity="0.7" letter-spacing="2">RARE</text>
</svg>