<svg xmlns="http://www.w3.org/2000/svg" viewBox="0 0 400 560" preserveAspectRatio="xMidYMid slice">
  <defs>
    <linearGradient id="bg" x1="0" y1="0" x2="0" y2="1">
      <stop offset="0" stop-color="#1a0f04"/>
      <stop offset="1" stop-color="#3d2410"/>
    </linearGradient>
    <radialGradient id="glow" cx="50%" cy="42%" r="50%">
      <stop offset="0" stop-color="#d4a84c" stop-opacity="0.55"/>
      <stop offset="0.5" stop-color="#d4a84c" stop-opacity="0.12"/>
      <stop offset="1" stop-color="#d4a84c" stop-opacity="0"/>
    </radialGradient>
  </defs>
  <rect width="400" height="560" fill="url(#bg)"/>
  <rect width="400" height="560" fill="url(#glow)"/>
  <circle cx="139.1" cy="129.1" r="1.8" fill="#f5d77a" opacity="0.34"/><circle cx="20.2" cy="518.7" r="1.3" fill="#f5d77a" opacity="0.54"/><circle cx="378.7" cy="325.1" r="1.3" fill="#f5d77a" opacity="0.36"/><circle cx="305.9" cy="558.0" r="1.2" fill="#f5d77a" opacity="0.46"/><circle cx="211.7" cy="463.6" r="0.9" fill="#f5d77a" opacity="0.47"/><circle cx="313.4" cy="263.1" r="1.1" fill="#f5d77a" opacity="0.58"/><circle cx="191.2" cy="343.8" r="0.8" fill="#f5d77a" opacity="0.57"/><circle cx="210.6" cy="263.3" r="1.5" fill="#f5d77a" opacity="0.49"/><circle cx="11.1" cy="367.0" r="0.8" fill="#f5d77a" opacity="0.34"/><circle cx="61.7" cy="420.1" r="1.5" fill="#f5d77a" opacity="0.48"/><circle cx="283.6" cy="291.1" r="1.0" fill="#f5d77a" opacity="0.44"/><circle cx="138.4" cy="450.2" r="1.2" fill="#f5d77a" opacity="0.47"/><circle cx="184.1" cy="40.1" r="1.2" fill="#f5d77a" opacity="0.55"/><circle cx="297.3" cy="360.5" r="1.9" fill="#f5d77a" opacity="0.64"/><circle cx="162.0" cy="326.0" r="1.9" fill="#f5d77a" opacity="0.30"/><circle cx="25.0" cy="137.0" r="1.1" fill="#f5d77a" opacity="0.60"/><circle cx="118.5" cy="284.6" r="0.8" fill="#f5d77a" opacity="0.44"/><circle cx="348.5" cy="367.6" r="0.8" fill="#f5d77a" opacity="0.66"/><circle cx="251.1" cy="524.4" r="0.6" fill="#f5d77a" opacity="0.46"/><circle cx="13.7" cy="436.9" r="1.6" fill="#f5d77a" opacity="0.67"/><circle cx="164.7" cy="388.6" r="0.6" fill="#f5d77a" opacity="0.40"/><circle cx="329.0" cy="455.5" r="0.8" fill="#f5d77a" opacity="0.47"/><circle cx="249.6" cy="70.7" r="0.9" fill="#f5d77a" opacity="0.65"/><circle cx="277.2" cy="202.1" r="0.6" fill="#f5d77a" opacity="0.34"/><circle cx="125.4" cy="303.6" r="1.0" fill="#f5d77a" opacity="0.46"/><circle cx="293.0" cy="119.3" r="1.1" fill="#f5d77a" opacity="0.23"/><circle cx="152.7" cy="181.6" r="1.9" fill="#f5d77a" opacity="0.32"/><circle cx="307.0" cy="442.1" r="0.8" fill="#f5d77a" opacity="0.26"/><circle cx="10.4" cy="396.0" r="1.7" fill="#f5d77a" opacity="0.23"/><circle cx="57.8" cy="140.3" r="1.0" fill="#f5d77a" opacity="0.67"/><circle cx="340.5" cy="124.2" r="1.3" fill="#f5d77a" opacity="0.22"/><circle cx="68.6" cy="154.3" r="0.8" fill="#f5d77a" opacity="0.50"/><circle cx="259.1" cy="451.6" r="1.8" fill="#f5d77a" opacity="0.22"/><circle cx="92.5" cy="283.4" r="1.8" fill="#f5d77a" opacity="0.65"/><circle cx="334.1" cy="327.3" r="0.9" fill="#f5d77a" opacity="0.35"/><circle cx="223.5" cy="368.8" r="1.0" fill="#f5d77a" opacity="0.31"/><circle cx="229.7" cy="173.0" r="0.5" fill="#f5d77a" opacity="0.40"/><circle cx="273.8" cy="168.5" r="1.3" fill="#f5d77a" opacity="0.63"/><circle cx="217.5" cy="265.3" r="0.9" fill="#f5d77a" opacity="0.27"/><circle cx="218.7" cy="166.3" r="1.3" fill="#f5d77a" opacity="0.30"/><circle cx="154.2" cy="51.2" r="1.8" fill="#f5d77a" opacity="0.67"/><circle cx="107.7" cy="514.4" r="1.1" fill="#f5d77a" opacity="0.44"/><circle cx="326.3" cy="76.6" r="0.7" fill="#f5d77a" opacity="0.68"/><circle cx="242.0" cy="348.6" r="1.7" fill="#f5d77a" opacity="0.30"/><circle cx="160.9" cy="369.4" r="1.1" fill="#f5d77a" opacity="0.64"/><circle cx="19.0" cy="277.3" r="1.2" fill="#f5d77a" opacity="0.37"/><circle cx="3.8" cy="314.3" r="2.0" fill="#f5d77a" opacity="0.36"/><circle cx="243.8" cy="203.7" r="1.8" fill="#f5d77a" opacity="0.21"/><circle cx="363.6" cy="21.7" r="0.8" fill="#f5d77a" opacity="0.22"/><circle cx="106.5" cy="321.4" r="0.7" fill="#f5d77a" opacity="0.68"/>
  <circle cx="200" cy="240" r="64.48247599451304" fill="none" stroke="#d4a84c" stroke-opacity="0.08" stroke-width="2.299948559670782"/><circle cx="200" cy="240" r="86.97678326474623" fill="none" stroke="#d4a84c" stroke-opacity="0.12" stroke-width="1.6879286694101507"/><circle cx="200" cy="240" r="107.38878600823045" fill="none" stroke="#d4a84c" stroke-opacity="0.16" stroke-width="1.1973079561042523"/><circle cx="200" cy="240" r="132.33576817558298" fill="none" stroke="#d4a84c" stroke-opacity="0.20" stroke-width="1.6675925925925927"/><circle cx="200" cy="240" r="154.80538408779148" fill="none" stroke="#d4a84c" stroke-opacity="0.24" stroke-width="1.6419924554183813"/><circle cx="200" cy="240" r="176.37788065843623" fill="none" stroke="#d4a84c" stroke-opacity="0.28" stroke-width="1.5896433470507545"/>
  <text x="200" y="270" font-family="serif" font-size="140" text-anchor="middle" fill="#f5d77a" opacity="0.85">☥</text>
  <rect x="8" y="8" width="384" height="544" fill="none" stroke="#d4a84c" stroke-width="3" opacity="0.7"/>
  <rect x="20" y="440" width="360" height="100" fill="#000" opacity="0.55"/>
  <text x="200" y="475" font-family="serif" font-size="22" font-weight="bold" text-anchor="middle" fill="#f5d77a">Star Sphinx</text>
  <text x="200" y="500" font-family="sans-serif" font-size="11" text-anchor="middle" fill="#d4a84c" letter-spacing="3">DYNASTY</text>
  <text x="200" y="525" font-family="sans-serif" font-size="10" text-anchor="middle" fill="#ffffff" opacity="0.7" letter-spacing="2">RARE</text>
</svg>