<svg xmlns="http://www.w3.org/2000/svg" viewBox="0 0 400 560" preserveAspectRatio="xMidYMid slice">
  <defs>
    <linearGradient id="bg" x1="0" y1="0" x2="0" y2="1">
      <stop offset="0" stop-color="#1a0f04"/>
      <stop offset="1" stop-color="#3d2410"/>
    </linearGradient>
    <radialGradient id="glow" cx="50%" cy="42%" r="50%">
      <stop offset="0" stop-color="#d4a84c" stop-opacity="0.55"/>
      <stop offset="0.5" stop-color="#d4a84c" stop-opacity="0.12"/>
      <stop offset="1" stop-color="#d4a84c" stop-opacity="0"/>
    </radialGradient>
  </defs>
  <rect width="400" height="560" fill="url(#bg)"/>
  <rect width="400" height="560" fill="url(#glow)"/>
  <circle cx="138.8" cy="454.4" r="0.9" fill="#f5d77a" opacity="0.30"/><circle cx="172.6" cy="324.8" r="1.1" fill="#f5d77a" opacity="0.45"/><circle cx="56.6" cy="144.6" r="1.1" fill="#f5d77a" opacity="0.38"/><circle cx="111.8" cy="342.3" r="1.5" fill="#f5d77a" opacity="0.63"/><circle cx="199.9" cy="268.0" r="1.1" fill="#f5d77a" opacity="0.45"/><circle cx="79.0" cy="184.5" r="0.5" fill="#f5d77a" opacity="0.32"/><circle cx="25.5" cy="271.6" r="0.6" fill="#f5d77a" opacity="0.21"/><circle cx="123.5" cy="3.8" r="1.4" fill="#f5d77a" opacity="0.65"/><circle cx="219.8" cy="141.5" r="1.5" fill="#f5d77a" opacity="0.25"/><circle cx="146.6" cy="55.7" r="0.6" fill="#f5d77a" opacity="0.38"/><circle cx="210.1" cy="465.4" r="1.5" fill="#f5d77a" opacity="0.40"/><circle cx="345.9" cy="388.9" r="0.7" fill="#f5d77a" opacity="0.48"/><circle cx="341.9" cy="68.0" r="1.0" fill="#f5d77a" opacity="0.48"/><circle cx="326.3" cy="346.4" r="0.9" fill="#f5d77a" opacity="0.51"/><circle cx="323.8" cy="179.9" r="1.9" fill="#f5d77a" opacity="0.37"/><circle cx="77.8" cy="121.8" r="1.4" fill="#f5d77a" opacity="0.34"/><circle cx="338.8" cy="19.9" r="0.5" fill="#f5d77a" opacity="0.33"/><circle cx="20.3" cy="448.1" r="1.8" fill="#f5d77a" opacity="0.23"/><circle cx="21.2" cy="30.4" r="1.2" fill="#f5d77a" opacity="0.30"/><circle cx="114.2" cy="419.4" r="1.5" fill="#f5d77a" opacity="0.68"/><circle cx="101.9" cy="446.5" r="1.2" fill="#f5d77a" opacity="0.41"/><circle cx="38.6" cy="167.2" r="1.5" fill="#f5d77a" opacity="0.67"/><circle cx="319.3" cy="238.1" r="1.7" fill="#f5d77a" opacity="0.40"/><circle cx="35.4" cy="548.7" r="1.3" fill="#f5d77a" opacity="0.24"/><circle cx="396.7" cy="345.4" r="1.7" fill="#f5d77a" opacity="0.31"/><circle cx="20.7" cy="409.4" r="0.6" fill="#f5d77a" opacity="0.33"/><circle cx="87.4" cy="7.9" r="1.5" fill="#f5d77a" opacity="0.55"/><circle cx="162.3" cy="378.4" r="1.4" fill="#f5d77a" opacity="0.54"/><circle cx="285.0" cy="186.6" r="0.9" fill="#f5d77a" opacity="0.30"/><circle cx="124.6" cy="317.5" r="1.3" fill="#f5d77a" opacity="0.68"/><circle cx="2.0" cy="79.6" r="1.5" fill="#f5d77a" opacity="0.70"/><circle cx="179.0" cy="503.1" r="1.9" fill="#f5d77a" opacity="0.63"/><circle cx="13.6" cy="170.8" r="1.7" fill="#f5d77a" opacity="0.45"/><circle cx="182.4" cy="382.3" r="1.6" fill="#f5d77a" opacity="0.61"/><circle cx="369.2" cy="52.2" r="1.8" fill="#f5d77a" opacity="0.67"/><circle cx="21.1" cy="501.1" r="0.7" fill="#f5d77a" opacity="0.21"/><circle cx="170.2" cy="539.8" r="1.1" fill="#f5d77a" opacity="0.62"/><circle cx="322.5" cy="327.3" r="1.3" fill="#f5d77a" opacity="0.25"/><circle cx="13.9" cy="1.8" r="0.9" fill="#f5d77a" opacity="0.27"/><circle cx="232.0" cy="365.4" r="1.0" fill="#f5d77a" opacity="0.56"/><circle cx="305.3" cy="21.5" r="1.7" fill="#f5d77a" opacity="0.69"/><circle cx="258.5" cy="166.2" r="1.6" fill="#f5d77a" opacity="0.49"/><circle cx="234.7" cy="232.5" r="0.9" fill="#f5d77a" opacity="0.25"/><circle cx="184.5" cy="68.4" r="0.9" fill="#f5d77a" opacity="0.34"/><circle cx="221.6" cy="247.6" r="0.9" fill="#f5d77a" opacity="0.69"/><circle cx="44.7" cy="514.5" r="1.7" fill="#f5d77a" opacity="0.53"/><circle cx="226.6" cy="281.2" r="1.3" fill="#f5d77a" opacity="0.53"/><circle cx="169.9" cy="59.4" r="1.4" fill="#f5d77a" opacity="0.21"/><circle cx="328.8" cy="464.5" r="1.5" fill="#f5d77a" opacity="0.25"/><circle cx="298.4" cy="473.2" r="1.0" fill="#f5d77a" opacity="0.59"/><circle cx="370.0" cy="535.0" r="1.0" fill="#f5d77a" opacity="0.37"/><circle cx="153.6" cy="456.1" r="1.2" fill="#f5d77a" opacity="0.22"/><circle cx="266.4" cy="457.9" r="1.0" fill="#f5d77a" opacity="0.35"/><circle cx="288.7" cy="367.5" r="0.7" fill="#f5d77a" opacity="0.51"/><circle cx="185.8" cy="302.5" r="1.9" fill="#f5d77a" opacity="0.28"/><circle cx="397.4" cy="48.5" r="0.7" fill="#f5d77a" opacity="0.64"/><circle cx="192.5" cy="490.4" r="1.5" fill="#f5d77a" opacity="0.47"/><circle cx="292.2" cy="377.0" r="1.5" fill="#f5d77a" opacity="0.27"/><circle cx="158.1" cy="178.3" r="1.3" fill="#f5d77a" opacity="0.31"/><circle cx="348.2" cy="157.0" r="1.4" fill="#f5d77a" opacity="0.58"/>
  <circle cx="200" cy="240" r="66.07729766803841" fill="none" stroke="#d4a84c" stroke-opacity="0.08" stroke-width="2.659044924554184"/><circle cx="200" cy="240" r="86.79794238683128" fill="none" stroke="#d4a84c" stroke-opacity="0.12" stroke-width="1.8381772976680384"/><circle cx="200" cy="240" r="105.23875171467765" fill="none" stroke="#d4a84c" stroke-opacity="0.16" stroke-width="1.8300668724279836"/><circle cx="200" cy="240" r="129.49849108367627" fill="none" stroke="#d4a84c" stroke-opacity="0.20" stroke-width="2.2890346364883403"/><circle cx="200" cy="240" r="154.9351851851852" fill="none" stroke="#d4a84c" stroke-opacity="0.24" stroke-width="1.461994170096022"/><circle cx="200" cy="240" r="175.72167352537724" fill="none" stroke="#d4a84c" stroke-opacity="0.28" stroke-width="1.7440072016460906"/><circle cx="200" cy="240" r="193.73449931412895" fill="none" stroke="#d4a84c" stroke-opacity="0.32" stroke-width="2.5671724965706444"/>
  <text x="200" y="270" font-family="serif" font-size="140" text-anchor="middle" fill="#f5d77a" opacity="0.85">☥</text>
  <rect x="12" y="12" width="376" height="536" fill="none" stroke="#d4a84c" stroke-width="4.5" opacity="0.7"/>
  <rect x="20" y="440" width="360" height="100" fill="#000" opacity="0.55"/>
  <text x="200" y="475" font-family="serif" font-size="22" font-weight="bold" text-anchor="middle" fill="#f5d77a">Moon Oracle</text>
  <text x="200" y="500" font-family="sans-serif" font-size="11" text-anchor="middle" fill="#d4a84c" letter-spacing="3">DYNASTY</text>
  <text x="200" y="525" font-family="sans-serif" font-size="10" text-anchor="middle" fill="#ffffff" opacity="0.7" letter-spacing="2">DIVINE</text>
</svg>