<svg xmlns="http://www.w3.org/2000/svg" viewBox="0 0 400 560" preserveAspectRatio="xMidYMid slice">
  <defs>
    <linearGradient id="bg" x1="0" y1="0" x2="0" y2="1">
      <stop offset="0" stop-color="#0a1a0f"/>
      <stop offset="1" stop-color="#1a3d24"/>
    </linearGradient>
    <radialGradient id="glow" cx="50%" cy="42%" r="50%">
      <stop offset="0" stop-color="#f5d23a" stop-opacity="0.55"/>
      <stop offset="0.5" stop-color="#f5d23a" stop-opacity="0.12"/>
      <stop offset="1" stop-color="#f5d23a" stop-opacity="0"/>
    </radialGradient>
  </defs>
  <rect width="400" height="560" fill="url(#bg)"/>
  <rect width="400" height="560" fill="url(#glow)"/>
  <circle cx="157.4" cy="28.7" r="1.2" fill="#3acf5c" opacity="0.53"/><circle cx="56.2" cy="118.0" r="1.6" fill="#3acf5c" opacity="0.65"/><circle cx="37.3" cy="87.6" r="1.6" fill="#3acf5c" opacity="0.46"/><circle cx="95.8" cy="34.1" r="1.9" fill="#3acf5c" opacity="0.42"/><circle cx="123.0" cy="406.9" r="0.7" fill="#3acf5c" opacity="0.64"/><circle cx="128.8" cy="452.5" r="0.8" fill="#3acf5c" opacity="0.27"/><circle cx="330.5" cy="392.0" r="1.4" fill="#3acf5c" opacity="0.51"/><circle cx="308.3" cy="52.8" r="1.4" fill="#3acf5c" opacity="0.62"/><circle cx="27.7" cy="112.2" r="1.0" fill="#3acf5c" opacity="0.67"/><circle cx="328.2" cy="355.9" r="0.6" fill="#3acf5c" opacity="0.64"/><circle cx="78.8" cy="549.0" r="1.7" fill="#3acf5c" opacity="0.41"/><circle cx="0.7" cy="0.0" r="1.6" fill="#3acf5c" opacity="0.49"/><circle cx="355.5" cy="299.1" r="0.7" fill="#3acf5c" opacity="0.64"/><circle cx="101.2" cy="29.0" r="1.1" fill="#3acf5c" opacity="0.35"/><circle cx="314.4" cy="489.4" r="0.7" fill="#3acf5c" opacity="0.57"/><circle cx="279.1" cy="34.9" r="1.0" fill="#3acf5c" opacity="0.35"/><circle cx="242.1" cy="546.0" r="0.6" fill="#3acf5c" opacity="0.27"/><circle cx="35.5" cy="273.5" r="0.7" fill="#3acf5c" opacity="0.24"/><circle cx="365.6" cy="496.6" r="1.1" fill="#3acf5c" opacity="0.59"/><circle cx="368.1" cy="233.3" r="1.3" fill="#3acf5c" opacity="0.51"/><circle cx="230.7" cy="285.8" r="1.1" fill="#3acf5c" opacity="0.35"/><circle cx="81.8" cy="377.5" r="2.0" fill="#3acf5c" opacity="0.20"/><circle cx="346.1" cy="24.4" r="1.0" fill="#3acf5c" opacity="0.39"/><circle cx="366.7" cy="339.6" r="1.5" fill="#3acf5c" opacity="0.20"/><circle cx="94.3" cy="51.0" r="1.6" fill="#3acf5c" opacity="0.52"/><circle cx="42.5" cy="292.5" r="0.9" fill="#3acf5c" opacity="0.26"/><circle cx="310.0" cy="248.2" r="1.3" fill="#3acf5c" opacity="0.66"/><circle cx="269.8" cy="450.5" r="1.0" fill="#3acf5c" opacity="0.37"/><circle cx="124.1" cy="291.0" r="1.8" fill="#3acf5c" opacity="0.44"/><circle cx="327.5" cy="384.9" r="1.6" fill="#3acf5c" opacity="0.54"/><circle cx="74.8" cy="269.2" r="1.2" fill="#3acf5c" opacity="0.60"/><circle cx="57.6" cy="393.1" r="1.9" fill="#3acf5c" opacity="0.27"/><circle cx="285.6" cy="3.2" r="1.8" fill="#3acf5c" opacity="0.67"/><circle cx="176.2" cy="440.5" r="1.7" fill="#3acf5c" opacity="0.53"/><circle cx="109.6" cy="412.4" r="0.6" fill="#3acf5c" opacity="0.58"/><circle cx="51.2" cy="36.2" r="1.5" fill="#3acf5c" opacity="0.40"/><circle cx="40.6" cy="217.8" r="2.0" fill="#3acf5c" opacity="0.49"/><circle cx="146.8" cy="161.9" r="1.9" fill="#3acf5c" opacity="0.20"/><circle cx="290.9" cy="297.4" r="1.6" fill="#3acf5c" opacity="0.56"/><circle cx="334.5" cy="534.3" r="1.5" fill="#3acf5c" opacity="0.33"/>
  <circle cx="200" cy="240" r="64.11172839506173" fill="none" stroke="#f5d23a" stroke-opacity="0.08" stroke-width="2.2190929355281206"/><circle cx="200" cy="240" r="86.82414266117969" fill="none" stroke="#f5d23a" stroke-opacity="0.12" stroke-width="2.7603652263374485"/><circle cx="200" cy="240" r="110.3184499314129" fill="none" stroke="#f5d23a" stroke-opacity="0.16" stroke-width="1.3983453360768174"/><circle cx="200" cy="240" r="131.73045267489712" fill="none" stroke="#f5d23a" stroke-opacity="0.20" stroke-width="2.1577246227709193"/><circle cx="200" cy="240" r="149.67743484224965" fill="none" stroke="#f5d23a" stroke-opacity="0.24" stroke-width="1.8780092592592592"/>
  <text x="200" y="270" font-family="sans-serif" font-size="140" text-anchor="middle" fill="#3acf5c" opacity="0.85">🎤</text>
  <rect x="4" y="4" width="392" height="552" fill="none" stroke="#f5d23a" stroke-width="1.5" opacity="0.7"/>
  <rect x="20" y="440" width="360" height="100" fill="#000" opacity="0.55"/>
  <text x="200" y="475" font-family="sans-serif" font-size="22" font-weight="bold" text-anchor="middle" fill="#3acf5c">Boom-Bap Prophet</text>
  <text x="200" y="500" font-family="sans-serif" font-size="11" text-anchor="middle" fill="#f5d23a" letter-spacing="3">BOOM-BAP 1990S</text>
  <text x="200" y="525" font-family="sans-serif" font-size="10" text-anchor="middle" fill="#ffffff" opacity="0.7" letter-spacing="2">COMMON</text>
</svg>