<svg xmlns="http://www.w3.org/2000/svg" viewBox="0 0 400 560" preserveAspectRatio="xMidYMid slice">
  <defs>
    <linearGradient id="bg" x1="0" y1="0" x2="0" y2="1">
      <stop offset="0" stop-color="#0a0a0a"/>
      <stop offset="1" stop-color="#1f1f1f"/>
    </linearGradient>
    <radialGradient id="glow" cx="50%" cy="42%" r="50%">
      <stop offset="0" stop-color="#c9a84c" stop-opacity="0.55"/>
      <stop offset="0.5" stop-color="#c9a84c" stop-opacity="0.12"/>
      <stop offset="1" stop-color="#c9a84c" stop-opacity="0"/>
    </radialGradient>
  </defs>
  <rect width="400" height="560" fill="url(#bg)"/>
  <rect width="400" height="560" fill="url(#glow)"/>
  <circle cx="86.7" cy="260.2" r="1.5" fill="#f0d78c" opacity="0.42"/><circle cx="218.4" cy="357.6" r="1.9" fill="#f0d78c" opacity="0.37"/><circle cx="190.5" cy="37.9" r="0.9" fill="#f0d78c" opacity="0.49"/><circle cx="116.5" cy="435.0" r="1.1" fill="#f0d78c" opacity="0.21"/><circle cx="95.1" cy="172.9" r="1.5" fill="#f0d78c" opacity="0.24"/><circle cx="299.3" cy="344.1" r="1.6" fill="#f0d78c" opacity="0.26"/><circle cx="131.4" cy="340.1" r="1.8" fill="#f0d78c" opacity="0.30"/><circle cx="45.9" cy="216.3" r="1.5" fill="#f0d78c" opacity="0.54"/><circle cx="37.7" cy="69.5" r="1.6" fill="#f0d78c" opacity="0.41"/><circle cx="398.3" cy="348.9" r="1.6" fill="#f0d78c" opacity="0.55"/><circle cx="337.4" cy="301.2" r="1.5" fill="#f0d78c" opacity="0.59"/><circle cx="72.4" cy="147.4" r="1.8" fill="#f0d78c" opacity="0.25"/><circle cx="383.6" cy="274.8" r="1.6" fill="#f0d78c" opacity="0.28"/><circle cx="36.3" cy="240.9" r="0.9" fill="#f0d78c" opacity="0.24"/><circle cx="270.1" cy="391.3" r="1.8" fill="#f0d78c" opacity="0.63"/><circle cx="354.1" cy="491.1" r="1.1" fill="#f0d78c" opacity="0.32"/><circle cx="209.3" cy="408.8" r="0.8" fill="#f0d78c" opacity="0.31"/><circle cx="97.4" cy="54.5" r="1.1" fill="#f0d78c" opacity="0.38"/><circle cx="176.5" cy="251.0" r="1.3" fill="#f0d78c" opacity="0.51"/><circle cx="323.0" cy="58.1" r="0.6" fill="#f0d78c" opacity="0.64"/><circle cx="221.0" cy="70.3" r="0.7" fill="#f0d78c" opacity="0.34"/><circle cx="117.3" cy="488.0" r="1.5" fill="#f0d78c" opacity="0.68"/><circle cx="244.1" cy="122.2" r="1.3" fill="#f0d78c" opacity="0.57"/><circle cx="107.6" cy="251.9" r="1.5" fill="#f0d78c" opacity="0.33"/><circle cx="43.4" cy="455.4" r="1.4" fill="#f0d78c" opacity="0.67"/><circle cx="239.4" cy="414.5" r="1.0" fill="#f0d78c" opacity="0.42"/><circle cx="23.8" cy="412.9" r="1.6" fill="#f0d78c" opacity="0.69"/><circle cx="221.3" cy="526.4" r="1.9" fill="#f0d78c" opacity="0.30"/><circle cx="175.3" cy="188.3" r="0.6" fill="#f0d78c" opacity="0.53"/><circle cx="236.3" cy="366.4" r="0.5" fill="#f0d78c" opacity="0.26"/><circle cx="117.8" cy="514.6" r="1.0" fill="#f0d78c" opacity="0.42"/><circle cx="318.7" cy="376.9" r="1.2" fill="#f0d78c" opacity="0.23"/><circle cx="211.7" cy="485.9" r="0.7" fill="#f0d78c" opacity="0.36"/><circle cx="399.4" cy="233.0" r="1.2" fill="#f0d78c" opacity="0.35"/><circle cx="136.1" cy="233.7" r="0.8" fill="#f0d78c" opacity="0.36"/><circle cx="216.8" cy="24.6" r="1.6" fill="#f0d78c" opacity="0.34"/><circle cx="132.9" cy="55.2" r="0.6" fill="#f0d78c" opacity="0.43"/><circle cx="294.2" cy="131.9" r="1.7" fill="#f0d78c" opacity="0.25"/><circle cx="118.2" cy="475.9" r="1.4" fill="#f0d78c" opacity="0.52"/><circle cx="384.9" cy="354.4" r="1.5" fill="#f0d78c" opacity="0.49"/>
  <circle cx="200" cy="240" r="67.99108367626886" fill="none" stroke="#c9a84c" stroke-opacity="0.08" stroke-width="2.6899605624142664"/><circle cx="200" cy="240" r="84.98333333333333" fill="none" stroke="#c9a84c" stroke-opacity="0.12" stroke-width="2.4184756515775034"/><circle cx="200" cy="240" r="110.65871056241427" fill="none" stroke="#c9a84c" stroke-opacity="0.16" stroke-width="2.5893775720164607"/><circle cx="200" cy="240" r="130.8937585733882" fill="none" stroke="#c9a84c" stroke-opacity="0.20" stroke-width="2.6347650891632375"/><circle cx="200" cy="240" r="153.49094650205762" fill="none" stroke="#c9a84c" stroke-opacity="0.24" stroke-width="1.2459962277091907"/>
  <text x="200" y="270" font-family="serif" font-size="140" text-anchor="middle" fill="#f0d78c" opacity="0.85">🎷</text>
  <rect x="4" y="4" width="392" height="552" fill="none" stroke="#c9a84c" stroke-width="1.5" opacity="0.7"/>
  <rect x="20" y="440" width="360" height="100" fill="#000" opacity="0.55"/>
  <text x="200" y="475" font-family="serif" font-size="22" font-weight="bold" text-anchor="middle" fill="#f0d78c">Pearl Maven</text>
  <text x="200" y="500" font-family="sans-serif" font-size="11" text-anchor="middle" fill="#c9a84c" letter-spacing="3">ROARING 1920S</text>
  <text x="200" y="525" font-family="sans-serif" font-size="10" text-anchor="middle" fill="#ffffff" opacity="0.7" letter-spacing="2">COMMON</text>
</svg>