<svg xmlns="http://www.w3.org/2000/svg" viewBox="0 0 400 560" preserveAspectRatio="xMidYMid slice">
  <defs>
    <linearGradient id="bg" x1="0" y1="0" x2="0" y2="1">
      <stop offset="0" stop-color="#1a0533"/>
      <stop offset="1" stop-color="#3d0f5c"/>
    </linearGradient>
    <radialGradient id="glow" cx="50%" cy="42%" r="50%">
      <stop offset="0" stop-color="#e94ec7" stop-opacity="0.55"/>
      <stop offset="0.5" stop-color="#e94ec7" stop-opacity="0.12"/>
      <stop offset="1" stop-color="#e94ec7" stop-opacity="0"/>
    </radialGradient>
  </defs>
  <rect width="400" height="560" fill="url(#bg)"/>
  <rect width="400" height="560" fill="url(#glow)"/>
  <circle cx="8.8" cy="552.4" r="1.9" fill="#ff9f43" opacity="0.39"/><circle cx="42.6" cy="422.8" r="0.6" fill="#ff9f43" opacity="0.53"/><circle cx="326.6" cy="242.6" r="0.6" fill="#ff9f43" opacity="0.47"/><circle cx="381.8" cy="440.3" r="1.0" fill="#ff9f43" opacity="0.21"/><circle cx="69.9" cy="366.0" r="0.6" fill="#ff9f43" opacity="0.54"/><circle cx="349.0" cy="282.5" r="1.5" fill="#ff9f43" opacity="0.41"/><circle cx="295.5" cy="369.6" r="1.6" fill="#ff9f43" opacity="0.30"/><circle cx="393.5" cy="101.8" r="0.9" fill="#ff9f43" opacity="0.24"/><circle cx="89.8" cy="239.5" r="1.1" fill="#ff9f43" opacity="0.33"/><circle cx="16.6" cy="153.7" r="1.6" fill="#ff9f43" opacity="0.47"/><circle cx="80.1" cy="3.4" r="1.0" fill="#ff9f43" opacity="0.48"/><circle cx="215.9" cy="486.9" r="1.7" fill="#ff9f43" opacity="0.57"/><circle cx="211.9" cy="166.0" r="0.5" fill="#ff9f43" opacity="0.57"/><circle cx="196.3" cy="444.4" r="1.9" fill="#ff9f43" opacity="0.60"/><circle cx="193.8" cy="277.9" r="1.4" fill="#ff9f43" opacity="0.45"/><circle cx="347.8" cy="219.8" r="0.9" fill="#ff9f43" opacity="0.43"/><circle cx="208.8" cy="117.9" r="1.5" fill="#ff9f43" opacity="0.41"/><circle cx="290.3" cy="546.1" r="1.3" fill="#ff9f43" opacity="0.32"/><circle cx="291.2" cy="128.4" r="0.7" fill="#ff9f43" opacity="0.38"/><circle cx="384.2" cy="517.4" r="1.0" fill="#ff9f43" opacity="0.27"/><circle cx="371.9" cy="544.5" r="0.7" fill="#ff9f43" opacity="0.50"/><circle cx="308.6" cy="265.2" r="1.0" fill="#ff9f43" opacity="0.26"/><circle cx="189.3" cy="336.1" r="1.2" fill="#ff9f43" opacity="0.49"/><circle cx="305.4" cy="86.7" r="0.8" fill="#ff9f43" opacity="0.33"/><circle cx="266.7" cy="443.4" r="1.2" fill="#ff9f43" opacity="0.40"/><circle cx="290.7" cy="507.4" r="1.7" fill="#ff9f43" opacity="0.42"/><circle cx="357.4" cy="105.9" r="1.0" fill="#ff9f43" opacity="0.64"/><circle cx="32.3" cy="476.4" r="0.9" fill="#ff9f43" opacity="0.63"/><circle cx="155.0" cy="284.6" r="1.9" fill="#ff9f43" opacity="0.38"/><circle cx="394.6" cy="415.5" r="0.8" fill="#ff9f43" opacity="0.26"/><circle cx="272.0" cy="177.6" r="1.0" fill="#ff9f43" opacity="0.29"/><circle cx="49.0" cy="41.1" r="1.4" fill="#ff9f43" opacity="0.22"/><circle cx="283.6" cy="268.8" r="1.2" fill="#ff9f43" opacity="0.54"/><circle cx="52.4" cy="480.3" r="1.1" fill="#ff9f43" opacity="0.20"/><circle cx="239.2" cy="150.2" r="1.3" fill="#ff9f43" opacity="0.26"/><circle cx="291.1" cy="39.1" r="1.7" fill="#ff9f43" opacity="0.29"/><circle cx="40.2" cy="77.8" r="0.6" fill="#ff9f43" opacity="0.21"/><circle cx="192.5" cy="425.3" r="0.9" fill="#ff9f43" opacity="0.33"/><circle cx="283.9" cy="99.8" r="1.9" fill="#ff9f43" opacity="0.36"/><circle cx="102.0" cy="463.4" r="0.5" fill="#ff9f43" opacity="0.64"/><circle cx="175.3" cy="119.5" r="1.2" fill="#ff9f43" opacity="0.28"/><circle cx="128.5" cy="264.2" r="1.1" fill="#ff9f43" opacity="0.58"/><circle cx="104.7" cy="330.5" r="1.9" fill="#ff9f43" opacity="0.34"/><circle cx="54.5" cy="166.4" r="1.9" fill="#ff9f43" opacity="0.43"/><circle cx="91.6" cy="345.6" r="2.0" fill="#ff9f43" opacity="0.28"/><circle cx="314.7" cy="52.5" r="1.3" fill="#ff9f43" opacity="0.62"/><circle cx="96.6" cy="379.2" r="0.8" fill="#ff9f43" opacity="0.62"/><circle cx="39.9" cy="157.4" r="0.9" fill="#ff9f43" opacity="0.29"/><circle cx="198.8" cy="2.5" r="1.0" fill="#ff9f43" opacity="0.33"/><circle cx="168.4" cy="11.2" r="0.5" fill="#ff9f43" opacity="0.67"/>
  <circle cx="200" cy="240" r="62.19794238683127" fill="none" stroke="#e94ec7" stroke-opacity="0.08" stroke-width="2.1881772976680383"/><circle cx="200" cy="240" r="88.63875171467764" fill="none" stroke="#e94ec7" stroke-opacity="0.12" stroke-width="2.1800668724279832"/><circle cx="200" cy="240" r="104.89849108367626" fill="none" stroke="#e94ec7" stroke-opacity="0.16" stroke-width="2.63903463648834"/><circle cx="200" cy="240" r="130.3351851851852" fill="none" stroke="#e94ec7" stroke-opacity="0.20" stroke-width="1.811994170096022"/><circle cx="200" cy="240" r="151.12167352537722" fill="none" stroke="#e94ec7" stroke-opacity="0.24" stroke-width="2.0940072016460904"/><circle cx="200" cy="240" r="177.13449931412893" fill="none" stroke="#e94ec7" stroke-opacity="0.28" stroke-width="2.917172496570645"/>
  <text x="200" y="270" font-family="sans-serif" font-size="140" text-anchor="middle" fill="#ff9f43" opacity="0.85">🪩</text>
  <rect x="8" y="8" width="384" height="544" fill="none" stroke="#e94ec7" stroke-width="3" opacity="0.7"/>
  <rect x="20" y="440" width="360" height="100" fill="#000" opacity="0.55"/>
  <text x="200" y="475" font-family="sans-serif" font-size="22" font-weight="bold" text-anchor="middle" fill="#ff9f43">Cosmic Slinger</text>
  <text x="200" y="500" font-family="sans-serif" font-size="11" text-anchor="middle" fill="#e94ec7" letter-spacing="3">COSMIC 1970S</text>
  <text x="200" y="525" font-family="sans-serif" font-size="10" text-anchor="middle" fill="#ffffff" opacity="0.7" letter-spacing="2">RARE</text>
</svg>