<svg xmlns="http://www.w3.org/2000/svg" viewBox="0 0 400 560" preserveAspectRatio="xMidYMid slice">
  <defs>
    <linearGradient id="bg" x1="0" y1="0" x2="0" y2="1">
      <stop offset="0" stop-color="#1a0533"/>
      <stop offset="1" stop-color="#3d0f5c"/>
    </linearGradient>
    <radialGradient id="glow" cx="50%" cy="42%" r="50%">
      <stop offset="0" stop-color="#e94ec7" stop-opacity="0.55"/>
      <stop offset="0.5" stop-color="#e94ec7" stop-opacity="0.12"/>
      <stop offset="1" stop-color="#e94ec7" stop-opacity="0"/>
    </radialGradient>
  </defs>
  <rect width="400" height="560" fill="url(#bg)"/>
  <rect width="400" height="560" fill="url(#glow)"/>
  <circle cx="122.0" cy="424.4" r="1.3" fill="#ff9f43" opacity="0.47"/><circle cx="337.3" cy="237.8" r="1.0" fill="#ff9f43" opacity="0.51"/><circle cx="313.9" cy="62.8" r="1.3" fill="#ff9f43" opacity="0.23"/><circle cx="106.1" cy="514.5" r="1.5" fill="#ff9f43" opacity="0.31"/><circle cx="109.1" cy="9.9" r="1.1" fill="#ff9f43" opacity="0.69"/><circle cx="214.0" cy="118.3" r="1.2" fill="#ff9f43" opacity="0.52"/><circle cx="31.0" cy="86.1" r="1.6" fill="#ff9f43" opacity="0.41"/><circle cx="177.1" cy="134.5" r="1.5" fill="#ff9f43" opacity="0.58"/><circle cx="232.7" cy="90.8" r="1.3" fill="#ff9f43" opacity="0.29"/><circle cx="163.2" cy="72.4" r="1.1" fill="#ff9f43" opacity="0.60"/><circle cx="8.1" cy="425.1" r="1.6" fill="#ff9f43" opacity="0.50"/><circle cx="236.6" cy="353.7" r="0.9" fill="#ff9f43" opacity="0.37"/><circle cx="369.5" cy="287.0" r="1.1" fill="#ff9f43" opacity="0.21"/><circle cx="268.7" cy="134.9" r="1.0" fill="#ff9f43" opacity="0.30"/><circle cx="92.3" cy="160.4" r="1.2" fill="#ff9f43" opacity="0.60"/><circle cx="116.6" cy="543.0" r="1.1" fill="#ff9f43" opacity="0.58"/><circle cx="25.7" cy="197.4" r="0.7" fill="#ff9f43" opacity="0.29"/><circle cx="66.5" cy="444.0" r="1.6" fill="#ff9f43" opacity="0.31"/><circle cx="71.0" cy="93.8" r="1.9" fill="#ff9f43" opacity="0.55"/><circle cx="345.6" cy="425.7" r="1.7" fill="#ff9f43" opacity="0.33"/><circle cx="25.9" cy="458.0" r="1.6" fill="#ff9f43" opacity="0.34"/><circle cx="99.6" cy="432.8" r="1.8" fill="#ff9f43" opacity="0.44"/><circle cx="295.1" cy="73.3" r="1.9" fill="#ff9f43" opacity="0.23"/><circle cx="237.1" cy="15.8" r="0.7" fill="#ff9f43" opacity="0.52"/><circle cx="68.9" cy="253.2" r="1.5" fill="#ff9f43" opacity="0.59"/><circle cx="140.9" cy="73.5" r="0.9" fill="#ff9f43" opacity="0.34"/><circle cx="166.9" cy="50.5" r="1.5" fill="#ff9f43" opacity="0.68"/><circle cx="245.6" cy="488.5" r="0.7" fill="#ff9f43" opacity="0.34"/><circle cx="149.7" cy="239.6" r="1.2" fill="#ff9f43" opacity="0.48"/><circle cx="81.9" cy="375.7" r="1.8" fill="#ff9f43" opacity="0.65"/><circle cx="96.3" cy="391.9" r="1.9" fill="#ff9f43" opacity="0.51"/><circle cx="188.1" cy="385.0" r="0.8" fill="#ff9f43" opacity="0.50"/><circle cx="248.7" cy="244.5" r="1.3" fill="#ff9f43" opacity="0.27"/><circle cx="287.8" cy="336.8" r="1.5" fill="#ff9f43" opacity="0.44"/><circle cx="122.8" cy="323.0" r="0.7" fill="#ff9f43" opacity="0.22"/><circle cx="134.0" cy="30.4" r="0.8" fill="#ff9f43" opacity="0.37"/><circle cx="286.7" cy="136.5" r="0.5" fill="#ff9f43" opacity="0.46"/><circle cx="220.5" cy="426.9" r="1.8" fill="#ff9f43" opacity="0.48"/><circle cx="4.5" cy="106.7" r="1.5" fill="#ff9f43" opacity="0.29"/><circle cx="359.7" cy="164.3" r="1.5" fill="#ff9f43" opacity="0.41"/>
  <circle cx="200" cy="240" r="66.0514060356653" fill="none" stroke="#e94ec7" stroke-opacity="0.08" stroke-width="2.4545267489711935"/><circle cx="200" cy="240" r="85.90373799725651" fill="none" stroke="#e94ec7" stroke-opacity="0.12" stroke-width="2.589420438957476"/><circle cx="200" cy="240" r="110.48858024691359" fill="none" stroke="#e94ec7" stroke-opacity="0.16" stroke-width="2.9938614540466393"/><circle cx="200" cy="240" r="131.31210562414267" fill="none" stroke="#e94ec7" stroke-opacity="0.20" stroke-width="1.3962448559670781"/><circle cx="200" cy="240" r="155.58419067215362" fill="none" stroke="#e94ec7" stroke-opacity="0.24" stroke-width="2.562002743484225"/>
  <text x="200" y="270" font-family="sans-serif" font-size="140" text-anchor="middle" fill="#ff9f43" opacity="0.85">🪩</text>
  <rect x="4" y="4" width="392" height="552" fill="none" stroke="#e94ec7" stroke-width="1.5" opacity="0.7"/>
  <rect x="20" y="440" width="360" height="100" fill="#000" opacity="0.55"/>
  <text x="200" y="475" font-family="sans-serif" font-size="22" font-weight="bold" text-anchor="middle" fill="#ff9f43">Wah-Wah Pharaoh</text>
  <text x="200" y="500" font-family="sans-serif" font-size="11" text-anchor="middle" fill="#e94ec7" letter-spacing="3">COSMIC 1970S</text>
  <text x="200" y="525" font-family="sans-serif" font-size="10" text-anchor="middle" fill="#ffffff" opacity="0.7" letter-spacing="2">COMMON</text>
</svg>