<svg xmlns="http://www.w3.org/2000/svg" viewBox="0 0 400 560" preserveAspectRatio="xMidYMid slice">
  <defs>
    <linearGradient id="bg" x1="0" y1="0" x2="0" y2="1">
      <stop offset="0" stop-color="#0a1a0f"/>
      <stop offset="1" stop-color="#1a3d24"/>
    </linearGradient>
    <radialGradient id="glow" cx="50%" cy="42%" r="50%">
      <stop offset="0" stop-color="#f5d23a" stop-opacity="0.55"/>
      <stop offset="0.5" stop-color="#f5d23a" stop-opacity="0.12"/>
      <stop offset="1" stop-color="#f5d23a" stop-opacity="0"/>
    </radialGradient>
  </defs>
  <rect width="400" height="560" fill="url(#bg)"/>
  <rect width="400" height="560" fill="url(#glow)"/>
  <circle cx="91.7" cy="115.1" r="0.8" fill="#3acf5c" opacity="0.58"/><circle cx="55.6" cy="143.4" r="0.8" fill="#3acf5c" opacity="0.43"/><circle cx="333.8" cy="542.7" r="1.4" fill="#3acf5c" opacity="0.38"/><circle cx="195.6" cy="518.0" r="0.9" fill="#3acf5c" opacity="0.29"/><circle cx="361.9" cy="497.9" r="1.2" fill="#3acf5c" opacity="0.67"/><circle cx="294.4" cy="392.6" r="1.2" fill="#3acf5c" opacity="0.30"/><circle cx="151.3" cy="464.7" r="1.5" fill="#3acf5c" opacity="0.64"/><circle cx="208.9" cy="333.9" r="1.5" fill="#3acf5c" opacity="0.67"/><circle cx="151.4" cy="35.0" r="1.2" fill="#3acf5c" opacity="0.42"/><circle cx="225.5" cy="328.3" r="0.8" fill="#3acf5c" opacity="0.48"/><circle cx="263.4" cy="24.8" r="1.2" fill="#3acf5c" opacity="0.26"/><circle cx="171.3" cy="403.3" r="1.1" fill="#3acf5c" opacity="0.58"/><circle cx="284.9" cy="482.3" r="1.2" fill="#3acf5c" opacity="0.63"/><circle cx="391.9" cy="503.7" r="1.4" fill="#3acf5c" opacity="0.28"/><circle cx="220.8" cy="191.0" r="1.7" fill="#3acf5c" opacity="0.61"/><circle cx="196.2" cy="180.1" r="0.7" fill="#3acf5c" opacity="0.44"/><circle cx="61.2" cy="464.2" r="1.5" fill="#3acf5c" opacity="0.55"/><circle cx="166.6" cy="331.2" r="1.1" fill="#3acf5c" opacity="0.34"/><circle cx="225.9" cy="354.8" r="1.8" fill="#3acf5c" opacity="0.22"/><circle cx="337.9" cy="279.4" r="1.1" fill="#3acf5c" opacity="0.42"/><circle cx="275.4" cy="77.3" r="1.8" fill="#3acf5c" opacity="0.61"/><circle cx="240.9" cy="260.0" r="1.0" fill="#3acf5c" opacity="0.32"/><circle cx="288.7" cy="322.9" r="1.2" fill="#3acf5c" opacity="0.22"/><circle cx="13.8" cy="362.7" r="1.7" fill="#3acf5c" opacity="0.25"/><circle cx="107.7" cy="268.8" r="0.8" fill="#3acf5c" opacity="0.56"/><circle cx="180.2" cy="407.7" r="1.1" fill="#3acf5c" opacity="0.27"/><circle cx="48.5" cy="440.7" r="2.0" fill="#3acf5c" opacity="0.60"/><circle cx="93.0" cy="194.7" r="0.7" fill="#3acf5c" opacity="0.29"/><circle cx="279.1" cy="347.5" r="0.6" fill="#3acf5c" opacity="0.42"/><circle cx="246.2" cy="124.6" r="2.0" fill="#3acf5c" opacity="0.48"/><circle cx="63.5" cy="411.0" r="1.8" fill="#3acf5c" opacity="0.33"/><circle cx="52.1" cy="515.3" r="1.9" fill="#3acf5c" opacity="0.49"/><circle cx="73.5" cy="347.7" r="1.2" fill="#3acf5c" opacity="0.23"/><circle cx="285.9" cy="170.9" r="1.9" fill="#3acf5c" opacity="0.52"/><circle cx="165.8" cy="164.6" r="1.7" fill="#3acf5c" opacity="0.32"/><circle cx="197.1" cy="363.5" r="0.8" fill="#3acf5c" opacity="0.68"/><circle cx="226.8" cy="407.9" r="0.7" fill="#3acf5c" opacity="0.69"/><circle cx="86.9" cy="228.8" r="1.0" fill="#3acf5c" opacity="0.25"/><circle cx="83.7" cy="545.2" r="1.7" fill="#3acf5c" opacity="0.68"/><circle cx="152.9" cy="375.3" r="0.6" fill="#3acf5c" opacity="0.68"/>
  <circle cx="200" cy="240" r="67.30137174211248" fill="none" stroke="#f5d23a" stroke-opacity="0.08" stroke-width="2.9372856652949246"/><circle cx="200" cy="240" r="86.46646090534979" fill="none" stroke="#f5d23a" stroke-opacity="0.12" stroke-width="1.0608624828532236"/><circle cx="200" cy="240" r="106.01838134430727" fill="none" stroke="#f5d23a" stroke-opacity="0.16" stroke-width="2.66386316872428"/><circle cx="200" cy="240" r="126.05589849108368" fill="none" stroke="#f5d23a" stroke-opacity="0.20" stroke-width="1.4006087105624143"/><circle cx="200" cy="240" r="149.93703703703704" fill="none" stroke="#f5d23a" stroke-opacity="0.24" stroke-width="1.5180126886145404"/>
  <text x="200" y="270" font-family="sans-serif" font-size="140" text-anchor="middle" fill="#3acf5c" opacity="0.85">🎤</text>
  <rect x="4" y="4" width="392" height="552" fill="none" stroke="#f5d23a" stroke-width="1.5" opacity="0.7"/>
  <rect x="20" y="440" width="360" height="100" fill="#000" opacity="0.55"/>
  <text x="200" y="475" font-family="sans-serif" font-size="22" font-weight="bold" text-anchor="middle" fill="#3acf5c">Cipher Lyricist</text>
  <text x="200" y="500" font-family="sans-serif" font-size="11" text-anchor="middle" fill="#f5d23a" letter-spacing="3">BOOM-BAP 1990S</text>
  <text x="200" y="525" font-family="sans-serif" font-size="10" text-anchor="middle" fill="#ffffff" opacity="0.7" letter-spacing="2">COMMON</text>
</svg>