<svg xmlns="http://www.w3.org/2000/svg" viewBox="0 0 400 560" preserveAspectRatio="xMidYMid slice">
  <defs>
    <linearGradient id="bg" x1="0" y1="0" x2="0" y2="1">
      <stop offset="0" stop-color="#050a1a"/>
      <stop offset="1" stop-color="#0f1f3d"/>
    </linearGradient>
    <radialGradient id="glow" cx="50%" cy="42%" r="50%">
      <stop offset="0" stop-color="#3acff5" stop-opacity="0.55"/>
      <stop offset="0.5" stop-color="#3acff5" stop-opacity="0.12"/>
      <stop offset="1" stop-color="#3acff5" stop-opacity="0"/>
    </radialGradient>
  </defs>
  <rect width="400" height="560" fill="url(#bg)"/>
  <rect width="400" height="560" fill="url(#glow)"/>
  <circle cx="93.0" cy="218.9" r="0.6" fill="#a855f7" opacity="0.24"/><circle cx="214.8" cy="509.9" r="1.3" fill="#a855f7" opacity="0.57"/><circle cx="369.6" cy="528.9" r="1.1" fill="#a855f7" opacity="0.47"/><circle cx="315.4" cy="538.8" r="0.8" fill="#a855f7" opacity="0.43"/><circle cx="328.6" cy="159.2" r="1.1" fill="#a855f7" opacity="0.40"/><circle cx="93.2" cy="544.7" r="0.7" fill="#a855f7" opacity="0.43"/><circle cx="256.2" cy="215.8" r="1.1" fill="#a855f7" opacity="0.60"/><circle cx="249.7" cy="223.4" r="1.8" fill="#a855f7" opacity="0.32"/><circle cx="379.8" cy="166.4" r="1.5" fill="#a855f7" opacity="0.42"/><circle cx="182.3" cy="183.2" r="0.9" fill="#a855f7" opacity="0.59"/><circle cx="244.9" cy="515.7" r="1.5" fill="#a855f7" opacity="0.68"/><circle cx="296.0" cy="327.3" r="1.6" fill="#a855f7" opacity="0.28"/><circle cx="360.2" cy="254.2" r="1.4" fill="#a855f7" opacity="0.22"/><circle cx="180.9" cy="289.4" r="1.2" fill="#a855f7" opacity="0.29"/><circle cx="108.5" cy="280.9" r="0.5" fill="#a855f7" opacity="0.35"/><circle cx="256.7" cy="242.3" r="0.5" fill="#a855f7" opacity="0.34"/><circle cx="324.2" cy="478.0" r="1.7" fill="#a855f7" opacity="0.49"/><circle cx="83.9" cy="400.3" r="0.7" fill="#a855f7" opacity="0.45"/><circle cx="138.3" cy="520.8" r="0.7" fill="#a855f7" opacity="0.27"/><circle cx="141.6" cy="334.8" r="1.3" fill="#a855f7" opacity="0.62"/><circle cx="89.0" cy="499.0" r="1.7" fill="#a855f7" opacity="0.43"/><circle cx="271.8" cy="343.0" r="1.6" fill="#a855f7" opacity="0.35"/><circle cx="299.8" cy="233.0" r="0.7" fill="#a855f7" opacity="0.50"/><circle cx="390.4" cy="390.4" r="1.4" fill="#a855f7" opacity="0.61"/><circle cx="123.8" cy="82.2" r="1.0" fill="#a855f7" opacity="0.41"/><circle cx="265.4" cy="546.0" r="1.2" fill="#a855f7" opacity="0.48"/><circle cx="54.7" cy="447.6" r="0.9" fill="#a855f7" opacity="0.32"/><circle cx="360.9" cy="111.8" r="1.6" fill="#a855f7" opacity="0.28"/><circle cx="305.0" cy="527.2" r="0.5" fill="#a855f7" opacity="0.39"/><circle cx="148.7" cy="484.1" r="1.2" fill="#a855f7" opacity="0.41"/><circle cx="50.0" cy="245.1" r="1.2" fill="#a855f7" opacity="0.31"/><circle cx="285.4" cy="549.9" r="1.3" fill="#a855f7" opacity="0.55"/><circle cx="139.0" cy="313.2" r="1.8" fill="#a855f7" opacity="0.69"/><circle cx="257.5" cy="295.4" r="1.0" fill="#a855f7" opacity="0.31"/><circle cx="73.2" cy="427.4" r="1.6" fill="#a855f7" opacity="0.31"/><circle cx="292.2" cy="308.2" r="0.6" fill="#a855f7" opacity="0.52"/><circle cx="50.3" cy="76.1" r="1.9" fill="#a855f7" opacity="0.63"/><circle cx="335.1" cy="533.0" r="0.8" fill="#a855f7" opacity="0.50"/><circle cx="75.1" cy="282.5" r="1.7" fill="#a855f7" opacity="0.22"/><circle cx="94.9" cy="520.5" r="1.9" fill="#a855f7" opacity="0.60"/>
  <circle cx="200" cy="240" r="63.128943758573385" fill="none" stroke="#3acff5" stroke-opacity="0.08" stroke-width="2.999116941015089"/><circle cx="200" cy="240" r="82.83724279835391" fill="none" stroke="#3acff5" stroke-opacity="0.12" stroke-width="2.221459190672154"/><circle cx="200" cy="240" r="108.85829903978052" fill="none" stroke="#3acff5" stroke-opacity="0.16" stroke-width="2.1824845679012346"/><circle cx="200" cy="240" r="128.84643347050755" fill="none" stroke="#3acff5" stroke-opacity="0.20" stroke-width="2.0920696159122087"/><circle cx="200" cy="240" r="155.04855967078188" fill="none" stroke="#3acff5" stroke-opacity="0.24" stroke-width="1.086016803840878"/>
  <text x="200" y="270" font-family="sans-serif" font-size="140" text-anchor="middle" fill="#a855f7" opacity="0.85">💎</text>
  <rect x="4" y="4" width="392" height="552" fill="none" stroke="#3acff5" stroke-width="1.5" opacity="0.7"/>
  <rect x="20" y="440" width="360" height="100" fill="#000" opacity="0.55"/>
  <text x="200" y="475" font-family="sans-serif" font-size="22" font-weight="bold" text-anchor="middle" fill="#a855f7">Crypto Empress</text>
  <text x="200" y="500" font-family="sans-serif" font-size="11" text-anchor="middle" fill="#3acff5" letter-spacing="3">NEON 2020S</text>
  <text x="200" y="525" font-family="sans-serif" font-size="10" text-anchor="middle" fill="#ffffff" opacity="0.7" letter-spacing="2">COMMON</text>
</svg>