<svg xmlns="http://www.w3.org/2000/svg" viewBox="0 0 400 560" preserveAspectRatio="xMidYMid slice">
  <defs>
    <linearGradient id="bg" x1="0" y1="0" x2="0" y2="1">
      <stop offset="0" stop-color="#1a0f04"/>
      <stop offset="1" stop-color="#3d2410"/>
    </linearGradient>
    <radialGradient id="glow" cx="50%" cy="42%" r="50%">
      <stop offset="0" stop-color="#d4a84c" stop-opacity="0.55"/>
      <stop offset="0.5" stop-color="#d4a84c" stop-opacity="0.12"/>
      <stop offset="1" stop-color="#d4a84c" stop-opacity="0"/>
    </radialGradient>
  </defs>
  <rect width="400" height="560" fill="url(#bg)"/>
  <rect width="400" height="560" fill="url(#glow)"/>
  <circle cx="198.1" cy="253.0" r="0.9" fill="#f5d77a" opacity="0.65"/><circle cx="374.7" cy="357.9" r="1.9" fill="#f5d77a" opacity="0.62"/><circle cx="367.0" cy="529.7" r="1.3" fill="#f5d77a" opacity="0.45"/><circle cx="169.9" cy="305.1" r="1.7" fill="#f5d77a" opacity="0.58"/><circle cx="74.9" cy="133.4" r="1.1" fill="#f5d77a" opacity="0.66"/><circle cx="91.8" cy="381.2" r="0.7" fill="#f5d77a" opacity="0.30"/><circle cx="37.9" cy="149.7" r="1.3" fill="#f5d77a" opacity="0.22"/><circle cx="293.5" cy="386.0" r="1.9" fill="#f5d77a" opacity="0.67"/><circle cx="24.0" cy="87.6" r="1.0" fill="#f5d77a" opacity="0.23"/><circle cx="68.9" cy="160.3" r="0.7" fill="#f5d77a" opacity="0.39"/><circle cx="97.4" cy="368.9" r="0.8" fill="#f5d77a" opacity="0.51"/><circle cx="30.4" cy="22.1" r="1.7" fill="#f5d77a" opacity="0.60"/><circle cx="129.6" cy="150.1" r="0.9" fill="#f5d77a" opacity="0.43"/><circle cx="153.1" cy="455.5" r="1.8" fill="#f5d77a" opacity="0.49"/><circle cx="377.4" cy="558.1" r="0.9" fill="#f5d77a" opacity="0.22"/><circle cx="86.5" cy="492.5" r="1.3" fill="#f5d77a" opacity="0.68"/><circle cx="327.3" cy="459.2" r="1.5" fill="#f5d77a" opacity="0.45"/><circle cx="131.9" cy="389.0" r="1.0" fill="#f5d77a" opacity="0.44"/><circle cx="206.4" cy="440.9" r="1.5" fill="#f5d77a" opacity="0.46"/><circle cx="86.7" cy="193.2" r="0.7" fill="#f5d77a" opacity="0.23"/><circle cx="360.4" cy="447.9" r="1.6" fill="#f5d77a" opacity="0.58"/><circle cx="355.9" cy="368.5" r="1.0" fill="#f5d77a" opacity="0.62"/><circle cx="98.0" cy="30.9" r="0.6" fill="#f5d77a" opacity="0.66"/><circle cx="129.7" cy="548.4" r="0.6" fill="#f5d77a" opacity="0.48"/><circle cx="1.8" cy="88.7" r="0.8" fill="#f5d77a" opacity="0.48"/><circle cx="227.7" cy="345.7" r="0.6" fill="#f5d77a" opacity="0.56"/><circle cx="106.4" cy="503.6" r="0.6" fill="#f5d77a" opacity="0.48"/><circle cx="210.5" cy="534.8" r="1.8" fill="#f5d77a" opacity="0.37"/><circle cx="342.7" cy="390.8" r="1.7" fill="#f5d77a" opacity="0.29"/><circle cx="157.1" cy="127.0" r="1.0" fill="#f5d77a" opacity="0.40"/><circle cx="49.0" cy="400.2" r="0.7" fill="#f5d77a" opacity="0.64"/><circle cx="309.5" cy="539.7" r="1.9" fill="#f5d77a" opacity="0.66"/><circle cx="148.6" cy="351.9" r="1.3" fill="#f5d77a" opacity="0.57"/><circle cx="183.7" cy="58.2" r="1.3" fill="#f5d77a" opacity="0.61"/><circle cx="394.8" cy="45.6" r="0.7" fill="#f5d77a" opacity="0.51"/><circle cx="347.6" cy="431.6" r="1.1" fill="#f5d77a" opacity="0.35"/><circle cx="81.3" cy="442.1" r="1.7" fill="#f5d77a" opacity="0.61"/><circle cx="65.3" cy="401.8" r="0.6" fill="#f5d77a" opacity="0.68"/><circle cx="220.5" cy="179.5" r="1.4" fill="#f5d77a" opacity="0.54"/><circle cx="8.7" cy="245.2" r="1.3" fill="#f5d77a" opacity="0.49"/><circle cx="387.7" cy="301.8" r="1.1" fill="#f5d77a" opacity="0.49"/><circle cx="34.3" cy="528.8" r="1.5" fill="#f5d77a" opacity="0.50"/><circle cx="232.3" cy="401.0" r="1.3" fill="#f5d77a" opacity="0.57"/><circle cx="28.6" cy="118.8" r="1.8" fill="#f5d77a" opacity="0.29"/><circle cx="55.4" cy="173.0" r="1.2" fill="#f5d77a" opacity="0.55"/><circle cx="218.8" cy="162.7" r="1.0" fill="#f5d77a" opacity="0.69"/><circle cx="54.7" cy="226.1" r="0.5" fill="#f5d77a" opacity="0.40"/><circle cx="150.6" cy="45.3" r="1.2" fill="#f5d77a" opacity="0.53"/><circle cx="235.0" cy="463.6" r="1.5" fill="#f5d77a" opacity="0.68"/><circle cx="332.6" cy="437.2" r="1.4" fill="#f5d77a" opacity="0.66"/>
  <circle cx="200" cy="240" r="65.12040466392318" fill="none" stroke="#d4a84c" stroke-opacity="0.08" stroke-width="1.6435871056241427"/><circle cx="200" cy="240" r="83.70524691358025" fill="none" stroke="#d4a84c" stroke-opacity="0.12" stroke-width="2.548028120713306"/><circle cx="200" cy="240" r="106.52877229080933" fill="none" stroke="#d4a84c" stroke-opacity="0.16" stroke-width="1.4504115226337448"/><circle cx="200" cy="240" r="132.8008573388203" fill="none" stroke="#d4a84c" stroke-opacity="0.20" stroke-width="1.1161694101508917"/><circle cx="200" cy="240" r="151.65730452674896" fill="none" stroke="#d4a84c" stroke-opacity="0.24" stroke-width="1.5699931412894377"/><circle cx="200" cy="240" r="177.71539780521263" fill="none" stroke="#d4a84c" stroke-opacity="0.28" stroke-width="1.651388888888889"/>
  <text x="200" y="270" font-family="serif" font-size="140" text-anchor="middle" fill="#f5d77a" opacity="0.85">☥</text>
  <rect x="8" y="8" width="384" height="544" fill="none" stroke="#d4a84c" stroke-width="3" opacity="0.7"/>
  <rect x="20" y="440" width="360" height="100" fill="#000" opacity="0.55"/>
  <text x="200" y="475" font-family="serif" font-size="22" font-weight="bold" text-anchor="middle" fill="#f5d77a">Bone Scribe</text>
  <text x="200" y="500" font-family="sans-serif" font-size="11" text-anchor="middle" fill="#d4a84c" letter-spacing="3">DYNASTY</text>
  <text x="200" y="525" font-family="sans-serif" font-size="10" text-anchor="middle" fill="#ffffff" opacity="0.7" letter-spacing="2">RARE</text>
</svg>