<svg xmlns="http://www.w3.org/2000/svg" viewBox="0 0 400 560" preserveAspectRatio="xMidYMid slice">
  <defs>
    <linearGradient id="bg" x1="0" y1="0" x2="0" y2="1">
      <stop offset="0" stop-color="#0a0a0a"/>
      <stop offset="1" stop-color="#1f1f1f"/>
    </linearGradient>
    <radialGradient id="glow" cx="50%" cy="42%" r="50%">
      <stop offset="0" stop-color="#c9a84c" stop-opacity="0.55"/>
      <stop offset="0.5" stop-color="#c9a84c" stop-opacity="0.12"/>
      <stop offset="1" stop-color="#c9a84c" stop-opacity="0"/>
    </radialGradient>
  </defs>
  <rect width="400" height="560" fill="url(#bg)"/>
  <rect width="400" height="560" fill="url(#glow)"/>
  <circle cx="320.1" cy="268.8" r="0.9" fill="#f0d78c" opacity="0.48"/><circle cx="98.4" cy="528.2" r="1.1" fill="#f0d78c" opacity="0.30"/><circle cx="260.2" cy="363.5" r="1.7" fill="#f0d78c" opacity="0.59"/><circle cx="326.5" cy="203.4" r="1.6" fill="#f0d78c" opacity="0.34"/><circle cx="159.0" cy="518.0" r="1.2" fill="#f0d78c" opacity="0.35"/><circle cx="315.9" cy="450.1" r="1.2" fill="#f0d78c" opacity="0.57"/><circle cx="273.5" cy="179.4" r="0.8" fill="#f0d78c" opacity="0.47"/><circle cx="116.0" cy="300.4" r="1.7" fill="#f0d78c" opacity="0.59"/><circle cx="90.1" cy="453.7" r="0.8" fill="#f0d78c" opacity="0.53"/><circle cx="28.0" cy="10.2" r="0.9" fill="#f0d78c" opacity="0.68"/><circle cx="235.9" cy="248.8" r="1.9" fill="#f0d78c" opacity="0.38"/><circle cx="249.5" cy="187.8" r="1.6" fill="#f0d78c" opacity="0.31"/><circle cx="256.5" cy="69.1" r="1.5" fill="#f0d78c" opacity="0.33"/><circle cx="385.4" cy="176.4" r="1.4" fill="#f0d78c" opacity="0.53"/><circle cx="260.7" cy="25.5" r="1.5" fill="#f0d78c" opacity="0.23"/><circle cx="25.8" cy="169.6" r="2.0" fill="#f0d78c" opacity="0.23"/><circle cx="31.2" cy="456.6" r="1.1" fill="#f0d78c" opacity="0.39"/><circle cx="390.5" cy="340.3" r="1.4" fill="#f0d78c" opacity="0.64"/><circle cx="2.5" cy="124.9" r="1.9" fill="#f0d78c" opacity="0.22"/><circle cx="240.0" cy="342.7" r="0.7" fill="#f0d78c" opacity="0.28"/><circle cx="105.5" cy="385.4" r="1.0" fill="#f0d78c" opacity="0.36"/><circle cx="53.3" cy="308.3" r="0.8" fill="#f0d78c" opacity="0.64"/><circle cx="78.4" cy="208.1" r="1.0" fill="#f0d78c" opacity="0.55"/><circle cx="72.3" cy="534.2" r="1.2" fill="#f0d78c" opacity="0.24"/><circle cx="44.8" cy="533.2" r="1.2" fill="#f0d78c" opacity="0.32"/><circle cx="213.1" cy="426.1" r="1.6" fill="#f0d78c" opacity="0.52"/><circle cx="157.6" cy="40.1" r="1.5" fill="#f0d78c" opacity="0.59"/><circle cx="243.7" cy="52.9" r="1.0" fill="#f0d78c" opacity="0.59"/><circle cx="110.8" cy="250.0" r="0.5" fill="#f0d78c" opacity="0.53"/><circle cx="228.1" cy="396.4" r="1.5" fill="#f0d78c" opacity="0.25"/><circle cx="116.7" cy="360.7" r="1.2" fill="#f0d78c" opacity="0.29"/><circle cx="38.1" cy="53.1" r="1.7" fill="#f0d78c" opacity="0.40"/><circle cx="150.5" cy="296.3" r="2.0" fill="#f0d78c" opacity="0.57"/><circle cx="330.4" cy="150.1" r="1.4" fill="#f0d78c" opacity="0.25"/><circle cx="261.7" cy="208.9" r="1.6" fill="#f0d78c" opacity="0.48"/><circle cx="191.4" cy="113.3" r="1.1" fill="#f0d78c" opacity="0.37"/><circle cx="351.5" cy="354.2" r="1.0" fill="#f0d78c" opacity="0.30"/><circle cx="248.3" cy="530.6" r="1.3" fill="#f0d78c" opacity="0.60"/><circle cx="217.4" cy="220.7" r="1.4" fill="#f0d78c" opacity="0.48"/><circle cx="46.7" cy="226.5" r="1.1" fill="#f0d78c" opacity="0.27"/>
  <circle cx="200" cy="240" r="60.31004801097394" fill="none" stroke="#c9a84c" stroke-opacity="0.08" stroke-width="2.3617798353909465"/><circle cx="200" cy="240" r="83.34756515775034" fill="none" stroke="#c9a84c" stroke-opacity="0.12" stroke-width="2.848525377229081"/><circle cx="200" cy="240" r="110.2287037037037" fill="none" stroke="#c9a84c" stroke-opacity="0.16" stroke-width="2.715929355281207"/><circle cx="200" cy="240" r="127.12630315500685" fill="none" stroke="#c9a84c" stroke-opacity="0.20" stroke-width="2.3590534979423867"/><circle cx="200" cy="240" r="151.91690672153635" fill="none" stroke="#c9a84c" stroke-opacity="0.24" stroke-width="1.2099965706447189"/>
  <text x="200" y="270" font-family="serif" font-size="140" text-anchor="middle" fill="#f0d78c" opacity="0.85">🎷</text>
  <rect x="4" y="4" width="392" height="552" fill="none" stroke="#c9a84c" stroke-width="1.5" opacity="0.7"/>
  <rect x="20" y="440" width="360" height="100" fill="#000" opacity="0.55"/>
  <text x="200" y="475" font-family="serif" font-size="22" font-weight="bold" text-anchor="middle" fill="#f0d78c">Charleston Diva</text>
  <text x="200" y="500" font-family="sans-serif" font-size="11" text-anchor="middle" fill="#c9a84c" letter-spacing="3">ROARING 1920S</text>
  <text x="200" y="525" font-family="sans-serif" font-size="10" text-anchor="middle" fill="#ffffff" opacity="0.7" letter-spacing="2">COMMON</text>
</svg>