<svg xmlns="http://www.w3.org/2000/svg" viewBox="0 0 400 560" preserveAspectRatio="xMidYMid slice">
  <defs>
    <linearGradient id="bg" x1="0" y1="0" x2="0" y2="1">
      <stop offset="0" stop-color="#050a1a"/>
      <stop offset="1" stop-color="#0f1f3d"/>
    </linearGradient>
    <radialGradient id="glow" cx="50%" cy="42%" r="50%">
      <stop offset="0" stop-color="#3acff5" stop-opacity="0.55"/>
      <stop offset="0.5" stop-color="#3acff5" stop-opacity="0.12"/>
      <stop offset="1" stop-color="#3acff5" stop-opacity="0"/>
    </radialGradient>
  </defs>
  <rect width="400" height="560" fill="url(#bg)"/>
  <rect width="400" height="560" fill="url(#glow)"/>
  <circle cx="160.4" cy="167.9" r="0.9" fill="#a855f7" opacity="0.33"/><circle cx="155.9" cy="88.5" r="1.8" fill="#a855f7" opacity="0.37"/><circle cx="298.0" cy="310.9" r="1.3" fill="#a855f7" opacity="0.41"/><circle cx="329.7" cy="268.4" r="1.4" fill="#a855f7" opacity="0.23"/><circle cx="201.8" cy="368.7" r="1.5" fill="#a855f7" opacity="0.23"/><circle cx="27.7" cy="65.7" r="1.3" fill="#a855f7" opacity="0.31"/><circle cx="306.4" cy="223.6" r="1.3" fill="#a855f7" opacity="0.23"/><circle cx="10.5" cy="254.8" r="1.1" fill="#a855f7" opacity="0.62"/><circle cx="142.7" cy="110.8" r="0.9" fill="#a855f7" opacity="0.54"/><circle cx="357.1" cy="407.0" r="1.7" fill="#a855f7" opacity="0.65"/><circle cx="249.0" cy="120.2" r="1.4" fill="#a855f7" opacity="0.39"/><circle cx="109.5" cy="259.7" r="1.1" fill="#a855f7" opacity="0.41"/><circle cx="348.6" cy="71.9" r="0.6" fill="#a855f7" opacity="0.32"/><circle cx="383.7" cy="338.2" r="0.5" fill="#a855f7" opacity="0.36"/><circle cx="194.8" cy="325.6" r="1.4" fill="#a855f7" opacity="0.26"/><circle cx="147.6" cy="151.6" r="1.9" fill="#a855f7" opacity="0.60"/><circle cx="281.3" cy="162.1" r="0.9" fill="#a855f7" opacity="0.36"/><circle cx="265.3" cy="121.8" r="1.3" fill="#a855f7" opacity="0.43"/><circle cx="20.5" cy="459.5" r="0.6" fill="#a855f7" opacity="0.29"/><circle cx="208.7" cy="525.2" r="0.6" fill="#a855f7" opacity="0.24"/><circle cx="187.7" cy="21.8" r="1.9" fill="#a855f7" opacity="0.24"/><circle cx="234.3" cy="248.8" r="0.8" fill="#a855f7" opacity="0.25"/><circle cx="32.3" cy="121.0" r="0.5" fill="#a855f7" opacity="0.32"/><circle cx="228.6" cy="398.8" r="1.0" fill="#a855f7" opacity="0.54"/><circle cx="255.4" cy="453.0" r="1.9" fill="#a855f7" opacity="0.30"/><circle cx="18.8" cy="442.7" r="1.7" fill="#a855f7" opacity="0.44"/><circle cx="254.7" cy="506.1" r="1.3" fill="#a855f7" opacity="0.65"/><circle cx="350.6" cy="325.3" r="2.0" fill="#a855f7" opacity="0.28"/><circle cx="35.0" cy="183.6" r="0.7" fill="#a855f7" opacity="0.43"/><circle cx="132.6" cy="157.2" r="0.6" fill="#a855f7" opacity="0.41"/><circle cx="386.5" cy="239.1" r="2.0" fill="#a855f7" opacity="0.51"/><circle cx="347.5" cy="277.2" r="1.5" fill="#a855f7" opacity="0.62"/><circle cx="129.0" cy="285.3" r="1.6" fill="#a855f7" opacity="0.65"/><circle cx="229.9" cy="7.7" r="1.5" fill="#a855f7" opacity="0.34"/><circle cx="23.0" cy="536.6" r="0.5" fill="#a855f7" opacity="0.35"/><circle cx="110.7" cy="143.8" r="0.7" fill="#a855f7" opacity="0.20"/><circle cx="147.3" cy="4.4" r="1.4" fill="#a855f7" opacity="0.59"/><circle cx="128.0" cy="215.3" r="1.9" fill="#a855f7" opacity="0.45"/><circle cx="344.1" cy="106.0" r="1.9" fill="#a855f7" opacity="0.41"/><circle cx="5.5" cy="42.6" r="1.2" fill="#a855f7" opacity="0.60"/><circle cx="129.4" cy="246.7" r="2.0" fill="#a855f7" opacity="0.25"/><circle cx="296.1" cy="545.2" r="1.7" fill="#a855f7" opacity="0.59"/><circle cx="71.1" cy="495.7" r="2.0" fill="#a855f7" opacity="0.21"/><circle cx="293.8" cy="443.9" r="1.9" fill="#a855f7" opacity="0.59"/><circle cx="233.3" cy="154.7" r="1.1" fill="#a855f7" opacity="0.59"/><circle cx="210.7" cy="56.9" r="1.7" fill="#a855f7" opacity="0.24"/><circle cx="87.7" cy="60.4" r="1.0" fill="#a855f7" opacity="0.30"/><circle cx="22.3" cy="428.0" r="1.2" fill="#a855f7" opacity="0.24"/><circle cx="291.1" cy="219.5" r="1.4" fill="#a855f7" opacity="0.53"/><circle cx="178.0" cy="29.5" r="2.0" fill="#a855f7" opacity="0.21"/>
  <circle cx="200" cy="240" r="66.63755144032922" fill="none" stroke="#3acff5" stroke-opacity="0.08" stroke-width="1.3891289437585734"/><circle cx="200" cy="240" r="88.84379286694102" fill="none" stroke="#3acff5" stroke-opacity="0.12" stroke-width="2.952006172839506"/><circle cx="200" cy="240" r="104.12822359396434" fill="none" stroke="#3acff5" stroke-opacity="0.16" stroke-width="1.5745541838134431"/><circle cx="200" cy="240" r="127.40442386831276" fill="none" stroke="#3acff5" stroke-opacity="0.20" stroke-width="1.0592421124828533"/><circle cx="200" cy="240" r="153.734122085048" fill="none" stroke="#3acff5" stroke-opacity="0.24" stroke-width="2.6900205761316873"/><circle cx="200" cy="240" r="175.21608367626885" fill="none" stroke="#3acff5" stroke-opacity="0.28" stroke-width="2.121210562414266"/>
  <text x="200" y="270" font-family="sans-serif" font-size="140" text-anchor="middle" fill="#a855f7" opacity="0.85">💎</text>
  <rect x="8" y="8" width="384" height="544" fill="none" stroke="#3acff5" stroke-width="3" opacity="0.7"/>
  <rect x="20" y="440" width="360" height="100" fill="#000" opacity="0.55"/>
  <text x="200" y="475" font-family="sans-serif" font-size="22" font-weight="bold" text-anchor="middle" fill="#a855f7">Neon Architect</text>
  <text x="200" y="500" font-family="sans-serif" font-size="11" text-anchor="middle" fill="#3acff5" letter-spacing="3">NEON 2020S</text>
  <text x="200" y="525" font-family="sans-serif" font-size="10" text-anchor="middle" fill="#ffffff" opacity="0.7" letter-spacing="2">RARE</text>
</svg>