<svg xmlns="http://www.w3.org/2000/svg" viewBox="0 0 400 560" preserveAspectRatio="xMidYMid slice">
  <defs>
    <linearGradient id="bg" x1="0" y1="0" x2="0" y2="1">
      <stop offset="0" stop-color="#1a0f04"/>
      <stop offset="1" stop-color="#3d2410"/>
    </linearGradient>
    <radialGradient id="glow" cx="50%" cy="42%" r="50%">
      <stop offset="0" stop-color="#d4a84c" stop-opacity="0.55"/>
      <stop offset="0.5" stop-color="#d4a84c" stop-opacity="0.12"/>
      <stop offset="1" stop-color="#d4a84c" stop-opacity="0"/>
    </radialGradient>
  </defs>
  <rect width="400" height="560" fill="url(#bg)"/>
  <rect width="400" height="560" fill="url(#glow)"/>
  <circle cx="257.2" cy="376.9" r="1.5" fill="#f5d77a" opacity="0.45"/><circle cx="329.3" cy="197.2" r="0.9" fill="#f5d77a" opacity="0.70"/><circle cx="355.2" cy="174.2" r="1.4" fill="#f5d77a" opacity="0.54"/><circle cx="33.9" cy="52.1" r="0.7" fill="#f5d77a" opacity="0.70"/><circle cx="338.0" cy="363.3" r="1.2" fill="#f5d77a" opacity="0.34"/><circle cx="270.2" cy="499.3" r="1.8" fill="#f5d77a" opacity="0.51"/><circle cx="284.6" cy="515.5" r="1.8" fill="#f5d77a" opacity="0.37"/><circle cx="376.5" cy="508.7" r="0.8" fill="#f5d77a" opacity="0.36"/><circle cx="37.0" cy="368.2" r="1.2" fill="#f5d77a" opacity="0.63"/><circle cx="76.1" cy="460.4" r="1.4" fill="#f5d77a" opacity="0.30"/><circle cx="311.2" cy="446.7" r="0.6" fill="#f5d77a" opacity="0.58"/><circle cx="322.3" cy="154.1" r="0.8" fill="#f5d77a" opacity="0.23"/><circle cx="75.1" cy="260.1" r="2.0" fill="#f5d77a" opacity="0.32"/><circle cx="8.8" cy="550.6" r="1.8" fill="#f5d77a" opacity="0.34"/><circle cx="192.8" cy="230.3" r="1.4" fill="#f5d77a" opacity="0.65"/><circle cx="148.0" cy="288.0" r="1.5" fill="#f5d77a" opacity="0.27"/><circle cx="136.2" cy="73.7" r="0.7" fill="#f5d77a" opacity="0.46"/><circle cx="315.2" cy="410.3" r="1.2" fill="#f5d77a" opacity="0.21"/><circle cx="161.8" cy="357.3" r="0.9" fill="#f5d77a" opacity="0.47"/><circle cx="159.8" cy="509.5" r="1.4" fill="#f5d77a" opacity="0.29"/><circle cx="156.1" cy="507.3" r="1.1" fill="#f5d77a" opacity="0.26"/><circle cx="382.9" cy="281.5" r="1.3" fill="#f5d77a" opacity="0.27"/><circle cx="346.3" cy="551.2" r="1.8" fill="#f5d77a" opacity="0.66"/><circle cx="382.2" cy="334.6" r="0.6" fill="#f5d77a" opacity="0.62"/><circle cx="278.1" cy="433.8" r="0.6" fill="#f5d77a" opacity="0.50"/><circle cx="162.5" cy="12.1" r="1.6" fill="#f5d77a" opacity="0.40"/><circle cx="60.1" cy="265.7" r="0.7" fill="#f5d77a" opacity="0.63"/><circle cx="114.0" cy="67.6" r="1.4" fill="#f5d77a" opacity="0.48"/><circle cx="275.0" cy="385.7" r="1.6" fill="#f5d77a" opacity="0.34"/><circle cx="256.5" cy="113.8" r="1.0" fill="#f5d77a" opacity="0.62"/><circle cx="157.4" cy="116.2" r="1.6" fill="#f5d77a" opacity="0.56"/><circle cx="150.5" cy="365.1" r="1.4" fill="#f5d77a" opacity="0.32"/><circle cx="38.2" cy="252.3" r="0.8" fill="#f5d77a" opacity="0.43"/><circle cx="274.8" cy="392.9" r="0.7" fill="#f5d77a" opacity="0.56"/><circle cx="55.5" cy="323.8" r="2.0" fill="#f5d77a" opacity="0.67"/><circle cx="71.6" cy="494.5" r="1.3" fill="#f5d77a" opacity="0.38"/><circle cx="333.0" cy="151.1" r="1.3" fill="#f5d77a" opacity="0.33"/><circle cx="256.9" cy="75.2" r="1.3" fill="#f5d77a" opacity="0.22"/><circle cx="223.6" cy="93.7" r="1.8" fill="#f5d77a" opacity="0.32"/><circle cx="198.6" cy="324.2" r="1.4" fill="#f5d77a" opacity="0.68"/><circle cx="221.3" cy="552.4" r="2.0" fill="#f5d77a" opacity="0.31"/><circle cx="360.8" cy="543.2" r="2.0" fill="#f5d77a" opacity="0.57"/><circle cx="138.2" cy="165.4" r="1.8" fill="#f5d77a" opacity="0.46"/><circle cx="215.2" cy="448.9" r="1.9" fill="#f5d77a" opacity="0.27"/><circle cx="349.8" cy="536.5" r="1.3" fill="#f5d77a" opacity="0.46"/><circle cx="18.6" cy="48.0" r="0.8" fill="#f5d77a" opacity="0.50"/><circle cx="105.5" cy="138.0" r="0.6" fill="#f5d77a" opacity="0.43"/><circle cx="57.4" cy="446.9" r="0.7" fill="#f5d77a" opacity="0.34"/><circle cx="106.4" cy="345.5" r="0.6" fill="#f5d77a" opacity="0.64"/><circle cx="158.7" cy="553.0" r="0.5" fill="#f5d77a" opacity="0.63"/>
  <circle cx="200" cy="240" r="65.75833333333334" fill="none" stroke="#d4a84c" stroke-opacity="0.08" stroke-width="2.9872256515775035"/><circle cx="200" cy="240" r="88.43371056241426" fill="none" stroke="#d4a84c" stroke-opacity="0.12" stroke-width="1.4081275720164608"/><circle cx="200" cy="240" r="105.6687585733882" fill="none" stroke="#d4a84c" stroke-opacity="0.16" stroke-width="1.7035150891632374"/><circle cx="200" cy="240" r="133.2659465020576" fill="none" stroke="#d4a84c" stroke-opacity="0.20" stroke-width="2.5647462277091906"/><circle cx="200" cy="240" r="148.50922496570644" fill="none" stroke="#d4a84c" stroke-opacity="0.24" stroke-width="1.4979938271604938"/><circle cx="200" cy="240" r="171.05291495198904" fill="none" stroke="#d4a84c" stroke-opacity="0.28" stroke-width="1.7131344307270233"/>
  <text x="200" y="270" font-family="serif" font-size="140" text-anchor="middle" fill="#f5d77a" opacity="0.85">☥</text>
  <rect x="8" y="8" width="384" height="544" fill="none" stroke="#d4a84c" stroke-width="3" opacity="0.7"/>
  <rect x="20" y="440" width="360" height="100" fill="#000" opacity="0.55"/>
  <text x="200" y="475" font-family="serif" font-size="22" font-weight="bold" text-anchor="middle" fill="#f5d77a">Bronze Sentinel</text>
  <text x="200" y="500" font-family="sans-serif" font-size="11" text-anchor="middle" fill="#d4a84c" letter-spacing="3">DYNASTY</text>
  <text x="200" y="525" font-family="sans-serif" font-size="10" text-anchor="middle" fill="#ffffff" opacity="0.7" letter-spacing="2">RARE</text>
</svg>