<svg xmlns="http://www.w3.org/2000/svg" viewBox="0 0 400 560" preserveAspectRatio="xMidYMid slice">
  <defs>
    <linearGradient id="bg" x1="0" y1="0" x2="0" y2="1">
      <stop offset="0" stop-color="#0a0a0a"/>
      <stop offset="1" stop-color="#1f1f1f"/>
    </linearGradient>
    <radialGradient id="glow" cx="50%" cy="42%" r="50%">
      <stop offset="0" stop-color="#c9a84c" stop-opacity="0.55"/>
      <stop offset="0.5" stop-color="#c9a84c" stop-opacity="0.12"/>
      <stop offset="1" stop-color="#c9a84c" stop-opacity="0"/>
    </radialGradient>
  </defs>
  <rect width="400" height="560" fill="url(#bg)"/>
  <rect width="400" height="560" fill="url(#glow)"/>
  <circle cx="329.7" cy="247.9" r="1.8" fill="#f0d78c" opacity="0.39"/><circle cx="365.5" cy="31.3" r="0.6" fill="#f0d78c" opacity="0.35"/><circle cx="261.4" cy="130.5" r="0.5" fill="#f0d78c" opacity="0.23"/><circle cx="145.8" cy="268.8" r="1.5" fill="#f0d78c" opacity="0.63"/><circle cx="43.4" cy="522.4" r="0.7" fill="#f0d78c" opacity="0.36"/><circle cx="97.4" cy="324.2" r="1.3" fill="#f0d78c" opacity="0.21"/><circle cx="258.3" cy="82.3" r="1.5" fill="#f0d78c" opacity="0.57"/><circle cx="239.9" cy="370.5" r="0.9" fill="#f0d78c" opacity="0.35"/><circle cx="140.7" cy="372.8" r="1.5" fill="#f0d78c" opacity="0.29"/><circle cx="133.8" cy="61.8" r="1.3" fill="#f0d78c" opacity="0.55"/><circle cx="21.5" cy="508.9" r="0.7" fill="#f0d78c" opacity="0.66"/><circle cx="258.2" cy="89.6" r="0.7" fill="#f0d78c" opacity="0.29"/><circle cx="38.9" cy="20.5" r="1.9" fill="#f0d78c" opacity="0.40"/><circle cx="55.0" cy="191.1" r="1.2" fill="#f0d78c" opacity="0.61"/><circle cx="316.3" cy="407.8" r="1.2" fill="#f0d78c" opacity="0.56"/><circle cx="240.2" cy="331.8" r="1.3" fill="#f0d78c" opacity="0.45"/><circle cx="207.0" cy="350.3" r="1.8" fill="#f0d78c" opacity="0.54"/><circle cx="181.9" cy="20.9" r="1.3" fill="#f0d78c" opacity="0.41"/><circle cx="204.6" cy="249.1" r="1.9" fill="#f0d78c" opacity="0.54"/><circle cx="344.1" cy="239.9" r="1.9" fill="#f0d78c" opacity="0.30"/><circle cx="121.6" cy="422.0" r="1.8" fill="#f0d78c" opacity="0.69"/><circle cx="198.6" cy="145.6" r="1.8" fill="#f0d78c" opacity="0.50"/><circle cx="333.2" cy="233.2" r="1.2" fill="#f0d78c" opacity="0.69"/><circle cx="1.9" cy="304.7" r="0.7" fill="#f0d78c" opacity="0.23"/><circle cx="88.8" cy="394.7" r="0.5" fill="#f0d78c" opacity="0.66"/><circle cx="40.7" cy="143.5" r="0.6" fill="#f0d78c" opacity="0.57"/><circle cx="89.7" cy="42.2" r="0.6" fill="#f0d78c" opacity="0.36"/><circle cx="142.1" cy="249.7" r="2.0" fill="#f0d78c" opacity="0.36"/><circle cx="133.5" cy="344.2" r="1.1" fill="#f0d78c" opacity="0.27"/><circle cx="251.6" cy="7.8" r="0.9" fill="#f0d78c" opacity="0.42"/><circle cx="224.9" cy="83.9" r="1.2" fill="#f0d78c" opacity="0.43"/><circle cx="78.1" cy="88.6" r="0.7" fill="#f0d78c" opacity="0.61"/><circle cx="354.2" cy="14.9" r="1.2" fill="#f0d78c" opacity="0.24"/><circle cx="204.1" cy="270.8" r="0.7" fill="#f0d78c" opacity="0.21"/><circle cx="141.2" cy="310.1" r="2.0" fill="#f0d78c" opacity="0.43"/><circle cx="264.3" cy="436.9" r="0.9" fill="#f0d78c" opacity="0.65"/><circle cx="346.2" cy="63.6" r="1.6" fill="#f0d78c" opacity="0.52"/><circle cx="189.5" cy="261.9" r="1.3" fill="#f0d78c" opacity="0.57"/><circle cx="248.3" cy="527.0" r="1.0" fill="#f0d78c" opacity="0.49"/><circle cx="117.9" cy="395.7" r="1.6" fill="#f0d78c" opacity="0.20"/><circle cx="89.6" cy="317.4" r="1.2" fill="#f0d78c" opacity="0.36"/><circle cx="173.2" cy="98.5" r="1.1" fill="#f0d78c" opacity="0.58"/><circle cx="186.0" cy="520.3" r="2.0" fill="#f0d78c" opacity="0.59"/><circle cx="108.3" cy="289.9" r="1.3" fill="#f0d78c" opacity="0.63"/><circle cx="305.4" cy="84.9" r="0.7" fill="#f0d78c" opacity="0.27"/><circle cx="17.0" cy="250.9" r="0.6" fill="#f0d78c" opacity="0.51"/><circle cx="112.1" cy="552.8" r="1.0" fill="#f0d78c" opacity="0.21"/><circle cx="111.7" cy="299.4" r="0.7" fill="#f0d78c" opacity="0.39"/><circle cx="277.6" cy="520.7" r="1.5" fill="#f0d78c" opacity="0.31"/><circle cx="367.8" cy="359.5" r="1.3" fill="#f0d78c" opacity="0.45"/>
  <circle cx="200" cy="240" r="62.86176268861454" fill="none" stroke="#c9a84c" stroke-opacity="0.08" stroke-width="1.7363340192043895"/><circle cx="200" cy="240" r="86.26141975308641" fill="none" stroke="#c9a84c" stroke-opacity="0.12" stroke-width="2.288923182441701"/><circle cx="200" cy="240" r="106.7886488340192" fill="none" stroke="#c9a84c" stroke-opacity="0.16" stroke-width="1.728343621399177"/><circle cx="200" cy="240" r="128.9866598079561" fill="none" stroke="#c9a84c" stroke-opacity="0.20" stroke-width="2.153360768175583"/><circle cx="200" cy="240" r="155.32458847736626" fill="none" stroke="#c9a84c" stroke-opacity="0.24" stroke-width="2.9219993141289438"/><circle cx="200" cy="240" r="173.7530521262003" fill="none" stroke="#c9a84c" stroke-opacity="0.28" stroke-width="2.207098765432099"/>
  <text x="200" y="270" font-family="serif" font-size="140" text-anchor="middle" fill="#f0d78c" opacity="0.85">🎷</text>
  <rect x="8" y="8" width="384" height="544" fill="none" stroke="#c9a84c" stroke-width="3" opacity="0.7"/>
  <rect x="20" y="440" width="360" height="100" fill="#000" opacity="0.55"/>
  <text x="200" y="475" font-family="serif" font-size="22" font-weight="bold" text-anchor="middle" fill="#f0d78c">Bootleg Heiress</text>
  <text x="200" y="500" font-family="sans-serif" font-size="11" text-anchor="middle" fill="#c9a84c" letter-spacing="3">ROARING 1920S</text>
  <text x="200" y="525" font-family="sans-serif" font-size="10" text-anchor="middle" fill="#ffffff" opacity="0.7" letter-spacing="2">RARE</text>
</svg>