<svg xmlns="http://www.w3.org/2000/svg" viewBox="0 0 400 560" preserveAspectRatio="xMidYMid slice">
  <defs>
    <linearGradient id="bg" x1="0" y1="0" x2="0" y2="1">
      <stop offset="0" stop-color="#1a0533"/>
      <stop offset="1" stop-color="#3d0f5c"/>
    </linearGradient>
    <radialGradient id="glow" cx="50%" cy="42%" r="50%">
      <stop offset="0" stop-color="#e94ec7" stop-opacity="0.55"/>
      <stop offset="0.5" stop-color="#e94ec7" stop-opacity="0.12"/>
      <stop offset="1" stop-color="#e94ec7" stop-opacity="0"/>
    </radialGradient>
  </defs>
  <rect width="400" height="560" fill="url(#bg)"/>
  <rect width="400" height="560" fill="url(#glow)"/>
  <circle cx="238.3" cy="54.3" r="1.5" fill="#ff9f43" opacity="0.54"/><circle cx="219.9" cy="342.5" r="0.8" fill="#ff9f43" opacity="0.32"/><circle cx="120.7" cy="344.8" r="1.4" fill="#ff9f43" opacity="0.26"/><circle cx="113.8" cy="33.8" r="1.3" fill="#ff9f43" opacity="0.52"/><circle cx="1.5" cy="480.9" r="0.7" fill="#ff9f43" opacity="0.63"/><circle cx="238.2" cy="61.6" r="0.6" fill="#ff9f43" opacity="0.27"/><circle cx="18.9" cy="552.5" r="1.8" fill="#ff9f43" opacity="0.37"/><circle cx="35.0" cy="163.1" r="1.1" fill="#ff9f43" opacity="0.58"/><circle cx="296.3" cy="379.8" r="1.2" fill="#ff9f43" opacity="0.53"/><circle cx="220.2" cy="303.8" r="1.2" fill="#ff9f43" opacity="0.42"/><circle cx="187.0" cy="322.3" r="1.7" fill="#ff9f43" opacity="0.52"/><circle cx="161.9" cy="552.9" r="1.2" fill="#ff9f43" opacity="0.39"/><circle cx="184.6" cy="221.1" r="1.8" fill="#ff9f43" opacity="0.51"/><circle cx="324.1" cy="211.9" r="1.9" fill="#ff9f43" opacity="0.27"/><circle cx="101.6" cy="394.0" r="1.7" fill="#ff9f43" opacity="0.67"/><circle cx="178.6" cy="117.6" r="1.7" fill="#ff9f43" opacity="0.47"/><circle cx="313.2" cy="205.2" r="1.1" fill="#ff9f43" opacity="0.67"/><circle cx="381.9" cy="276.7" r="0.6" fill="#ff9f43" opacity="0.21"/><circle cx="68.8" cy="366.7" r="1.9" fill="#ff9f43" opacity="0.64"/><circle cx="20.7" cy="115.5" r="0.5" fill="#ff9f43" opacity="0.55"/><circle cx="69.7" cy="14.2" r="0.5" fill="#ff9f43" opacity="0.34"/><circle cx="122.1" cy="221.7" r="1.9" fill="#ff9f43" opacity="0.34"/><circle cx="113.5" cy="316.2" r="1.0" fill="#ff9f43" opacity="0.24"/><circle cx="231.6" cy="539.8" r="0.8" fill="#ff9f43" opacity="0.40"/><circle cx="204.9" cy="55.9" r="1.2" fill="#ff9f43" opacity="0.41"/><circle cx="58.1" cy="60.6" r="0.7" fill="#ff9f43" opacity="0.59"/><circle cx="334.2" cy="546.9" r="1.1" fill="#ff9f43" opacity="0.22"/><circle cx="184.1" cy="242.8" r="0.7" fill="#ff9f43" opacity="0.68"/><circle cx="121.2" cy="282.1" r="1.9" fill="#ff9f43" opacity="0.41"/><circle cx="244.3" cy="408.9" r="0.8" fill="#ff9f43" opacity="0.63"/><circle cx="326.2" cy="35.6" r="1.5" fill="#ff9f43" opacity="0.50"/><circle cx="169.5" cy="233.9" r="1.2" fill="#ff9f43" opacity="0.55"/><circle cx="228.3" cy="499.0" r="1.0" fill="#ff9f43" opacity="0.46"/><circle cx="97.9" cy="367.7" r="1.6" fill="#ff9f43" opacity="0.68"/><circle cx="69.6" cy="289.4" r="1.2" fill="#ff9f43" opacity="0.34"/><circle cx="153.2" cy="70.5" r="1.1" fill="#ff9f43" opacity="0.56"/><circle cx="166.0" cy="492.3" r="1.9" fill="#ff9f43" opacity="0.56"/><circle cx="88.3" cy="261.9" r="1.2" fill="#ff9f43" opacity="0.60"/><circle cx="285.4" cy="56.9" r="0.6" fill="#ff9f43" opacity="0.25"/><circle cx="397.0" cy="222.9" r="0.5" fill="#ff9f43" opacity="0.49"/><circle cx="92.1" cy="524.8" r="0.9" fill="#ff9f43" opacity="0.69"/><circle cx="91.7" cy="271.4" r="0.6" fill="#ff9f43" opacity="0.36"/><circle cx="257.6" cy="492.7" r="1.5" fill="#ff9f43" opacity="0.28"/><circle cx="347.8" cy="331.5" r="1.2" fill="#ff9f43" opacity="0.42"/><circle cx="238.8" cy="527.4" r="0.5" fill="#ff9f43" opacity="0.24"/><circle cx="14.6" cy="555.1" r="1.2" fill="#ff9f43" opacity="0.28"/><circle cx="322.0" cy="55.1" r="1.6" fill="#ff9f43" opacity="0.63"/><circle cx="193.3" cy="78.2" r="1.4" fill="#ff9f43" opacity="0.20"/><circle cx="334.5" cy="223.5" r="0.6" fill="#ff9f43" opacity="0.31"/><circle cx="281.4" cy="69.2" r="1.6" fill="#ff9f43" opacity="0.66"/>
  <circle cx="200" cy="240" r="62.51690672153635" fill="none" stroke="#e94ec7" stroke-opacity="0.08" stroke-width="1.8599965706447188"/><circle cx="200" cy="240" r="87.00298353909466" fill="none" stroke="#e94ec7" stroke-opacity="0.12" stroke-width="2.610116598079561"/><circle cx="200" cy="240" r="104.4684842249657" fill="none" stroke="#e94ec7" stroke-opacity="0.16" stroke-width="2.7655864197530864"/><circle cx="200" cy="240" r="126.56772976680384" fill="none" stroke="#e94ec7" stroke-opacity="0.20" stroke-width="1.5362825788751715"/><circle cx="200" cy="240" r="149.54763374485597" fill="none" stroke="#e94ec7" stroke-opacity="0.24" stroke-width="2.058007544581619"/><circle cx="200" cy="240" r="173.80325788751713" fill="none" stroke="#e94ec7" stroke-opacity="0.28" stroke-width="2.9480452674897117"/>
  <text x="200" y="270" font-family="sans-serif" font-size="140" text-anchor="middle" fill="#ff9f43" opacity="0.85">🪩</text>
  <rect x="8" y="8" width="384" height="544" fill="none" stroke="#e94ec7" stroke-width="3" opacity="0.7"/>
  <rect x="20" y="440" width="360" height="100" fill="#000" opacity="0.55"/>
  <text x="200" y="475" font-family="sans-serif" font-size="22" font-weight="bold" text-anchor="middle" fill="#ff9f43">Disco Empress</text>
  <text x="200" y="500" font-family="sans-serif" font-size="11" text-anchor="middle" fill="#e94ec7" letter-spacing="3">COSMIC 1970S</text>
  <text x="200" y="525" font-family="sans-serif" font-size="10" text-anchor="middle" fill="#ffffff" opacity="0.7" letter-spacing="2">RARE</text>
</svg>