<svg xmlns="http://www.w3.org/2000/svg" viewBox="0 0 400 560" preserveAspectRatio="xMidYMid slice">
  <defs>
    <linearGradient id="bg" x1="0" y1="0" x2="0" y2="1">
      <stop offset="0" stop-color="#1a0533"/>
      <stop offset="1" stop-color="#3d0f5c"/>
    </linearGradient>
    <radialGradient id="glow" cx="50%" cy="42%" r="50%">
      <stop offset="0" stop-color="#e94ec7" stop-opacity="0.55"/>
      <stop offset="0.5" stop-color="#e94ec7" stop-opacity="0.12"/>
      <stop offset="1" stop-color="#e94ec7" stop-opacity="0"/>
    </radialGradient>
  </defs>
  <rect width="400" height="560" fill="url(#bg)"/>
  <rect width="400" height="560" fill="url(#glow)"/>
  <circle cx="179.3" cy="490.5" r="0.9" fill="#ff9f43" opacity="0.24"/><circle cx="265.3" cy="503.2" r="1.8" fill="#ff9f43" opacity="0.24"/><circle cx="132.5" cy="140.3" r="1.3" fill="#ff9f43" opacity="0.68"/><circle cx="249.8" cy="286.7" r="0.8" fill="#ff9f43" opacity="0.41"/><circle cx="138.3" cy="251.1" r="0.5" fill="#ff9f43" opacity="0.44"/><circle cx="59.8" cy="503.5" r="1.0" fill="#ff9f43" opacity="0.55"/><circle cx="172.2" cy="186.7" r="1.3" fill="#ff9f43" opacity="0.22"/><circle cx="352.0" cy="40.4" r="0.7" fill="#ff9f43" opacity="0.40"/><circle cx="283.4" cy="99.2" r="1.0" fill="#ff9f43" opacity="0.64"/><circle cx="213.0" cy="3.7" r="2.0" fill="#ff9f43" opacity="0.52"/><circle cx="373.2" cy="244.5" r="1.9" fill="#ff9f43" opacity="0.45"/><circle cx="269.9" cy="420.9" r="0.7" fill="#ff9f43" opacity="0.25"/><circle cx="239.1" cy="111.0" r="0.7" fill="#ff9f43" opacity="0.63"/><circle cx="68.4" cy="116.8" r="1.9" fill="#ff9f43" opacity="0.42"/><circle cx="286.1" cy="161.9" r="1.2" fill="#ff9f43" opacity="0.24"/><circle cx="117.0" cy="322.1" r="1.6" fill="#ff9f43" opacity="0.39"/><circle cx="104.3" cy="30.6" r="1.9" fill="#ff9f43" opacity="0.66"/><circle cx="198.6" cy="255.4" r="1.9" fill="#ff9f43" opacity="0.43"/><circle cx="113.5" cy="450.2" r="1.1" fill="#ff9f43" opacity="0.63"/><circle cx="347.7" cy="359.2" r="1.4" fill="#ff9f43" opacity="0.49"/><circle cx="274.1" cy="514.9" r="1.0" fill="#ff9f43" opacity="0.66"/><circle cx="95.1" cy="308.7" r="1.6" fill="#ff9f43" opacity="0.69"/><circle cx="265.1" cy="356.0" r="1.3" fill="#ff9f43" opacity="0.24"/><circle cx="379.1" cy="193.6" r="0.8" fill="#ff9f43" opacity="0.26"/><circle cx="328.6" cy="270.8" r="1.3" fill="#ff9f43" opacity="0.39"/><circle cx="123.3" cy="394.2" r="1.1" fill="#ff9f43" opacity="0.25"/><circle cx="380.5" cy="224.9" r="0.9" fill="#ff9f43" opacity="0.56"/><circle cx="280.6" cy="150.1" r="1.2" fill="#ff9f43" opacity="0.57"/><circle cx="188.9" cy="287.2" r="1.9" fill="#ff9f43" opacity="0.36"/><circle cx="144.9" cy="422.1" r="0.8" fill="#ff9f43" opacity="0.40"/><circle cx="217.8" cy="319.6" r="0.6" fill="#ff9f43" opacity="0.57"/><circle cx="328.5" cy="408.4" r="1.7" fill="#ff9f43" opacity="0.39"/><circle cx="338.8" cy="38.6" r="1.5" fill="#ff9f43" opacity="0.61"/><circle cx="6.8" cy="32.9" r="0.6" fill="#ff9f43" opacity="0.22"/><circle cx="8.9" cy="11.1" r="1.4" fill="#ff9f43" opacity="0.68"/><circle cx="29.1" cy="7.7" r="0.9" fill="#ff9f43" opacity="0.53"/><circle cx="314.3" cy="223.3" r="0.8" fill="#ff9f43" opacity="0.35"/><circle cx="296.7" cy="28.6" r="2.0" fill="#ff9f43" opacity="0.56"/><circle cx="282.3" cy="142.7" r="1.6" fill="#ff9f43" opacity="0.48"/><circle cx="207.1" cy="143.9" r="0.5" fill="#ff9f43" opacity="0.30"/><circle cx="258.6" cy="274.2" r="1.6" fill="#ff9f43" opacity="0.37"/><circle cx="165.2" cy="257.0" r="1.6" fill="#ff9f43" opacity="0.30"/><circle cx="351.7" cy="168.3" r="0.9" fill="#ff9f43" opacity="0.39"/><circle cx="161.2" cy="1.3" r="1.1" fill="#ff9f43" opacity="0.44"/><circle cx="344.4" cy="163.9" r="1.9" fill="#ff9f43" opacity="0.32"/><circle cx="214.8" cy="109.8" r="1.4" fill="#ff9f43" opacity="0.46"/><circle cx="271.2" cy="143.3" r="1.5" fill="#ff9f43" opacity="0.60"/><circle cx="286.5" cy="236.7" r="2.0" fill="#ff9f43" opacity="0.38"/><circle cx="63.1" cy="341.6" r="1.4" fill="#ff9f43" opacity="0.35"/><circle cx="55.3" cy="513.3" r="0.9" fill="#ff9f43" opacity="0.68"/>
  <circle cx="200" cy="240" r="61.8789780521262" fill="none" stroke="#e94ec7" stroke-opacity="0.08" stroke-width="2.5163580246913577"/><circle cx="200" cy="240" r="82.27451989026063" fill="none" stroke="#e94ec7" stroke-opacity="0.12" stroke-width="1.750017146776406"/><circle cx="200" cy="240" r="105.32849794238683" fill="none" stroke="#e94ec7" stroke-opacity="0.16" stroke-width="2.512482853223594"/><circle cx="200" cy="240" r="126.10264060356653" fill="none" stroke="#e94ec7" stroke-opacity="0.20" stroke-width="2.0877057613168724"/><circle cx="200" cy="240" r="152.6957133058985" fill="none" stroke="#e94ec7" stroke-opacity="0.24" stroke-width="2.1300068587105625"/><circle cx="200" cy="240" r="172.46574074074073" fill="none" stroke="#e94ec7" stroke-opacity="0.28" stroke-width="2.886299725651577"/>
  <text x="200" y="270" font-family="sans-serif" font-size="140" text-anchor="middle" fill="#ff9f43" opacity="0.85">🪩</text>
  <rect x="8" y="8" width="384" height="544" fill="none" stroke="#e94ec7" stroke-width="3" opacity="0.7"/>
  <rect x="20" y="440" width="360" height="100" fill="#000" opacity="0.55"/>
  <text x="200" y="475" font-family="sans-serif" font-size="22" font-weight="bold" text-anchor="middle" fill="#ff9f43">Roller Warlord</text>
  <text x="200" y="500" font-family="sans-serif" font-size="11" text-anchor="middle" fill="#e94ec7" letter-spacing="3">COSMIC 1970S</text>
  <text x="200" y="525" font-family="sans-serif" font-size="10" text-anchor="middle" fill="#ffffff" opacity="0.7" letter-spacing="2">RARE</text>
</svg>