<svg xmlns="http://www.w3.org/2000/svg" viewBox="0 0 400 560" preserveAspectRatio="xMidYMid slice">
  <defs>
    <linearGradient id="bg" x1="0" y1="0" x2="0" y2="1">
      <stop offset="0" stop-color="#0a1a0f"/>
      <stop offset="1" stop-color="#1a3d24"/>
    </linearGradient>
    <radialGradient id="glow" cx="50%" cy="42%" r="50%">
      <stop offset="0" stop-color="#f5d23a" stop-opacity="0.55"/>
      <stop offset="0.5" stop-color="#f5d23a" stop-opacity="0.12"/>
      <stop offset="1" stop-color="#f5d23a" stop-opacity="0"/>
    </radialGradient>
  </defs>
  <rect width="400" height="560" fill="url(#bg)"/>
  <rect width="400" height="560" fill="url(#glow)"/>
  <circle cx="291.1" cy="63.3" r="1.6" fill="#3acf5c" opacity="0.25"/><circle cx="375.9" cy="240.2" r="1.3" fill="#3acf5c" opacity="0.36"/><circle cx="315.9" cy="269.6" r="1.5" fill="#3acf5c" opacity="0.33"/><circle cx="135.7" cy="227.7" r="0.9" fill="#3acf5c" opacity="0.46"/><circle cx="378.5" cy="107.3" r="1.2" fill="#3acf5c" opacity="0.55"/><circle cx="195.0" cy="316.5" r="0.7" fill="#3acf5c" opacity="0.48"/><circle cx="98.8" cy="309.1" r="1.7" fill="#3acf5c" opacity="0.66"/><circle cx="188.6" cy="389.2" r="0.5" fill="#3acf5c" opacity="0.34"/><circle cx="237.2" cy="529.3" r="1.1" fill="#3acf5c" opacity="0.67"/><circle cx="47.1" cy="120.9" r="0.7" fill="#3acf5c" opacity="0.68"/><circle cx="72.7" cy="339.3" r="1.8" fill="#3acf5c" opacity="0.55"/><circle cx="308.9" cy="161.4" r="0.8" fill="#3acf5c" opacity="0.22"/><circle cx="247.2" cy="36.4" r="1.8" fill="#3acf5c" opacity="0.34"/><circle cx="297.5" cy="330.9" r="1.5" fill="#3acf5c" opacity="0.52"/><circle cx="277.0" cy="146.0" r="0.8" fill="#3acf5c" opacity="0.48"/><circle cx="165.9" cy="429.0" r="1.5" fill="#3acf5c" opacity="0.48"/><circle cx="329.7" cy="177.2" r="0.7" fill="#3acf5c" opacity="0.58"/><circle cx="8.0" cy="296.6" r="0.5" fill="#3acf5c" opacity="0.28"/><circle cx="69.7" cy="551.9" r="0.8" fill="#3acf5c" opacity="0.44"/><circle cx="36.0" cy="251.8" r="1.8" fill="#3acf5c" opacity="0.57"/><circle cx="168.6" cy="426.4" r="1.1" fill="#3acf5c" opacity="0.45"/><circle cx="225.4" cy="218.5" r="0.7" fill="#3acf5c" opacity="0.55"/><circle cx="83.1" cy="367.8" r="1.4" fill="#3acf5c" opacity="0.32"/><circle cx="225.5" cy="348.8" r="1.9" fill="#3acf5c" opacity="0.32"/><circle cx="99.7" cy="362.1" r="0.7" fill="#3acf5c" opacity="0.64"/><circle cx="337.6" cy="338.6" r="1.9" fill="#3acf5c" opacity="0.66"/><circle cx="45.4" cy="437.2" r="1.0" fill="#3acf5c" opacity="0.23"/><circle cx="359.1" cy="236.2" r="1.8" fill="#3acf5c" opacity="0.54"/><circle cx="266.1" cy="537.6" r="1.3" fill="#3acf5c" opacity="0.43"/><circle cx="295.0" cy="504.8" r="0.8" fill="#3acf5c" opacity="0.51"/><circle cx="70.3" cy="213.9" r="0.6" fill="#3acf5c" opacity="0.59"/><circle cx="135.4" cy="218.0" r="0.7" fill="#3acf5c" opacity="0.46"/><circle cx="40.8" cy="365.0" r="1.0" fill="#3acf5c" opacity="0.50"/><circle cx="300.1" cy="108.7" r="0.9" fill="#3acf5c" opacity="0.62"/><circle cx="212.1" cy="313.3" r="1.0" fill="#3acf5c" opacity="0.58"/><circle cx="349.6" cy="391.1" r="0.9" fill="#3acf5c" opacity="0.52"/><circle cx="115.1" cy="293.8" r="0.9" fill="#3acf5c" opacity="0.47"/><circle cx="362.8" cy="76.7" r="1.8" fill="#3acf5c" opacity="0.62"/><circle cx="288.0" cy="396.5" r="1.6" fill="#3acf5c" opacity="0.41"/><circle cx="181.9" cy="22.7" r="1.4" fill="#3acf5c" opacity="0.47"/>
  <circle cx="200" cy="240" r="65.38758573388203" fill="none" stroke="#f5d23a" stroke-opacity="0.08" stroke-width="2.9063700274348423"/><circle cx="200" cy="240" r="88.28106995884774" fill="none" stroke="#f5d23a" stroke-opacity="0.12" stroke-width="2.4805641289437586"/><circle cx="200" cy="240" r="108.59842249657065" fill="none" stroke="#f5d23a" stroke-opacity="0.16" stroke-width="1.9045524691358025"/><circle cx="200" cy="240" r="132.66063100137174" fill="none" stroke="#f5d23a" stroke-opacity="0.20" stroke-width="1.054878257887517"/><circle cx="200" cy="240" r="151.3812757201646" fill="none" stroke="#f5d23a" stroke-opacity="0.24" stroke-width="1.7340106310013716"/>
  <text x="200" y="270" font-family="sans-serif" font-size="140" text-anchor="middle" fill="#3acf5c" opacity="0.85">🎤</text>
  <rect x="4" y="4" width="392" height="552" fill="none" stroke="#f5d23a" stroke-width="1.5" opacity="0.7"/>
  <rect x="20" y="440" width="360" height="100" fill="#000" opacity="0.55"/>
  <text x="200" y="475" font-family="sans-serif" font-size="22" font-weight="bold" text-anchor="middle" fill="#3acf5c">Queens Cipher</text>
  <text x="200" y="500" font-family="sans-serif" font-size="11" text-anchor="middle" fill="#f5d23a" letter-spacing="3">BOOM-BAP 1990S</text>
  <text x="200" y="525" font-family="sans-serif" font-size="10" text-anchor="middle" fill="#ffffff" opacity="0.7" letter-spacing="2">COMMON</text>
</svg>