<svg xmlns="http://www.w3.org/2000/svg" viewBox="0 0 400 560" preserveAspectRatio="xMidYMid slice">
  <defs>
    <linearGradient id="bg" x1="0" y1="0" x2="0" y2="1">
      <stop offset="0" stop-color="#050a1a"/>
      <stop offset="1" stop-color="#0f1f3d"/>
    </linearGradient>
    <radialGradient id="glow" cx="50%" cy="42%" r="50%">
      <stop offset="0" stop-color="#3acff5" stop-opacity="0.55"/>
      <stop offset="0.5" stop-color="#3acff5" stop-opacity="0.12"/>
      <stop offset="1" stop-color="#3acff5" stop-opacity="0"/>
    </radialGradient>
  </defs>
  <rect width="400" height="560" fill="url(#bg)"/>
  <rect width="400" height="560" fill="url(#glow)"/>
  <circle cx="13.9" cy="267.9" r="0.7" fill="#a855f7" opacity="0.49"/><circle cx="214.4" cy="371.7" r="1.5" fill="#a855f7" opacity="0.34"/><circle cx="265.1" cy="424.8" r="0.7" fill="#a855f7" opacity="0.49"/><circle cx="86.9" cy="295.8" r="1.7" fill="#a855f7" opacity="0.44"/><circle cx="341.7" cy="454.9" r="1.9" fill="#a855f7" opacity="0.47"/><circle cx="387.4" cy="44.7" r="2.0" fill="#a855f7" opacity="0.55"/><circle cx="100.7" cy="365.1" r="1.2" fill="#a855f7" opacity="0.65"/><circle cx="365.3" cy="330.6" r="1.1" fill="#a855f7" opacity="0.30"/><circle cx="228.3" cy="141.7" r="1.9" fill="#a855f7" opacity="0.60"/><circle cx="321.8" cy="289.3" r="1.5" fill="#a855f7" opacity="0.45"/><circle cx="151.9" cy="372.3" r="1.6" fill="#a855f7" opacity="0.67"/><circle cx="54.4" cy="529.1" r="1.4" fill="#a855f7" opacity="0.46"/><circle cx="217.0" cy="441.6" r="0.9" fill="#a855f7" opacity="0.67"/><circle cx="368.1" cy="393.2" r="1.3" fill="#a855f7" opacity="0.41"/><circle cx="132.3" cy="460.1" r="1.5" fill="#a855f7" opacity="0.47"/><circle cx="52.9" cy="75.4" r="1.6" fill="#a855f7" opacity="0.66"/><circle cx="80.6" cy="206.8" r="1.4" fill="#a855f7" opacity="0.35"/><circle cx="328.8" cy="308.2" r="1.7" fill="#a855f7" opacity="0.46"/><circle cx="96.3" cy="123.9" r="1.8" fill="#a855f7" opacity="0.23"/><circle cx="356.0" cy="186.2" r="1.2" fill="#a855f7" opacity="0.33"/><circle cx="110.4" cy="446.7" r="1.6" fill="#a855f7" opacity="0.27"/><circle cx="213.7" cy="400.7" r="1.0" fill="#a855f7" opacity="0.24"/><circle cx="261.1" cy="145.0" r="1.8" fill="#a855f7" opacity="0.67"/><circle cx="143.9" cy="128.9" r="0.5" fill="#a855f7" opacity="0.22"/><circle cx="271.9" cy="158.9" r="1.6" fill="#a855f7" opacity="0.50"/><circle cx="62.5" cy="456.3" r="1.1" fill="#a855f7" opacity="0.23"/><circle cx="295.9" cy="288.1" r="1.1" fill="#a855f7" opacity="0.66"/><circle cx="137.5" cy="332.0" r="1.6" fill="#a855f7" opacity="0.35"/><circle cx="26.8" cy="373.5" r="1.7" fill="#a855f7" opacity="0.32"/><circle cx="33.0" cy="177.7" r="1.3" fill="#a855f7" opacity="0.41"/><circle cx="77.1" cy="173.2" r="0.6" fill="#a855f7" opacity="0.64"/><circle cx="20.8" cy="270.0" r="1.7" fill="#a855f7" opacity="0.28"/><circle cx="22.1" cy="171.0" r="0.5" fill="#a855f7" opacity="0.30"/><circle cx="357.5" cy="55.8" r="1.0" fill="#a855f7" opacity="0.68"/><circle cx="311.1" cy="519.1" r="1.8" fill="#a855f7" opacity="0.44"/><circle cx="129.6" cy="81.3" r="1.4" fill="#a855f7" opacity="0.68"/><circle cx="45.3" cy="353.3" r="0.9" fill="#a855f7" opacity="0.31"/><circle cx="364.3" cy="374.1" r="1.8" fill="#a855f7" opacity="0.64"/><circle cx="222.4" cy="282.0" r="1.9" fill="#a855f7" opacity="0.38"/><circle cx="207.2" cy="318.9" r="1.2" fill="#a855f7" opacity="0.37"/><circle cx="47.1" cy="208.4" r="1.1" fill="#a855f7" opacity="0.21"/><circle cx="166.9" cy="26.4" r="1.6" fill="#a855f7" opacity="0.22"/><circle cx="309.8" cy="326.1" r="1.5" fill="#a855f7" opacity="0.69"/><circle cx="26.3" cy="395.3" r="0.6" fill="#a855f7" opacity="0.49"/><circle cx="230.0" cy="247.8" r="1.3" fill="#a855f7" opacity="0.55"/><circle cx="219.8" cy="188.0" r="1.2" fill="#a855f7" opacity="0.60"/><circle cx="168.4" cy="188.1" r="1.4" fill="#a855f7" opacity="0.30"/><circle cx="278.3" cy="199.6" r="0.6" fill="#a855f7" opacity="0.69"/><circle cx="203.9" cy="278.1" r="1.4" fill="#a855f7" opacity="0.43"/><circle cx="340.2" cy="520.1" r="1.5" fill="#a855f7" opacity="0.48"/><circle cx="178.5" cy="255.2" r="0.6" fill="#a855f7" opacity="0.47"/><circle cx="128.7" cy="409.6" r="1.5" fill="#a855f7" opacity="0.53"/><circle cx="8.2" cy="84.8" r="1.8" fill="#a855f7" opacity="0.37"/><circle cx="197.1" cy="227.7" r="0.6" fill="#a855f7" opacity="0.24"/><circle cx="261.0" cy="396.0" r="1.0" fill="#a855f7" opacity="0.22"/><circle cx="239.2" cy="375.3" r="2.0" fill="#a855f7" opacity="0.29"/><circle cx="201.0" cy="490.6" r="1.8" fill="#a855f7" opacity="0.32"/><circle cx="67.3" cy="50.5" r="1.0" fill="#a855f7" opacity="0.33"/><circle cx="99.9" cy="85.2" r="1.4" fill="#a855f7" opacity="0.58"/><circle cx="56.7" cy="297.2" r="0.6" fill="#a855f7" opacity="0.56"/>
  <circle cx="200" cy="240" r="67.91340877914952" fill="none" stroke="#3acff5" stroke-opacity="0.08" stroke-width="2.076406035665295"/><circle cx="200" cy="240" r="82.30072016460905" fill="none" stroke="#3acff5" stroke-opacity="0.12" stroke-width="2.672205075445816"/><circle cx="200" cy="240" r="110.40819615912208" fill="none" stroke="#3acff5" stroke-opacity="0.16" stroke-width="2.0807613168724277"/><circle cx="200" cy="240" r="128.33460219478738" fill="none" stroke="#3acff5" stroke-opacity="0.20" stroke-width="1.9563957475994513"/><circle cx="200" cy="240" r="155.43796296296296" fill="none" stroke="#3acff5" stroke-opacity="0.24" stroke-width="2.5460219478737995"/><circle cx="200" cy="240" r="177.89111796982166" fill="none" stroke="#3acff5" stroke-opacity="0.28" stroke-width="2.244701646090535"/><circle cx="200" cy="240" r="197.57061042524006" fill="none" stroke="#3acff5" stroke-opacity="0.32" stroke-width="2.484533607681756"/>
  <text x="200" y="270" font-family="sans-serif" font-size="140" text-anchor="middle" fill="#a855f7" opacity="0.85">💎</text>
  <rect x="12" y="12" width="376" height="536" fill="none" stroke="#3acff5" stroke-width="4.5" opacity="0.7"/>
  <rect x="20" y="440" width="360" height="100" fill="#000" opacity="0.55"/>
  <text x="200" y="475" font-family="sans-serif" font-size="22" font-weight="bold" text-anchor="middle" fill="#a855f7">Chrome Oracle</text>
  <text x="200" y="500" font-family="sans-serif" font-size="11" text-anchor="middle" fill="#3acff5" letter-spacing="3">NEON 2020S</text>
  <text x="200" y="525" font-family="sans-serif" font-size="10" text-anchor="middle" fill="#ffffff" opacity="0.7" letter-spacing="2">DIVINE</text>
</svg>