<svg xmlns="http://www.w3.org/2000/svg" viewBox="0 0 400 560" preserveAspectRatio="xMidYMid slice">
  <defs>
    <linearGradient id="bg" x1="0" y1="0" x2="0" y2="1">
      <stop offset="0" stop-color="#0a1a0f"/>
      <stop offset="1" stop-color="#1a3d24"/>
    </linearGradient>
    <radialGradient id="glow" cx="50%" cy="42%" r="50%">
      <stop offset="0" stop-color="#f5d23a" stop-opacity="0.55"/>
      <stop offset="0.5" stop-color="#f5d23a" stop-opacity="0.12"/>
      <stop offset="1" stop-color="#f5d23a" stop-opacity="0"/>
    </radialGradient>
  </defs>
  <rect width="400" height="560" fill="url(#bg)"/>
  <rect width="400" height="560" fill="url(#glow)"/>
  <circle cx="310.8" cy="485.3" r="1.8" fill="#3acf5c" opacity="0.48"/><circle cx="256.1" cy="176.6" r="0.5" fill="#3acf5c" opacity="0.48"/><circle cx="26.9" cy="301.1" r="0.5" fill="#3acf5c" opacity="0.46"/><circle cx="225.7" cy="250.5" r="0.6" fill="#3acf5c" opacity="0.45"/><circle cx="106.9" cy="80.0" r="1.7" fill="#3acf5c" opacity="0.65"/><circle cx="65.4" cy="446.5" r="1.6" fill="#3acf5c" opacity="0.47"/><circle cx="392.6" cy="119.3" r="1.5" fill="#3acf5c" opacity="0.57"/><circle cx="298.4" cy="24.9" r="1.3" fill="#3acf5c" opacity="0.57"/><circle cx="0.1" cy="384.5" r="1.5" fill="#3acf5c" opacity="0.69"/><circle cx="277.9" cy="465.2" r="1.1" fill="#3acf5c" opacity="0.68"/><circle cx="297.3" cy="384.6" r="1.8" fill="#3acf5c" opacity="0.60"/><circle cx="97.7" cy="488.4" r="1.1" fill="#3acf5c" opacity="0.45"/><circle cx="148.4" cy="541.4" r="1.8" fill="#3acf5c" opacity="0.59"/><circle cx="370.3" cy="412.4" r="1.3" fill="#3acf5c" opacity="0.54"/><circle cx="225.0" cy="11.5" r="1.5" fill="#3acf5c" opacity="0.57"/><circle cx="270.8" cy="161.4" r="1.6" fill="#3acf5c" opacity="0.66"/><circle cx="384.0" cy="481.8" r="0.7" fill="#3acf5c" opacity="0.25"/><circle cx="248.6" cy="447.3" r="0.7" fill="#3acf5c" opacity="0.40"/><circle cx="111.7" cy="258.4" r="1.5" fill="#3acf5c" opacity="0.20"/><circle cx="205.1" cy="405.9" r="1.1" fill="#3acf5c" opacity="0.55"/><circle cx="35.2" cy="489.0" r="1.2" fill="#3acf5c" opacity="0.27"/><circle cx="337.7" cy="85.7" r="1.0" fill="#3acf5c" opacity="0.56"/><circle cx="100.3" cy="558.2" r="1.9" fill="#3acf5c" opacity="0.28"/><circle cx="251.4" cy="509.9" r="0.9" fill="#3acf5c" opacity="0.51"/><circle cx="15.6" cy="16.8" r="1.1" fill="#3acf5c" opacity="0.57"/><circle cx="336.3" cy="192.0" r="1.2" fill="#3acf5c" opacity="0.26"/><circle cx="363.9" cy="323.4" r="0.9" fill="#3acf5c" opacity="0.45"/><circle cx="212.1" cy="424.9" r="1.3" fill="#3acf5c" opacity="0.57"/><circle cx="379.6" cy="240.6" r="1.4" fill="#3acf5c" opacity="0.34"/><circle cx="239.3" cy="302.9" r="0.7" fill="#3acf5c" opacity="0.43"/><circle cx="393.7" cy="3.4" r="1.1" fill="#3acf5c" opacity="0.37"/><circle cx="97.1" cy="517.4" r="0.5" fill="#3acf5c" opacity="0.34"/><circle cx="144.4" cy="261.6" r="1.3" fill="#3acf5c" opacity="0.28"/><circle cx="27.2" cy="245.6" r="1.6" fill="#3acf5c" opacity="0.32"/><circle cx="155.2" cy="275.6" r="1.1" fill="#3acf5c" opacity="0.60"/><circle cx="345.8" cy="12.9" r="0.7" fill="#3acf5c" opacity="0.33"/><circle cx="179.2" cy="404.8" r="0.7" fill="#3acf5c" opacity="0.26"/><circle cx="20.8" cy="448.6" r="1.2" fill="#3acf5c" opacity="0.46"/><circle cx="310.1" cy="490.2" r="1.3" fill="#3acf5c" opacity="0.42"/><circle cx="316.4" cy="294.4" r="0.8" fill="#3acf5c" opacity="0.51"/><circle cx="360.4" cy="289.8" r="1.7" fill="#3acf5c" opacity="0.24"/><circle cx="304.1" cy="386.7" r="1.2" fill="#3acf5c" opacity="0.38"/><circle cx="305.4" cy="287.6" r="1.6" fill="#3acf5c" opacity="0.41"/><circle cx="240.8" cy="172.5" r="0.6" fill="#3acf5c" opacity="0.28"/><circle cx="194.4" cy="75.8" r="1.4" fill="#3acf5c" opacity="0.54"/><circle cx="13.0" cy="198.0" r="1.0" fill="#3acf5c" opacity="0.29"/><circle cx="328.6" cy="470.0" r="2.0" fill="#3acf5c" opacity="0.41"/><circle cx="247.6" cy="490.8" r="1.4" fill="#3acf5c" opacity="0.25"/><circle cx="105.7" cy="398.7" r="1.5" fill="#3acf5c" opacity="0.48"/><circle cx="90.5" cy="435.6" r="0.8" fill="#3acf5c" opacity="0.47"/>
  <circle cx="200" cy="240" r="67.62033607681755" fill="none" stroke="#f5d23a" stroke-opacity="0.08" stroke-width="2.6091049382716047"/><circle cx="200" cy="240" r="84.83069272976681" fill="none" stroke="#f5d23a" stroke-opacity="0.12" stroke-width="1.4909122085048012"/><circle cx="200" cy="240" r="105.5883744855967" fill="none" stroke="#f5d23a" stroke-opacity="0.16" stroke-width="2.790414951989026"/><circle cx="200" cy="240" r="130.28844307270234" fill="none" stroke="#f5d23a" stroke-opacity="0.20" stroke-width="1.1248971193415638"/><circle cx="200" cy="240" r="148.36299725651577" fill="none" stroke="#f5d23a" stroke-opacity="0.24" stroke-width="1.4820130315500686"/><circle cx="200" cy="240" r="176.50339506172838" fill="none" stroke="#f5d23a" stroke-opacity="0.28" stroke-width="1.4420096021947875"/>
  <text x="200" y="270" font-family="sans-serif" font-size="140" text-anchor="middle" fill="#3acf5c" opacity="0.85">🎤</text>
  <rect x="8" y="8" width="384" height="544" fill="none" stroke="#f5d23a" stroke-width="3" opacity="0.7"/>
  <rect x="20" y="440" width="360" height="100" fill="#000" opacity="0.55"/>
  <text x="200" y="475" font-family="sans-serif" font-size="22" font-weight="bold" text-anchor="middle" fill="#3acf5c">Block Wraith</text>
  <text x="200" y="500" font-family="sans-serif" font-size="11" text-anchor="middle" fill="#f5d23a" letter-spacing="3">BOOM-BAP 1990S</text>
  <text x="200" y="525" font-family="sans-serif" font-size="10" text-anchor="middle" fill="#ffffff" opacity="0.7" letter-spacing="2">RARE</text>
</svg>