<svg xmlns="http://www.w3.org/2000/svg" viewBox="0 0 400 560" preserveAspectRatio="xMidYMid slice">
  <defs>
    <linearGradient id="bg" x1="0" y1="0" x2="0" y2="1">
      <stop offset="0" stop-color="#0a1a0f"/>
      <stop offset="1" stop-color="#1a3d24"/>
    </linearGradient>
    <radialGradient id="glow" cx="50%" cy="42%" r="50%">
      <stop offset="0" stop-color="#f5d23a" stop-opacity="0.55"/>
      <stop offset="0.5" stop-color="#f5d23a" stop-opacity="0.12"/>
      <stop offset="1" stop-color="#f5d23a" stop-opacity="0"/>
    </radialGradient>
  </defs>
  <rect width="400" height="560" fill="url(#bg)"/>
  <rect width="400" height="560" fill="url(#glow)"/>
  <circle cx="124.5" cy="71.9" r="1.0" fill="#3acf5c" opacity="0.30"/><circle cx="255.9" cy="410.7" r="2.0" fill="#3acf5c" opacity="0.29"/><circle cx="385.5" cy="35.2" r="0.7" fill="#3acf5c" opacity="0.42"/><circle cx="345.7" cy="556.0" r="1.4" fill="#3acf5c" opacity="0.60"/><circle cx="42.4" cy="452.4" r="0.9" fill="#3acf5c" opacity="0.66"/><circle cx="211.6" cy="422.5" r="1.7" fill="#3acf5c" opacity="0.28"/><circle cx="240.9" cy="148.3" r="0.7" fill="#3acf5c" opacity="0.33"/><circle cx="258.6" cy="473.4" r="0.7" fill="#3acf5c" opacity="0.39"/><circle cx="289.5" cy="353.6" r="1.9" fill="#3acf5c" opacity="0.29"/><circle cx="76.8" cy="342.1" r="1.5" fill="#3acf5c" opacity="0.31"/><circle cx="371.1" cy="286.9" r="0.7" fill="#3acf5c" opacity="0.34"/><circle cx="86.0" cy="201.7" r="0.6" fill="#3acf5c" opacity="0.28"/><circle cx="120.2" cy="390.7" r="1.7" fill="#3acf5c" opacity="0.39"/><circle cx="246.6" cy="266.4" r="0.5" fill="#3acf5c" opacity="0.31"/><circle cx="267.6" cy="340.2" r="1.9" fill="#3acf5c" opacity="0.59"/><circle cx="237.6" cy="107.5" r="0.8" fill="#3acf5c" opacity="0.39"/><circle cx="151.6" cy="225.1" r="1.1" fill="#3acf5c" opacity="0.66"/><circle cx="301.1" cy="22.3" r="0.9" fill="#3acf5c" opacity="0.54"/><circle cx="295.8" cy="425.7" r="1.4" fill="#3acf5c" opacity="0.65"/><circle cx="353.0" cy="536.4" r="1.9" fill="#3acf5c" opacity="0.22"/><circle cx="53.1" cy="181.6" r="1.4" fill="#3acf5c" opacity="0.48"/><circle cx="161.4" cy="38.7" r="1.5" fill="#3acf5c" opacity="0.51"/><circle cx="317.4" cy="453.6" r="1.1" fill="#3acf5c" opacity="0.30"/><circle cx="190.3" cy="71.1" r="1.6" fill="#3acf5c" opacity="0.23"/><circle cx="101.0" cy="439.9" r="1.9" fill="#3acf5c" opacity="0.29"/><circle cx="311.3" cy="350.1" r="1.0" fill="#3acf5c" opacity="0.26"/><circle cx="179.3" cy="64.4" r="0.9" fill="#3acf5c" opacity="0.63"/><circle cx="381.4" cy="322.6" r="0.9" fill="#3acf5c" opacity="0.33"/><circle cx="201.6" cy="39.2" r="1.2" fill="#3acf5c" opacity="0.43"/><circle cx="286.8" cy="534.8" r="1.8" fill="#3acf5c" opacity="0.51"/><circle cx="69.2" cy="60.1" r="0.8" fill="#3acf5c" opacity="0.46"/><circle cx="254.8" cy="454.2" r="1.2" fill="#3acf5c" opacity="0.63"/><circle cx="379.6" cy="175.4" r="0.8" fill="#3acf5c" opacity="0.20"/><circle cx="231.1" cy="25.7" r="1.1" fill="#3acf5c" opacity="0.52"/><circle cx="337.7" cy="288.5" r="1.9" fill="#3acf5c" opacity="0.20"/><circle cx="324.2" cy="479.8" r="1.9" fill="#3acf5c" opacity="0.54"/><circle cx="333.7" cy="32.8" r="1.3" fill="#3acf5c" opacity="0.34"/><circle cx="316.9" cy="475.4" r="1.4" fill="#3acf5c" opacity="0.48"/><circle cx="387.3" cy="141.3" r="1.6" fill="#3acf5c" opacity="0.37"/><circle cx="243.7" cy="454.8" r="1.0" fill="#3acf5c" opacity="0.25"/>
  <circle cx="200" cy="240" r="65.7065500685871" fill="none" stroke="#f5d23a" stroke-opacity="0.08" stroke-width="2.5781893004115224"/><circle cx="200" cy="240" r="86.64530178326474" fill="none" stroke="#f5d23a" stroke-opacity="0.12" stroke-width="2.9106138545953364"/><circle cx="200" cy="240" r="108.16841563786008" fill="none" stroke="#f5d23a" stroke-opacity="0.16" stroke-width="2.0311042524005485"/><circle cx="200" cy="240" r="128.8931755829904" fill="none" stroke="#f5d23a" stroke-opacity="0.20" stroke-width="2.779166666666667"/><circle cx="200" cy="240" r="149.80723593964333" fill="none" stroke="#f5d23a" stroke-opacity="0.24" stroke-width="1.6980109739368998"/>
  <text x="200" y="270" font-family="sans-serif" font-size="140" text-anchor="middle" fill="#3acf5c" opacity="0.85">🎤</text>
  <rect x="4" y="4" width="392" height="552" fill="none" stroke="#f5d23a" stroke-width="1.5" opacity="0.7"/>
  <rect x="20" y="440" width="360" height="100" fill="#000" opacity="0.55"/>
  <text x="200" y="475" font-family="sans-serif" font-size="22" font-weight="bold" text-anchor="middle" fill="#3acf5c">Brass Cipher</text>
  <text x="200" y="500" font-family="sans-serif" font-size="11" text-anchor="middle" fill="#f5d23a" letter-spacing="3">BOOM-BAP 1990S</text>
  <text x="200" y="525" font-family="sans-serif" font-size="10" text-anchor="middle" fill="#ffffff" opacity="0.7" letter-spacing="2">COMMON</text>
</svg>