<svg xmlns="http://www.w3.org/2000/svg" viewBox="0 0 400 560" preserveAspectRatio="xMidYMid slice">
  <defs>
    <linearGradient id="bg" x1="0" y1="0" x2="0" y2="1">
      <stop offset="0" stop-color="#1a0f04"/>
      <stop offset="1" stop-color="#3d2410"/>
    </linearGradient>
    <radialGradient id="glow" cx="50%" cy="42%" r="50%">
      <stop offset="0" stop-color="#d4a84c" stop-opacity="0.55"/>
      <stop offset="0.5" stop-color="#d4a84c" stop-opacity="0.12"/>
      <stop offset="1" stop-color="#d4a84c" stop-opacity="0"/>
    </radialGradient>
  </defs>
  <rect width="400" height="560" fill="url(#bg)"/>
  <rect width="400" height="560" fill="url(#glow)"/>
  <circle cx="185.1" cy="130.5" r="0.6" fill="#f5d77a" opacity="0.59"/><circle cx="19.3" cy="39.6" r="0.9" fill="#f5d77a" opacity="0.45"/><circle cx="345.7" cy="195.2" r="0.5" fill="#f5d77a" opacity="0.63"/><circle cx="166.8" cy="549.0" r="1.2" fill="#f5d77a" opacity="0.65"/><circle cx="336.8" cy="36.3" r="0.8" fill="#f5d77a" opacity="0.20"/><circle cx="50.8" cy="433.9" r="1.8" fill="#f5d77a" opacity="0.22"/><circle cx="0.2" cy="511.2" r="0.9" fill="#f5d77a" opacity="0.35"/><circle cx="194.9" cy="74.5" r="0.7" fill="#f5d77a" opacity="0.22"/><circle cx="52.2" cy="465.2" r="1.9" fill="#f5d77a" opacity="0.53"/><circle cx="352.2" cy="390.4" r="0.7" fill="#f5d77a" opacity="0.54"/><circle cx="260.5" cy="527.6" r="1.5" fill="#f5d77a" opacity="0.32"/><circle cx="216.5" cy="102.5" r="1.8" fill="#f5d77a" opacity="0.37"/><circle cx="289.4" cy="560.0" r="1.6" fill="#f5d77a" opacity="0.54"/><circle cx="0.2" cy="88.8" r="1.2" fill="#f5d77a" opacity="0.35"/><circle cx="10.5" cy="279.0" r="1.0" fill="#f5d77a" opacity="0.58"/><circle cx="78.5" cy="273.3" r="1.6" fill="#f5d77a" opacity="0.69"/><circle cx="80.6" cy="251.4" r="0.9" fill="#f5d77a" opacity="0.64"/><circle cx="100.8" cy="248.0" r="1.9" fill="#f5d77a" opacity="0.49"/><circle cx="386.0" cy="463.6" r="1.8" fill="#f5d77a" opacity="0.32"/><circle cx="368.4" cy="268.9" r="1.5" fill="#f5d77a" opacity="0.53"/><circle cx="354.0" cy="383.1" r="1.2" fill="#f5d77a" opacity="0.44"/><circle cx="278.7" cy="384.3" r="1.5" fill="#f5d77a" opacity="0.26"/><circle cx="330.2" cy="514.6" r="1.1" fill="#f5d77a" opacity="0.33"/><circle cx="236.9" cy="497.3" r="1.1" fill="#f5d77a" opacity="0.26"/><circle cx="23.3" cy="408.7" r="1.9" fill="#f5d77a" opacity="0.35"/><circle cx="232.8" cy="241.7" r="0.6" fill="#f5d77a" opacity="0.40"/><circle cx="16.0" cy="404.2" r="1.4" fill="#f5d77a" opacity="0.29"/><circle cx="286.4" cy="350.1" r="0.9" fill="#f5d77a" opacity="0.43"/><circle cx="342.9" cy="383.6" r="1.0" fill="#f5d77a" opacity="0.56"/><circle cx="358.1" cy="477.0" r="1.5" fill="#f5d77a" opacity="0.35"/><circle cx="134.7" cy="21.9" r="1.0" fill="#f5d77a" opacity="0.32"/><circle cx="127.0" cy="193.7" r="1.9" fill="#f5d77a" opacity="0.65"/><circle cx="329.9" cy="529.1" r="0.8" fill="#f5d77a" opacity="0.28"/><circle cx="234.9" cy="357.4" r="1.7" fill="#f5d77a" opacity="0.36"/><circle cx="251.8" cy="45.2" r="1.3" fill="#f5d77a" opacity="0.50"/><circle cx="197.9" cy="373.7" r="1.9" fill="#f5d77a" opacity="0.42"/><circle cx="53.5" cy="50.0" r="1.0" fill="#f5d77a" opacity="0.37"/><circle cx="184.0" cy="311.6" r="1.6" fill="#f5d77a" opacity="0.43"/><circle cx="228.9" cy="384.3" r="1.3" fill="#f5d77a" opacity="0.59"/><circle cx="257.4" cy="32.9" r="1.4" fill="#f5d77a" opacity="0.21"/>
  <circle cx="200" cy="240" r="63.20661865569273" fill="none" stroke="#d4a84c" stroke-opacity="0.08" stroke-width="1.6126714677640603"/><circle cx="200" cy="240" r="85.51985596707819" fill="none" stroke="#d4a84c" stroke-opacity="0.12" stroke-width="1.967729766803841"/><circle cx="200" cy="240" r="109.1088134430727" fill="none" stroke="#d4a84c" stroke-opacity="0.16" stroke-width="2.6911008230452675"/><circle cx="200" cy="240" r="131.40558984910837" fill="none" stroke="#d4a84c" stroke-opacity="0.20" stroke-width="2.7704389574759944"/><circle cx="200" cy="240" r="153.10154320987655" fill="none" stroke="#d4a84c" stroke-opacity="0.24" stroke-width="1.785991083676269"/>
  <text x="200" y="270" font-family="serif" font-size="140" text-anchor="middle" fill="#f5d77a" opacity="0.85">☥</text>
  <rect x="4" y="4" width="392" height="552" fill="none" stroke="#d4a84c" stroke-width="1.5" opacity="0.7"/>
  <rect x="20" y="440" width="360" height="100" fill="#000" opacity="0.55"/>
  <text x="200" y="475" font-family="serif" font-size="22" font-weight="bold" text-anchor="middle" fill="#f5d77a">Ash Pharaoh</text>
  <text x="200" y="500" font-family="sans-serif" font-size="11" text-anchor="middle" fill="#d4a84c" letter-spacing="3">DYNASTY</text>
  <text x="200" y="525" font-family="sans-serif" font-size="10" text-anchor="middle" fill="#ffffff" opacity="0.7" letter-spacing="2">COMMON</text>
</svg>