<svg xmlns="http://www.w3.org/2000/svg" viewBox="0 0 400 560" preserveAspectRatio="xMidYMid slice">
  <defs>
    <linearGradient id="bg" x1="0" y1="0" x2="0" y2="1">
      <stop offset="0" stop-color="#0a0a0a"/>
      <stop offset="1" stop-color="#1f1f1f"/>
    </linearGradient>
    <radialGradient id="glow" cx="50%" cy="42%" r="50%">
      <stop offset="0" stop-color="#c9a84c" stop-opacity="0.55"/>
      <stop offset="0.5" stop-color="#c9a84c" stop-opacity="0.12"/>
      <stop offset="1" stop-color="#c9a84c" stop-opacity="0"/>
    </radialGradient>
  </defs>
  <rect width="400" height="560" fill="url(#bg)"/>
  <rect width="400" height="560" fill="url(#glow)"/>
  <circle cx="120.8" cy="320.7" r="1.5" fill="#f0d78c" opacity="0.31"/><circle cx="178.0" cy="431.4" r="0.5" fill="#f0d78c" opacity="0.37"/><circle cx="278.1" cy="76.6" r="1.5" fill="#f0d78c" opacity="0.63"/><circle cx="386.4" cy="493.7" r="1.6" fill="#f0d78c" opacity="0.67"/><circle cx="142.4" cy="348.6" r="1.2" fill="#f0d78c" opacity="0.46"/><circle cx="15.3" cy="526.1" r="1.7" fill="#f0d78c" opacity="0.38"/><circle cx="326.0" cy="334.9" r="0.5" fill="#f0d78c" opacity="0.45"/><circle cx="136.3" cy="245.1" r="1.1" fill="#f0d78c" opacity="0.42"/><circle cx="4.3" cy="519.4" r="1.0" fill="#f0d78c" opacity="0.28"/><circle cx="206.4" cy="217.6" r="1.0" fill="#f0d78c" opacity="0.49"/><circle cx="26.6" cy="494.2" r="1.3" fill="#f0d78c" opacity="0.58"/><circle cx="111.8" cy="429.8" r="1.9" fill="#f0d78c" opacity="0.66"/><circle cx="294.2" cy="515.1" r="0.9" fill="#f0d78c" opacity="0.62"/><circle cx="79.8" cy="349.2" r="1.2" fill="#f0d78c" opacity="0.29"/><circle cx="204.6" cy="70.4" r="0.9" fill="#f0d78c" opacity="0.36"/><circle cx="56.1" cy="480.7" r="1.2" fill="#f0d78c" opacity="0.68"/><circle cx="162.7" cy="183.5" r="2.0" fill="#f0d78c" opacity="0.36"/><circle cx="149.2" cy="374.8" r="2.0" fill="#f0d78c" opacity="0.70"/><circle cx="158.7" cy="487.8" r="1.4" fill="#f0d78c" opacity="0.50"/><circle cx="141.9" cy="370.4" r="1.5" fill="#f0d78c" opacity="0.63"/><circle cx="212.3" cy="36.3" r="1.7" fill="#f0d78c" opacity="0.52"/><circle cx="68.7" cy="349.8" r="1.1" fill="#f0d78c" opacity="0.41"/><circle cx="284.0" cy="163.2" r="0.8" fill="#f0d78c" opacity="0.44"/><circle cx="260.6" cy="548.1" r="1.1" fill="#f0d78c" opacity="0.66"/><circle cx="52.8" cy="439.8" r="1.3" fill="#f0d78c" opacity="0.24"/><circle cx="55.7" cy="495.2" r="0.9" fill="#f0d78c" opacity="0.63"/><circle cx="160.7" cy="43.6" r="1.0" fill="#f0d78c" opacity="0.45"/><circle cx="377.6" cy="11.4" r="1.4" fill="#f0d78c" opacity="0.34"/><circle cx="123.8" cy="59.9" r="1.3" fill="#f0d78c" opacity="0.51"/><circle cx="179.4" cy="16.1" r="1.1" fill="#f0d78c" opacity="0.22"/><circle cx="109.9" cy="557.8" r="0.9" fill="#f0d78c" opacity="0.53"/><circle cx="354.8" cy="350.4" r="1.4" fill="#f0d78c" opacity="0.43"/><circle cx="183.2" cy="279.1" r="0.7" fill="#f0d78c" opacity="0.30"/><circle cx="316.2" cy="212.3" r="0.9" fill="#f0d78c" opacity="0.64"/><circle cx="215.4" cy="60.3" r="0.8" fill="#f0d78c" opacity="0.23"/><circle cx="38.9" cy="85.7" r="1.0" fill="#f0d78c" opacity="0.53"/><circle cx="63.2" cy="468.3" r="0.9" fill="#f0d78c" opacity="0.52"/><circle cx="372.3" cy="122.7" r="2.0" fill="#f0d78c" opacity="0.23"/><circle cx="13.1" cy="369.3" r="1.4" fill="#f0d78c" opacity="0.25"/><circle cx="17.7" cy="19.1" r="1.7" fill="#f0d78c" opacity="0.48"/>
  <circle cx="200" cy="240" r="62.22383401920439" fill="none" stroke="#c9a84c" stroke-opacity="0.08" stroke-width="2.392695473251029"/><circle cx="200" cy="240" r="89.5329561042524" fill="none" stroke="#c9a84c" stroke-opacity="0.12" stroke-width="1.4288237311385459"/><circle cx="200" cy="240" r="107.64866255144032" fill="none" stroke="#c9a84c" stroke-opacity="0.16" stroke-width="1.4752400548696845"/><circle cx="200" cy="240" r="128.5215706447188" fill="none" stroke="#c9a84c" stroke-opacity="0.20" stroke-width="2.704783950617284"/><circle cx="200" cy="240" r="150.47266803840878" fill="none" stroke="#c9a84c" stroke-opacity="0.24" stroke-width="2.9939986282578874"/>
  <text x="200" y="270" font-family="serif" font-size="140" text-anchor="middle" fill="#f0d78c" opacity="0.85">🎷</text>
  <rect x="4" y="4" width="392" height="552" fill="none" stroke="#c9a84c" stroke-width="1.5" opacity="0.7"/>
  <rect x="20" y="440" width="360" height="100" fill="#000" opacity="0.55"/>
  <text x="200" y="475" font-family="serif" font-size="22" font-weight="bold" text-anchor="middle" fill="#f0d78c">Jazz Heiress</text>
  <text x="200" y="500" font-family="sans-serif" font-size="11" text-anchor="middle" fill="#c9a84c" letter-spacing="3">ROARING 1920S</text>
  <text x="200" y="525" font-family="sans-serif" font-size="10" text-anchor="middle" fill="#ffffff" opacity="0.7" letter-spacing="2">COMMON</text>
</svg>