<svg xmlns="http://www.w3.org/2000/svg" viewBox="0 0 400 560" preserveAspectRatio="xMidYMid slice">
  <defs>
    <linearGradient id="bg" x1="0" y1="0" x2="0" y2="1">
      <stop offset="0" stop-color="#1a0533"/>
      <stop offset="1" stop-color="#3d0f5c"/>
    </linearGradient>
    <radialGradient id="glow" cx="50%" cy="42%" r="50%">
      <stop offset="0" stop-color="#e94ec7" stop-opacity="0.55"/>
      <stop offset="0.5" stop-color="#e94ec7" stop-opacity="0.12"/>
      <stop offset="1" stop-color="#e94ec7" stop-opacity="0"/>
    </radialGradient>
  </defs>
  <rect width="400" height="560" fill="url(#bg)"/>
  <rect width="400" height="560" fill="url(#glow)"/>
  <circle cx="322.7" cy="476.3" r="0.5" fill="#ff9f43" opacity="0.31"/><circle cx="16.9" cy="141.1" r="0.5" fill="#ff9f43" opacity="0.58"/><circle cx="331.8" cy="335.9" r="1.1" fill="#ff9f43" opacity="0.28"/><circle cx="166.0" cy="244.9" r="1.5" fill="#ff9f43" opacity="0.63"/><circle cx="92.4" cy="400.5" r="1.1" fill="#ff9f43" opacity="0.31"/><circle cx="313.4" cy="194.3" r="1.7" fill="#ff9f43" opacity="0.33"/><circle cx="83.4" cy="241.6" r="1.4" fill="#ff9f43" opacity="0.39"/><circle cx="197.5" cy="79.2" r="0.9" fill="#ff9f43" opacity="0.41"/><circle cx="146.9" cy="156.5" r="1.4" fill="#ff9f43" opacity="0.54"/><circle cx="341.6" cy="279.9" r="1.2" fill="#ff9f43" opacity="0.40"/><circle cx="198.9" cy="110.6" r="1.0" fill="#ff9f43" opacity="0.21"/><circle cx="98.9" cy="35.7" r="1.2" fill="#ff9f43" opacity="0.22"/><circle cx="7.2" cy="172.9" r="0.5" fill="#ff9f43" opacity="0.50"/><circle cx="363.2" cy="307.8" r="0.9" fill="#ff9f43" opacity="0.55"/><circle cx="36.1" cy="205.3" r="0.6" fill="#ff9f43" opacity="0.22"/><circle cx="146.8" cy="294.1" r="1.7" fill="#ff9f43" opacity="0.54"/><circle cx="157.2" cy="484.3" r="1.5" fill="#ff9f43" opacity="0.26"/><circle cx="225.1" cy="478.6" r="0.7" fill="#ff9f43" opacity="0.37"/><circle cx="227.2" cy="456.8" r="1.4" fill="#ff9f43" opacity="0.33"/><circle cx="247.4" cy="453.4" r="1.0" fill="#ff9f43" opacity="0.67"/><circle cx="132.7" cy="108.9" r="0.8" fill="#ff9f43" opacity="0.50"/><circle cx="115.0" cy="474.3" r="0.6" fill="#ff9f43" opacity="0.21"/><circle cx="100.7" cy="28.4" r="1.7" fill="#ff9f43" opacity="0.62"/><circle cx="25.4" cy="29.6" r="0.6" fill="#ff9f43" opacity="0.45"/><circle cx="76.9" cy="159.9" r="1.6" fill="#ff9f43" opacity="0.52"/><circle cx="383.5" cy="142.7" r="1.7" fill="#ff9f43" opacity="0.45"/><circle cx="170.0" cy="54.0" r="0.9" fill="#ff9f43" opacity="0.54"/><circle cx="379.5" cy="447.0" r="1.1" fill="#ff9f43" opacity="0.59"/><circle cx="162.7" cy="49.5" r="2.0" fill="#ff9f43" opacity="0.47"/><circle cx="33.1" cy="555.4" r="1.4" fill="#ff9f43" opacity="0.61"/><circle cx="89.5" cy="28.9" r="1.6" fill="#ff9f43" opacity="0.25"/><circle cx="104.8" cy="122.3" r="0.5" fill="#ff9f43" opacity="0.53"/><circle cx="281.4" cy="227.3" r="1.5" fill="#ff9f43" opacity="0.50"/><circle cx="273.6" cy="399.0" r="1.0" fill="#ff9f43" opacity="0.33"/><circle cx="76.6" cy="174.4" r="1.4" fill="#ff9f43" opacity="0.46"/><circle cx="381.5" cy="2.8" r="0.7" fill="#ff9f43" opacity="0.54"/><circle cx="398.5" cy="250.6" r="1.8" fill="#ff9f43" opacity="0.68"/><circle cx="344.6" cy="19.0" r="1.0" fill="#ff9f43" opacity="0.60"/><circle cx="200.2" cy="255.3" r="1.5" fill="#ff9f43" opacity="0.56"/><circle cx="330.7" cy="516.9" r="0.6" fill="#ff9f43" opacity="0.62"/>
  <circle cx="200" cy="240" r="67.96519204389574" fill="none" stroke="#e94ec7" stroke-opacity="0.08" stroke-width="2.485442386831276"/><circle cx="200" cy="240" r="84.08912894375857" fill="none" stroke="#e94ec7" stroke-opacity="0.12" stroke-width="1.169718792866941"/><circle cx="200" cy="240" r="107.90853909465021" fill="none" stroke="#e94ec7" stroke-opacity="0.16" stroke-width="1.7531721536351166"/><circle cx="200" cy="240" r="132.7073731138546" fill="none" stroke="#e94ec7" stroke-opacity="0.20" stroke-width="1.7419753086419754"/><circle cx="200" cy="240" r="154.13995198902606" fill="none" stroke="#e94ec7" stroke-opacity="0.24" stroke-width="2.3460048010973935"/>
  <text x="200" y="270" font-family="sans-serif" font-size="140" text-anchor="middle" fill="#ff9f43" opacity="0.85">🪩</text>
  <rect x="4" y="4" width="392" height="552" fill="none" stroke="#e94ec7" stroke-width="1.5" opacity="0.7"/>
  <rect x="20" y="440" width="360" height="100" fill="#000" opacity="0.55"/>
  <text x="200" y="475" font-family="sans-serif" font-size="22" font-weight="bold" text-anchor="middle" fill="#ff9f43">Mirror Dancer</text>
  <text x="200" y="500" font-family="sans-serif" font-size="11" text-anchor="middle" fill="#e94ec7" letter-spacing="3">COSMIC 1970S</text>
  <text x="200" y="525" font-family="sans-serif" font-size="10" text-anchor="middle" fill="#ffffff" opacity="0.7" letter-spacing="2">COMMON</text>
</svg>