<svg xmlns="http://www.w3.org/2000/svg" viewBox="0 0 400 560" preserveAspectRatio="xMidYMid slice">
  <defs>
    <linearGradient id="bg" x1="0" y1="0" x2="0" y2="1">
      <stop offset="0" stop-color="#1a0f04"/>
      <stop offset="1" stop-color="#3d2410"/>
    </linearGradient>
    <radialGradient id="glow" cx="50%" cy="42%" r="50%">
      <stop offset="0" stop-color="#d4a84c" stop-opacity="0.55"/>
      <stop offset="0.5" stop-color="#d4a84c" stop-opacity="0.12"/>
      <stop offset="1" stop-color="#d4a84c" stop-opacity="0"/>
    </radialGradient>
  </defs>
  <rect width="400" height="560" fill="url(#bg)"/>
  <rect width="400" height="560" fill="url(#glow)"/>
  <circle cx="61.1" cy="516.1" r="1.7" fill="#f5d77a" opacity="0.57"/><circle cx="137.6" cy="481.0" r="0.8" fill="#f5d77a" opacity="0.42"/><circle cx="29.9" cy="512.8" r="1.4" fill="#f5d77a" opacity="0.62"/><circle cx="132.8" cy="148.1" r="1.4" fill="#f5d77a" opacity="0.63"/><circle cx="337.8" cy="396.5" r="1.9" fill="#f5d77a" opacity="0.58"/><circle cx="254.7" cy="504.3" r="1.1" fill="#f5d77a" opacity="0.59"/><circle cx="100.9" cy="132.8" r="1.4" fill="#f5d77a" opacity="0.39"/><circle cx="256.5" cy="229.1" r="1.5" fill="#f5d77a" opacity="0.22"/><circle cx="287.0" cy="350.7" r="1.8" fill="#f5d77a" opacity="0.66"/><circle cx="231.9" cy="283.4" r="1.1" fill="#f5d77a" opacity="0.69"/><circle cx="160.3" cy="352.0" r="0.8" fill="#f5d77a" opacity="0.68"/><circle cx="393.3" cy="425.2" r="1.4" fill="#f5d77a" opacity="0.65"/><circle cx="392.5" cy="413.2" r="1.7" fill="#f5d77a" opacity="0.36"/><circle cx="316.0" cy="18.6" r="0.8" fill="#f5d77a" opacity="0.29"/><circle cx="40.3" cy="541.2" r="1.0" fill="#f5d77a" opacity="0.39"/><circle cx="49.4" cy="335.6" r="1.0" fill="#f5d77a" opacity="0.23"/><circle cx="190.2" cy="162.3" r="0.8" fill="#f5d77a" opacity="0.37"/><circle cx="294.8" cy="512.0" r="1.5" fill="#f5d77a" opacity="0.24"/><circle cx="269.3" cy="424.0" r="1.6" fill="#f5d77a" opacity="0.64"/><circle cx="49.6" cy="36.3" r="1.9" fill="#f5d77a" opacity="0.28"/><circle cx="223.3" cy="151.0" r="0.9" fill="#f5d77a" opacity="0.50"/><circle cx="118.9" cy="491.6" r="1.4" fill="#f5d77a" opacity="0.42"/><circle cx="160.9" cy="14.0" r="0.6" fill="#f5d77a" opacity="0.33"/><circle cx="92.6" cy="391.5" r="1.8" fill="#f5d77a" opacity="0.53"/><circle cx="264.7" cy="351.8" r="1.6" fill="#f5d77a" opacity="0.40"/><circle cx="390.7" cy="468.8" r="1.0" fill="#f5d77a" opacity="0.36"/><circle cx="169.3" cy="486.7" r="0.6" fill="#f5d77a" opacity="0.65"/><circle cx="173.5" cy="377.9" r="1.5" fill="#f5d77a" opacity="0.42"/><circle cx="205.6" cy="93.9" r="1.0" fill="#f5d77a" opacity="0.21"/><circle cx="320.1" cy="250.1" r="1.4" fill="#f5d77a" opacity="0.69"/><circle cx="111.9" cy="383.3" r="0.7" fill="#f5d77a" opacity="0.31"/><circle cx="272.4" cy="382.8" r="1.5" fill="#f5d77a" opacity="0.20"/><circle cx="11.6" cy="55.0" r="0.6" fill="#f5d77a" opacity="0.50"/><circle cx="346.6" cy="181.3" r="1.7" fill="#f5d77a" opacity="0.41"/><circle cx="57.8" cy="28.7" r="0.7" fill="#f5d77a" opacity="0.68"/><circle cx="310.5" cy="274.7" r="0.8" fill="#f5d77a" opacity="0.39"/><circle cx="344.3" cy="145.2" r="1.0" fill="#f5d77a" opacity="0.54"/><circle cx="228.3" cy="524.9" r="1.0" fill="#f5d77a" opacity="0.47"/><circle cx="283.5" cy="162.6" r="1.4" fill="#f5d77a" opacity="0.22"/><circle cx="371.6" cy="88.3" r="1.0" fill="#f5d77a" opacity="0.54"/><circle cx="250.6" cy="4.9" r="1.9" fill="#f5d77a" opacity="0.41"/><circle cx="197.2" cy="91.9" r="2.0" fill="#f5d77a" opacity="0.30"/><circle cx="295.2" cy="384.1" r="1.3" fill="#f5d77a" opacity="0.24"/><circle cx="391.5" cy="521.9" r="1.4" fill="#f5d77a" opacity="0.33"/><circle cx="318.3" cy="436.1" r="2.0" fill="#f5d77a" opacity="0.47"/><circle cx="381.7" cy="285.8" r="1.4" fill="#f5d77a" opacity="0.49"/><circle cx="117.6" cy="209.2" r="0.6" fill="#f5d77a" opacity="0.57"/><circle cx="113.5" cy="448.4" r="0.9" fill="#f5d77a" opacity="0.57"/><circle cx="97.9" cy="166.7" r="0.8" fill="#f5d77a" opacity="0.60"/><circle cx="95.5" cy="0.3" r="1.8" fill="#f5d77a" opacity="0.46"/><circle cx="249.5" cy="502.2" r="1.3" fill="#f5d77a" opacity="0.43"/><circle cx="110.4" cy="400.3" r="1.9" fill="#f5d77a" opacity="0.42"/><circle cx="191.9" cy="268.4" r="1.7" fill="#f5d77a" opacity="0.32"/><circle cx="192.8" cy="410.8" r="1.1" fill="#f5d77a" opacity="0.39"/><circle cx="285.9" cy="239.7" r="1.3" fill="#f5d77a" opacity="0.27"/><circle cx="273.6" cy="266.9" r="1.1" fill="#f5d77a" opacity="0.50"/><circle cx="210.2" cy="547.5" r="1.4" fill="#f5d77a" opacity="0.26"/><circle cx="91.0" cy="58.4" r="1.6" fill="#f5d77a" opacity="0.49"/><circle cx="207.1" cy="369.0" r="1.2" fill="#f5d77a" opacity="0.33"/><circle cx="168.4" cy="165.7" r="1.6" fill="#f5d77a" opacity="0.40"/><circle cx="192.3" cy="229.7" r="0.5" fill="#f5d77a" opacity="0.42"/><circle cx="259.0" cy="388.2" r="1.4" fill="#f5d77a" opacity="0.64"/><circle cx="334.0" cy="198.8" r="1.3" fill="#f5d77a" opacity="0.63"/><circle cx="56.7" cy="7.0" r="0.8" fill="#f5d77a" opacity="0.39"/><circle cx="296.2" cy="137.8" r="1.2" fill="#f5d77a" opacity="0.27"/><circle cx="173.6" cy="460.0" r="1.4" fill="#f5d77a" opacity="0.29"/><circle cx="350.6" cy="323.5" r="1.8" fill="#f5d77a" opacity="0.22"/><circle cx="185.3" cy="551.1" r="1.6" fill="#f5d77a" opacity="0.54"/><circle cx="354.0" cy="202.6" r="1.5" fill="#f5d77a" opacity="0.20"/><circle cx="140.9" cy="432.6" r="1.6" fill="#f5d77a" opacity="0.26"/>
  <circle cx="200" cy="240" r="66.71522633744856" fill="none" stroke="#d4a84c" stroke-opacity="0.08" stroke-width="2.0026834705075442"/><circle cx="200" cy="240" r="83.52640603566529" fill="none" stroke="#d4a84c" stroke-opacity="0.12" stroke-width="2.6982767489711934"/><circle cx="200" cy="240" r="104.37873799725652" fill="none" stroke="#d4a84c" stroke-opacity="0.16" stroke-width="2.0831704389574757"/><circle cx="200" cy="240" r="129.96358024691358" fill="none" stroke="#d4a84c" stroke-opacity="0.20" stroke-width="1.7376114540466392"/><circle cx="200" cy="240" r="151.78710562414267" fill="none" stroke="#d4a84c" stroke-opacity="0.24" stroke-width="1.3899948559670783"/><circle cx="200" cy="240" r="177.05919067215365" fill="none" stroke="#d4a84c" stroke-opacity="0.28" stroke-width="1.8057527434842249"/><circle cx="200" cy="240" r="194.9156378600823" fill="none" stroke="#d4a84c" stroke-opacity="0.32" stroke-width="1.009576474622771"/><circle cx="200" cy="240" r="219.97373113854596" fill="none" stroke="#d4a84c" stroke-opacity="0.36" stroke-width="1.8409722222222222"/>
  <text x="200" y="270" font-family="serif" font-size="140" text-anchor="middle" fill="#f5d77a" opacity="0.85">☥</text>
  <rect x="16" y="16" width="368" height="528" fill="none" stroke="#d4a84c" stroke-width="6" opacity="0.7"/>
  <rect x="20" y="440" width="360" height="100" fill="#000" opacity="0.55"/>
  <text x="200" y="475" font-family="serif" font-size="22" font-weight="bold" text-anchor="middle" fill="#f5d77a">Sand Herald</text>
  <text x="200" y="500" font-family="sans-serif" font-size="11" text-anchor="middle" fill="#d4a84c" letter-spacing="3">DYNASTY</text>
  <text x="200" y="525" font-family="sans-serif" font-size="10" text-anchor="middle" fill="#ffffff" opacity="0.7" letter-spacing="2">LEGENDARY</text>
</svg>