<svg xmlns="http://www.w3.org/2000/svg" viewBox="0 0 400 560" preserveAspectRatio="xMidYMid slice">
  <defs>
    <linearGradient id="bg" x1="0" y1="0" x2="0" y2="1">
      <stop offset="0" stop-color="#0a1a0f"/>
      <stop offset="1" stop-color="#1a3d24"/>
    </linearGradient>
    <radialGradient id="glow" cx="50%" cy="42%" r="50%">
      <stop offset="0" stop-color="#f5d23a" stop-opacity="0.55"/>
      <stop offset="0.5" stop-color="#f5d23a" stop-opacity="0.12"/>
      <stop offset="1" stop-color="#f5d23a" stop-opacity="0"/>
    </radialGradient>
  </defs>
  <rect width="400" height="560" fill="url(#bg)"/>
  <rect width="400" height="560" fill="url(#glow)"/>
  <circle cx="135.2" cy="46.6" r="1.8" fill="#3acf5c" opacity="0.50"/><circle cx="351.7" cy="255.8" r="1.2" fill="#3acf5c" opacity="0.43"/><circle cx="255.5" cy="248.4" r="0.8" fill="#3acf5c" opacity="0.61"/><circle cx="345.2" cy="328.6" r="1.1" fill="#3acf5c" opacity="0.28"/><circle cx="393.8" cy="468.6" r="1.7" fill="#3acf5c" opacity="0.61"/><circle cx="203.8" cy="60.2" r="1.3" fill="#3acf5c" opacity="0.62"/><circle cx="229.3" cy="278.6" r="0.9" fill="#3acf5c" opacity="0.50"/><circle cx="65.6" cy="100.7" r="1.4" fill="#3acf5c" opacity="0.67"/><circle cx="3.9" cy="535.7" r="0.9" fill="#3acf5c" opacity="0.29"/><circle cx="54.2" cy="270.2" r="0.6" fill="#3acf5c" opacity="0.47"/><circle cx="33.6" cy="85.3" r="1.4" fill="#3acf5c" opacity="0.43"/><circle cx="322.6" cy="368.3" r="0.5" fill="#3acf5c" opacity="0.43"/><circle cx="86.4" cy="116.6" r="1.3" fill="#3acf5c" opacity="0.53"/><circle cx="164.6" cy="235.9" r="1.1" fill="#3acf5c" opacity="0.23"/><circle cx="226.4" cy="491.2" r="1.3" fill="#3acf5c" opacity="0.39"/><circle cx="192.7" cy="191.1" r="0.9" fill="#3acf5c" opacity="0.52"/><circle cx="325.3" cy="365.7" r="1.7" fill="#3acf5c" opacity="0.40"/><circle cx="382.1" cy="157.8" r="1.3" fill="#3acf5c" opacity="0.49"/><circle cx="239.8" cy="307.1" r="2.0" fill="#3acf5c" opacity="0.27"/><circle cx="382.2" cy="288.2" r="1.0" fill="#3acf5c" opacity="0.27"/><circle cx="256.3" cy="301.5" r="1.3" fill="#3acf5c" opacity="0.58"/><circle cx="94.2" cy="277.9" r="1.0" fill="#3acf5c" opacity="0.61"/><circle cx="202.1" cy="376.5" r="1.6" fill="#3acf5c" opacity="0.68"/><circle cx="115.7" cy="175.5" r="0.9" fill="#3acf5c" opacity="0.49"/><circle cx="22.8" cy="476.9" r="1.9" fill="#3acf5c" opacity="0.38"/><circle cx="51.6" cy="444.1" r="1.4" fill="#3acf5c" opacity="0.46"/><circle cx="227.0" cy="153.2" r="1.1" fill="#3acf5c" opacity="0.54"/><circle cx="292.1" cy="157.3" r="1.3" fill="#3acf5c" opacity="0.40"/><circle cx="197.5" cy="304.3" r="1.6" fill="#3acf5c" opacity="0.44"/><circle cx="56.8" cy="48.0" r="1.5" fill="#3acf5c" opacity="0.57"/><circle cx="368.7" cy="252.6" r="1.6" fill="#3acf5c" opacity="0.52"/><circle cx="106.2" cy="330.5" r="1.5" fill="#3acf5c" opacity="0.46"/><circle cx="271.7" cy="233.2" r="1.5" fill="#3acf5c" opacity="0.42"/><circle cx="119.5" cy="16.0" r="0.9" fill="#3acf5c" opacity="0.57"/><circle cx="44.7" cy="335.8" r="0.7" fill="#3acf5c" opacity="0.35"/><circle cx="338.5" cy="522.0" r="0.5" fill="#3acf5c" opacity="0.41"/><circle cx="211.0" cy="380.9" r="1.6" fill="#3acf5c" opacity="0.37"/><circle cx="279.4" cy="133.8" r="1.7" fill="#3acf5c" opacity="0.45"/><circle cx="123.9" cy="167.9" r="1.2" fill="#3acf5c" opacity="0.39"/><circle cx="109.9" cy="40.6" r="1.8" fill="#3acf5c" opacity="0.27"/><circle cx="277.0" cy="97.7" r="1.0" fill="#3acf5c" opacity="0.58"/><circle cx="294.4" cy="104.1" r="1.5" fill="#3acf5c" opacity="0.68"/><circle cx="82.9" cy="488.5" r="0.9" fill="#3acf5c" opacity="0.59"/><circle cx="304.3" cy="40.9" r="1.0" fill="#3acf5c" opacity="0.58"/><circle cx="316.7" cy="144.1" r="0.9" fill="#3acf5c" opacity="0.62"/><circle cx="396.6" cy="417.8" r="1.5" fill="#3acf5c" opacity="0.67"/><circle cx="227.9" cy="336.6" r="1.3" fill="#3acf5c" opacity="0.28"/><circle cx="57.6" cy="101.1" r="1.9" fill="#3acf5c" opacity="0.54"/><circle cx="117.8" cy="202.0" r="1.5" fill="#3acf5c" opacity="0.35"/><circle cx="314.5" cy="238.3" r="1.4" fill="#3acf5c" opacity="0.53"/><circle cx="183.7" cy="348.4" r="1.1" fill="#3acf5c" opacity="0.28"/><circle cx="313.0" cy="214.3" r="1.9" fill="#3acf5c" opacity="0.45"/><circle cx="30.7" cy="119.3" r="0.8" fill="#3acf5c" opacity="0.64"/><circle cx="161.6" cy="139.5" r="0.8" fill="#3acf5c" opacity="0.66"/><circle cx="48.9" cy="268.0" r="0.8" fill="#3acf5c" opacity="0.31"/><circle cx="43.2" cy="352.8" r="1.9" fill="#3acf5c" opacity="0.46"/><circle cx="258.1" cy="407.6" r="0.7" fill="#3acf5c" opacity="0.53"/><circle cx="392.3" cy="176.6" r="0.6" fill="#3acf5c" opacity="0.26"/><circle cx="218.6" cy="192.3" r="1.3" fill="#3acf5c" opacity="0.31"/><circle cx="339.7" cy="406.1" r="1.6" fill="#3acf5c" opacity="0.21"/>
  <circle cx="200" cy="240" r="61.21515775034293" fill="none" stroke="#f5d23a" stroke-opacity="0.08" stroke-width="2.968201303155007"/><circle cx="200" cy="240" r="84.65185185185186" fill="none" stroke="#f5d23a" stroke-opacity="0.12" stroke-width="1.6411608367626886"/><circle cx="200" cy="240" r="111.4383401920439" fill="none" stroke="#f5d23a" stroke-opacity="0.16" stroke-width="1.4231738683127573"/><circle cx="200" cy="240" r="127.45116598079561" fill="none" stroke="#f5d23a" stroke-opacity="0.20" stroke-width="1.7463391632373115"/><circle cx="200" cy="240" r="148.49279835390948" fill="none" stroke="#f5d23a" stroke-opacity="0.24" stroke-width="1.3020147462277092"/><circle cx="200" cy="240" r="175.8471879286694" fill="none" stroke="#f5d23a" stroke-opacity="0.28" stroke-width="1.5963734567901233"/><circle cx="200" cy="240" r="197.16865569272977" fill="none" stroke="#f5d23a" stroke-opacity="0.32" stroke-width="1.8392918381344308"/>
  <text x="200" y="270" font-family="sans-serif" font-size="140" text-anchor="middle" fill="#3acf5c" opacity="0.85">🎤</text>
  <rect x="12" y="12" width="376" height="536" fill="none" stroke="#f5d23a" stroke-width="4.5" opacity="0.7"/>
  <rect x="20" y="440" width="360" height="100" fill="#000" opacity="0.55"/>
  <text x="200" y="475" font-family="sans-serif" font-size="22" font-weight="bold" text-anchor="middle" fill="#3acf5c">Vinyl Champion</text>
  <text x="200" y="500" font-family="sans-serif" font-size="11" text-anchor="middle" fill="#f5d23a" letter-spacing="3">BOOM-BAP 1990S</text>
  <text x="200" y="525" font-family="sans-serif" font-size="10" text-anchor="middle" fill="#ffffff" opacity="0.7" letter-spacing="2">DIVINE</text>
</svg>