<svg xmlns="http://www.w3.org/2000/svg" viewBox="0 0 400 560" preserveAspectRatio="xMidYMid slice">
  <defs>
    <linearGradient id="bg" x1="0" y1="0" x2="0" y2="1">
      <stop offset="0" stop-color="#050a1a"/>
      <stop offset="1" stop-color="#0f1f3d"/>
    </linearGradient>
    <radialGradient id="glow" cx="50%" cy="42%" r="50%">
      <stop offset="0" stop-color="#3acff5" stop-opacity="0.55"/>
      <stop offset="0.5" stop-color="#3acff5" stop-opacity="0.12"/>
      <stop offset="1" stop-color="#3acff5" stop-opacity="0"/>
    </radialGradient>
  </defs>
  <rect width="400" height="560" fill="url(#bg)"/>
  <rect width="400" height="560" fill="url(#glow)"/>
  <circle cx="26.1" cy="201.6" r="1.9" fill="#a855f7" opacity="0.63"/><circle cx="55.0" cy="168.8" r="1.4" fill="#a855f7" opacity="0.21"/><circle cx="230.3" cy="437.9" r="1.2" fill="#a855f7" opacity="0.29"/><circle cx="295.4" cy="442.0" r="1.3" fill="#a855f7" opacity="0.66"/><circle cx="200.8" cy="29.0" r="1.6" fill="#a855f7" opacity="0.70"/><circle cx="60.1" cy="332.7" r="1.5" fill="#a855f7" opacity="0.32"/><circle cx="372.1" cy="537.3" r="1.6" fill="#a855f7" opacity="0.28"/><circle cx="109.6" cy="55.1" r="1.5" fill="#a855f7" opacity="0.22"/><circle cx="275.1" cy="517.8" r="1.5" fill="#a855f7" opacity="0.67"/><circle cx="122.8" cy="300.7" r="0.9" fill="#a855f7" opacity="0.32"/><circle cx="48.0" cy="60.5" r="0.7" fill="#a855f7" opacity="0.61"/><circle cx="341.9" cy="246.7" r="0.5" fill="#a855f7" opacity="0.67"/><circle cx="214.3" cy="105.6" r="1.6" fill="#a855f7" opacity="0.63"/><circle cx="282.7" cy="418.5" r="1.7" fill="#a855f7" opacity="0.20"/><circle cx="127.2" cy="452.5" r="1.2" fill="#a855f7" opacity="0.64"/><circle cx="113.3" cy="325.3" r="1.8" fill="#a855f7" opacity="0.52"/><circle cx="280.4" cy="382.4" r="1.0" fill="#a855f7" opacity="0.33"/><circle cx="297.7" cy="388.8" r="1.5" fill="#a855f7" opacity="0.44"/><circle cx="86.2" cy="213.1" r="0.9" fill="#a855f7" opacity="0.35"/><circle cx="307.7" cy="325.6" r="1.0" fill="#a855f7" opacity="0.33"/><circle cx="320.1" cy="428.8" r="0.9" fill="#a855f7" opacity="0.38"/><circle cx="400.0" cy="142.5" r="1.5" fill="#a855f7" opacity="0.43"/><circle cx="231.3" cy="61.3" r="1.3" fill="#a855f7" opacity="0.54"/><circle cx="61.0" cy="385.7" r="2.0" fill="#a855f7" opacity="0.30"/><circle cx="121.1" cy="486.6" r="1.5" fill="#a855f7" opacity="0.60"/><circle cx="317.8" cy="523.0" r="1.4" fill="#a855f7" opacity="0.28"/><circle cx="187.0" cy="73.1" r="1.1" fill="#a855f7" opacity="0.53"/><circle cx="316.3" cy="498.9" r="1.9" fill="#a855f7" opacity="0.20"/><circle cx="34.0" cy="403.9" r="0.8" fill="#a855f7" opacity="0.39"/><circle cx="165.0" cy="424.2" r="0.8" fill="#a855f7" opacity="0.42"/><circle cx="52.2" cy="552.7" r="0.8" fill="#a855f7" opacity="0.56"/><circle cx="46.5" cy="77.5" r="1.9" fill="#a855f7" opacity="0.21"/><circle cx="261.4" cy="132.3" r="0.7" fill="#a855f7" opacity="0.28"/><circle cx="395.6" cy="461.3" r="0.6" fill="#a855f7" opacity="0.51"/><circle cx="222.0" cy="476.9" r="1.4" fill="#a855f7" opacity="0.56"/><circle cx="343.0" cy="130.7" r="1.6" fill="#a855f7" opacity="0.46"/><circle cx="13.0" cy="38.1" r="0.9" fill="#a855f7" opacity="0.39"/><circle cx="27.1" cy="295.7" r="1.6" fill="#a855f7" opacity="0.29"/><circle cx="276.5" cy="232.9" r="1.7" fill="#a855f7" opacity="0.29"/><circle cx="371.2" cy="216.3" r="1.1" fill="#a855f7" opacity="0.53"/>
  <circle cx="200" cy="240" r="62.491015089163234" fill="none" stroke="#3acff5" stroke-opacity="0.08" stroke-width="1.6554783950617284"/><circle cx="200" cy="240" r="86.10877914951989" fill="none" stroke="#3acff5" stroke-opacity="0.12" stroke-width="1.3613597393689987"/><circle cx="200" cy="240" r="109.71831275720164" fill="none" stroke="#3acff5" stroke-opacity="0.16" stroke-width="1.929381001371742"/><circle cx="200" cy="240" r="128.38134430727024" fill="none" stroke="#3acff5" stroke-opacity="0.20" stroke-width="2.6434927983539094"/><circle cx="200" cy="240" r="150.1966392318244" fill="none" stroke="#3acff5" stroke-opacity="0.24" stroke-width="1.1580161179698216"/>
  <text x="200" y="270" font-family="sans-serif" font-size="140" text-anchor="middle" fill="#a855f7" opacity="0.85">💎</text>
  <rect x="4" y="4" width="392" height="552" fill="none" stroke="#3acff5" stroke-width="1.5" opacity="0.7"/>
  <rect x="20" y="440" width="360" height="100" fill="#000" opacity="0.55"/>
  <text x="200" y="475" font-family="sans-serif" font-size="22" font-weight="bold" text-anchor="middle" fill="#a855f7">Crypto Wraith</text>
  <text x="200" y="500" font-family="sans-serif" font-size="11" text-anchor="middle" fill="#3acff5" letter-spacing="3">NEON 2020S</text>
  <text x="200" y="525" font-family="sans-serif" font-size="10" text-anchor="middle" fill="#ffffff" opacity="0.7" letter-spacing="2">COMMON</text>
</svg>