<svg xmlns="http://www.w3.org/2000/svg" viewBox="0 0 400 560" preserveAspectRatio="xMidYMid slice">
  <defs>
    <linearGradient id="bg" x1="0" y1="0" x2="0" y2="1">
      <stop offset="0" stop-color="#1a0f04"/>
      <stop offset="1" stop-color="#3d2410"/>
    </linearGradient>
    <radialGradient id="glow" cx="50%" cy="42%" r="50%">
      <stop offset="0" stop-color="#d4a84c" stop-opacity="0.55"/>
      <stop offset="0.5" stop-color="#d4a84c" stop-opacity="0.12"/>
      <stop offset="1" stop-color="#d4a84c" stop-opacity="0"/>
    </radialGradient>
  </defs>
  <rect width="400" height="560" fill="url(#bg)"/>
  <rect width="400" height="560" fill="url(#glow)"/>
  <circle cx="252.0" cy="147.8" r="0.8" fill="#f5d77a" opacity="0.20"/><circle cx="179.2" cy="380.6" r="0.7" fill="#f5d77a" opacity="0.31"/><circle cx="85.0" cy="286.2" r="2.0" fill="#f5d77a" opacity="0.31"/><circle cx="186.7" cy="85.8" r="0.7" fill="#f5d77a" opacity="0.42"/><circle cx="64.6" cy="166.5" r="1.8" fill="#f5d77a" opacity="0.41"/><circle cx="83.9" cy="85.9" r="1.0" fill="#f5d77a" opacity="0.33"/><circle cx="284.4" cy="189.7" r="1.8" fill="#f5d77a" opacity="0.68"/><circle cx="335.1" cy="242.8" r="1.0" fill="#f5d77a" opacity="0.33"/><circle cx="156.9" cy="113.8" r="2.0" fill="#f5d77a" opacity="0.28"/><circle cx="11.7" cy="272.9" r="0.7" fill="#f5d77a" opacity="0.31"/><circle cx="57.4" cy="422.7" r="0.8" fill="#f5d77a" opacity="0.39"/><circle cx="170.7" cy="183.1" r="1.4" fill="#f5d77a" opacity="0.48"/><circle cx="35.3" cy="148.6" r="1.4" fill="#f5d77a" opacity="0.64"/><circle cx="298.3" cy="519.7" r="0.7" fill="#f5d77a" opacity="0.44"/><circle cx="391.8" cy="107.3" r="1.8" fill="#f5d77a" opacity="0.28"/><circle cx="221.9" cy="190.3" r="1.9" fill="#f5d77a" opacity="0.50"/><circle cx="124.4" cy="347.1" r="1.7" fill="#f5d77a" opacity="0.30"/><circle cx="287.0" cy="259.6" r="1.1" fill="#f5d77a" opacity="0.51"/><circle cx="38.1" cy="211.2" r="1.6" fill="#f5d77a" opacity="0.24"/><circle cx="202.3" cy="278.1" r="1.8" fill="#f5d77a" opacity="0.31"/><circle cx="122.9" cy="453.4" r="1.9" fill="#f5d77a" opacity="0.49"/><circle cx="150.6" cy="24.8" r="1.6" fill="#f5d77a" opacity="0.68"/><circle cx="398.8" cy="126.2" r="0.5" fill="#f5d77a" opacity="0.30"/><circle cx="166.3" cy="501.9" r="0.6" fill="#f5d77a" opacity="0.57"/><circle cx="26.0" cy="4.2" r="1.4" fill="#f5d77a" opacity="0.66"/><circle cx="180.4" cy="264.7" r="1.8" fill="#f5d77a" opacity="0.60"/><circle cx="283.7" cy="218.7" r="1.2" fill="#f5d77a" opacity="0.57"/><circle cx="331.1" cy="523.0" r="0.5" fill="#f5d77a" opacity="0.51"/><circle cx="213.9" cy="506.9" r="0.8" fill="#f5d77a" opacity="0.56"/><circle cx="341.9" cy="536.9" r="1.8" fill="#f5d77a" opacity="0.34"/><circle cx="132.5" cy="274.3" r="1.4" fill="#f5d77a" opacity="0.56"/><circle cx="365.9" cy="106.1" r="1.4" fill="#f5d77a" opacity="0.49"/><circle cx="207.5" cy="150.0" r="1.9" fill="#f5d77a" opacity="0.69"/><circle cx="96.8" cy="191.5" r="0.5" fill="#f5d77a" opacity="0.65"/><circle cx="103.0" cy="555.7" r="1.5" fill="#f5d77a" opacity="0.24"/><circle cx="147.1" cy="551.2" r="0.9" fill="#f5d77a" opacity="0.47"/><circle cx="90.8" cy="88.0" r="1.9" fill="#f5d77a" opacity="0.61"/><circle cx="92.1" cy="549.0" r="0.8" fill="#f5d77a" opacity="0.64"/><circle cx="27.5" cy="433.8" r="1.3" fill="#f5d77a" opacity="0.51"/><circle cx="381.1" cy="337.1" r="0.6" fill="#f5d77a" opacity="0.28"/>
  <circle cx="200" cy="240" r="63.84454732510288" fill="none" stroke="#d4a84c" stroke-opacity="0.08" stroke-width="2.956310013717421"/><circle cx="200" cy="240" r="82.24831961591221" fill="none" stroke="#d4a84c" stroke-opacity="0.12" stroke-width="2.827829218106996"/><circle cx="200" cy="240" r="108.24879972565158" fill="none" stroke="#d4a84c" stroke-opacity="0.16" stroke-width="2.94420438957476"/><circle cx="200" cy="240" r="131.87067901234568" fill="none" stroke="#d4a84c" stroke-opacity="0.20" stroke-width="2.2190157750342934"/><circle cx="200" cy="240" r="149.95346364883403" fill="none" stroke="#d4a84c" stroke-opacity="0.24" stroke-width="1.713991769547325"/>
  <text x="200" y="270" font-family="serif" font-size="140" text-anchor="middle" fill="#f5d77a" opacity="0.85">☥</text>
  <rect x="4" y="4" width="392" height="552" fill="none" stroke="#d4a84c" stroke-width="1.5" opacity="0.7"/>
  <rect x="20" y="440" width="360" height="100" fill="#000" opacity="0.55"/>
  <text x="200" y="475" font-family="serif" font-size="22" font-weight="bold" text-anchor="middle" fill="#f5d77a">Tomb Oracle</text>
  <text x="200" y="500" font-family="sans-serif" font-size="11" text-anchor="middle" fill="#d4a84c" letter-spacing="3">DYNASTY</text>
  <text x="200" y="525" font-family="sans-serif" font-size="10" text-anchor="middle" fill="#ffffff" opacity="0.7" letter-spacing="2">COMMON</text>
</svg>