<svg xmlns="http://www.w3.org/2000/svg" viewBox="0 0 400 560" preserveAspectRatio="xMidYMid slice">
  <defs>
    <linearGradient id="bg" x1="0" y1="0" x2="0" y2="1">
      <stop offset="0" stop-color="#1a0f04"/>
      <stop offset="1" stop-color="#3d2410"/>
    </linearGradient>
    <radialGradient id="glow" cx="50%" cy="42%" r="50%">
      <stop offset="0" stop-color="#d4a84c" stop-opacity="0.55"/>
      <stop offset="0.5" stop-color="#d4a84c" stop-opacity="0.12"/>
      <stop offset="1" stop-color="#d4a84c" stop-opacity="0"/>
    </radialGradient>
  </defs>
  <rect width="400" height="560" fill="url(#bg)"/>
  <rect width="400" height="560" fill="url(#glow)"/>
  <circle cx="51.4" cy="95.9" r="1.6" fill="#f5d77a" opacity="0.37"/><circle cx="99.6" cy="477.4" r="1.3" fill="#f5d77a" opacity="0.24"/><circle cx="67.1" cy="13.1" r="0.6" fill="#f5d77a" opacity="0.26"/><circle cx="126.8" cy="355.4" r="0.7" fill="#f5d77a" opacity="0.60"/><circle cx="81.2" cy="335.9" r="1.8" fill="#f5d77a" opacity="0.29"/><circle cx="384.6" cy="9.9" r="2.0" fill="#f5d77a" opacity="0.51"/><circle cx="231.9" cy="34.1" r="0.5" fill="#f5d77a" opacity="0.20"/><circle cx="314.7" cy="298.1" r="1.5" fill="#f5d77a" opacity="0.50"/><circle cx="242.7" cy="48.1" r="1.8" fill="#f5d77a" opacity="0.53"/><circle cx="233.3" cy="65.4" r="0.6" fill="#f5d77a" opacity="0.50"/><circle cx="266.7" cy="177.3" r="1.4" fill="#f5d77a" opacity="0.68"/><circle cx="308.3" cy="501.1" r="1.1" fill="#f5d77a" opacity="0.63"/><circle cx="397.6" cy="262.7" r="0.5" fill="#f5d77a" opacity="0.34"/><circle cx="203.9" cy="346.9" r="0.8" fill="#f5d77a" opacity="0.68"/><circle cx="47.9" cy="62.3" r="0.9" fill="#f5d77a" opacity="0.66"/><circle cx="191.6" cy="439.2" r="1.2" fill="#f5d77a" opacity="0.55"/><circle cx="392.9" cy="60.1" r="0.8" fill="#f5d77a" opacity="0.33"/><circle cx="128.3" cy="225.0" r="0.6" fill="#f5d77a" opacity="0.45"/><circle cx="281.9" cy="408.3" r="0.6" fill="#f5d77a" opacity="0.47"/><circle cx="300.5" cy="250.5" r="1.0" fill="#f5d77a" opacity="0.46"/><circle cx="16.1" cy="242.5" r="1.2" fill="#f5d77a" opacity="0.33"/><circle cx="135.1" cy="543.3" r="1.3" fill="#f5d77a" opacity="0.42"/><circle cx="193.2" cy="171.2" r="0.7" fill="#f5d77a" opacity="0.41"/><circle cx="378.0" cy="488.1" r="0.8" fill="#f5d77a" opacity="0.64"/><circle cx="18.0" cy="97.6" r="1.3" fill="#f5d77a" opacity="0.24"/><circle cx="337.8" cy="195.6" r="1.1" fill="#f5d77a" opacity="0.50"/><circle cx="280.6" cy="215.2" r="1.8" fill="#f5d77a" opacity="0.21"/><circle cx="197.1" cy="4.4" r="1.6" fill="#f5d77a" opacity="0.26"/><circle cx="200.9" cy="137.0" r="1.6" fill="#f5d77a" opacity="0.57"/><circle cx="390.6" cy="357.2" r="0.7" fill="#f5d77a" opacity="0.37"/><circle cx="139.3" cy="77.2" r="1.7" fill="#f5d77a" opacity="0.33"/><circle cx="49.2" cy="368.8" r="1.6" fill="#f5d77a" opacity="0.46"/><circle cx="174.7" cy="167.2" r="1.6" fill="#f5d77a" opacity="0.46"/><circle cx="111.0" cy="129.3" r="1.0" fill="#f5d77a" opacity="0.26"/><circle cx="149.3" cy="144.3" r="0.8" fill="#f5d77a" opacity="0.50"/><circle cx="299.6" cy="18.8" r="1.0" fill="#f5d77a" opacity="0.31"/><circle cx="379.0" cy="533.9" r="0.6" fill="#f5d77a" opacity="0.39"/><circle cx="368.0" cy="396.9" r="1.7" fill="#f5d77a" opacity="0.52"/><circle cx="231.8" cy="285.2" r="1.3" fill="#f5d77a" opacity="0.24"/><circle cx="10.1" cy="544.5" r="1.5" fill="#f5d77a" opacity="0.57"/>
  <circle cx="200" cy="240" r="61.93076131687243" fill="none" stroke="#d4a84c" stroke-opacity="0.08" stroke-width="2.925394375857339"/><circle cx="200" cy="240" r="84.06292866941016" fill="none" stroke="#d4a84c" stroke-opacity="0.12" stroke-width="2.2475308641975307"/><circle cx="200" cy="240" r="110.82884087791496" fill="none" stroke="#d4a84c" stroke-opacity="0.16" stroke-width="2.1848936899862825"/><circle cx="200" cy="240" r="130.47541152263375" fill="none" stroke="#d4a84c" stroke-opacity="0.20" stroke-width="1.8732853223593966"/><circle cx="200" cy="240" r="151.3977023319616" fill="none" stroke="#d4a84c" stroke-opacity="0.24" stroke-width="1.9299897119341565"/>
  <text x="200" y="270" font-family="serif" font-size="140" text-anchor="middle" fill="#f5d77a" opacity="0.85">☥</text>
  <rect x="4" y="4" width="392" height="552" fill="none" stroke="#d4a84c" stroke-width="1.5" opacity="0.7"/>
  <rect x="20" y="440" width="360" height="100" fill="#000" opacity="0.55"/>
  <text x="200" y="475" font-family="serif" font-size="22" font-weight="bold" text-anchor="middle" fill="#f5d77a">Ash Lion</text>
  <text x="200" y="500" font-family="sans-serif" font-size="11" text-anchor="middle" fill="#d4a84c" letter-spacing="3">DYNASTY</text>
  <text x="200" y="525" font-family="sans-serif" font-size="10" text-anchor="middle" fill="#ffffff" opacity="0.7" letter-spacing="2">COMMON</text>
</svg>