<svg xmlns="http://www.w3.org/2000/svg" viewBox="0 0 400 560" preserveAspectRatio="xMidYMid slice">
  <defs>
    <linearGradient id="bg" x1="0" y1="0" x2="0" y2="1">
      <stop offset="0" stop-color="#0a1a0f"/>
      <stop offset="1" stop-color="#1a3d24"/>
    </linearGradient>
    <radialGradient id="glow" cx="50%" cy="42%" r="50%">
      <stop offset="0" stop-color="#f5d23a" stop-opacity="0.55"/>
      <stop offset="0.5" stop-color="#f5d23a" stop-opacity="0.12"/>
      <stop offset="1" stop-color="#f5d23a" stop-opacity="0"/>
    </radialGradient>
  </defs>
  <rect width="400" height="560" fill="url(#bg)"/>
  <rect width="400" height="560" fill="url(#glow)"/>
  <circle cx="224.2" cy="46.0" r="1.4" fill="#3acf5c" opacity="0.64"/><circle cx="216.0" cy="459.1" r="1.5" fill="#3acf5c" opacity="0.50"/><circle cx="176.6" cy="178.6" r="1.5" fill="#3acf5c" opacity="0.65"/><circle cx="115.7" cy="130.9" r="1.4" fill="#3acf5c" opacity="0.69"/><circle cx="250.8" cy="537.1" r="1.7" fill="#3acf5c" opacity="0.35"/><circle cx="161.9" cy="104.5" r="1.5" fill="#3acf5c" opacity="0.37"/><circle cx="214.6" cy="70.6" r="0.8" fill="#3acf5c" opacity="0.34"/><circle cx="48.4" cy="221.0" r="1.7" fill="#3acf5c" opacity="0.23"/><circle cx="132.4" cy="320.7" r="1.0" fill="#3acf5c" opacity="0.42"/><circle cx="387.6" cy="238.4" r="0.7" fill="#3acf5c" opacity="0.41"/><circle cx="275.7" cy="444.2" r="1.0" fill="#3acf5c" opacity="0.48"/><circle cx="354.8" cy="80.7" r="1.2" fill="#3acf5c" opacity="0.61"/><circle cx="101.3" cy="447.8" r="2.0" fill="#3acf5c" opacity="0.24"/><circle cx="399.3" cy="459.9" r="0.6" fill="#3acf5c" opacity="0.44"/><circle cx="295.7" cy="317.7" r="1.5" fill="#3acf5c" opacity="0.28"/><circle cx="22.5" cy="511.9" r="1.2" fill="#3acf5c" opacity="0.67"/><circle cx="285.9" cy="81.6" r="1.4" fill="#3acf5c" opacity="0.43"/><circle cx="221.8" cy="285.0" r="1.3" fill="#3acf5c" opacity="0.26"/><circle cx="17.7" cy="244.2" r="0.9" fill="#3acf5c" opacity="0.52"/><circle cx="202.1" cy="242.5" r="1.5" fill="#3acf5c" opacity="0.29"/><circle cx="399.7" cy="356.1" r="1.8" fill="#3acf5c" opacity="0.40"/><circle cx="353.6" cy="18.0" r="0.6" fill="#3acf5c" opacity="0.63"/><circle cx="14.6" cy="196.1" r="1.9" fill="#3acf5c" opacity="0.36"/><circle cx="296.1" cy="344.2" r="0.9" fill="#3acf5c" opacity="0.51"/><circle cx="97.0" cy="206.6" r="1.1" fill="#3acf5c" opacity="0.33"/><circle cx="390.0" cy="315.5" r="0.6" fill="#3acf5c" opacity="0.46"/><circle cx="177.7" cy="62.7" r="1.1" fill="#3acf5c" opacity="0.44"/><circle cx="314.4" cy="63.3" r="0.7" fill="#3acf5c" opacity="0.46"/><circle cx="395.1" cy="414.3" r="1.6" fill="#3acf5c" opacity="0.44"/><circle cx="311.2" cy="444.9" r="2.0" fill="#3acf5c" opacity="0.52"/><circle cx="72.6" cy="521.6" r="1.6" fill="#3acf5c" opacity="0.34"/><circle cx="296.5" cy="305.6" r="1.3" fill="#3acf5c" opacity="0.61"/><circle cx="163.2" cy="184.1" r="1.4" fill="#3acf5c" opacity="0.58"/><circle cx="38.2" cy="274.6" r="0.6" fill="#3acf5c" opacity="0.32"/><circle cx="360.8" cy="362.8" r="0.8" fill="#3acf5c" opacity="0.33"/><circle cx="0.4" cy="213.7" r="2.0" fill="#3acf5c" opacity="0.46"/><circle cx="77.8" cy="255.8" r="1.4" fill="#3acf5c" opacity="0.23"/><circle cx="54.8" cy="399.3" r="1.1" fill="#3acf5c" opacity="0.41"/><circle cx="89.4" cy="347.0" r="1.6" fill="#3acf5c" opacity="0.48"/><circle cx="58.2" cy="278.5" r="0.7" fill="#3acf5c" opacity="0.40"/>
  <circle cx="200" cy="240" r="64.74965706447188" fill="none" stroke="#f5d23a" stroke-opacity="0.08" stroke-width="1.5627314814814814"/><circle cx="200" cy="240" r="83.55260631001372" fill="none" stroke="#f5d23a" stroke-opacity="0.12" stroke-width="1.6204646776406035"/><circle cx="200" cy="240" r="109.45843621399177" fill="none" stroke="#f5d23a" stroke-opacity="0.16" stroke-width="1.65144890260631"/><circle cx="200" cy="240" r="132.19554183813443" fill="none" stroke="#f5d23a" stroke-opacity="0.20" stroke-width="1.6063014403292182"/><circle cx="200" cy="240" r="154.52935528120713" fill="none" stroke="#f5d23a" stroke-opacity="0.24" stroke-width="1.8060099451303155"/>
  <text x="200" y="270" font-family="sans-serif" font-size="140" text-anchor="middle" fill="#3acf5c" opacity="0.85">🎤</text>
  <rect x="4" y="4" width="392" height="552" fill="none" stroke="#f5d23a" stroke-width="1.5" opacity="0.7"/>
  <rect x="20" y="440" width="360" height="100" fill="#000" opacity="0.55"/>
  <text x="200" y="475" font-family="sans-serif" font-size="22" font-weight="bold" text-anchor="middle" fill="#3acf5c">Cipher Oracle</text>
  <text x="200" y="500" font-family="sans-serif" font-size="11" text-anchor="middle" fill="#f5d23a" letter-spacing="3">BOOM-BAP 1990S</text>
  <text x="200" y="525" font-family="sans-serif" font-size="10" text-anchor="middle" fill="#ffffff" opacity="0.7" letter-spacing="2">COMMON</text>
</svg>