<svg xmlns="http://www.w3.org/2000/svg" viewBox="0 0 400 560" preserveAspectRatio="xMidYMid slice">
  <defs>
    <linearGradient id="bg" x1="0" y1="0" x2="0" y2="1">
      <stop offset="0" stop-color="#050a1a"/>
      <stop offset="1" stop-color="#0f1f3d"/>
    </linearGradient>
    <radialGradient id="glow" cx="50%" cy="42%" r="50%">
      <stop offset="0" stop-color="#3acff5" stop-opacity="0.55"/>
      <stop offset="0.5" stop-color="#3acff5" stop-opacity="0.12"/>
      <stop offset="1" stop-color="#3acff5" stop-opacity="0"/>
    </radialGradient>
  </defs>
  <rect width="400" height="560" fill="url(#bg)"/>
  <rect width="400" height="560" fill="url(#glow)"/>
  <circle cx="60.2" cy="262.1" r="1.9" fill="#a855f7" opacity="0.52"/><circle cx="14.5" cy="242.6" r="1.6" fill="#a855f7" opacity="0.21"/><circle cx="317.9" cy="476.5" r="1.7" fill="#a855f7" opacity="0.43"/><circle cx="165.3" cy="500.8" r="1.8" fill="#a855f7" opacity="0.62"/><circle cx="248.0" cy="204.7" r="1.3" fill="#a855f7" opacity="0.41"/><circle cx="176.1" cy="514.8" r="1.6" fill="#a855f7" opacity="0.44"/><circle cx="166.6" cy="532.1" r="1.9" fill="#a855f7" opacity="0.42"/><circle cx="200.0" cy="83.9" r="1.1" fill="#a855f7" opacity="0.60"/><circle cx="241.6" cy="407.8" r="0.9" fill="#a855f7" opacity="0.55"/><circle cx="331.0" cy="169.3" r="1.8" fill="#a855f7" opacity="0.26"/><circle cx="137.2" cy="253.5" r="0.5" fill="#a855f7" opacity="0.60"/><circle cx="381.3" cy="529.0" r="0.6" fill="#a855f7" opacity="0.58"/><circle cx="125.0" cy="345.8" r="0.9" fill="#a855f7" opacity="0.47"/><circle cx="326.2" cy="526.8" r="0.6" fill="#a855f7" opacity="0.25"/><circle cx="61.7" cy="131.7" r="1.8" fill="#a855f7" opacity="0.37"/><circle cx="215.2" cy="314.9" r="1.9" fill="#a855f7" opacity="0.38"/><circle cx="233.8" cy="157.1" r="0.7" fill="#a855f7" opacity="0.38"/><circle cx="349.5" cy="149.1" r="0.9" fill="#a855f7" opacity="0.25"/><circle cx="68.4" cy="449.9" r="1.1" fill="#a855f7" opacity="0.33"/><circle cx="126.5" cy="77.8" r="2.0" fill="#a855f7" opacity="0.32"/><circle cx="311.3" cy="394.8" r="0.5" fill="#a855f7" opacity="0.56"/><circle cx="351.3" cy="4.2" r="1.1" fill="#a855f7" opacity="0.66"/><circle cx="271.1" cy="102.2" r="0.8" fill="#a855f7" opacity="0.41"/><circle cx="214.0" cy="121.9" r="1.5" fill="#a855f7" opacity="0.63"/><circle cx="130.5" cy="471.1" r="1.3" fill="#a855f7" opacity="0.68"/><circle cx="134.2" cy="43.7" r="1.3" fill="#a855f7" opacity="0.49"/><circle cx="324.0" cy="263.8" r="2.0" fill="#a855f7" opacity="0.29"/><circle cx="72.6" cy="543.9" r="1.4" fill="#a855f7" opacity="0.24"/><circle cx="382.5" cy="275.5" r="1.4" fill="#a855f7" opacity="0.38"/><circle cx="108.1" cy="73.9" r="1.4" fill="#a855f7" opacity="0.38"/><circle cx="44.3" cy="35.9" r="0.7" fill="#a855f7" opacity="0.67"/><circle cx="82.7" cy="51.0" r="0.6" fill="#a855f7" opacity="0.42"/><circle cx="232.9" cy="485.5" r="0.7" fill="#a855f7" opacity="0.22"/><circle cx="312.4" cy="440.6" r="1.8" fill="#a855f7" opacity="0.31"/><circle cx="301.3" cy="303.5" r="1.4" fill="#a855f7" opacity="0.43"/><circle cx="165.1" cy="191.8" r="1.0" fill="#a855f7" opacity="0.66"/><circle cx="343.4" cy="451.2" r="1.2" fill="#a855f7" opacity="0.48"/><circle cx="105.2" cy="286.5" r="1.8" fill="#a855f7" opacity="0.27"/><circle cx="171.5" cy="126.4" r="1.8" fill="#a855f7" opacity="0.52"/><circle cx="4.0" cy="441.0" r="1.4" fill="#a855f7" opacity="0.53"/>
  <circle cx="200" cy="240" r="64.72376543209876" fill="none" stroke="#3acff5" stroke-opacity="0.08" stroke-width="1.358213305898491"/><circle cx="200" cy="240" r="82.65840192043896" fill="none" stroke="#3acff5" stroke-opacity="0.12" stroke-width="2.371707818930041"/><circle cx="200" cy="240" r="106.70826474622771" fill="none" stroke="#3acff5" stroke-opacity="0.16" stroke-width="2.8152434842249656"/><circle cx="200" cy="240" r="126.00915637860082" fill="none" stroke="#3acff5" stroke-opacity="0.20" stroke-width="2.7135116598079563"/><circle cx="200" cy="240" r="155.1783607681756" fill="none" stroke="#3acff5" stroke-opacity="0.24" stroke-width="2.9060185185185183"/>
  <text x="200" y="270" font-family="sans-serif" font-size="140" text-anchor="middle" fill="#a855f7" opacity="0.85">💎</text>
  <rect x="4" y="4" width="392" height="552" fill="none" stroke="#3acff5" stroke-width="1.5" opacity="0.7"/>
  <rect x="20" y="440" width="360" height="100" fill="#000" opacity="0.55"/>
  <text x="200" y="475" font-family="sans-serif" font-size="22" font-weight="bold" text-anchor="middle" fill="#a855f7">Neon CEO</text>
  <text x="200" y="500" font-family="sans-serif" font-size="11" text-anchor="middle" fill="#3acff5" letter-spacing="3">NEON 2020S</text>
  <text x="200" y="525" font-family="sans-serif" font-size="10" text-anchor="middle" fill="#ffffff" opacity="0.7" letter-spacing="2">COMMON</text>
</svg>