<svg xmlns="http://www.w3.org/2000/svg" viewBox="0 0 400 560" preserveAspectRatio="xMidYMid slice">
  <defs>
    <linearGradient id="bg" x1="0" y1="0" x2="0" y2="1">
      <stop offset="0" stop-color="#1a0533"/>
      <stop offset="1" stop-color="#3d0f5c"/>
    </linearGradient>
    <radialGradient id="glow" cx="50%" cy="42%" r="50%">
      <stop offset="0" stop-color="#e94ec7" stop-opacity="0.55"/>
      <stop offset="0.5" stop-color="#e94ec7" stop-opacity="0.12"/>
      <stop offset="1" stop-color="#e94ec7" stop-opacity="0"/>
    </radialGradient>
  </defs>
  <rect width="400" height="560" fill="url(#bg)"/>
  <rect width="400" height="560" fill="url(#glow)"/>
  <circle cx="351.7" cy="101.4" r="1.6" fill="#ff9f43" opacity="0.70"/><circle cx="303.1" cy="91.6" r="0.8" fill="#ff9f43" opacity="0.64"/><circle cx="109.8" cy="494.4" r="2.0" fill="#ff9f43" opacity="0.45"/><circle cx="196.2" cy="265.8" r="0.9" fill="#ff9f43" opacity="0.41"/><circle cx="305.8" cy="518.8" r="0.7" fill="#ff9f43" opacity="0.34"/><circle cx="388.9" cy="541.3" r="1.1" fill="#ff9f43" opacity="0.60"/><circle cx="159.4" cy="347.2" r="1.7" fill="#ff9f43" opacity="0.61"/><circle cx="115.8" cy="240.7" r="1.5" fill="#ff9f43" opacity="0.62"/><circle cx="31.1" cy="194.1" r="1.6" fill="#ff9f43" opacity="0.28"/><circle cx="107.6" cy="159.0" r="0.7" fill="#ff9f43" opacity="0.63"/><circle cx="399.9" cy="190.8" r="1.3" fill="#ff9f43" opacity="0.33"/><circle cx="102.8" cy="386.1" r="1.3" fill="#ff9f43" opacity="0.34"/><circle cx="307.8" cy="74.5" r="1.7" fill="#ff9f43" opacity="0.29"/><circle cx="224.7" cy="182.3" r="1.0" fill="#ff9f43" opacity="0.31"/><circle cx="70.9" cy="370.8" r="1.2" fill="#ff9f43" opacity="0.60"/><circle cx="226.5" cy="467.1" r="1.4" fill="#ff9f43" opacity="0.43"/><circle cx="257.0" cy="28.7" r="1.7" fill="#ff9f43" opacity="0.37"/><circle cx="201.9" cy="521.4" r="1.0" fill="#ff9f43" opacity="0.40"/><circle cx="130.3" cy="30.0" r="0.7" fill="#ff9f43" opacity="0.39"/><circle cx="363.3" cy="103.2" r="1.3" fill="#ff9f43" opacity="0.36"/><circle cx="362.5" cy="91.2" r="1.5" fill="#ff9f43" opacity="0.57"/><circle cx="286.0" cy="256.6" r="0.6" fill="#ff9f43" opacity="0.50"/><circle cx="10.3" cy="219.2" r="0.8" fill="#ff9f43" opacity="0.61"/><circle cx="19.4" cy="13.6" r="0.9" fill="#ff9f43" opacity="0.44"/><circle cx="160.2" cy="400.3" r="0.7" fill="#ff9f43" opacity="0.59"/><circle cx="264.8" cy="190.0" r="1.3" fill="#ff9f43" opacity="0.45"/><circle cx="239.3" cy="102.0" r="1.4" fill="#ff9f43" opacity="0.35"/><circle cx="19.6" cy="274.3" r="1.8" fill="#ff9f43" opacity="0.49"/><circle cx="193.3" cy="389.0" r="0.8" fill="#ff9f43" opacity="0.22"/><circle cx="88.9" cy="169.6" r="1.3" fill="#ff9f43" opacity="0.63"/><circle cx="130.9" cy="252.0" r="0.5" fill="#ff9f43" opacity="0.54"/><circle cx="62.6" cy="69.5" r="1.7" fill="#ff9f43" opacity="0.24"/><circle cx="234.7" cy="29.8" r="1.5" fill="#ff9f43" opacity="0.61"/><circle cx="360.7" cy="146.8" r="0.9" fill="#ff9f43" opacity="0.57"/><circle cx="139.3" cy="164.7" r="0.5" fill="#ff9f43" opacity="0.36"/><circle cx="143.5" cy="55.9" r="1.4" fill="#ff9f43" opacity="0.63"/><circle cx="175.6" cy="331.9" r="0.8" fill="#ff9f43" opacity="0.42"/><circle cx="290.1" cy="488.1" r="1.3" fill="#ff9f43" opacity="0.41"/><circle cx="81.9" cy="61.3" r="0.6" fill="#ff9f43" opacity="0.52"/><circle cx="242.4" cy="60.8" r="1.4" fill="#ff9f43" opacity="0.42"/><circle cx="381.6" cy="293.0" r="0.5" fill="#ff9f43" opacity="0.21"/><circle cx="316.6" cy="419.3" r="1.6" fill="#ff9f43" opacity="0.62"/><circle cx="27.8" cy="266.7" r="0.6" fill="#ff9f43" opacity="0.39"/><circle cx="280.5" cy="512.7" r="0.7" fill="#ff9f43" opacity="0.61"/><circle cx="314.3" cy="383.2" r="0.8" fill="#ff9f43" opacity="0.25"/><circle cx="198.3" cy="202.9" r="0.9" fill="#ff9f43" opacity="0.69"/><circle cx="253.5" cy="400.6" r="1.3" fill="#ff9f43" opacity="0.43"/><circle cx="341.6" cy="326.3" r="0.9" fill="#ff9f43" opacity="0.25"/><circle cx="220.6" cy="242.9" r="1.8" fill="#ff9f43" opacity="0.63"/><circle cx="167.2" cy="329.9" r="1.8" fill="#ff9f43" opacity="0.51"/><circle cx="265.2" cy="62.1" r="1.2" fill="#ff9f43" opacity="0.46"/><circle cx="361.5" cy="199.9" r="1.3" fill="#ff9f43" opacity="0.55"/><circle cx="288.3" cy="114.1" r="1.8" fill="#ff9f43" opacity="0.69"/><circle cx="351.7" cy="523.8" r="1.3" fill="#ff9f43" opacity="0.70"/><circle cx="87.6" cy="447.2" r="2.0" fill="#ff9f43" opacity="0.28"/><circle cx="83.5" cy="126.4" r="0.8" fill="#ff9f43" opacity="0.29"/><circle cx="67.9" cy="404.7" r="0.7" fill="#ff9f43" opacity="0.31"/><circle cx="65.5" cy="238.3" r="1.7" fill="#ff9f43" opacity="0.67"/><circle cx="219.5" cy="180.2" r="1.2" fill="#ff9f43" opacity="0.65"/><circle cx="80.4" cy="78.3" r="1.8" fill="#ff9f43" opacity="0.63"/><circle cx="161.9" cy="506.4" r="1.6" fill="#ff9f43" opacity="0.53"/><circle cx="162.8" cy="88.8" r="1.0" fill="#ff9f43" opacity="0.60"/><circle cx="255.9" cy="477.7" r="1.2" fill="#ff9f43" opacity="0.48"/><circle cx="243.6" cy="504.9" r="1.0" fill="#ff9f43" opacity="0.21"/><circle cx="180.2" cy="225.5" r="1.3" fill="#ff9f43" opacity="0.48"/><circle cx="61.0" cy="296.4" r="1.4" fill="#ff9f43" opacity="0.21"/><circle cx="177.1" cy="47.0" r="1.1" fill="#ff9f43" opacity="0.54"/><circle cx="138.4" cy="403.7" r="1.5" fill="#ff9f43" opacity="0.61"/><circle cx="162.3" cy="467.7" r="1.9" fill="#ff9f43" opacity="0.63"/><circle cx="229.0" cy="66.2" r="1.3" fill="#ff9f43" opacity="0.35"/>
  <circle cx="200" cy="240" r="63.473799725651574" fill="none" stroke="#e94ec7" stroke-opacity="0.08" stroke-width="2.87545438957476"/><circle cx="200" cy="240" r="82.09567901234568" fill="none" stroke="#e94ec7" stroke-opacity="0.12" stroke-width="1.9002657750342935"/><circle cx="200" cy="240" r="111.17846364883403" fill="none" stroke="#e94ec7" stroke-opacity="0.16" stroke-width="1.1452417695473252"/><circle cx="200" cy="240" r="131.2653635116598" fill="none" stroke="#e94ec7" stroke-opacity="0.20" stroke-width="2.70914780521262"/><circle cx="200" cy="240" r="152.82551440329217" fill="none" stroke="#e94ec7" stroke-opacity="0.24" stroke-width="1.950008573388203"/><circle cx="200" cy="240" r="171.80953360768174" fill="none" stroke="#e94ec7" stroke-opacity="0.28" stroke-width="1.0406635802469135"/><circle cx="200" cy="240" r="194.5384087791495" fill="none" stroke="#e94ec7" stroke-opacity="0.32" stroke-width="1.857656035665295"/><circle cx="200" cy="240" r="219.92572016460906" fill="none" stroke="#e94ec7" stroke-opacity="0.36" stroke-width="2.203455075445816"/>
  <text x="200" y="270" font-family="sans-serif" font-size="140" text-anchor="middle" fill="#ff9f43" opacity="0.85">🪩</text>
  <rect x="16" y="16" width="368" height="528" fill="none" stroke="#e94ec7" stroke-width="6" opacity="0.7"/>
  <rect x="20" y="440" width="360" height="100" fill="#000" opacity="0.55"/>
  <text x="200" y="475" font-family="sans-serif" font-size="22" font-weight="bold" text-anchor="middle" fill="#ff9f43">Groove Prophet</text>
  <text x="200" y="500" font-family="sans-serif" font-size="11" text-anchor="middle" fill="#e94ec7" letter-spacing="3">COSMIC 1970S</text>
  <text x="200" y="525" font-family="sans-serif" font-size="10" text-anchor="middle" fill="#ffffff" opacity="0.7" letter-spacing="2">LEGENDARY</text>
</svg>