<svg xmlns="http://www.w3.org/2000/svg" viewBox="0 0 400 560" preserveAspectRatio="xMidYMid slice">
  <defs>
    <linearGradient id="bg" x1="0" y1="0" x2="0" y2="1">
      <stop offset="0" stop-color="#0a1a0f"/>
      <stop offset="1" stop-color="#1a3d24"/>
    </linearGradient>
    <radialGradient id="glow" cx="50%" cy="42%" r="50%">
      <stop offset="0" stop-color="#f5d23a" stop-opacity="0.55"/>
      <stop offset="0.5" stop-color="#f5d23a" stop-opacity="0.12"/>
      <stop offset="1" stop-color="#f5d23a" stop-opacity="0"/>
    </radialGradient>
  </defs>
  <rect width="400" height="560" fill="url(#bg)"/>
  <rect width="400" height="560" fill="url(#glow)"/>
  <circle cx="369.8" cy="49.2" r="0.9" fill="#3acf5c" opacity="0.28"/><circle cx="210.6" cy="15.8" r="1.0" fill="#3acf5c" opacity="0.56"/><circle cx="15.2" cy="505.6" r="0.6" fill="#3acf5c" opacity="0.54"/><circle cx="89.7" cy="557.5" r="1.1" fill="#3acf5c" opacity="0.57"/><circle cx="370.0" cy="309.9" r="1.8" fill="#3acf5c" opacity="0.33"/><circle cx="243.8" cy="4.6" r="1.2" fill="#3acf5c" opacity="0.68"/><circle cx="239.3" cy="485.2" r="0.6" fill="#3acf5c" opacity="0.22"/><circle cx="381.3" cy="147.6" r="1.7" fill="#3acf5c" opacity="0.26"/><circle cx="13.0" cy="105.0" r="1.7" fill="#3acf5c" opacity="0.59"/><circle cx="285.1" cy="205.4" r="1.8" fill="#3acf5c" opacity="0.58"/><circle cx="111.1" cy="462.4" r="1.6" fill="#3acf5c" opacity="0.67"/><circle cx="389.7" cy="60.3" r="1.6" fill="#3acf5c" opacity="0.58"/><circle cx="93.9" cy="91.5" r="1.4" fill="#3acf5c" opacity="0.48"/><circle cx="226.0" cy="507.5" r="1.2" fill="#3acf5c" opacity="0.39"/><circle cx="40.5" cy="243.7" r="0.5" fill="#3acf5c" opacity="0.50"/><circle cx="332.3" cy="516.9" r="1.7" fill="#3acf5c" opacity="0.24"/><circle cx="192.8" cy="96.4" r="1.4" fill="#3acf5c" opacity="0.26"/><circle cx="32.0" cy="468.6" r="0.9" fill="#3acf5c" opacity="0.68"/><circle cx="67.0" cy="174.8" r="0.8" fill="#3acf5c" opacity="0.21"/><circle cx="278.2" cy="162.2" r="1.7" fill="#3acf5c" opacity="0.61"/><circle cx="230.9" cy="548.3" r="0.7" fill="#3acf5c" opacity="0.45"/><circle cx="364.7" cy="558.8" r="1.2" fill="#3acf5c" opacity="0.22"/><circle cx="348.7" cy="518.5" r="1.7" fill="#3acf5c" opacity="0.28"/><circle cx="103.9" cy="296.2" r="0.9" fill="#3acf5c" opacity="0.65"/><circle cx="292.0" cy="361.9" r="0.9" fill="#3acf5c" opacity="0.59"/><circle cx="271.0" cy="418.4" r="0.7" fill="#3acf5c" opacity="0.59"/><circle cx="317.6" cy="85.5" r="1.1" fill="#3acf5c" opacity="0.61"/><circle cx="115.6" cy="517.7" r="0.8" fill="#3acf5c" opacity="0.68"/><circle cx="311.9" cy="235.4" r="1.3" fill="#3acf5c" opacity="0.39"/><circle cx="338.7" cy="289.7" r="0.7" fill="#3acf5c" opacity="0.65"/><circle cx="102.2" cy="279.4" r="0.5" fill="#3acf5c" opacity="0.29"/><circle cx="338.0" cy="342.8" r="1.6" fill="#3acf5c" opacity="0.50"/><circle cx="33.9" cy="162.0" r="0.8" fill="#3acf5c" opacity="0.63"/><circle cx="118.3" cy="20.3" r="1.0" fill="#3acf5c" opacity="0.28"/><circle cx="215.9" cy="553.9" r="1.0" fill="#3acf5c" opacity="0.26"/><circle cx="69.9" cy="75.7" r="0.8" fill="#3acf5c" opacity="0.37"/><circle cx="30.8" cy="113.8" r="1.8" fill="#3acf5c" opacity="0.47"/><circle cx="212.4" cy="122.0" r="1.9" fill="#3acf5c" opacity="0.50"/><circle cx="313.2" cy="404.3" r="1.8" fill="#3acf5c" opacity="0.69"/><circle cx="106.3" cy="373.3" r="0.9" fill="#3acf5c" opacity="0.20"/><circle cx="194.0" cy="540.4" r="1.0" fill="#3acf5c" opacity="0.56"/><circle cx="230.7" cy="401.1" r="1.7" fill="#3acf5c" opacity="0.45"/><circle cx="211.4" cy="52.0" r="0.7" fill="#3acf5c" opacity="0.30"/><circle cx="27.5" cy="502.6" r="0.7" fill="#3acf5c" opacity="0.26"/><circle cx="88.8" cy="439.3" r="1.5" fill="#3acf5c" opacity="0.46"/><circle cx="212.7" cy="83.3" r="0.8" fill="#3acf5c" opacity="0.60"/><circle cx="379.5" cy="381.8" r="0.5" fill="#3acf5c" opacity="0.45"/><circle cx="154.4" cy="332.4" r="0.8" fill="#3acf5c" opacity="0.56"/><circle cx="377.1" cy="280.6" r="0.7" fill="#3acf5c" opacity="0.44"/><circle cx="316.6" cy="551.4" r="1.5" fill="#3acf5c" opacity="0.45"/>
  <circle cx="200" cy="240" r="60.25826474622771" fill="none" stroke="#f5d23a" stroke-opacity="0.08" stroke-width="1.9527434842249658"/><circle cx="200" cy="240" r="89.55915637860082" fill="none" stroke="#f5d23a" stroke-opacity="0.12" stroke-width="2.351011659807956"/><circle cx="200" cy="240" r="104.72836076817558" fill="none" stroke="#f5d23a" stroke-opacity="0.16" stroke-width="1.0435185185185185"/><circle cx="200" cy="240" r="130.75353223593964" fill="none" stroke="#f5d23a" stroke-opacity="0.20" stroke-width="2.573473936899863"/><circle cx="200" cy="240" r="153.21491769547325" fill="none" stroke="#f5d23a" stroke-opacity="0.24" stroke-width="1.410013717421125"/><circle cx="200" cy="240" r="177.8409122085048" fill="none" stroke="#f5d23a" stroke-opacity="0.28" stroke-width="1.5037551440329218"/>
  <text x="200" y="270" font-family="sans-serif" font-size="140" text-anchor="middle" fill="#3acf5c" opacity="0.85">🎤</text>
  <rect x="8" y="8" width="384" height="544" fill="none" stroke="#f5d23a" stroke-width="3" opacity="0.7"/>
  <rect x="20" y="440" width="360" height="100" fill="#000" opacity="0.55"/>
  <text x="200" y="475" font-family="sans-serif" font-size="22" font-weight="bold" text-anchor="middle" fill="#3acf5c">Brooklyn Wraith</text>
  <text x="200" y="500" font-family="sans-serif" font-size="11" text-anchor="middle" fill="#f5d23a" letter-spacing="3">BOOM-BAP 1990S</text>
  <text x="200" y="525" font-family="sans-serif" font-size="10" text-anchor="middle" fill="#ffffff" opacity="0.7" letter-spacing="2">RARE</text>
</svg>