<svg xmlns="http://www.w3.org/2000/svg" viewBox="0 0 400 560" preserveAspectRatio="xMidYMid slice">
  <defs>
    <linearGradient id="bg" x1="0" y1="0" x2="0" y2="1">
      <stop offset="0" stop-color="#1a0f04"/>
      <stop offset="1" stop-color="#3d2410"/>
    </linearGradient>
    <radialGradient id="glow" cx="50%" cy="42%" r="50%">
      <stop offset="0" stop-color="#d4a84c" stop-opacity="0.55"/>
      <stop offset="0.5" stop-color="#d4a84c" stop-opacity="0.12"/>
      <stop offset="1" stop-color="#d4a84c" stop-opacity="0"/>
    </radialGradient>
  </defs>
  <rect width="400" height="560" fill="url(#bg)"/>
  <rect width="400" height="560" fill="url(#glow)"/>
  <circle cx="368.6" cy="191.1" r="1.3" fill="#f5d77a" opacity="0.50"/><circle cx="197.5" cy="438.3" r="1.6" fill="#f5d77a" opacity="0.33"/><circle cx="172.8" cy="427.4" r="0.6" fill="#f5d77a" opacity="0.66"/><circle cx="37.9" cy="151.5" r="1.5" fill="#f5d77a" opacity="0.27"/><circle cx="143.3" cy="18.5" r="1.0" fill="#f5d77a" opacity="0.56"/><circle cx="202.6" cy="42.2" r="1.7" fill="#f5d77a" opacity="0.44"/><circle cx="314.6" cy="526.8" r="1.0" fill="#f5d77a" opacity="0.64"/><circle cx="252.1" cy="324.6" r="1.7" fill="#f5d77a" opacity="0.33"/><circle cx="217.6" cy="507.3" r="0.9" fill="#f5d77a" opacity="0.54"/><circle cx="265.3" cy="10.2" r="1.1" fill="#f5d77a" opacity="0.44"/><circle cx="390.5" cy="50.0" r="1.6" fill="#f5d77a" opacity="0.47"/><circle cx="84.4" cy="516.2" r="0.7" fill="#f5d77a" opacity="0.28"/><circle cx="156.8" cy="95.1" r="1.0" fill="#f5d77a" opacity="0.49"/><circle cx="25.2" cy="128.0" r="1.9" fill="#f5d77a" opacity="0.32"/><circle cx="69.7" cy="442.0" r="0.6" fill="#f5d77a" opacity="0.51"/><circle cx="255.8" cy="34.8" r="2.0" fill="#f5d77a" opacity="0.64"/><circle cx="222.9" cy="371.9" r="1.9" fill="#f5d77a" opacity="0.70"/><circle cx="40.2" cy="98.3" r="1.7" fill="#f5d77a" opacity="0.55"/><circle cx="28.7" cy="202.6" r="1.8" fill="#f5d77a" opacity="0.21"/><circle cx="50.2" cy="35.1" r="1.2" fill="#f5d77a" opacity="0.45"/><circle cx="262.6" cy="418.3" r="1.8" fill="#f5d77a" opacity="0.24"/><circle cx="142.5" cy="412.0" r="1.6" fill="#f5d77a" opacity="0.54"/><circle cx="173.8" cy="50.8" r="0.7" fill="#f5d77a" opacity="0.40"/><circle cx="203.5" cy="95.2" r="0.6" fill="#f5d77a" opacity="0.41"/><circle cx="63.6" cy="476.1" r="0.9" fill="#f5d77a" opacity="0.47"/><circle cx="60.3" cy="232.5" r="1.6" fill="#f5d77a" opacity="0.40"/><circle cx="129.5" cy="62.6" r="2.0" fill="#f5d77a" opacity="0.40"/><circle cx="58.8" cy="208.4" r="0.6" fill="#f5d77a" opacity="0.32"/><circle cx="376.5" cy="393.4" r="1.7" fill="#f5d77a" opacity="0.26"/><circle cx="307.5" cy="133.7" r="1.0" fill="#f5d77a" opacity="0.53"/><circle cx="394.7" cy="542.2" r="1.7" fill="#f5d77a" opacity="0.43"/><circle cx="189.0" cy="347.0" r="0.6" fill="#f5d77a" opacity="0.33"/><circle cx="203.9" cy="121.8" r="1.6" fill="#f5d77a" opacity="0.65"/><circle cx="138.1" cy="170.8" r="0.8" fill="#f5d77a" opacity="0.63"/><circle cx="164.5" cy="466.4" r="0.8" fill="#f5d77a" opacity="0.43"/><circle cx="85.5" cy="400.2" r="1.8" fill="#f5d77a" opacity="0.58"/><circle cx="355.5" cy="27.6" r="1.8" fill="#f5d77a" opacity="0.26"/><circle cx="169.6" cy="5.2" r="1.7" fill="#f5d77a" opacity="0.40"/><circle cx="219.0" cy="222.4" r="1.1" fill="#f5d77a" opacity="0.66"/><circle cx="113.7" cy="485.8" r="1.3" fill="#f5d77a" opacity="0.65"/><circle cx="70.9" cy="456.5" r="1.5" fill="#f5d77a" opacity="0.58"/><circle cx="71.0" cy="521.6" r="0.6" fill="#f5d77a" opacity="0.22"/><circle cx="79.3" cy="238.8" r="1.7" fill="#f5d77a" opacity="0.63"/><circle cx="135.3" cy="513.7" r="1.0" fill="#f5d77a" opacity="0.30"/><circle cx="308.2" cy="551.2" r="1.1" fill="#f5d77a" opacity="0.59"/><circle cx="118.9" cy="220.0" r="1.1" fill="#f5d77a" opacity="0.53"/><circle cx="229.3" cy="550.2" r="1.2" fill="#f5d77a" opacity="0.38"/><circle cx="397.2" cy="124.5" r="0.8" fill="#f5d77a" opacity="0.62"/><circle cx="99.3" cy="242.7" r="1.9" fill="#f5d77a" opacity="0.70"/><circle cx="219.5" cy="379.3" r="1.8" fill="#f5d77a" opacity="0.67"/>
  <circle cx="200" cy="240" r="64.80144032921811" fill="none" stroke="#d4a84c" stroke-opacity="0.08" stroke-width="1.9717678326474624"/><circle cx="200" cy="240" r="85.34101508916324" fill="none" stroke="#d4a84c" stroke-opacity="0.12" stroke-width="2.117978395061728"/><circle cx="200" cy="240" r="106.95877914951988" fill="none" stroke="#d4a84c" stroke-opacity="0.16" stroke-width="1.3238597393689986"/><circle cx="200" cy="240" r="128.56831275720165" fill="none" stroke="#d4a84c" stroke-opacity="0.20" stroke-width="1.391881001371742"/><circle cx="200" cy="240" r="153.23134430727023" fill="none" stroke="#d4a84c" stroke-opacity="0.24" stroke-width="1.6059927983539095"/><circle cx="200" cy="240" r="173.04663923182443" fill="none" stroke="#d4a84c" stroke-opacity="0.28" stroke-width="1.6205161179698218"/>
  <text x="200" y="270" font-family="serif" font-size="140" text-anchor="middle" fill="#f5d77a" opacity="0.85">☥</text>
  <rect x="8" y="8" width="384" height="544" fill="none" stroke="#d4a84c" stroke-width="3" opacity="0.7"/>
  <rect x="20" y="440" width="360" height="100" fill="#000" opacity="0.55"/>
  <text x="200" y="475" font-family="serif" font-size="22" font-weight="bold" text-anchor="middle" fill="#f5d77a">Bone Sentinel</text>
  <text x="200" y="500" font-family="sans-serif" font-size="11" text-anchor="middle" fill="#d4a84c" letter-spacing="3">DYNASTY</text>
  <text x="200" y="525" font-family="sans-serif" font-size="10" text-anchor="middle" fill="#ffffff" opacity="0.7" letter-spacing="2">RARE</text>
</svg>