<svg xmlns="http://www.w3.org/2000/svg" viewBox="0 0 400 560" preserveAspectRatio="xMidYMid slice">
  <defs>
    <linearGradient id="bg" x1="0" y1="0" x2="0" y2="1">
      <stop offset="0" stop-color="#050a1a"/>
      <stop offset="1" stop-color="#0f1f3d"/>
    </linearGradient>
    <radialGradient id="glow" cx="50%" cy="42%" r="50%">
      <stop offset="0" stop-color="#3acff5" stop-opacity="0.55"/>
      <stop offset="0.5" stop-color="#3acff5" stop-opacity="0.12"/>
      <stop offset="1" stop-color="#3acff5" stop-opacity="0"/>
    </radialGradient>
  </defs>
  <rect width="400" height="560" fill="url(#bg)"/>
  <rect width="400" height="560" fill="url(#glow)"/>
  <circle cx="192.7" cy="192.9" r="1.1" fill="#a855f7" opacity="0.58"/><circle cx="175.0" cy="558.3" r="0.8" fill="#a855f7" opacity="0.28"/><circle cx="160.7" cy="112.4" r="1.9" fill="#a855f7" opacity="0.70"/><circle cx="85.4" cy="113.6" r="0.8" fill="#a855f7" opacity="0.52"/><circle cx="136.9" cy="243.9" r="1.8" fill="#a855f7" opacity="0.59"/><circle cx="43.5" cy="226.7" r="1.9" fill="#a855f7" opacity="0.52"/><circle cx="230.0" cy="138.0" r="1.2" fill="#a855f7" opacity="0.61"/><circle cx="39.5" cy="531.0" r="1.4" fill="#a855f7" opacity="0.66"/><circle cx="222.7" cy="133.5" r="0.7" fill="#a855f7" opacity="0.55"/><circle cx="93.1" cy="79.4" r="1.7" fill="#a855f7" opacity="0.69"/><circle cx="149.5" cy="112.9" r="1.8" fill="#a855f7" opacity="0.32"/><circle cx="164.8" cy="206.3" r="0.7" fill="#a855f7" opacity="0.61"/><circle cx="341.4" cy="311.3" r="1.7" fill="#a855f7" opacity="0.58"/><circle cx="333.6" cy="483.0" r="1.2" fill="#a855f7" opacity="0.41"/><circle cx="136.6" cy="258.4" r="1.6" fill="#a855f7" opacity="0.54"/><circle cx="41.5" cy="86.8" r="0.9" fill="#a855f7" opacity="0.61"/><circle cx="58.5" cy="334.6" r="0.6" fill="#a855f7" opacity="0.25"/><circle cx="4.6" cy="103.0" r="1.2" fill="#a855f7" opacity="0.68"/><circle cx="260.2" cy="339.3" r="1.7" fill="#a855f7" opacity="0.63"/><circle cx="390.7" cy="40.9" r="0.9" fill="#a855f7" opacity="0.69"/><circle cx="35.6" cy="113.6" r="0.6" fill="#a855f7" opacity="0.35"/><circle cx="64.1" cy="322.2" r="0.7" fill="#a855f7" opacity="0.47"/><circle cx="397.0" cy="535.5" r="1.6" fill="#a855f7" opacity="0.56"/><circle cx="96.2" cy="103.4" r="0.7" fill="#a855f7" opacity="0.39"/><circle cx="119.8" cy="408.9" r="1.7" fill="#a855f7" opacity="0.45"/><circle cx="344.1" cy="511.5" r="0.8" fill="#a855f7" opacity="0.68"/><circle cx="53.2" cy="445.9" r="1.2" fill="#a855f7" opacity="0.64"/><circle cx="294.0" cy="412.5" r="1.3" fill="#a855f7" opacity="0.41"/><circle cx="98.5" cy="342.3" r="0.9" fill="#a855f7" opacity="0.40"/><circle cx="173.1" cy="394.2" r="1.4" fill="#a855f7" opacity="0.42"/><circle cx="53.4" cy="146.5" r="0.6" fill="#a855f7" opacity="0.69"/><circle cx="327.1" cy="401.3" r="1.5" fill="#a855f7" opacity="0.54"/><circle cx="322.6" cy="321.8" r="0.9" fill="#a855f7" opacity="0.58"/><circle cx="64.6" cy="544.3" r="2.0" fill="#a855f7" opacity="0.61"/><circle cx="96.4" cy="501.7" r="2.0" fill="#a855f7" opacity="0.44"/><circle cx="368.4" cy="42.0" r="0.7" fill="#a855f7" opacity="0.44"/><circle cx="194.4" cy="299.0" r="1.9" fill="#a855f7" opacity="0.52"/><circle cx="73.1" cy="457.0" r="2.0" fill="#a855f7" opacity="0.43"/><circle cx="177.2" cy="488.1" r="1.7" fill="#a855f7" opacity="0.33"/><circle cx="309.4" cy="344.2" r="1.5" fill="#a855f7" opacity="0.24"/>
  <circle cx="200" cy="240" r="62.17205075445816" fill="none" stroke="#3acff5" stroke-opacity="0.08" stroke-width="1.9836591220850481"/><circle cx="200" cy="240" r="87.74454732510289" fill="none" stroke="#3acff5" stroke-opacity="0.12" stroke-width="2.931310013717421"/><circle cx="200" cy="240" r="110.14831961591221" fill="none" stroke="#3acff5" stroke-opacity="0.16" stroke-width="1.802829218106996"/><circle cx="200" cy="240" r="132.14879972565157" fill="none" stroke="#3acff5" stroke-opacity="0.20" stroke-width="2.9192043895747597"/><circle cx="200" cy="240" r="151.77067901234568" fill="none" stroke="#3acff5" stroke-opacity="0.24" stroke-width="1.1940157750342935"/>
  <text x="200" y="270" font-family="sans-serif" font-size="140" text-anchor="middle" fill="#a855f7" opacity="0.85">💎</text>
  <rect x="4" y="4" width="392" height="552" fill="none" stroke="#3acff5" stroke-width="1.5" opacity="0.7"/>
  <rect x="20" y="440" width="360" height="100" fill="#000" opacity="0.55"/>
  <text x="200" y="475" font-family="sans-serif" font-size="22" font-weight="bold" text-anchor="middle" fill="#a855f7">Hologram Phantom</text>
  <text x="200" y="500" font-family="sans-serif" font-size="11" text-anchor="middle" fill="#3acff5" letter-spacing="3">NEON 2020S</text>
  <text x="200" y="525" font-family="sans-serif" font-size="10" text-anchor="middle" fill="#ffffff" opacity="0.7" letter-spacing="2">COMMON</text>
</svg>