<svg xmlns="http://www.w3.org/2000/svg" viewBox="0 0 400 560" preserveAspectRatio="xMidYMid slice">
  <defs>
    <linearGradient id="bg" x1="0" y1="0" x2="0" y2="1">
      <stop offset="0" stop-color="#1a0f04"/>
      <stop offset="1" stop-color="#3d2410"/>
    </linearGradient>
    <radialGradient id="glow" cx="50%" cy="42%" r="50%">
      <stop offset="0" stop-color="#d4a84c" stop-opacity="0.55"/>
      <stop offset="0.5" stop-color="#d4a84c" stop-opacity="0.12"/>
      <stop offset="1" stop-color="#d4a84c" stop-opacity="0"/>
    </radialGradient>
  </defs>
  <rect width="400" height="560" fill="url(#bg)"/>
  <rect width="400" height="560" fill="url(#glow)"/>
  <circle cx="218.0" cy="87.3" r="0.8" fill="#f5d77a" opacity="0.32"/><circle cx="219.6" cy="306.9" r="0.6" fill="#f5d77a" opacity="0.31"/><circle cx="397.5" cy="247.6" r="1.4" fill="#f5d77a" opacity="0.67"/><circle cx="316.9" cy="27.0" r="1.7" fill="#f5d77a" opacity="0.46"/><circle cx="17.3" cy="550.8" r="0.6" fill="#f5d77a" opacity="0.69"/><circle cx="368.0" cy="463.9" r="0.9" fill="#f5d77a" opacity="0.21"/><circle cx="89.8" cy="194.9" r="1.6" fill="#f5d77a" opacity="0.54"/><circle cx="244.6" cy="213.9" r="1.4" fill="#f5d77a" opacity="0.44"/><circle cx="190.4" cy="223.8" r="1.1" fill="#f5d77a" opacity="0.40"/><circle cx="203.6" cy="404.2" r="1.4" fill="#f5d77a" opacity="0.37"/><circle cx="368.2" cy="229.7" r="1.0" fill="#f5d77a" opacity="0.40"/><circle cx="131.2" cy="460.8" r="1.3" fill="#f5d77a" opacity="0.57"/><circle cx="124.7" cy="468.4" r="0.6" fill="#f5d77a" opacity="0.29"/><circle cx="254.8" cy="411.4" r="1.8" fill="#f5d77a" opacity="0.39"/><circle cx="57.3" cy="428.2" r="1.2" fill="#f5d77a" opacity="0.56"/><circle cx="119.9" cy="200.7" r="1.8" fill="#f5d77a" opacity="0.64"/><circle cx="171.0" cy="12.3" r="1.9" fill="#f5d77a" opacity="0.25"/><circle cx="235.2" cy="499.2" r="1.7" fill="#f5d77a" opacity="0.69"/><circle cx="55.9" cy="534.4" r="1.4" fill="#f5d77a" opacity="0.25"/><circle cx="383.5" cy="525.9" r="0.8" fill="#f5d77a" opacity="0.32"/><circle cx="131.7" cy="487.3" r="0.8" fill="#f5d77a" opacity="0.31"/><circle cx="199.2" cy="163.0" r="0.5" fill="#f5d77a" opacity="0.46"/><circle cx="358.9" cy="85.3" r="1.0" fill="#f5d77a" opacity="0.42"/><circle cx="13.3" cy="205.8" r="1.0" fill="#f5d77a" opacity="0.24"/><circle cx="16.6" cy="19.8" r="1.6" fill="#f5d77a" opacity="0.58"/><circle cx="364.0" cy="184.0" r="1.9" fill="#f5d77a" opacity="0.40"/><circle cx="146.8" cy="28.0" r="1.9" fill="#f5d77a" opacity="0.32"/><circle cx="174.8" cy="478.0" r="1.0" fill="#f5d77a" opacity="0.47"/><circle cx="265.4" cy="75.4" r="1.7" fill="#f5d77a" opacity="0.57"/><circle cx="398.8" cy="327.2" r="1.3" fill="#f5d77a" opacity="0.38"/><circle cx="140.4" cy="231.0" r="1.4" fill="#f5d77a" opacity="0.45"/><circle cx="329.7" cy="132.6" r="1.2" fill="#f5d77a" opacity="0.29"/><circle cx="235.9" cy="356.8" r="1.8" fill="#f5d77a" opacity="0.25"/><circle cx="180.0" cy="212.2" r="0.8" fill="#f5d77a" opacity="0.36"/><circle cx="23.7" cy="169.1" r="1.5" fill="#f5d77a" opacity="0.37"/><circle cx="325.0" cy="490.1" r="1.5" fill="#f5d77a" opacity="0.28"/><circle cx="160.4" cy="234.9" r="1.6" fill="#f5d77a" opacity="0.52"/><circle cx="14.0" cy="558.2" r="0.5" fill="#f5d77a" opacity="0.66"/><circle cx="132.5" cy="540.4" r="1.3" fill="#f5d77a" opacity="0.28"/><circle cx="348.2" cy="112.4" r="1.9" fill="#f5d77a" opacity="0.28"/>
  <circle cx="200" cy="240" r="61.611796982167355" fill="none" stroke="#d4a84c" stroke-opacity="0.08" stroke-width="1.2535751028806583"/><circle cx="200" cy="240" r="85.69869684499314" fill="none" stroke="#d4a84c" stroke-opacity="0.12" stroke-width="1.8174811385459533"/><circle cx="200" cy="240" r="111.25884773662551" fill="none" stroke="#d4a84c" stroke-opacity="0.16" stroke-width="2.0583419067215365"/><circle cx="200" cy="240" r="126.2428669410151" fill="none" stroke="#d4a84c" stroke-opacity="0.20" stroke-width="2.148996913580247"/><circle cx="200" cy="240" r="152.97174211248284" fill="none" stroke="#d4a84c" stroke-opacity="0.24" stroke-width="1.9659893689986283"/>
  <text x="200" y="270" font-family="serif" font-size="140" text-anchor="middle" fill="#f5d77a" opacity="0.85">☥</text>
  <rect x="4" y="4" width="392" height="552" fill="none" stroke="#d4a84c" stroke-width="1.5" opacity="0.7"/>
  <rect x="20" y="440" width="360" height="100" fill="#000" opacity="0.55"/>
  <text x="200" y="475" font-family="serif" font-size="22" font-weight="bold" text-anchor="middle" fill="#f5d77a">Tomb Acolyte</text>
  <text x="200" y="500" font-family="sans-serif" font-size="11" text-anchor="middle" fill="#d4a84c" letter-spacing="3">DYNASTY</text>
  <text x="200" y="525" font-family="sans-serif" font-size="10" text-anchor="middle" fill="#ffffff" opacity="0.7" letter-spacing="2">COMMON</text>
</svg>