<svg xmlns="http://www.w3.org/2000/svg" viewBox="0 0 400 560" preserveAspectRatio="xMidYMid slice">
  <defs>
    <linearGradient id="bg" x1="0" y1="0" x2="0" y2="1">
      <stop offset="0" stop-color="#0a0a0a"/>
      <stop offset="1" stop-color="#1f1f1f"/>
    </linearGradient>
    <radialGradient id="glow" cx="50%" cy="42%" r="50%">
      <stop offset="0" stop-color="#c9a84c" stop-opacity="0.55"/>
      <stop offset="0.5" stop-color="#c9a84c" stop-opacity="0.12"/>
      <stop offset="1" stop-color="#c9a84c" stop-opacity="0"/>
    </radialGradient>
  </defs>
  <rect width="400" height="560" fill="url(#bg)"/>
  <rect width="400" height="560" fill="url(#glow)"/>
  <circle cx="387.0" cy="286.1" r="1.1" fill="#f0d78c" opacity="0.59"/><circle cx="258.3" cy="309.2" r="0.9" fill="#f0d78c" opacity="0.66"/><circle cx="399.5" cy="454.5" r="1.6" fill="#f0d78c" opacity="0.27"/><circle cx="346.4" cy="300.2" r="1.1" fill="#f0d78c" opacity="0.62"/><circle cx="286.8" cy="88.2" r="0.7" fill="#f0d78c" opacity="0.55"/><circle cx="349.0" cy="102.1" r="1.9" fill="#f0d78c" opacity="0.67"/><circle cx="157.7" cy="417.9" r="1.7" fill="#f0d78c" opacity="0.29"/><circle cx="256.1" cy="468.6" r="2.0" fill="#f0d78c" opacity="0.20"/><circle cx="194.8" cy="102.3" r="0.9" fill="#f0d78c" opacity="0.28"/><circle cx="87.5" cy="452.7" r="0.9" fill="#f0d78c" opacity="0.45"/><circle cx="32.8" cy="143.9" r="1.2" fill="#f0d78c" opacity="0.45"/><circle cx="203.6" cy="268.4" r="1.2" fill="#f0d78c" opacity="0.43"/><circle cx="2.4" cy="217.8" r="1.3" fill="#f0d78c" opacity="0.42"/><circle cx="283.5" cy="47.3" r="0.8" fill="#f0d78c" opacity="0.62"/><circle cx="242.0" cy="413.8" r="0.8" fill="#f0d78c" opacity="0.44"/><circle cx="169.2" cy="86.6" r="0.7" fill="#f0d78c" opacity="0.54"/><circle cx="75.0" cy="552.2" r="1.9" fill="#f0d78c" opacity="0.55"/><circle cx="176.7" cy="351.8" r="0.6" fill="#f0d78c" opacity="0.66"/><circle cx="54.6" cy="432.5" r="1.8" fill="#f0d78c" opacity="0.65"/><circle cx="73.9" cy="351.9" r="1.0" fill="#f0d78c" opacity="0.57"/><circle cx="274.4" cy="455.7" r="1.8" fill="#f0d78c" opacity="0.42"/><circle cx="325.1" cy="508.8" r="0.9" fill="#f0d78c" opacity="0.56"/><circle cx="146.9" cy="379.8" r="2.0" fill="#f0d78c" opacity="0.51"/><circle cx="1.7" cy="538.9" r="0.7" fill="#f0d78c" opacity="0.54"/><circle cx="47.4" cy="128.7" r="0.7" fill="#f0d78c" opacity="0.63"/><circle cx="160.7" cy="449.1" r="1.4" fill="#f0d78c" opacity="0.22"/><circle cx="25.3" cy="414.6" r="1.4" fill="#f0d78c" opacity="0.38"/><circle cx="288.3" cy="225.7" r="0.6" fill="#f0d78c" opacity="0.67"/><circle cx="381.8" cy="373.3" r="1.8" fill="#f0d78c" opacity="0.52"/><circle cx="211.9" cy="456.3" r="1.8" fill="#f0d78c" opacity="0.24"/><circle cx="114.4" cy="53.1" r="1.6" fill="#f0d78c" opacity="0.54"/><circle cx="277.0" cy="525.6" r="1.1" fill="#f0d78c" opacity="0.25"/><circle cx="28.1" cy="477.2" r="1.6" fill="#f0d78c" opacity="0.48"/><circle cx="192.3" cy="544.1" r="1.7" fill="#f0d78c" opacity="0.55"/><circle cx="112.9" cy="159.4" r="1.8" fill="#f0d78c" opacity="0.23"/><circle cx="140.6" cy="290.8" r="1.6" fill="#f0d78c" opacity="0.42"/><circle cx="388.8" cy="392.2" r="2.0" fill="#f0d78c" opacity="0.54"/><circle cx="156.3" cy="207.9" r="0.6" fill="#f0d78c" opacity="0.31"/><circle cx="16.0" cy="270.2" r="1.4" fill="#f0d78c" opacity="0.40"/><circle cx="170.4" cy="530.7" r="1.8" fill="#f0d78c" opacity="0.34"/>
  <circle cx="200" cy="240" r="60.94797668038409" fill="none" stroke="#c9a84c" stroke-opacity="0.08" stroke-width="1.7054183813443071"/><circle cx="200" cy="240" r="88.07602880658436" fill="none" stroke="#c9a84c" stroke-opacity="0.12" stroke-width="1.708624828532236"/><circle cx="200" cy="240" r="109.36868998628258" fill="none" stroke="#c9a84c" stroke-opacity="0.16" stroke-width="2.9690329218106997"/><circle cx="200" cy="240" r="127.59139231824417" fill="none" stroke="#c9a84c" stroke-opacity="0.20" stroke-width="1.8076303155006859"/><circle cx="200" cy="240" r="148.76882716049383" fill="none" stroke="#c9a84c" stroke-opacity="0.24" stroke-width="1.137997256515775"/>
  <text x="200" y="270" font-family="serif" font-size="140" text-anchor="middle" fill="#f0d78c" opacity="0.85">🎷</text>
  <rect x="4" y="4" width="392" height="552" fill="none" stroke="#c9a84c" stroke-width="1.5" opacity="0.7"/>
  <rect x="20" y="440" width="360" height="100" fill="#000" opacity="0.55"/>
  <text x="200" y="475" font-family="serif" font-size="22" font-weight="bold" text-anchor="middle" fill="#f0d78c">Charleston Baron</text>
  <text x="200" y="500" font-family="sans-serif" font-size="11" text-anchor="middle" fill="#c9a84c" letter-spacing="3">ROARING 1920S</text>
  <text x="200" y="525" font-family="sans-serif" font-size="10" text-anchor="middle" fill="#ffffff" opacity="0.7" letter-spacing="2">COMMON</text>
</svg>