<svg xmlns="http://www.w3.org/2000/svg" viewBox="0 0 400 560" preserveAspectRatio="xMidYMid slice">
  <defs>
    <linearGradient id="bg" x1="0" y1="0" x2="0" y2="1">
      <stop offset="0" stop-color="#0a0a0a"/>
      <stop offset="1" stop-color="#1f1f1f"/>
    </linearGradient>
    <radialGradient id="glow" cx="50%" cy="42%" r="50%">
      <stop offset="0" stop-color="#c9a84c" stop-opacity="0.55"/>
      <stop offset="0.5" stop-color="#c9a84c" stop-opacity="0.12"/>
      <stop offset="1" stop-color="#c9a84c" stop-opacity="0"/>
    </radialGradient>
  </defs>
  <rect width="400" height="560" fill="url(#bg)"/>
  <rect width="400" height="560" fill="url(#glow)"/>
  <circle cx="19.8" cy="242.9" r="1.3" fill="#f0d78c" opacity="0.31"/><circle cx="58.6" cy="16.5" r="0.6" fill="#f0d78c" opacity="0.52"/><circle cx="51.2" cy="506.9" r="1.0" fill="#f0d78c" opacity="0.31"/><circle cx="96.5" cy="338.2" r="1.6" fill="#f0d78c" opacity="0.43"/><circle cx="367.4" cy="42.7" r="2.0" fill="#f0d78c" opacity="0.54"/><circle cx="266.2" cy="132.0" r="0.9" fill="#f0d78c" opacity="0.66"/><circle cx="247.3" cy="101.6" r="0.9" fill="#f0d78c" opacity="0.48"/><circle cx="305.8" cy="48.1" r="1.2" fill="#f0d78c" opacity="0.43"/><circle cx="333.0" cy="420.9" r="1.5" fill="#f0d78c" opacity="0.66"/><circle cx="338.8" cy="466.5" r="1.6" fill="#f0d78c" opacity="0.28"/><circle cx="140.5" cy="406.0" r="0.7" fill="#f0d78c" opacity="0.52"/><circle cx="118.3" cy="66.8" r="0.7" fill="#f0d78c" opacity="0.63"/><circle cx="237.7" cy="126.2" r="1.8" fill="#f0d78c" opacity="0.68"/><circle cx="138.2" cy="369.9" r="1.4" fill="#f0d78c" opacity="0.65"/><circle cx="288.8" cy="3.0" r="1.0" fill="#f0d78c" opacity="0.42"/><circle cx="210.7" cy="14.0" r="0.9" fill="#f0d78c" opacity="0.50"/><circle cx="165.5" cy="313.1" r="1.5" fill="#f0d78c" opacity="0.66"/><circle cx="311.2" cy="43.0" r="1.9" fill="#f0d78c" opacity="0.36"/><circle cx="124.4" cy="503.4" r="1.4" fill="#f0d78c" opacity="0.58"/><circle cx="89.1" cy="48.9" r="1.8" fill="#f0d78c" opacity="0.36"/><circle cx="52.1" cy="560.0" r="1.4" fill="#f0d78c" opacity="0.29"/><circle cx="245.5" cy="287.5" r="1.4" fill="#f0d78c" opacity="0.26"/><circle cx="175.6" cy="510.6" r="1.9" fill="#f0d78c" opacity="0.60"/><circle cx="178.1" cy="247.3" r="0.6" fill="#f0d78c" opacity="0.52"/><circle cx="40.7" cy="299.8" r="1.9" fill="#f0d78c" opacity="0.36"/><circle cx="291.8" cy="391.5" r="1.2" fill="#f0d78c" opacity="0.22"/><circle cx="156.1" cy="38.4" r="1.8" fill="#f0d78c" opacity="0.41"/><circle cx="176.7" cy="353.6" r="0.8" fill="#f0d78c" opacity="0.22"/><circle cx="304.3" cy="65.0" r="0.9" fill="#f0d78c" opacity="0.53"/><circle cx="252.5" cy="306.5" r="1.6" fill="#f0d78c" opacity="0.27"/><circle cx="120.0" cy="262.2" r="0.6" fill="#f0d78c" opacity="0.67"/><circle cx="79.8" cy="464.5" r="1.8" fill="#f0d78c" opacity="0.39"/><circle cx="334.1" cy="305.0" r="1.1" fill="#f0d78c" opacity="0.45"/><circle cx="137.5" cy="398.9" r="0.9" fill="#f0d78c" opacity="0.55"/><circle cx="284.8" cy="283.2" r="0.5" fill="#f0d78c" opacity="0.61"/><circle cx="267.6" cy="407.1" r="1.2" fill="#f0d78c" opacity="0.28"/><circle cx="95.6" cy="17.2" r="1.1" fill="#f0d78c" opacity="0.69"/><circle cx="386.2" cy="454.5" r="1.0" fill="#f0d78c" opacity="0.54"/><circle cx="319.6" cy="426.4" r="1.4" fill="#f0d78c" opacity="0.59"/><circle cx="261.2" cy="50.2" r="0.8" fill="#f0d78c" opacity="0.42"/>
  <circle cx="200" cy="240" r="67.35315500685871" fill="none" stroke="#c9a84c" stroke-opacity="0.08" stroke-width="1.3463220164609053"/><circle cx="200" cy="240" r="88.25486968449931" fill="none" stroke="#c9a84c" stroke-opacity="0.12" stroke-width="1.5583762002743484"/><circle cx="200" cy="240" r="111.5187242798354" fill="none" stroke="#c9a84c" stroke-opacity="0.16" stroke-width="2.3362740054869686"/><circle cx="200" cy="240" r="130.4286694101509" fill="none" stroke="#c9a84c" stroke-opacity="0.20" stroke-width="1.1861882716049383"/><circle cx="200" cy="240" r="148.63902606310015" fill="none" stroke="#c9a84c" stroke-opacity="0.24" stroke-width="1.3179955418381344"/>
  <text x="200" y="270" font-family="serif" font-size="140" text-anchor="middle" fill="#f0d78c" opacity="0.85">🎷</text>
  <rect x="4" y="4" width="392" height="552" fill="none" stroke="#c9a84c" stroke-width="1.5" opacity="0.7"/>
  <rect x="20" y="440" width="360" height="100" fill="#000" opacity="0.55"/>
  <text x="200" y="475" font-family="serif" font-size="22" font-weight="bold" text-anchor="middle" fill="#f0d78c">Jazz Diva</text>
  <text x="200" y="500" font-family="sans-serif" font-size="11" text-anchor="middle" fill="#c9a84c" letter-spacing="3">ROARING 1920S</text>
  <text x="200" y="525" font-family="sans-serif" font-size="10" text-anchor="middle" fill="#ffffff" opacity="0.7" letter-spacing="2">COMMON</text>
</svg>