<svg xmlns="http://www.w3.org/2000/svg" viewBox="0 0 400 560" preserveAspectRatio="xMidYMid slice">
  <defs>
    <linearGradient id="bg" x1="0" y1="0" x2="0" y2="1">
      <stop offset="0" stop-color="#1a0f04"/>
      <stop offset="1" stop-color="#3d2410"/>
    </linearGradient>
    <radialGradient id="glow" cx="50%" cy="42%" r="50%">
      <stop offset="0" stop-color="#d4a84c" stop-opacity="0.55"/>
      <stop offset="0.5" stop-color="#d4a84c" stop-opacity="0.12"/>
      <stop offset="1" stop-color="#d4a84c" stop-opacity="0"/>
    </radialGradient>
  </defs>
  <rect width="400" height="560" fill="url(#bg)"/>
  <rect width="400" height="560" fill="url(#glow)"/>
  <circle cx="284.8" cy="104.6" r="1.0" fill="#f5d77a" opacity="0.43"/><circle cx="379.5" cy="87.9" r="1.9" fill="#f5d77a" opacity="0.67"/><circle cx="136.8" cy="338.6" r="1.3" fill="#f5d77a" opacity="0.35"/><circle cx="336.8" cy="123.8" r="1.2" fill="#f5d77a" opacity="0.24"/><circle cx="145.1" cy="121.0" r="1.6" fill="#f5d77a" opacity="0.40"/><circle cx="1.1" cy="115.9" r="1.6" fill="#f5d77a" opacity="0.32"/><circle cx="374.0" cy="433.4" r="1.0" fill="#f5d77a" opacity="0.36"/><circle cx="384.8" cy="382.2" r="1.7" fill="#f5d77a" opacity="0.55"/><circle cx="295.1" cy="432.4" r="1.1" fill="#f5d77a" opacity="0.65"/><circle cx="263.0" cy="286.7" r="1.4" fill="#f5d77a" opacity="0.64"/><circle cx="165.1" cy="124.9" r="1.8" fill="#f5d77a" opacity="0.47"/><circle cx="85.4" cy="541.5" r="0.9" fill="#f5d77a" opacity="0.69"/><circle cx="270.6" cy="57.0" r="1.9" fill="#f5d77a" opacity="0.39"/><circle cx="152.9" cy="282.3" r="1.3" fill="#f5d77a" opacity="0.47"/><circle cx="38.6" cy="256.5" r="0.5" fill="#f5d77a" opacity="0.27"/><circle cx="263.3" cy="117.7" r="0.5" fill="#f5d77a" opacity="0.46"/><circle cx="214.8" cy="108.0" r="1.2" fill="#f5d77a" opacity="0.41"/><circle cx="21.4" cy="510.8" r="0.9" fill="#f5d77a" opacity="0.21"/><circle cx="107.9" cy="282.1" r="1.3" fill="#f5d77a" opacity="0.68"/><circle cx="217.4" cy="535.1" r="1.1" fill="#f5d77a" opacity="0.60"/><circle cx="300.6" cy="557.6" r="1.5" fill="#f5d77a" opacity="0.36"/><circle cx="71.0" cy="363.5" r="0.6" fill="#f5d77a" opacity="0.38"/><circle cx="27.4" cy="257.0" r="1.9" fill="#f5d77a" opacity="0.39"/><circle cx="342.7" cy="210.4" r="2.0" fill="#f5d77a" opacity="0.55"/><circle cx="19.3" cy="175.3" r="1.1" fill="#f5d77a" opacity="0.39"/><circle cx="311.5" cy="207.1" r="1.7" fill="#f5d77a" opacity="0.60"/><circle cx="14.5" cy="402.5" r="1.7" fill="#f5d77a" opacity="0.61"/><circle cx="219.5" cy="90.8" r="0.7" fill="#f5d77a" opacity="0.55"/><circle cx="136.4" cy="198.7" r="1.4" fill="#f5d77a" opacity="0.57"/><circle cx="382.5" cy="387.1" r="1.7" fill="#f5d77a" opacity="0.37"/><circle cx="138.1" cy="483.4" r="1.9" fill="#f5d77a" opacity="0.70"/><circle cx="168.6" cy="45.0" r="0.6" fill="#f5d77a" opacity="0.63"/><circle cx="113.5" cy="537.7" r="1.4" fill="#f5d77a" opacity="0.66"/><circle cx="42.0" cy="46.3" r="1.2" fill="#f5d77a" opacity="0.66"/><circle cx="274.9" cy="119.5" r="1.7" fill="#f5d77a" opacity="0.62"/><circle cx="274.2" cy="107.5" r="2.0" fill="#f5d77a" opacity="0.33"/><circle cx="197.7" cy="272.9" r="1.1" fill="#f5d77a" opacity="0.26"/><circle cx="322.0" cy="235.6" r="1.3" fill="#f5d77a" opacity="0.37"/><circle cx="331.1" cy="29.9" r="1.3" fill="#f5d77a" opacity="0.21"/><circle cx="71.9" cy="416.6" r="1.1" fill="#f5d77a" opacity="0.35"/>
  <circle cx="200" cy="240" r="62.249725651577506" fill="none" stroke="#d4a84c" stroke-opacity="0.08" stroke-width="2.5972136488340194"/><circle cx="200" cy="240" r="82.42716049382716" fill="none" stroke="#d4a84c" stroke-opacity="0.12" stroke-width="2.677580589849108"/><circle cx="200" cy="240" r="110.39883401920439" fill="none" stroke="#d4a84c" stroke-opacity="0.16" stroke-width="2.3114454732510286"/><circle cx="200" cy="240" r="126.7079561042524" fill="none" stroke="#d4a84c" stroke-opacity="0.20" stroke-width="1.5975737311385458"/><circle cx="200" cy="240" r="149.82366255144032" fill="none" stroke="#d4a84c" stroke-opacity="0.24" stroke-width="1.8939900548696844"/>
  <text x="200" y="270" font-family="serif" font-size="140" text-anchor="middle" fill="#f5d77a" opacity="0.85">☥</text>
  <rect x="4" y="4" width="392" height="552" fill="none" stroke="#d4a84c" stroke-width="1.5" opacity="0.7"/>
  <rect x="20" y="440" width="360" height="100" fill="#000" opacity="0.55"/>
  <text x="200" y="475" font-family="serif" font-size="22" font-weight="bold" text-anchor="middle" fill="#f5d77a">Tomb Pharaoh</text>
  <text x="200" y="500" font-family="sans-serif" font-size="11" text-anchor="middle" fill="#d4a84c" letter-spacing="3">DYNASTY</text>
  <text x="200" y="525" font-family="sans-serif" font-size="10" text-anchor="middle" fill="#ffffff" opacity="0.7" letter-spacing="2">COMMON</text>
</svg>