<svg xmlns="http://www.w3.org/2000/svg" viewBox="0 0 400 560" preserveAspectRatio="xMidYMid slice">
  <defs>
    <linearGradient id="bg" x1="0" y1="0" x2="0" y2="1">
      <stop offset="0" stop-color="#1a0533"/>
      <stop offset="1" stop-color="#3d0f5c"/>
    </linearGradient>
    <radialGradient id="glow" cx="50%" cy="42%" r="50%">
      <stop offset="0" stop-color="#e94ec7" stop-opacity="0.55"/>
      <stop offset="0.5" stop-color="#e94ec7" stop-opacity="0.12"/>
      <stop offset="1" stop-color="#e94ec7" stop-opacity="0"/>
    </radialGradient>
  </defs>
  <rect width="400" height="560" fill="url(#bg)"/>
  <rect width="400" height="560" fill="url(#glow)"/>
  <circle cx="355.5" cy="433.1" r="0.7" fill="#ff9f43" opacity="0.53"/><circle cx="217.2" cy="408.4" r="1.7" fill="#ff9f43" opacity="0.44"/><circle cx="383.5" cy="388.3" r="2.0" fill="#ff9f43" opacity="0.32"/><circle cx="316.1" cy="282.9" r="2.0" fill="#ff9f43" opacity="0.45"/><circle cx="172.9" cy="355.0" r="0.8" fill="#ff9f43" opacity="0.30"/><circle cx="230.6" cy="224.3" r="0.8" fill="#ff9f43" opacity="0.32"/><circle cx="173.0" cy="485.3" r="0.6" fill="#ff9f43" opacity="0.57"/><circle cx="247.2" cy="218.6" r="1.6" fill="#ff9f43" opacity="0.63"/><circle cx="285.1" cy="475.1" r="0.5" fill="#ff9f43" opacity="0.41"/><circle cx="192.9" cy="293.7" r="1.9" fill="#ff9f43" opacity="0.23"/><circle cx="306.6" cy="372.7" r="2.0" fill="#ff9f43" opacity="0.29"/><circle cx="13.6" cy="394.1" r="0.7" fill="#ff9f43" opacity="0.43"/><circle cx="242.5" cy="81.3" r="1.0" fill="#ff9f43" opacity="0.26"/><circle cx="217.8" cy="70.4" r="1.5" fill="#ff9f43" opacity="0.59"/><circle cx="82.9" cy="354.5" r="0.9" fill="#ff9f43" opacity="0.20"/><circle cx="188.3" cy="221.5" r="1.9" fill="#ff9f43" opacity="0.49"/><circle cx="247.6" cy="245.2" r="1.1" fill="#ff9f43" opacity="0.37"/><circle cx="359.6" cy="169.8" r="2.0" fill="#ff9f43" opacity="0.57"/><circle cx="297.1" cy="527.6" r="1.1" fill="#ff9f43" opacity="0.26"/><circle cx="262.6" cy="150.3" r="1.8" fill="#ff9f43" opacity="0.47"/><circle cx="310.3" cy="213.2" r="2.0" fill="#ff9f43" opacity="0.37"/><circle cx="35.5" cy="253.0" r="1.1" fill="#ff9f43" opacity="0.40"/><circle cx="129.4" cy="159.2" r="1.6" fill="#ff9f43" opacity="0.21"/><circle cx="201.8" cy="298.1" r="2.0" fill="#ff9f43" opacity="0.42"/><circle cx="70.2" cy="331.0" r="1.3" fill="#ff9f43" opacity="0.25"/><circle cx="114.7" cy="85.0" r="1.6" fill="#ff9f43" opacity="0.44"/><circle cx="300.8" cy="237.8" r="1.4" fill="#ff9f43" opacity="0.57"/><circle cx="267.9" cy="14.9" r="1.3" fill="#ff9f43" opacity="0.63"/><circle cx="85.2" cy="301.3" r="1.1" fill="#ff9f43" opacity="0.48"/><circle cx="73.7" cy="405.6" r="1.2" fill="#ff9f43" opacity="0.64"/><circle cx="95.2" cy="238.1" r="0.6" fill="#ff9f43" opacity="0.38"/><circle cx="307.6" cy="61.3" r="1.3" fill="#ff9f43" opacity="0.67"/><circle cx="187.5" cy="55.0" r="1.0" fill="#ff9f43" opacity="0.47"/><circle cx="218.8" cy="253.8" r="1.6" fill="#ff9f43" opacity="0.34"/><circle cx="248.5" cy="298.2" r="1.5" fill="#ff9f43" opacity="0.34"/><circle cx="108.6" cy="119.1" r="1.8" fill="#ff9f43" opacity="0.40"/><circle cx="105.3" cy="435.5" r="1.0" fill="#ff9f43" opacity="0.33"/><circle cx="174.5" cy="265.6" r="1.4" fill="#ff9f43" opacity="0.33"/><circle cx="103.8" cy="411.4" r="1.5" fill="#ff9f43" opacity="0.25"/><circle cx="21.5" cy="36.4" r="1.1" fill="#ff9f43" opacity="0.69"/>
  <circle cx="200" cy="240" r="66.37037037037037" fill="none" stroke="#e94ec7" stroke-opacity="0.08" stroke-width="2.1263460219478736"/><circle cx="200" cy="240" r="84.26796982167353" fill="none" stroke="#e94ec7" stroke-opacity="0.12" stroke-width="1.0194701646090536"/><circle cx="200" cy="240" r="110.05857338820302" fill="none" stroke="#e94ec7" stroke-opacity="0.16" stroke-width="1.1204132373113855"/><circle cx="200" cy="240" r="127.54465020576131" fill="none" stroke="#e94ec7" stroke-opacity="0.20" stroke-width="1.1205332647462276"/><circle cx="200" cy="240" r="154.01015089163238" fill="none" stroke="#e94ec7" stroke-opacity="0.24" stroke-width="2.5260030864197534"/>
  <text x="200" y="270" font-family="sans-serif" font-size="140" text-anchor="middle" fill="#ff9f43" opacity="0.85">🪩</text>
  <rect x="4" y="4" width="392" height="552" fill="none" stroke="#e94ec7" stroke-width="1.5" opacity="0.7"/>
  <rect x="20" y="440" width="360" height="100" fill="#000" opacity="0.55"/>
  <text x="200" y="475" font-family="sans-serif" font-size="22" font-weight="bold" text-anchor="middle" fill="#ff9f43">Astro Pharaoh</text>
  <text x="200" y="500" font-family="sans-serif" font-size="11" text-anchor="middle" fill="#e94ec7" letter-spacing="3">COSMIC 1970S</text>
  <text x="200" y="525" font-family="sans-serif" font-size="10" text-anchor="middle" fill="#ffffff" opacity="0.7" letter-spacing="2">COMMON</text>
</svg>