<svg xmlns="http://www.w3.org/2000/svg" viewBox="0 0 400 560" preserveAspectRatio="xMidYMid slice">
  <defs>
    <linearGradient id="bg" x1="0" y1="0" x2="0" y2="1">
      <stop offset="0" stop-color="#050a1a"/>
      <stop offset="1" stop-color="#0f1f3d"/>
    </linearGradient>
    <radialGradient id="glow" cx="50%" cy="42%" r="50%">
      <stop offset="0" stop-color="#3acff5" stop-opacity="0.55"/>
      <stop offset="0.5" stop-color="#3acff5" stop-opacity="0.12"/>
      <stop offset="1" stop-color="#3acff5" stop-opacity="0"/>
    </radialGradient>
  </defs>
  <rect width="400" height="560" fill="url(#bg)"/>
  <rect width="400" height="560" fill="url(#glow)"/>
  <circle cx="326.4" cy="227.5" r="1.5" fill="#a855f7" opacity="0.30"/><circle cx="94.8" cy="120.4" r="1.9" fill="#a855f7" opacity="0.50"/><circle cx="39.3" cy="294.5" r="1.8" fill="#a855f7" opacity="0.56"/><circle cx="125.3" cy="307.2" r="1.3" fill="#a855f7" opacity="0.57"/><circle cx="392.5" cy="504.3" r="0.8" fill="#a855f7" opacity="0.50"/><circle cx="109.8" cy="90.7" r="1.8" fill="#a855f7" opacity="0.23"/><circle cx="398.3" cy="55.1" r="1.5" fill="#a855f7" opacity="0.27"/><circle cx="319.8" cy="307.5" r="2.0" fill="#a855f7" opacity="0.38"/><circle cx="32.2" cy="550.7" r="0.8" fill="#a855f7" opacity="0.55"/><circle cx="212.0" cy="404.4" r="1.7" fill="#a855f7" opacity="0.22"/><circle cx="143.4" cy="463.2" r="1.9" fill="#a855f7" opacity="0.46"/><circle cx="73.0" cy="367.7" r="1.4" fill="#a855f7" opacity="0.34"/><circle cx="233.2" cy="48.5" r="1.3" fill="#a855f7" opacity="0.27"/><circle cx="129.9" cy="224.9" r="1.6" fill="#a855f7" opacity="0.58"/><circle cx="99.1" cy="475.0" r="1.7" fill="#a855f7" opacity="0.45"/><circle cx="328.4" cy="480.8" r="1.4" fill="#a855f7" opacity="0.25"/><circle cx="146.1" cy="525.9" r="0.6" fill="#a855f7" opacity="0.57"/><circle cx="377.0" cy="126.1" r="1.1" fill="#a855f7" opacity="0.21"/><circle cx="364.3" cy="394.6" r="1.4" fill="#a855f7" opacity="0.48"/><circle cx="58.6" cy="59.4" r="1.4" fill="#a855f7" opacity="0.26"/><circle cx="373.5" cy="254.2" r="0.5" fill="#a855f7" opacity="0.45"/><circle cx="207.7" cy="163.2" r="0.9" fill="#a855f7" opacity="0.31"/><circle cx="134.1" cy="318.9" r="2.0" fill="#a855f7" opacity="0.49"/><circle cx="355.1" cy="112.7" r="1.1" fill="#a855f7" opacity="0.51"/><circle cx="125.1" cy="160.0" r="0.8" fill="#a855f7" opacity="0.56"/><circle cx="239.1" cy="557.6" r="1.8" fill="#a855f7" opacity="0.58"/><circle cx="188.6" cy="74.8" r="0.8" fill="#a855f7" opacity="0.21"/><circle cx="383.3" cy="198.2" r="0.6" fill="#a855f7" opacity="0.58"/><circle cx="240.5" cy="28.9" r="1.9" fill="#a855f7" opacity="0.39"/><circle cx="140.6" cy="514.1" r="0.6" fill="#a855f7" opacity="0.40"/><circle cx="48.9" cy="91.2" r="1.4" fill="#a855f7" opacity="0.68"/><circle cx="4.9" cy="226.1" r="1.8" fill="#a855f7" opacity="0.23"/><circle cx="77.8" cy="123.6" r="1.6" fill="#a855f7" opacity="0.40"/><circle cx="188.5" cy="212.4" r="1.2" fill="#a855f7" opacity="0.21"/><circle cx="198.8" cy="402.6" r="0.9" fill="#a855f7" opacity="0.44"/><circle cx="266.8" cy="396.9" r="1.6" fill="#a855f7" opacity="0.55"/><circle cx="268.9" cy="375.1" r="0.8" fill="#a855f7" opacity="0.50"/><circle cx="289.1" cy="371.7" r="1.9" fill="#a855f7" opacity="0.35"/><circle cx="174.3" cy="27.3" r="1.7" fill="#a855f7" opacity="0.68"/><circle cx="156.7" cy="392.6" r="1.5" fill="#a855f7" opacity="0.39"/>
  <circle cx="200" cy="240" r="63.447908093278464" fill="none" stroke="#3acff5" stroke-opacity="0.08" stroke-width="2.6709362139917694"/><circle cx="200" cy="240" r="89.20147462277092" fill="none" stroke="#3acff5" stroke-opacity="0.12" stroke-width="2.6515089163237313"/><circle cx="200" cy="240" r="108.42829218106996" fill="none" stroke="#3acff5" stroke-opacity="0.16" stroke-width="2.3090363511659806"/><circle cx="200" cy="240" r="133.0789780521262" fill="none" stroke="#3acff5" stroke-opacity="0.20" stroke-width="1.816358024691358"/><circle cx="200" cy="240" r="153.47451989026064" fill="none" stroke="#3acff5" stroke-opacity="0.24" stroke-width="1.0500171467764061"/>
  <text x="200" y="270" font-family="sans-serif" font-size="140" text-anchor="middle" fill="#a855f7" opacity="0.85">💎</text>
  <rect x="4" y="4" width="392" height="552" fill="none" stroke="#3acff5" stroke-width="1.5" opacity="0.7"/>
  <rect x="20" y="440" width="360" height="100" fill="#000" opacity="0.55"/>
  <text x="200" y="475" font-family="sans-serif" font-size="22" font-weight="bold" text-anchor="middle" fill="#a855f7">Viral Prophet</text>
  <text x="200" y="500" font-family="sans-serif" font-size="11" text-anchor="middle" fill="#3acff5" letter-spacing="3">NEON 2020S</text>
  <text x="200" y="525" font-family="sans-serif" font-size="10" text-anchor="middle" fill="#ffffff" opacity="0.7" letter-spacing="2">COMMON</text>
</svg>