<svg xmlns="http://www.w3.org/2000/svg" viewBox="0 0 400 560" preserveAspectRatio="xMidYMid slice">
  <defs>
    <linearGradient id="bg" x1="0" y1="0" x2="0" y2="1">
      <stop offset="0" stop-color="#050a1a"/>
      <stop offset="1" stop-color="#0f1f3d"/>
    </linearGradient>
    <radialGradient id="glow" cx="50%" cy="42%" r="50%">
      <stop offset="0" stop-color="#3acff5" stop-opacity="0.55"/>
      <stop offset="0.5" stop-color="#3acff5" stop-opacity="0.12"/>
      <stop offset="1" stop-color="#3acff5" stop-opacity="0"/>
    </radialGradient>
  </defs>
  <rect width="400" height="560" fill="url(#bg)"/>
  <rect width="400" height="560" fill="url(#glow)"/>
  <circle cx="134.0" cy="97.4" r="1.6" fill="#a855f7" opacity="0.56"/><circle cx="144.8" cy="46.2" r="0.8" fill="#a855f7" opacity="0.25"/><circle cx="55.1" cy="96.4" r="1.7" fill="#a855f7" opacity="0.35"/><circle cx="23.0" cy="510.7" r="2.0" fill="#a855f7" opacity="0.34"/><circle cx="325.1" cy="348.9" r="0.9" fill="#a855f7" opacity="0.67"/><circle cx="245.4" cy="205.5" r="1.5" fill="#a855f7" opacity="0.39"/><circle cx="30.6" cy="281.0" r="1.0" fill="#a855f7" opacity="0.59"/><circle cx="312.9" cy="506.3" r="1.9" fill="#a855f7" opacity="0.67"/><circle cx="198.6" cy="480.5" r="1.1" fill="#a855f7" opacity="0.47"/><circle cx="23.3" cy="341.7" r="1.1" fill="#a855f7" opacity="0.66"/><circle cx="374.8" cy="332.0" r="1.8" fill="#a855f7" opacity="0.61"/><circle cx="181.4" cy="174.8" r="1.5" fill="#a855f7" opacity="0.41"/><circle cx="267.9" cy="506.1" r="1.9" fill="#a855f7" opacity="0.38"/><circle cx="377.4" cy="199.1" r="1.7" fill="#a855f7" opacity="0.30"/><circle cx="60.6" cy="221.6" r="0.6" fill="#a855f7" opacity="0.56"/><circle cx="231.0" cy="27.5" r="1.2" fill="#a855f7" opacity="0.58"/><circle cx="187.4" cy="481.0" r="1.0" fill="#a855f7" opacity="0.59"/><circle cx="102.7" cy="434.4" r="1.1" fill="#a855f7" opacity="0.25"/><circle cx="179.3" cy="399.3" r="1.7" fill="#a855f7" opacity="0.59"/><circle cx="71.5" cy="431.1" r="0.8" fill="#a855f7" opacity="0.30"/><circle cx="174.5" cy="66.5" r="0.8" fill="#a855f7" opacity="0.31"/><circle cx="379.5" cy="314.8" r="1.3" fill="#a855f7" opacity="0.25"/><circle cx="296.4" cy="422.7" r="0.5" fill="#a855f7" opacity="0.27"/><circle cx="142.5" cy="51.1" r="0.8" fill="#a855f7" opacity="0.57"/><circle cx="298.1" cy="147.4" r="1.0" fill="#a855f7" opacity="0.40"/><circle cx="328.6" cy="269.0" r="1.2" fill="#a855f7" opacity="0.33"/><circle cx="273.5" cy="201.7" r="0.5" fill="#a855f7" opacity="0.36"/><circle cx="202.0" cy="270.3" r="1.8" fill="#a855f7" opacity="0.36"/><circle cx="34.9" cy="343.5" r="0.8" fill="#a855f7" opacity="0.32"/><circle cx="34.2" cy="331.5" r="1.1" fill="#a855f7" opacity="0.53"/><circle cx="357.7" cy="496.9" r="1.7" fill="#a855f7" opacity="0.46"/><circle cx="82.0" cy="459.6" r="1.9" fill="#a855f7" opacity="0.57"/><circle cx="91.1" cy="253.9" r="1.9" fill="#a855f7" opacity="0.41"/><circle cx="231.9" cy="80.6" r="1.7" fill="#a855f7" opacity="0.55"/><circle cx="336.5" cy="430.4" r="0.9" fill="#a855f7" opacity="0.41"/><circle cx="311.0" cy="342.3" r="1.0" fill="#a855f7" opacity="0.31"/><circle cx="91.3" cy="514.6" r="1.3" fill="#a855f7" opacity="0.45"/><circle cx="265.0" cy="69.3" r="1.8" fill="#a855f7" opacity="0.68"/><circle cx="160.5" cy="409.9" r="0.8" fill="#a855f7" opacity="0.59"/><circle cx="202.5" cy="492.4" r="1.5" fill="#a855f7" opacity="0.51"/><circle cx="134.3" cy="309.8" r="1.2" fill="#a855f7" opacity="0.21"/><circle cx="306.3" cy="270.1" r="1.0" fill="#a855f7" opacity="0.58"/><circle cx="32.3" cy="387.1" r="1.9" fill="#a855f7" opacity="0.54"/><circle cx="211.0" cy="405.1" r="1.5" fill="#a855f7" opacity="0.33"/><circle cx="215.1" cy="296.2" r="0.9" fill="#a855f7" opacity="0.60"/><circle cx="247.3" cy="12.3" r="1.9" fill="#a855f7" opacity="0.39"/><circle cx="361.7" cy="168.5" r="0.8" fill="#a855f7" opacity="0.37"/><circle cx="153.5" cy="301.6" r="1.6" fill="#a855f7" opacity="0.49"/><circle cx="314.1" cy="301.1" r="0.9" fill="#a855f7" opacity="0.38"/><circle cx="53.2" cy="533.4" r="1.5" fill="#a855f7" opacity="0.67"/><circle cx="388.3" cy="99.6" r="1.1" fill="#a855f7" opacity="0.58"/><circle cx="99.4" cy="507.0" r="1.6" fill="#a855f7" opacity="0.36"/><circle cx="352.1" cy="193.1" r="1.7" fill="#a855f7" opacity="0.57"/><circle cx="385.9" cy="63.5" r="1.9" fill="#a855f7" opacity="0.21"/><circle cx="269.9" cy="443.2" r="1.9" fill="#a855f7" opacity="0.65"/><circle cx="325.1" cy="80.9" r="0.8" fill="#a855f7" opacity="0.39"/><circle cx="13.2" cy="6.7" r="1.9" fill="#a855f7" opacity="0.22"/><circle cx="292.3" cy="483.2" r="1.3" fill="#a855f7" opacity="0.59"/><circle cx="238.8" cy="10.3" r="1.4" fill="#a855f7" opacity="0.48"/><circle cx="336.8" cy="302.4" r="0.7" fill="#a855f7" opacity="0.42"/>
  <circle cx="200" cy="240" r="67.59444444444445" fill="none" stroke="#3acff5" stroke-opacity="0.08" stroke-width="2.4045867626886146"/><circle cx="200" cy="240" r="83.93648834019204" fill="none" stroke="#3acff5" stroke-opacity="0.12" stroke-width="2.2421553497942384"/><circle cx="200" cy="240" r="110.83820301783265" fill="none" stroke="#3acff5" stroke-opacity="0.16" stroke-width="1.9542095336076817"/><circle cx="200" cy="240" r="132.1020576131687" fill="none" stroke="#3acff5" stroke-opacity="0.20" stroke-width="2.2321073388203017"/><circle cx="200" cy="240" r="149.01200274348423" fill="none" stroke="#3acff5" stroke-opacity="0.24" stroke-width="2.5820216049382716"/><circle cx="200" cy="240" r="173.22235939643346" fill="none" stroke="#3acff5" stroke-opacity="0.28" stroke-width="2.213828875171468"/><circle cx="200" cy="240" r="192.98004115226337" fill="none" stroke="#3acff5" stroke-opacity="0.32" stroke-width="2.263331618655693"/>
  <text x="200" y="270" font-family="sans-serif" font-size="140" text-anchor="middle" fill="#a855f7" opacity="0.85">💎</text>
  <rect x="12" y="12" width="376" height="536" fill="none" stroke="#3acff5" stroke-width="4.5" opacity="0.7"/>
  <rect x="20" y="440" width="360" height="100" fill="#000" opacity="0.55"/>
  <text x="200" y="475" font-family="sans-serif" font-size="22" font-weight="bold" text-anchor="middle" fill="#a855f7">Vapor Crown</text>
  <text x="200" y="500" font-family="sans-serif" font-size="11" text-anchor="middle" fill="#3acff5" letter-spacing="3">NEON 2020S</text>
  <text x="200" y="525" font-family="sans-serif" font-size="10" text-anchor="middle" fill="#ffffff" opacity="0.7" letter-spacing="2">DIVINE</text>
</svg>