<svg xmlns="http://www.w3.org/2000/svg" viewBox="0 0 400 560" preserveAspectRatio="xMidYMid slice">
  <defs>
    <linearGradient id="bg" x1="0" y1="0" x2="0" y2="1">
      <stop offset="0" stop-color="#0a0a0a"/>
      <stop offset="1" stop-color="#1f1f1f"/>
    </linearGradient>
    <radialGradient id="glow" cx="50%" cy="42%" r="50%">
      <stop offset="0" stop-color="#c9a84c" stop-opacity="0.55"/>
      <stop offset="0.5" stop-color="#c9a84c" stop-opacity="0.12"/>
      <stop offset="1" stop-color="#c9a84c" stop-opacity="0"/>
    </radialGradient>
  </defs>
  <rect width="400" height="560" fill="url(#bg)"/>
  <rect width="400" height="560" fill="url(#glow)"/>
  <circle cx="153.6" cy="277.5" r="1.7" fill="#f0d78c" opacity="0.53"/><circle cx="378.3" cy="138.7" r="1.7" fill="#f0d78c" opacity="0.23"/><circle cx="329.8" cy="129.0" r="0.9" fill="#f0d78c" opacity="0.68"/><circle cx="136.4" cy="531.8" r="0.6" fill="#f0d78c" opacity="0.48"/><circle cx="222.9" cy="303.1" r="1.0" fill="#f0d78c" opacity="0.45"/><circle cx="332.4" cy="556.1" r="0.8" fill="#f0d78c" opacity="0.37"/><circle cx="15.6" cy="18.6" r="1.2" fill="#f0d78c" opacity="0.63"/><circle cx="186.0" cy="384.5" r="1.8" fill="#f0d78c" opacity="0.65"/><circle cx="142.4" cy="278.0" r="1.6" fill="#f0d78c" opacity="0.66"/><circle cx="57.7" cy="231.4" r="1.7" fill="#f0d78c" opacity="0.32"/><circle cx="134.3" cy="196.3" r="0.8" fill="#f0d78c" opacity="0.66"/><circle cx="26.5" cy="228.1" r="1.4" fill="#f0d78c" opacity="0.37"/><circle cx="129.5" cy="423.5" r="1.4" fill="#f0d78c" opacity="0.37"/><circle cx="334.5" cy="111.8" r="1.8" fill="#f0d78c" opacity="0.32"/><circle cx="251.4" cy="219.7" r="1.1" fill="#f0d78c" opacity="0.34"/><circle cx="97.5" cy="408.1" r="1.3" fill="#f0d78c" opacity="0.64"/><circle cx="253.1" cy="504.4" r="1.5" fill="#f0d78c" opacity="0.47"/><circle cx="283.6" cy="66.0" r="1.8" fill="#f0d78c" opacity="0.40"/><circle cx="228.5" cy="558.7" r="1.1" fill="#f0d78c" opacity="0.43"/><circle cx="157.0" cy="67.3" r="0.8" fill="#f0d78c" opacity="0.43"/><circle cx="389.9" cy="140.5" r="1.4" fill="#f0d78c" opacity="0.39"/><circle cx="389.2" cy="128.5" r="1.6" fill="#f0d78c" opacity="0.60"/><circle cx="312.7" cy="293.9" r="0.7" fill="#f0d78c" opacity="0.53"/><circle cx="37.0" cy="256.6" r="0.9" fill="#f0d78c" opacity="0.64"/><circle cx="46.1" cy="50.9" r="1.0" fill="#f0d78c" opacity="0.47"/><circle cx="186.9" cy="437.6" r="0.8" fill="#f0d78c" opacity="0.62"/><circle cx="291.5" cy="227.4" r="1.4" fill="#f0d78c" opacity="0.48"/><circle cx="266.0" cy="139.3" r="1.5" fill="#f0d78c" opacity="0.38"/><circle cx="46.3" cy="311.6" r="1.9" fill="#f0d78c" opacity="0.52"/><circle cx="220.0" cy="426.3" r="0.9" fill="#f0d78c" opacity="0.25"/><circle cx="115.5" cy="206.9" r="1.4" fill="#f0d78c" opacity="0.66"/><circle cx="157.5" cy="289.4" r="0.6" fill="#f0d78c" opacity="0.57"/><circle cx="89.3" cy="106.8" r="1.8" fill="#f0d78c" opacity="0.27"/><circle cx="261.3" cy="67.1" r="1.6" fill="#f0d78c" opacity="0.65"/><circle cx="387.3" cy="184.1" r="1.0" fill="#f0d78c" opacity="0.61"/><circle cx="166.0" cy="202.1" r="0.6" fill="#f0d78c" opacity="0.39"/><circle cx="170.1" cy="93.2" r="1.5" fill="#f0d78c" opacity="0.67"/><circle cx="202.3" cy="369.3" r="0.9" fill="#f0d78c" opacity="0.45"/><circle cx="316.7" cy="525.5" r="1.4" fill="#f0d78c" opacity="0.44"/><circle cx="108.5" cy="98.6" r="0.7" fill="#f0d78c" opacity="0.56"/>
  <circle cx="200" cy="240" r="60.629012345679016" fill="none" stroke="#c9a84c" stroke-opacity="0.08" stroke-width="2.0335991083676266"/><circle cx="200" cy="240" r="89.71179698216736" fill="none" stroke="#c9a84c" stroke-opacity="0.12" stroke-width="1.2785751028806585"/><circle cx="200" cy="240" r="109.79869684499315" fill="none" stroke="#c9a84c" stroke-opacity="0.16" stroke-width="2.8424811385459536"/><circle cx="200" cy="240" r="131.3588477366255" fill="none" stroke="#c9a84c" stroke-opacity="0.20" stroke-width="2.0833419067215364"/><circle cx="200" cy="240" r="150.3428669410151" fill="none" stroke="#c9a84c" stroke-opacity="0.24" stroke-width="1.1739969135802468"/>
  <text x="200" y="270" font-family="serif" font-size="140" text-anchor="middle" fill="#f0d78c" opacity="0.85">🎷</text>
  <rect x="4" y="4" width="392" height="552" fill="none" stroke="#c9a84c" stroke-width="1.5" opacity="0.7"/>
  <rect x="20" y="440" width="360" height="100" fill="#000" opacity="0.55"/>
  <text x="200" y="475" font-family="serif" font-size="22" font-weight="bold" text-anchor="middle" fill="#f0d78c">Bourbon Phantom</text>
  <text x="200" y="500" font-family="sans-serif" font-size="11" text-anchor="middle" fill="#c9a84c" letter-spacing="3">ROARING 1920S</text>
  <text x="200" y="525" font-family="sans-serif" font-size="10" text-anchor="middle" fill="#ffffff" opacity="0.7" letter-spacing="2">COMMON</text>
</svg>