<svg xmlns="http://www.w3.org/2000/svg" viewBox="0 0 400 560" preserveAspectRatio="xMidYMid slice">
  <defs>
    <linearGradient id="bg" x1="0" y1="0" x2="0" y2="1">
      <stop offset="0" stop-color="#0a1a0f"/>
      <stop offset="1" stop-color="#1a3d24"/>
    </linearGradient>
    <radialGradient id="glow" cx="50%" cy="42%" r="50%">
      <stop offset="0" stop-color="#f5d23a" stop-opacity="0.55"/>
      <stop offset="0.5" stop-color="#f5d23a" stop-opacity="0.12"/>
      <stop offset="1" stop-color="#f5d23a" stop-opacity="0"/>
    </radialGradient>
  </defs>
  <rect width="400" height="560" fill="url(#bg)"/>
  <rect width="400" height="560" fill="url(#glow)"/>
  <circle cx="140.3" cy="547.3" r="1.3" fill="#3acf5c" opacity="0.63"/><circle cx="33.4" cy="96.2" r="0.8" fill="#3acf5c" opacity="0.27"/><circle cx="221.1" cy="403.4" r="1.3" fill="#3acf5c" opacity="0.25"/><circle cx="357.7" cy="404.0" r="0.8" fill="#3acf5c" opacity="0.26"/><circle cx="38.5" cy="194.9" r="1.7" fill="#3acf5c" opacity="0.24"/><circle cx="354.6" cy="225.5" r="0.6" fill="#3acf5c" opacity="0.33"/><circle cx="115.9" cy="302.2" r="1.8" fill="#3acf5c" opacity="0.65"/><circle cx="339.8" cy="86.2" r="1.5" fill="#3acf5c" opacity="0.42"/><circle cx="206.5" cy="524.7" r="1.6" fill="#3acf5c" opacity="0.39"/><circle cx="81.5" cy="55.3" r="0.7" fill="#3acf5c" opacity="0.63"/><circle cx="4.2" cy="143.5" r="1.0" fill="#3acf5c" opacity="0.63"/><circle cx="43.7" cy="554.3" r="0.6" fill="#3acf5c" opacity="0.26"/><circle cx="121.1" cy="36.5" r="1.6" fill="#3acf5c" opacity="0.53"/><circle cx="98.1" cy="180.0" r="1.3" fill="#3acf5c" opacity="0.22"/><circle cx="132.8" cy="127.6" r="1.8" fill="#3acf5c" opacity="0.29"/><circle cx="101.5" cy="59.1" r="0.9" fill="#3acf5c" opacity="0.70"/><circle cx="88.4" cy="9.1" r="1.8" fill="#3acf5c" opacity="0.51"/><circle cx="340.3" cy="177.9" r="1.5" fill="#3acf5c" opacity="0.29"/><circle cx="289.3" cy="496.6" r="1.1" fill="#3acf5c" opacity="0.46"/><circle cx="241.6" cy="4.1" r="0.7" fill="#3acf5c" opacity="0.33"/><circle cx="133.0" cy="518.6" r="0.9" fill="#3acf5c" opacity="0.61"/><circle cx="151.2" cy="42.2" r="1.8" fill="#3acf5c" opacity="0.64"/><circle cx="24.5" cy="538.4" r="1.8" fill="#3acf5c" opacity="0.53"/><circle cx="177.6" cy="403.0" r="0.9" fill="#3acf5c" opacity="0.58"/><circle cx="353.8" cy="189.4" r="1.0" fill="#3acf5c" opacity="0.58"/><circle cx="103.7" cy="305.2" r="1.7" fill="#3acf5c" opacity="0.43"/><circle cx="340.7" cy="204.5" r="1.0" fill="#3acf5c" opacity="0.53"/><circle cx="363.8" cy="191.3" r="1.1" fill="#3acf5c" opacity="0.62"/><circle cx="345.8" cy="238.0" r="1.4" fill="#3acf5c" opacity="0.36"/><circle cx="89.0" cy="296.3" r="0.7" fill="#3acf5c" opacity="0.29"/><circle cx="47.9" cy="421.4" r="1.6" fill="#3acf5c" opacity="0.58"/><circle cx="217.5" cy="150.1" r="1.8" fill="#3acf5c" opacity="0.67"/><circle cx="89.2" cy="491.8" r="1.1" fill="#3acf5c" opacity="0.20"/><circle cx="72.8" cy="132.9" r="0.6" fill="#3acf5c" opacity="0.30"/><circle cx="385.6" cy="414.7" r="1.0" fill="#3acf5c" opacity="0.68"/><circle cx="207.8" cy="44.3" r="1.5" fill="#3acf5c" opacity="0.60"/><circle cx="305.0" cy="259.3" r="2.0" fill="#3acf5c" opacity="0.62"/><circle cx="316.6" cy="285.3" r="1.6" fill="#3acf5c" opacity="0.23"/><circle cx="311.7" cy="447.3" r="1.5" fill="#3acf5c" opacity="0.31"/><circle cx="211.3" cy="53.8" r="0.8" fill="#3acf5c" opacity="0.36"/><circle cx="277.2" cy="135.1" r="1.3" fill="#3acf5c" opacity="0.65"/><circle cx="267.4" cy="393.9" r="0.7" fill="#3acf5c" opacity="0.66"/><circle cx="58.4" cy="449.8" r="1.1" fill="#3acf5c" opacity="0.35"/><circle cx="134.2" cy="337.6" r="1.4" fill="#3acf5c" opacity="0.27"/><circle cx="341.6" cy="257.5" r="1.5" fill="#3acf5c" opacity="0.50"/><circle cx="112.8" cy="140.7" r="0.9" fill="#3acf5c" opacity="0.45"/><circle cx="154.1" cy="145.9" r="1.3" fill="#3acf5c" opacity="0.43"/><circle cx="1.0" cy="411.6" r="1.8" fill="#3acf5c" opacity="0.65"/><circle cx="241.4" cy="59.6" r="1.1" fill="#3acf5c" opacity="0.46"/><circle cx="203.6" cy="493.5" r="1.9" fill="#3acf5c" opacity="0.46"/>
  <circle cx="200" cy="240" r="67.93930041152264" fill="none" stroke="#f5d23a" stroke-opacity="0.08" stroke-width="2.2809242112482853"/><circle cx="200" cy="240" r="83.19492455418381" fill="none" stroke="#f5d23a" stroke-opacity="0.12" stroke-width="1.9209619341563786"/><circle cx="200" cy="240" r="105.15836762688615" fill="none" stroke="#f5d23a" stroke-opacity="0.16" stroke-width="2.916966735253772"/><circle cx="200" cy="240" r="126.52098765432099" fill="none" stroke="#f5d23a" stroke-opacity="0.20" stroke-width="2.8491855281207132"/><circle cx="200" cy="240" r="154.78895747599452" fill="none" stroke="#f5d23a" stroke-opacity="0.24" stroke-width="1.4460133744855967"/><circle cx="200" cy="240" r="173.1721536351166" fill="none" stroke="#f5d23a" stroke-opacity="0.28" stroke-width="1.4728823731138547"/>
  <text x="200" y="270" font-family="sans-serif" font-size="140" text-anchor="middle" fill="#3acf5c" opacity="0.85">🎤</text>
  <rect x="8" y="8" width="384" height="544" fill="none" stroke="#f5d23a" stroke-width="3" opacity="0.7"/>
  <rect x="20" y="440" width="360" height="100" fill="#000" opacity="0.55"/>
  <text x="200" y="475" font-family="sans-serif" font-size="22" font-weight="bold" text-anchor="middle" fill="#3acf5c">Sample Scribe</text>
  <text x="200" y="500" font-family="sans-serif" font-size="11" text-anchor="middle" fill="#f5d23a" letter-spacing="3">BOOM-BAP 1990S</text>
  <text x="200" y="525" font-family="sans-serif" font-size="10" text-anchor="middle" fill="#ffffff" opacity="0.7" letter-spacing="2">RARE</text>
</svg>