<svg xmlns="http://www.w3.org/2000/svg" viewBox="0 0 400 560" preserveAspectRatio="xMidYMid slice">
  <defs>
    <linearGradient id="bg" x1="0" y1="0" x2="0" y2="1">
      <stop offset="0" stop-color="#0a1a0f"/>
      <stop offset="1" stop-color="#1a3d24"/>
    </linearGradient>
    <radialGradient id="glow" cx="50%" cy="42%" r="50%">
      <stop offset="0" stop-color="#f5d23a" stop-opacity="0.55"/>
      <stop offset="0.5" stop-color="#f5d23a" stop-opacity="0.12"/>
      <stop offset="1" stop-color="#f5d23a" stop-opacity="0"/>
    </radialGradient>
  </defs>
  <rect width="400" height="560" fill="url(#bg)"/>
  <rect width="400" height="560" fill="url(#glow)"/>
  <circle cx="199.4" cy="111.1" r="1.9" fill="#3acf5c" opacity="0.44"/><circle cx="387.9" cy="495.5" r="1.3" fill="#3acf5c" opacity="0.35"/><circle cx="209.3" cy="47.9" r="1.4" fill="#3acf5c" opacity="0.34"/><circle cx="221.7" cy="151.1" r="1.3" fill="#3acf5c" opacity="0.38"/><circle cx="301.6" cy="424.8" r="1.9" fill="#3acf5c" opacity="0.43"/><circle cx="132.9" cy="343.6" r="1.7" fill="#3acf5c" opacity="0.54"/><circle cx="362.6" cy="108.1" r="0.8" fill="#3acf5c" opacity="0.30"/><circle cx="22.8" cy="209.0" r="1.9" fill="#3acf5c" opacity="0.60"/><circle cx="219.5" cy="245.3" r="1.8" fill="#3acf5c" opacity="0.28"/><circle cx="88.7" cy="355.4" r="1.5" fill="#3acf5c" opacity="0.53"/><circle cx="218.0" cy="221.3" r="0.8" fill="#3acf5c" opacity="0.20"/><circle cx="335.7" cy="126.3" r="1.2" fill="#3acf5c" opacity="0.40"/><circle cx="66.6" cy="146.5" r="1.2" fill="#3acf5c" opacity="0.42"/><circle cx="353.9" cy="275.0" r="1.2" fill="#3acf5c" opacity="0.56"/><circle cx="348.2" cy="359.8" r="0.8" fill="#3acf5c" opacity="0.21"/><circle cx="163.1" cy="414.6" r="1.1" fill="#3acf5c" opacity="0.29"/><circle cx="297.3" cy="183.6" r="1.0" fill="#3acf5c" opacity="0.52"/><circle cx="123.6" cy="199.3" r="1.7" fill="#3acf5c" opacity="0.57"/><circle cx="244.7" cy="413.1" r="0.5" fill="#3acf5c" opacity="0.47"/><circle cx="314.7" cy="320.4" r="1.3" fill="#3acf5c" opacity="0.39"/><circle cx="328.7" cy="18.0" r="1.9" fill="#3acf5c" opacity="0.29"/><circle cx="178.2" cy="515.3" r="0.6" fill="#3acf5c" opacity="0.29"/><circle cx="272.9" cy="498.6" r="1.5" fill="#3acf5c" opacity="0.53"/><circle cx="30.1" cy="189.3" r="0.9" fill="#3acf5c" opacity="0.22"/><circle cx="230.2" cy="534.5" r="0.8" fill="#3acf5c" opacity="0.61"/><circle cx="38.4" cy="531.7" r="1.2" fill="#3acf5c" opacity="0.26"/><circle cx="294.5" cy="526.5" r="1.2" fill="#3acf5c" opacity="0.68"/><circle cx="267.3" cy="284.1" r="0.6" fill="#3acf5c" opacity="0.23"/><circle cx="278.1" cy="232.8" r="1.3" fill="#3acf5c" opacity="0.42"/><circle cx="188.4" cy="283.0" r="0.7" fill="#3acf5c" opacity="0.52"/><circle cx="156.4" cy="137.3" r="1.0" fill="#3acf5c" opacity="0.50"/><circle cx="58.5" cy="535.5" r="1.4" fill="#3acf5c" opacity="0.33"/><circle cx="378.7" cy="392.1" r="0.5" fill="#3acf5c" opacity="0.56"/><circle cx="163.9" cy="467.7" r="1.5" fill="#3acf5c" opacity="0.26"/><circle cx="46.3" cy="133.0" r="0.9" fill="#3acf5c" opacity="0.34"/><circle cx="331.9" cy="107.1" r="1.6" fill="#3acf5c" opacity="0.63"/><circle cx="156.7" cy="528.4" r="1.6" fill="#3acf5c" opacity="0.33"/><circle cx="108.1" cy="518.6" r="0.8" fill="#3acf5c" opacity="0.28"/><circle cx="314.8" cy="361.4" r="0.5" fill="#3acf5c" opacity="0.58"/><circle cx="1.2" cy="132.8" r="0.9" fill="#3acf5c" opacity="0.55"/><circle cx="110.8" cy="385.8" r="0.7" fill="#3acf5c" opacity="0.47"/><circle cx="193.9" cy="408.3" r="1.1" fill="#3acf5c" opacity="0.23"/><circle cx="364.4" cy="214.2" r="1.7" fill="#3acf5c" opacity="0.25"/><circle cx="320.8" cy="107.7" r="1.5" fill="#3acf5c" opacity="0.25"/><circle cx="236.1" cy="61.1" r="1.6" fill="#3acf5c" opacity="0.42"/><circle cx="312.6" cy="26.0" r="0.7" fill="#3acf5c" opacity="0.26"/><circle cx="204.9" cy="57.8" r="1.3" fill="#3acf5c" opacity="0.47"/><circle cx="307.8" cy="253.1" r="1.3" fill="#3acf5c" opacity="0.47"/><circle cx="112.8" cy="501.5" r="1.8" fill="#3acf5c" opacity="0.42"/><circle cx="29.7" cy="49.3" r="1.0" fill="#3acf5c" opacity="0.44"/>
  <circle cx="200" cy="240" r="60.57722908093278" fill="none" stroke="#f5d23a" stroke-opacity="0.08" stroke-width="1.6245627572016461"/><circle cx="200" cy="240" r="87.92338820301784" fill="none" stroke="#f5d23a" stroke-opacity="0.12" stroke-width="2.781061385459534"/><circle cx="200" cy="240" r="104.29835390946502" fill="none" stroke="#f5d23a" stroke-opacity="0.16" stroke-width="1.1700703017832648"/><circle cx="200" cy="240" r="126.9860768175583" fill="none" stroke="#f5d23a" stroke-opacity="0.20" stroke-width="2.297762345679012"/><circle cx="200" cy="240" r="151.640877914952" fill="none" stroke="#f5d23a" stroke-opacity="0.24" stroke-width="1.3740140603566529"/><circle cx="200" cy="240" r="174.509670781893" fill="none" stroke="#f5d23a" stroke-opacity="0.28" stroke-width="1.534627914951989"/>
  <text x="200" y="270" font-family="sans-serif" font-size="140" text-anchor="middle" fill="#3acf5c" opacity="0.85">🎤</text>
  <rect x="8" y="8" width="384" height="544" fill="none" stroke="#f5d23a" stroke-width="3" opacity="0.7"/>
  <rect x="20" y="440" width="360" height="100" fill="#000" opacity="0.55"/>
  <text x="200" y="475" font-family="sans-serif" font-size="22" font-weight="bold" text-anchor="middle" fill="#3acf5c">Graffiti Queen</text>
  <text x="200" y="500" font-family="sans-serif" font-size="11" text-anchor="middle" fill="#f5d23a" letter-spacing="3">BOOM-BAP 1990S</text>
  <text x="200" y="525" font-family="sans-serif" font-size="10" text-anchor="middle" fill="#ffffff" opacity="0.7" letter-spacing="2">RARE</text>
</svg>