<svg xmlns="http://www.w3.org/2000/svg" viewBox="0 0 400 560" preserveAspectRatio="xMidYMid slice">
  <defs>
    <linearGradient id="bg" x1="0" y1="0" x2="0" y2="1">
      <stop offset="0" stop-color="#1a0533"/>
      <stop offset="1" stop-color="#3d0f5c"/>
    </linearGradient>
    <radialGradient id="glow" cx="50%" cy="42%" r="50%">
      <stop offset="0" stop-color="#e94ec7" stop-opacity="0.55"/>
      <stop offset="0.5" stop-color="#e94ec7" stop-opacity="0.12"/>
      <stop offset="1" stop-color="#e94ec7" stop-opacity="0"/>
    </radialGradient>
  </defs>
  <rect width="400" height="560" fill="url(#bg)"/>
  <rect width="400" height="560" fill="url(#glow)"/>
  <circle cx="389.5" cy="493.6" r="0.7" fill="#ff9f43" opacity="0.42"/><circle cx="176.8" cy="482.1" r="1.8" fill="#ff9f43" opacity="0.44"/><circle cx="71.1" cy="426.9" r="1.1" fill="#ff9f43" opacity="0.46"/><circle cx="186.0" cy="341.7" r="1.0" fill="#ff9f43" opacity="0.41"/><circle cx="220.2" cy="530.7" r="0.5" fill="#ff9f43" opacity="0.51"/><circle cx="346.6" cy="406.4" r="0.9" fill="#ff9f43" opacity="0.44"/><circle cx="367.6" cy="480.2" r="0.8" fill="#ff9f43" opacity="0.21"/><circle cx="337.6" cy="247.5" r="1.2" fill="#ff9f43" opacity="0.52"/><circle cx="251.6" cy="365.1" r="1.5" fill="#ff9f43" opacity="0.29"/><circle cx="1.1" cy="162.3" r="1.2" fill="#ff9f43" opacity="0.67"/><circle cx="395.8" cy="5.7" r="1.8" fill="#ff9f43" opacity="0.28"/><circle cx="53.0" cy="116.4" r="0.8" fill="#ff9f43" opacity="0.34"/><circle cx="153.1" cy="321.6" r="1.8" fill="#ff9f43" opacity="0.60"/><circle cx="261.4" cy="178.7" r="1.8" fill="#ff9f43" opacity="0.63"/><circle cx="17.4" cy="33.6" r="1.5" fill="#ff9f43" opacity="0.43"/><circle cx="290.3" cy="211.1" r="2.0" fill="#ff9f43" opacity="0.35"/><circle cx="201.0" cy="19.9" r="0.8" fill="#ff9f43" opacity="0.42"/><circle cx="11.3" cy="490.1" r="1.4" fill="#ff9f43" opacity="0.39"/><circle cx="279.3" cy="204.4" r="1.3" fill="#ff9f43" opacity="0.25"/><circle cx="81.4" cy="462.6" r="1.3" fill="#ff9f43" opacity="0.46"/><circle cx="301.6" cy="179.2" r="1.6" fill="#ff9f43" opacity="0.55"/><circle cx="386.8" cy="114.8" r="0.7" fill="#ff9f43" opacity="0.63"/><circle cx="169.2" cy="200.1" r="1.1" fill="#ff9f43" opacity="0.59"/><circle cx="354.8" cy="34.2" r="1.5" fill="#ff9f43" opacity="0.25"/><circle cx="79.6" cy="315.4" r="1.2" fill="#ff9f43" opacity="0.33"/><circle cx="331.1" cy="165.7" r="1.5" fill="#ff9f43" opacity="0.65"/><circle cx="37.7" cy="428.5" r="0.8" fill="#ff9f43" opacity="0.33"/><circle cx="24.2" cy="59.8" r="0.8" fill="#ff9f43" opacity="0.67"/><circle cx="33.7" cy="172.8" r="1.7" fill="#ff9f43" opacity="0.47"/><circle cx="16.9" cy="55.4" r="1.8" fill="#ff9f43" opacity="0.60"/><circle cx="87.3" cy="281.3" r="0.5" fill="#ff9f43" opacity="0.49"/><circle cx="343.7" cy="34.8" r="1.4" fill="#ff9f43" opacity="0.38"/><circle cx="159.0" cy="408.2" r="1.1" fill="#ff9f43" opacity="0.41"/><circle cx="135.6" cy="233.1" r="1.3" fill="#ff9f43" opacity="0.63"/><circle cx="327.8" cy="124.8" r="1.6" fill="#ff9f43" opacity="0.21"/><circle cx="330.7" cy="180.2" r="1.2" fill="#ff9f43" opacity="0.59"/><circle cx="35.7" cy="288.6" r="1.3" fill="#ff9f43" opacity="0.42"/><circle cx="252.6" cy="256.4" r="1.7" fill="#ff9f43" opacity="0.31"/><circle cx="398.8" cy="304.9" r="1.5" fill="#ff9f43" opacity="0.48"/><circle cx="54.4" cy="261.1" r="1.4" fill="#ff9f43" opacity="0.69"/>
  <circle cx="200" cy="240" r="60.6031207133059" fill="none" stroke="#e94ec7" stroke-opacity="0.08" stroke-width="1.8290809327846365"/><circle cx="200" cy="240" r="88.81759259259259" fill="none" stroke="#e94ec7" stroke-opacity="0.12" stroke-width="2.0298182441700963"/><circle cx="200" cy="240" r="107.04852537722908" fill="none" stroke="#e94ec7" stroke-opacity="0.16" stroke-width="2.0062757201646093"/><circle cx="200" cy="240" r="133.1724622770919" fill="none" stroke="#e94ec7" stroke-opacity="0.20" stroke-width="1.1905521262002743"/><circle cx="200" cy="240" r="150.99187242798354" fill="none" stroke="#e94ec7" stroke-opacity="0.24" stroke-width="2.27400548696845"/>
  <text x="200" y="270" font-family="sans-serif" font-size="140" text-anchor="middle" fill="#ff9f43" opacity="0.85">🪩</text>
  <rect x="4" y="4" width="392" height="552" fill="none" stroke="#e94ec7" stroke-width="1.5" opacity="0.7"/>
  <rect x="20" y="440" width="360" height="100" fill="#000" opacity="0.55"/>
  <text x="200" y="475" font-family="sans-serif" font-size="22" font-weight="bold" text-anchor="middle" fill="#ff9f43">Soul Rider</text>
  <text x="200" y="500" font-family="sans-serif" font-size="11" text-anchor="middle" fill="#e94ec7" letter-spacing="3">COSMIC 1970S</text>
  <text x="200" y="525" font-family="sans-serif" font-size="10" text-anchor="middle" fill="#ffffff" opacity="0.7" letter-spacing="2">COMMON</text>
</svg>