<svg xmlns="http://www.w3.org/2000/svg" viewBox="0 0 400 560" preserveAspectRatio="xMidYMid slice">
  <defs>
    <linearGradient id="bg" x1="0" y1="0" x2="0" y2="1">
      <stop offset="0" stop-color="#0a0a0a"/>
      <stop offset="1" stop-color="#1f1f1f"/>
    </linearGradient>
    <radialGradient id="glow" cx="50%" cy="42%" r="50%">
      <stop offset="0" stop-color="#c9a84c" stop-opacity="0.55"/>
      <stop offset="0.5" stop-color="#c9a84c" stop-opacity="0.12"/>
      <stop offset="1" stop-color="#c9a84c" stop-opacity="0"/>
    </radialGradient>
  </defs>
  <rect width="400" height="560" fill="url(#bg)"/>
  <rect width="400" height="560" fill="url(#glow)"/>
  <circle cx="287.3" cy="312.1" r="0.7" fill="#f0d78c" opacity="0.26"/><circle cx="298.1" cy="260.8" r="1.4" fill="#f0d78c" opacity="0.44"/><circle cx="208.4" cy="311.0" r="0.8" fill="#f0d78c" opacity="0.54"/><circle cx="176.4" cy="165.3" r="1.1" fill="#f0d78c" opacity="0.53"/><circle cx="78.5" cy="3.5" r="1.4" fill="#f0d78c" opacity="0.36"/><circle cx="398.7" cy="420.1" r="0.6" fill="#f0d78c" opacity="0.58"/><circle cx="183.9" cy="495.7" r="1.6" fill="#f0d78c" opacity="0.28"/><circle cx="66.3" cy="161.0" r="0.9" fill="#f0d78c" opacity="0.37"/><circle cx="351.9" cy="135.1" r="1.7" fill="#f0d78c" opacity="0.66"/><circle cx="176.7" cy="556.4" r="1.7" fill="#f0d78c" opacity="0.35"/><circle cx="128.1" cy="546.6" r="0.9" fill="#f0d78c" opacity="0.30"/><circle cx="334.8" cy="389.4" r="0.6" fill="#f0d78c" opacity="0.60"/><circle cx="21.2" cy="160.8" r="1.0" fill="#f0d78c" opacity="0.57"/><circle cx="130.8" cy="413.8" r="0.8" fill="#f0d78c" opacity="0.49"/><circle cx="213.9" cy="436.3" r="1.2" fill="#f0d78c" opacity="0.25"/><circle cx="384.4" cy="242.2" r="1.8" fill="#f0d78c" opacity="0.27"/><circle cx="340.8" cy="135.7" r="1.6" fill="#f0d78c" opacity="0.28"/><circle cx="256.1" cy="89.1" r="1.7" fill="#f0d78c" opacity="0.44"/><circle cx="332.6" cy="54.0" r="0.8" fill="#f0d78c" opacity="0.28"/><circle cx="224.9" cy="85.8" r="1.4" fill="#f0d78c" opacity="0.49"/><circle cx="327.8" cy="281.1" r="1.4" fill="#f0d78c" opacity="0.50"/><circle cx="132.8" cy="529.5" r="1.8" fill="#f0d78c" opacity="0.45"/><circle cx="49.7" cy="77.3" r="1.1" fill="#f0d78c" opacity="0.46"/><circle cx="295.9" cy="265.8" r="1.3" fill="#f0d78c" opacity="0.26"/><circle cx="51.5" cy="362.1" r="1.5" fill="#f0d78c" opacity="0.59"/><circle cx="82.0" cy="483.7" r="1.8" fill="#f0d78c" opacity="0.52"/><circle cx="26.9" cy="416.4" r="1.1" fill="#f0d78c" opacity="0.56"/><circle cx="355.3" cy="485.0" r="0.8" fill="#f0d78c" opacity="0.55"/><circle cx="188.3" cy="558.2" r="1.4" fill="#f0d78c" opacity="0.51"/><circle cx="187.5" cy="546.2" r="1.6" fill="#f0d78c" opacity="0.22"/><circle cx="111.0" cy="151.6" r="0.7" fill="#f0d78c" opacity="0.66"/><circle cx="235.3" cy="114.2" r="0.9" fill="#f0d78c" opacity="0.26"/><circle cx="244.4" cy="468.6" r="0.9" fill="#f0d78c" opacity="0.60"/><circle cx="385.2" cy="295.3" r="0.8" fill="#f0d78c" opacity="0.24"/><circle cx="89.8" cy="85.0" r="1.4" fill="#f0d78c" opacity="0.60"/><circle cx="64.3" cy="557.0" r="1.5" fill="#f0d78c" opacity="0.51"/><circle cx="244.6" cy="169.3" r="1.9" fill="#f0d78c" opacity="0.65"/><circle cx="18.3" cy="284.0" r="0.9" fill="#f0d78c" opacity="0.37"/><circle cx="313.9" cy="64.6" r="1.4" fill="#f0d78c" opacity="0.29"/><circle cx="355.9" cy="147.0" r="0.6" fill="#f0d78c" opacity="0.70"/>
  <circle cx="200" cy="240" r="61.90486968449932" fill="none" stroke="#c9a84c" stroke-opacity="0.08" stroke-width="2.7208762002743487"/><circle cx="200" cy="240" r="83.16872427983539" fill="none" stroke="#c9a84c" stroke-opacity="0.12" stroke-width="2.9987740054869683"/><circle cx="200" cy="240" r="108.0786694101509" fill="none" stroke="#c9a84c" stroke-opacity="0.16" stroke-width="1.3486882716049382"/><circle cx="200" cy="240" r="132.28902606310012" fill="none" stroke="#c9a84c" stroke-opacity="0.20" stroke-width="2.9804955418381347"/><circle cx="200" cy="240" r="152.04670781893003" fill="none" stroke="#c9a84c" stroke-opacity="0.24" stroke-width="1.0299982853223595"/>
  <text x="200" y="270" font-family="serif" font-size="140" text-anchor="middle" fill="#f0d78c" opacity="0.85">🎷</text>
  <rect x="4" y="4" width="392" height="552" fill="none" stroke="#c9a84c" stroke-width="1.5" opacity="0.7"/>
  <rect x="20" y="440" width="360" height="100" fill="#000" opacity="0.55"/>
  <text x="200" y="475" font-family="serif" font-size="22" font-weight="bold" text-anchor="middle" fill="#f0d78c">Onyx Gunner</text>
  <text x="200" y="500" font-family="sans-serif" font-size="11" text-anchor="middle" fill="#c9a84c" letter-spacing="3">ROARING 1920S</text>
  <text x="200" y="525" font-family="sans-serif" font-size="10" text-anchor="middle" fill="#ffffff" opacity="0.7" letter-spacing="2">COMMON</text>
</svg>