<svg xmlns="http://www.w3.org/2000/svg" viewBox="0 0 400 560" preserveAspectRatio="xMidYMid slice">
  <defs>
    <linearGradient id="bg" x1="0" y1="0" x2="0" y2="1">
      <stop offset="0" stop-color="#1a0f04"/>
      <stop offset="1" stop-color="#3d2410"/>
    </linearGradient>
    <radialGradient id="glow" cx="50%" cy="42%" r="50%">
      <stop offset="0" stop-color="#d4a84c" stop-opacity="0.55"/>
      <stop offset="0.5" stop-color="#d4a84c" stop-opacity="0.12"/>
      <stop offset="1" stop-color="#d4a84c" stop-opacity="0"/>
    </radialGradient>
  </defs>
  <rect width="400" height="560" fill="url(#bg)"/>
  <rect width="400" height="560" fill="url(#glow)"/>
  <circle cx="151.1" cy="70.0" r="0.6" fill="#f5d77a" opacity="0.21"/><circle cx="59.8" cy="525.8" r="0.8" fill="#f5d77a" opacity="0.45"/><circle cx="258.2" cy="156.6" r="1.4" fill="#f5d77a" opacity="0.49"/><circle cx="296.9" cy="490.2" r="0.7" fill="#f5d77a" opacity="0.69"/><circle cx="289.5" cy="420.6" r="1.1" fill="#f5d77a" opacity="0.49"/><circle cx="334.9" cy="251.8" r="1.7" fill="#f5d77a" opacity="0.60"/><circle cx="205.7" cy="516.3" r="0.6" fill="#f5d77a" opacity="0.21"/><circle cx="104.5" cy="45.7" r="1.1" fill="#f5d77a" opacity="0.33"/><circle cx="85.6" cy="15.2" r="1.0" fill="#f5d77a" opacity="0.65"/><circle cx="144.1" cy="521.7" r="1.3" fill="#f5d77a" opacity="0.60"/><circle cx="171.3" cy="334.6" r="1.7" fill="#f5d77a" opacity="0.33"/><circle cx="177.1" cy="380.1" r="1.7" fill="#f5d77a" opacity="0.45"/><circle cx="378.8" cy="319.7" r="0.8" fill="#f5d77a" opacity="0.70"/><circle cx="356.6" cy="540.4" r="0.8" fill="#f5d77a" opacity="0.30"/><circle cx="76.0" cy="39.8" r="1.9" fill="#f5d77a" opacity="0.35"/><circle cx="376.5" cy="283.6" r="1.6" fill="#f5d77a" opacity="0.33"/><circle cx="127.2" cy="476.7" r="1.1" fill="#f5d77a" opacity="0.60"/><circle cx="49.0" cy="487.7" r="1.0" fill="#f5d77a" opacity="0.67"/><circle cx="3.8" cy="226.8" r="1.6" fill="#f5d77a" opacity="0.33"/><circle cx="149.5" cy="516.6" r="0.5" fill="#f5d77a" opacity="0.54"/><circle cx="362.7" cy="417.0" r="1.6" fill="#f5d77a" opacity="0.26"/><circle cx="327.4" cy="522.5" r="1.9" fill="#f5d77a" opacity="0.53"/><circle cx="290.4" cy="473.6" r="1.6" fill="#f5d77a" opacity="0.46"/><circle cx="83.9" cy="201.2" r="1.6" fill="#f5d77a" opacity="0.43"/><circle cx="14.0" cy="424.2" r="0.5" fill="#f5d77a" opacity="0.28"/><circle cx="16.5" cy="161.0" r="0.7" fill="#f5d77a" opacity="0.69"/><circle cx="279.1" cy="213.5" r="0.5" fill="#f5d77a" opacity="0.53"/><circle cx="130.2" cy="305.2" r="1.4" fill="#f5d77a" opacity="0.39"/><circle cx="394.4" cy="512.1" r="1.9" fill="#f5d77a" opacity="0.58"/><circle cx="15.0" cy="267.3" r="0.9" fill="#f5d77a" opacity="0.39"/><circle cx="142.6" cy="538.7" r="1.0" fill="#f5d77a" opacity="0.21"/><circle cx="90.8" cy="220.2" r="1.8" fill="#f5d77a" opacity="0.44"/><circle cx="358.4" cy="175.9" r="0.8" fill="#f5d77a" opacity="0.34"/><circle cx="318.1" cy="378.2" r="2.0" fill="#f5d77a" opacity="0.56"/><circle cx="172.5" cy="218.6" r="1.3" fill="#f5d77a" opacity="0.63"/><circle cx="375.8" cy="312.6" r="1.0" fill="#f5d77a" opacity="0.22"/><circle cx="123.2" cy="196.9" r="0.7" fill="#f5d77a" opacity="0.28"/><circle cx="105.9" cy="320.8" r="1.3" fill="#f5d77a" opacity="0.45"/><circle cx="334.0" cy="490.8" r="1.3" fill="#f5d77a" opacity="0.36"/><circle cx="224.6" cy="368.2" r="1.2" fill="#f5d77a" opacity="0.21"/>
  <circle cx="200" cy="240" r="60.973868312757205" fill="none" stroke="#d4a84c" stroke-opacity="0.08" stroke-width="1.9099365569272977"/><circle cx="200" cy="240" r="88.97023319615913" fill="none" stroke="#d4a84c" stroke-opacity="0.12" stroke-width="2.9573816872427985"/><circle cx="200" cy="240" r="104.11886145404664" fill="none" stroke="#d4a84c" stroke-opacity="0.16" stroke-width="1.805238340192044"/><circle cx="200" cy="240" r="133.77777777777777" fill="none" stroke="#d4a84c" stroke-opacity="0.20" stroke-width="2.700420096021948"/><circle cx="200" cy="240" r="148.11982167352537" fill="none" stroke="#d4a84c" stroke-opacity="0.24" stroke-width="2.0379886831275718"/>
  <text x="200" y="270" font-family="serif" font-size="140" text-anchor="middle" fill="#f5d77a" opacity="0.85">☥</text>
  <rect x="4" y="4" width="392" height="552" fill="none" stroke="#d4a84c" stroke-width="1.5" opacity="0.7"/>
  <rect x="20" y="440" width="360" height="100" fill="#000" opacity="0.55"/>
  <text x="200" y="475" font-family="serif" font-size="22" font-weight="bold" text-anchor="middle" fill="#f5d77a">Gold Cobra</text>
  <text x="200" y="500" font-family="sans-serif" font-size="11" text-anchor="middle" fill="#d4a84c" letter-spacing="3">DYNASTY</text>
  <text x="200" y="525" font-family="sans-serif" font-size="10" text-anchor="middle" fill="#ffffff" opacity="0.7" letter-spacing="2">COMMON</text>
</svg>