<svg xmlns="http://www.w3.org/2000/svg" viewBox="0 0 400 560" preserveAspectRatio="xMidYMid slice">
  <defs>
    <linearGradient id="bg" x1="0" y1="0" x2="0" y2="1">
      <stop offset="0" stop-color="#1a0533"/>
      <stop offset="1" stop-color="#3d0f5c"/>
    </linearGradient>
    <radialGradient id="glow" cx="50%" cy="42%" r="50%">
      <stop offset="0" stop-color="#e94ec7" stop-opacity="0.55"/>
      <stop offset="0.5" stop-color="#e94ec7" stop-opacity="0.12"/>
      <stop offset="1" stop-color="#e94ec7" stop-opacity="0"/>
    </radialGradient>
  </defs>
  <rect width="400" height="560" fill="url(#bg)"/>
  <rect width="400" height="560" fill="url(#glow)"/>
  <circle cx="223.0" cy="502.2" r="1.6" fill="#ff9f43" opacity="0.47"/><circle cx="56.8" cy="92.7" r="1.0" fill="#ff9f43" opacity="0.36"/><circle cx="140.8" cy="192.4" r="1.8" fill="#ff9f43" opacity="0.55"/><circle cx="396.0" cy="110.1" r="1.5" fill="#ff9f43" opacity="0.54"/><circle cx="284.1" cy="315.8" r="1.8" fill="#ff9f43" opacity="0.62"/><circle cx="363.1" cy="512.4" r="2.0" fill="#ff9f43" opacity="0.24"/><circle cx="109.7" cy="319.4" r="1.3" fill="#ff9f43" opacity="0.38"/><circle cx="7.7" cy="331.6" r="1.4" fill="#ff9f43" opacity="0.57"/><circle cx="304.0" cy="189.4" r="0.7" fill="#ff9f43" opacity="0.41"/><circle cx="30.8" cy="383.6" r="0.5" fill="#ff9f43" opacity="0.30"/><circle cx="294.2" cy="513.3" r="0.7" fill="#ff9f43" opacity="0.56"/><circle cx="230.1" cy="156.7" r="0.6" fill="#ff9f43" opacity="0.40"/><circle cx="26.0" cy="115.9" r="1.7" fill="#ff9f43" opacity="0.65"/><circle cx="210.4" cy="114.2" r="0.8" fill="#ff9f43" opacity="0.43"/><circle cx="8.0" cy="227.8" r="1.1" fill="#ff9f43" opacity="0.53"/><circle cx="362.0" cy="449.7" r="1.3" fill="#ff9f43" opacity="0.26"/><circle cx="22.9" cy="67.8" r="1.2" fill="#ff9f43" opacity="0.49"/><circle cx="304.4" cy="215.9" r="1.7" fill="#ff9f43" opacity="0.65"/><circle cx="105.3" cy="78.3" r="1.9" fill="#ff9f43" opacity="0.46"/><circle cx="398.4" cy="187.2" r="1.4" fill="#ff9f43" opacity="0.60"/><circle cx="186.1" cy="494.4" r="1.9" fill="#ff9f43" opacity="0.58"/><circle cx="322.7" cy="495.0" r="1.5" fill="#ff9f43" opacity="0.59"/><circle cx="3.5" cy="285.9" r="0.8" fill="#ff9f43" opacity="0.57"/><circle cx="319.6" cy="316.5" r="1.3" fill="#ff9f43" opacity="0.66"/><circle cx="80.9" cy="393.2" r="0.9" fill="#ff9f43" opacity="0.48"/><circle cx="304.8" cy="177.2" r="0.6" fill="#ff9f43" opacity="0.25"/><circle cx="171.5" cy="55.7" r="0.7" fill="#ff9f43" opacity="0.22"/><circle cx="46.5" cy="146.3" r="1.3" fill="#ff9f43" opacity="0.46"/><circle cx="369.2" cy="234.5" r="1.6" fill="#ff9f43" opacity="0.46"/><circle cx="8.7" cy="85.3" r="1.2" fill="#ff9f43" opacity="0.59"/><circle cx="86.1" cy="127.5" r="0.7" fill="#ff9f43" opacity="0.37"/><circle cx="63.1" cy="271.0" r="1.9" fill="#ff9f43" opacity="0.55"/><circle cx="97.8" cy="218.6" r="0.9" fill="#ff9f43" opacity="0.62"/><circle cx="66.5" cy="150.1" r="1.5" fill="#ff9f43" opacity="0.53"/><circle cx="53.4" cy="100.1" r="0.9" fill="#ff9f43" opacity="0.34"/><circle cx="305.3" cy="268.9" r="0.7" fill="#ff9f43" opacity="0.62"/><circle cx="254.3" cy="27.6" r="1.8" fill="#ff9f43" opacity="0.29"/><circle cx="206.6" cy="95.1" r="1.3" fill="#ff9f43" opacity="0.66"/><circle cx="98.0" cy="49.6" r="1.5" fill="#ff9f43" opacity="0.44"/><circle cx="116.2" cy="133.2" r="1.0" fill="#ff9f43" opacity="0.47"/>
  <circle cx="200" cy="240" r="60.92208504801097" fill="none" stroke="#e94ec7" stroke-opacity="0.08" stroke-width="1.500900205761317"/><circle cx="200" cy="240" r="87.18182441700961" fill="none" stroke="#e94ec7" stroke-opacity="0.12" stroke-width="2.4598679698216737"/><circle cx="200" cy="240" r="106.61851851851851" fill="none" stroke="#e94ec7" stroke-opacity="0.16" stroke-width="2.1328275034293553"/><circle cx="200" cy="240" r="129.40500685871055" fill="none" stroke="#e94ec7" stroke-opacity="0.20" stroke-width="2.914840534979424"/><circle cx="200" cy="240" r="149.4178326474623" fill="none" stroke="#e94ec7" stroke-opacity="0.24" stroke-width="2.238005829903978"/>
  <text x="200" y="270" font-family="sans-serif" font-size="140" text-anchor="middle" fill="#ff9f43" opacity="0.85">🪩</text>
  <rect x="4" y="4" width="392" height="552" fill="none" stroke="#e94ec7" stroke-width="1.5" opacity="0.7"/>
  <rect x="20" y="440" width="360" height="100" fill="#000" opacity="0.55"/>
  <text x="200" y="475" font-family="sans-serif" font-size="22" font-weight="bold" text-anchor="middle" fill="#ff9f43">Roller Empress</text>
  <text x="200" y="500" font-family="sans-serif" font-size="11" text-anchor="middle" fill="#e94ec7" letter-spacing="3">COSMIC 1970S</text>
  <text x="200" y="525" font-family="sans-serif" font-size="10" text-anchor="middle" fill="#ffffff" opacity="0.7" letter-spacing="2">COMMON</text>
</svg>