<svg xmlns="http://www.w3.org/2000/svg" viewBox="0 0 400 560" preserveAspectRatio="xMidYMid slice">
  <defs>
    <linearGradient id="bg" x1="0" y1="0" x2="0" y2="1">
      <stop offset="0" stop-color="#0a1a0f"/>
      <stop offset="1" stop-color="#1a3d24"/>
    </linearGradient>
    <radialGradient id="glow" cx="50%" cy="42%" r="50%">
      <stop offset="0" stop-color="#f5d23a" stop-opacity="0.55"/>
      <stop offset="0.5" stop-color="#f5d23a" stop-opacity="0.12"/>
      <stop offset="1" stop-color="#f5d23a" stop-opacity="0"/>
    </radialGradient>
  </defs>
  <rect width="400" height="560" fill="url(#bg)"/>
  <rect width="400" height="560" fill="url(#glow)"/>
  <circle cx="297.0" cy="174.0" r="0.8" fill="#3acf5c" opacity="0.51"/><circle cx="185.9" cy="457.0" r="1.5" fill="#3acf5c" opacity="0.51"/><circle cx="349.7" cy="205.2" r="0.8" fill="#3acf5c" opacity="0.61"/><circle cx="28.0" cy="324.6" r="0.6" fill="#3acf5c" opacity="0.31"/><circle cx="89.7" cy="19.9" r="0.8" fill="#3acf5c" opacity="0.47"/><circle cx="56.0" cy="279.8" r="1.9" fill="#3acf5c" opacity="0.60"/><circle cx="188.6" cy="454.4" r="1.1" fill="#3acf5c" opacity="0.48"/><circle cx="245.4" cy="246.5" r="0.7" fill="#3acf5c" opacity="0.57"/><circle cx="103.1" cy="395.8" r="1.4" fill="#3acf5c" opacity="0.35"/><circle cx="245.5" cy="376.8" r="2.0" fill="#3acf5c" opacity="0.35"/><circle cx="119.7" cy="390.1" r="0.8" fill="#3acf5c" opacity="0.66"/><circle cx="357.6" cy="366.6" r="1.9" fill="#3acf5c" opacity="0.69"/><circle cx="65.4" cy="465.2" r="1.0" fill="#3acf5c" opacity="0.26"/><circle cx="379.1" cy="264.2" r="1.9" fill="#3acf5c" opacity="0.56"/><circle cx="286.1" cy="5.6" r="1.4" fill="#3acf5c" opacity="0.46"/><circle cx="315.0" cy="532.8" r="0.9" fill="#3acf5c" opacity="0.54"/><circle cx="90.3" cy="241.9" r="0.6" fill="#3acf5c" opacity="0.62"/><circle cx="155.4" cy="246.0" r="0.8" fill="#3acf5c" opacity="0.48"/><circle cx="60.8" cy="393.0" r="1.1" fill="#3acf5c" opacity="0.52"/><circle cx="320.1" cy="136.7" r="1.0" fill="#3acf5c" opacity="0.65"/><circle cx="232.1" cy="341.3" r="1.1" fill="#3acf5c" opacity="0.60"/><circle cx="369.6" cy="419.1" r="1.0" fill="#3acf5c" opacity="0.54"/><circle cx="135.1" cy="321.8" r="0.9" fill="#3acf5c" opacity="0.50"/><circle cx="382.8" cy="104.7" r="1.9" fill="#3acf5c" opacity="0.65"/><circle cx="308.0" cy="424.5" r="1.7" fill="#3acf5c" opacity="0.43"/><circle cx="201.9" cy="50.7" r="1.5" fill="#3acf5c" opacity="0.49"/><circle cx="74.3" cy="469.6" r="1.1" fill="#3acf5c" opacity="0.45"/><circle cx="142.7" cy="222.5" r="1.2" fill="#3acf5c" opacity="0.53"/><circle cx="387.2" cy="256.5" r="0.7" fill="#3acf5c" opacity="0.47"/><circle cx="373.3" cy="129.3" r="1.3" fill="#3acf5c" opacity="0.35"/><circle cx="140.4" cy="186.4" r="1.9" fill="#3acf5c" opacity="0.66"/><circle cx="157.7" cy="192.8" r="1.0" fill="#3acf5c" opacity="0.26"/><circle cx="346.2" cy="17.1" r="1.9" fill="#3acf5c" opacity="0.67"/><circle cx="167.7" cy="129.6" r="2.0" fill="#3acf5c" opacity="0.66"/><circle cx="180.1" cy="232.8" r="1.9" fill="#3acf5c" opacity="0.20"/><circle cx="260.0" cy="506.5" r="0.9" fill="#3acf5c" opacity="0.25"/><circle cx="91.3" cy="425.3" r="0.8" fill="#3acf5c" opacity="0.36"/><circle cx="321.0" cy="189.7" r="1.4" fill="#3acf5c" opacity="0.62"/><circle cx="381.1" cy="290.6" r="0.9" fill="#3acf5c" opacity="0.43"/><circle cx="177.8" cy="327.0" r="0.9" fill="#3acf5c" opacity="0.61"/><circle cx="47.0" cy="437.1" r="0.6" fill="#3acf5c" opacity="0.36"/><circle cx="176.3" cy="302.9" r="1.4" fill="#3acf5c" opacity="0.53"/><circle cx="294.0" cy="207.9" r="1.8" fill="#3acf5c" opacity="0.22"/><circle cx="25.0" cy="228.2" r="1.8" fill="#3acf5c" opacity="0.24"/><circle cx="312.2" cy="356.7" r="1.8" fill="#3acf5c" opacity="0.39"/><circle cx="306.5" cy="441.5" r="1.4" fill="#3acf5c" opacity="0.54"/><circle cx="121.4" cy="496.3" r="1.7" fill="#3acf5c" opacity="0.61"/><circle cx="255.6" cy="265.3" r="1.6" fill="#3acf5c" opacity="0.34"/><circle cx="82.0" cy="280.9" r="0.8" fill="#3acf5c" opacity="0.39"/><circle cx="203.0" cy="494.7" r="1.1" fill="#3acf5c" opacity="0.29"/><circle cx="273.0" cy="402.1" r="1.9" fill="#3acf5c" opacity="0.22"/><circle cx="287.1" cy="99.7" r="1.0" fill="#3acf5c" opacity="0.61"/><circle cx="136.5" cy="36.9" r="1.2" fill="#3acf5c" opacity="0.62"/><circle cx="231.2" cy="20.3" r="0.6" fill="#3acf5c" opacity="0.35"/><circle cx="388.4" cy="271.0" r="1.5" fill="#3acf5c" opacity="0.54"/><circle cx="188.5" cy="56.1" r="1.4" fill="#3acf5c" opacity="0.43"/><circle cx="396.8" cy="53.3" r="1.8" fill="#3acf5c" opacity="0.59"/><circle cx="252.8" cy="48.2" r="1.8" fill="#3acf5c" opacity="0.51"/><circle cx="225.7" cy="365.7" r="1.2" fill="#3acf5c" opacity="0.55"/><circle cx="236.4" cy="314.5" r="1.9" fill="#3acf5c" opacity="0.24"/><circle cx="146.8" cy="364.7" r="1.3" fill="#3acf5c" opacity="0.34"/><circle cx="114.7" cy="219.0" r="1.6" fill="#3acf5c" opacity="0.33"/><circle cx="16.8" cy="57.2" r="2.0" fill="#3acf5c" opacity="0.66"/><circle cx="337.0" cy="473.8" r="1.1" fill="#3acf5c" opacity="0.38"/><circle cx="122.3" cy="549.3" r="0.6" fill="#3acf5c" opacity="0.58"/><circle cx="4.6" cy="214.7" r="1.5" fill="#3acf5c" opacity="0.66"/><circle cx="290.3" cy="188.8" r="0.7" fill="#3acf5c" opacity="0.46"/><circle cx="115.0" cy="50.0" r="0.7" fill="#3acf5c" opacity="0.65"/><circle cx="66.5" cy="40.3" r="1.4" fill="#3acf5c" opacity="0.60"/><circle cx="273.1" cy="443.1" r="1.1" fill="#3acf5c" opacity="0.40"/>
  <circle cx="200" cy="240" r="61.85308641975308" fill="none" stroke="#f5d23a" stroke-opacity="0.08" stroke-width="2.3118398491083676"/><circle cx="200" cy="240" r="89.38031550068587" fill="none" stroke="#f5d23a" stroke-opacity="0.12" stroke-width="2.5012602880658434"/><circle cx="200" cy="240" r="110.57832647462277" fill="none" stroke="#f5d23a" stroke-opacity="0.16" stroke-width="1.6762774348422496"/><circle cx="200" cy="240" r="127.91625514403292" fill="none" stroke="#f5d23a" stroke-opacity="0.20" stroke-width="1.1949159807956105"/><circle cx="200" cy="240" r="153.34471879286693" fill="none" stroke="#f5d23a" stroke-opacity="0.24" stroke-width="1.2300154320987655"/><circle cx="200" cy="240" r="177.1847050754458" fill="none" stroke="#f5d23a" stroke-opacity="0.28" stroke-width="1.6581189986282578"/><circle cx="200" cy="240" r="198.34979423868313" fill="none" stroke="#f5d23a" stroke-opacity="0.32" stroke-width="2.281695816186557"/><circle cx="200" cy="240" r="219.9017146776406" fill="none" stroke="#f5d23a" stroke-opacity="0.36" stroke-width="2.384696502057613"/>
  <text x="200" y="270" font-family="sans-serif" font-size="140" text-anchor="middle" fill="#3acf5c" opacity="0.85">🎤</text>
  <rect x="16" y="16" width="368" height="528" fill="none" stroke="#f5d23a" stroke-width="6" opacity="0.7"/>
  <rect x="20" y="440" width="360" height="100" fill="#000" opacity="0.55"/>
  <text x="200" y="475" font-family="sans-serif" font-size="22" font-weight="bold" text-anchor="middle" fill="#3acf5c">Turntable Titan</text>
  <text x="200" y="500" font-family="sans-serif" font-size="11" text-anchor="middle" fill="#f5d23a" letter-spacing="3">BOOM-BAP 1990S</text>
  <text x="200" y="525" font-family="sans-serif" font-size="10" text-anchor="middle" fill="#ffffff" opacity="0.7" letter-spacing="2">LEGENDARY</text>
</svg>