<svg xmlns="http://www.w3.org/2000/svg" viewBox="0 0 400 560" preserveAspectRatio="xMidYMid slice">
  <defs>
    <linearGradient id="bg" x1="0" y1="0" x2="0" y2="1">
      <stop offset="0" stop-color="#050a1a"/>
      <stop offset="1" stop-color="#0f1f3d"/>
    </linearGradient>
    <radialGradient id="glow" cx="50%" cy="42%" r="50%">
      <stop offset="0" stop-color="#3acff5" stop-opacity="0.55"/>
      <stop offset="0.5" stop-color="#3acff5" stop-opacity="0.12"/>
      <stop offset="1" stop-color="#3acff5" stop-opacity="0"/>
    </radialGradient>
  </defs>
  <rect width="400" height="560" fill="url(#bg)"/>
  <rect width="400" height="560" fill="url(#glow)"/>
  <circle cx="293.6" cy="270.7" r="1.3" fill="#a855f7" opacity="0.57"/><circle cx="294.5" cy="413.1" r="0.8" fill="#a855f7" opacity="0.64"/><circle cx="387.5" cy="242.0" r="1.0" fill="#a855f7" opacity="0.52"/><circle cx="375.2" cy="269.2" r="0.8" fill="#a855f7" opacity="0.25"/><circle cx="311.9" cy="549.8" r="1.0" fill="#a855f7" opacity="0.52"/><circle cx="192.6" cy="60.8" r="1.2" fill="#a855f7" opacity="0.25"/><circle cx="308.7" cy="371.4" r="0.8" fill="#a855f7" opacity="0.58"/><circle cx="270.1" cy="168.1" r="1.3" fill="#a855f7" opacity="0.65"/><circle cx="294.0" cy="232.1" r="1.7" fill="#a855f7" opacity="0.67"/><circle cx="360.7" cy="390.6" r="1.0" fill="#a855f7" opacity="0.39"/><circle cx="35.7" cy="201.1" r="0.9" fill="#a855f7" opacity="0.38"/><circle cx="158.3" cy="9.3" r="1.9" fill="#a855f7" opacity="0.64"/><circle cx="397.9" cy="140.2" r="0.8" fill="#a855f7" opacity="0.52"/><circle cx="275.3" cy="462.3" r="1.0" fill="#a855f7" opacity="0.54"/><circle cx="52.3" cy="325.8" r="1.5" fill="#a855f7" opacity="0.47"/><circle cx="286.9" cy="553.5" r="1.2" fill="#a855f7" opacity="0.29"/><circle cx="55.7" cy="205.0" r="1.1" fill="#a855f7" opacity="0.46"/><circle cx="242.6" cy="434.9" r="1.3" fill="#a855f7" opacity="0.51"/><circle cx="294.5" cy="323.8" r="1.7" fill="#a855f7" opacity="0.55"/><circle cx="43.5" cy="362.4" r="0.6" fill="#a855f7" opacity="0.46"/><circle cx="195.8" cy="149.9" r="0.9" fill="#a855f7" opacity="0.59"/><circle cx="287.2" cy="384.5" r="1.9" fill="#a855f7" opacity="0.62"/><circle cx="105.4" cy="188.1" r="0.5" fill="#a855f7" opacity="0.40"/><circle cx="178.7" cy="404.2" r="1.2" fill="#a855f7" opacity="0.53"/><circle cx="131.8" cy="548.9" r="1.1" fill="#a855f7" opacity="0.33"/><circle cx="108.0" cy="55.2" r="1.9" fill="#a855f7" opacity="0.59"/><circle cx="57.8" cy="451.1" r="1.9" fill="#a855f7" opacity="0.68"/><circle cx="94.9" cy="70.3" r="2.0" fill="#a855f7" opacity="0.53"/><circle cx="318.0" cy="337.1" r="1.3" fill="#a855f7" opacity="0.38"/><circle cx="99.9" cy="103.9" r="0.8" fill="#a855f7" opacity="0.37"/><circle cx="43.2" cy="442.1" r="0.9" fill="#a855f7" opacity="0.55"/><circle cx="202.1" cy="287.2" r="1.0" fill="#a855f7" opacity="0.59"/><circle cx="171.7" cy="295.9" r="0.5" fill="#a855f7" opacity="0.43"/><circle cx="243.3" cy="357.6" r="0.5" fill="#a855f7" opacity="0.21"/><circle cx="26.9" cy="278.8" r="0.8" fill="#a855f7" opacity="0.56"/><circle cx="139.7" cy="280.6" r="0.5" fill="#a855f7" opacity="0.69"/><circle cx="162.0" cy="190.2" r="1.7" fill="#a855f7" opacity="0.35"/><circle cx="59.2" cy="125.1" r="1.4" fill="#a855f7" opacity="0.62"/><circle cx="270.7" cy="431.1" r="1.8" fill="#a855f7" opacity="0.49"/><circle cx="65.9" cy="313.1" r="1.0" fill="#a855f7" opacity="0.31"/>
  <circle cx="200" cy="240" r="65.04272976680384" fill="none" stroke="#3acff5" stroke-opacity="0.08" stroke-width="1.0300325788751714"/><circle cx="200" cy="240" r="89.02263374485597" fill="none" stroke="#3acff5" stroke-opacity="0.12" stroke-width="2.8017575445816187"/><circle cx="200" cy="240" r="106.27825788751714" fill="none" stroke="#3acff5" stroke-opacity="0.16" stroke-width="2.941795267489712"/><circle cx="200" cy="240" r="130.24170096021948" fill="none" stroke="#3acff5" stroke-opacity="0.20" stroke-width="2.4378000685871055"/><circle cx="200" cy="240" r="153.60432098765432" fill="none" stroke="#3acff5" stroke-opacity="0.24" stroke-width="2.8700188614540467"/>
  <text x="200" y="270" font-family="sans-serif" font-size="140" text-anchor="middle" fill="#a855f7" opacity="0.85">💎</text>
  <rect x="4" y="4" width="392" height="552" fill="none" stroke="#3acff5" stroke-width="1.5" opacity="0.7"/>
  <rect x="20" y="440" width="360" height="100" fill="#000" opacity="0.55"/>
  <text x="200" y="475" font-family="sans-serif" font-size="22" font-weight="bold" text-anchor="middle" fill="#a855f7">Glass Baron</text>
  <text x="200" y="500" font-family="sans-serif" font-size="11" text-anchor="middle" fill="#3acff5" letter-spacing="3">NEON 2020S</text>
  <text x="200" y="525" font-family="sans-serif" font-size="10" text-anchor="middle" fill="#ffffff" opacity="0.7" letter-spacing="2">COMMON</text>
</svg>