<svg xmlns="http://www.w3.org/2000/svg" viewBox="0 0 400 560" preserveAspectRatio="xMidYMid slice">
  <defs>
    <linearGradient id="bg" x1="0" y1="0" x2="0" y2="1">
      <stop offset="0" stop-color="#1a0533"/>
      <stop offset="1" stop-color="#3d0f5c"/>
    </linearGradient>
    <radialGradient id="glow" cx="50%" cy="42%" r="50%">
      <stop offset="0" stop-color="#e94ec7" stop-opacity="0.55"/>
      <stop offset="0.5" stop-color="#e94ec7" stop-opacity="0.12"/>
      <stop offset="1" stop-color="#e94ec7" stop-opacity="0"/>
    </radialGradient>
  </defs>
  <rect width="400" height="560" fill="url(#bg)"/>
  <rect width="400" height="560" fill="url(#glow)"/>
  <circle cx="255.8" cy="459.0" r="1.8" fill="#ff9f43" opacity="0.70"/><circle cx="257.1" cy="360.0" r="0.7" fill="#ff9f43" opacity="0.22"/><circle cx="192.5" cy="244.8" r="1.2" fill="#ff9f43" opacity="0.59"/><circle cx="146.1" cy="148.1" r="2.0" fill="#ff9f43" opacity="0.36"/><circle cx="364.6" cy="270.3" r="1.6" fill="#ff9f43" opacity="0.60"/><circle cx="280.3" cy="542.3" r="1.0" fill="#ff9f43" opacity="0.23"/><circle cx="199.3" cy="3.1" r="1.9" fill="#ff9f43" opacity="0.56"/><circle cx="57.4" cy="471.0" r="0.6" fill="#ff9f43" opacity="0.30"/><circle cx="42.2" cy="507.9" r="1.4" fill="#ff9f43" opacity="0.29"/><circle cx="282.1" cy="397.4" r="1.2" fill="#ff9f43" opacity="0.63"/><circle cx="1.9" cy="215.4" r="1.7" fill="#ff9f43" opacity="0.64"/><circle cx="144.8" cy="515.1" r="1.6" fill="#ff9f43" opacity="0.60"/><circle cx="261.3" cy="24.3" r="0.7" fill="#ff9f43" opacity="0.41"/><circle cx="65.0" cy="436.8" r="1.4" fill="#ff9f43" opacity="0.46"/><circle cx="54.8" cy="377.0" r="1.3" fill="#ff9f43" opacity="0.52"/><circle cx="3.4" cy="377.1" r="1.5" fill="#ff9f43" opacity="0.22"/><circle cx="113.3" cy="388.6" r="0.8" fill="#ff9f43" opacity="0.60"/><circle cx="38.9" cy="467.1" r="1.5" fill="#ff9f43" opacity="0.35"/><circle cx="175.2" cy="149.1" r="1.6" fill="#ff9f43" opacity="0.40"/><circle cx="13.5" cy="444.2" r="0.7" fill="#ff9f43" opacity="0.39"/><circle cx="363.7" cy="38.6" r="1.6" fill="#ff9f43" opacity="0.45"/><circle cx="243.2" cy="273.8" r="2.0" fill="#ff9f43" opacity="0.29"/><circle cx="32.1" cy="416.7" r="0.8" fill="#ff9f43" opacity="0.66"/><circle cx="96.0" cy="25.0" r="1.1" fill="#ff9f43" opacity="0.64"/><circle cx="74.2" cy="4.3" r="0.6" fill="#ff9f43" opacity="0.21"/><circle cx="36.0" cy="119.6" r="1.9" fill="#ff9f43" opacity="0.24"/><circle cx="302.3" cy="239.5" r="1.1" fill="#ff9f43" opacity="0.25"/><circle cx="334.9" cy="274.2" r="1.5" fill="#ff9f43" opacity="0.50"/><circle cx="291.7" cy="486.2" r="0.7" fill="#ff9f43" opacity="0.47"/><circle cx="49.4" cy="495.5" r="1.1" fill="#ff9f43" opacity="0.62"/><circle cx="91.8" cy="336.6" r="1.2" fill="#ff9f43" opacity="0.50"/><circle cx="265.9" cy="209.9" r="1.1" fill="#ff9f43" opacity="0.69"/><circle cx="3.8" cy="46.3" r="1.9" fill="#ff9f43" opacity="0.59"/><circle cx="11.7" cy="4.9" r="0.7" fill="#ff9f43" opacity="0.53"/><circle cx="225.3" cy="223.9" r="1.1" fill="#ff9f43" opacity="0.22"/><circle cx="32.4" cy="385.3" r="1.7" fill="#ff9f43" opacity="0.48"/><circle cx="361.2" cy="212.5" r="0.9" fill="#ff9f43" opacity="0.44"/><circle cx="36.6" cy="341.7" r="1.7" fill="#ff9f43" opacity="0.39"/><circle cx="1.6" cy="205.8" r="1.5" fill="#ff9f43" opacity="0.63"/><circle cx="207.0" cy="212.7" r="1.4" fill="#ff9f43" opacity="0.55"/>
  <circle cx="200" cy="240" r="67.3272633744856" fill="none" stroke="#e94ec7" stroke-opacity="0.08" stroke-width="1.141803840877915"/><circle cx="200" cy="240" r="87.36066529492456" fill="none" stroke="#e94ec7" stroke-opacity="0.12" stroke-width="2.309619341563786"/><circle cx="200" cy="240" r="108.76855281207133" fill="none" stroke="#e94ec7" stroke-opacity="0.16" stroke-width="1.5000685871056243"/><circle cx="200" cy="240" r="132.2422839506173" fill="none" stroke="#e94ec7" stroke-opacity="0.20" stroke-width="2.293398491083676"/><circle cx="200" cy="240" r="149.28803155006858" fill="none" stroke="#e94ec7" stroke-opacity="0.24" stroke-width="2.4180041152263376"/>
  <text x="200" y="270" font-family="sans-serif" font-size="140" text-anchor="middle" fill="#ff9f43" opacity="0.85">🪩</text>
  <rect x="4" y="4" width="392" height="552" fill="none" stroke="#e94ec7" stroke-width="1.5" opacity="0.7"/>
  <rect x="20" y="440" width="360" height="100" fill="#000" opacity="0.55"/>
  <text x="200" y="475" font-family="sans-serif" font-size="22" font-weight="bold" text-anchor="middle" fill="#ff9f43">Galactic Sorceress</text>
  <text x="200" y="500" font-family="sans-serif" font-size="11" text-anchor="middle" fill="#e94ec7" letter-spacing="3">COSMIC 1970S</text>
  <text x="200" y="525" font-family="sans-serif" font-size="10" text-anchor="middle" fill="#ffffff" opacity="0.7" letter-spacing="2">COMMON</text>
</svg>