<svg xmlns="http://www.w3.org/2000/svg" viewBox="0 0 400 560" preserveAspectRatio="xMidYMid slice">
  <defs>
    <linearGradient id="bg" x1="0" y1="0" x2="0" y2="1">
      <stop offset="0" stop-color="#0a0a0a"/>
      <stop offset="1" stop-color="#1f1f1f"/>
    </linearGradient>
    <radialGradient id="glow" cx="50%" cy="42%" r="50%">
      <stop offset="0" stop-color="#c9a84c" stop-opacity="0.55"/>
      <stop offset="0.5" stop-color="#c9a84c" stop-opacity="0.12"/>
      <stop offset="1" stop-color="#c9a84c" stop-opacity="0"/>
    </radialGradient>
  </defs>
  <rect width="400" height="560" fill="url(#bg)"/>
  <rect width="400" height="560" fill="url(#glow)"/>
  <circle cx="218.2" cy="433.7" r="1.9" fill="#f0d78c" opacity="0.35"/><circle cx="97.3" cy="350.2" r="1.3" fill="#f0d78c" opacity="0.22"/><circle cx="43.8" cy="437.3" r="1.4" fill="#f0d78c" opacity="0.61"/><circle cx="141.8" cy="169.4" r="0.7" fill="#f0d78c" opacity="0.55"/><circle cx="238.2" cy="307.2" r="0.9" fill="#f0d78c" opacity="0.64"/><circle cx="165.0" cy="221.4" r="1.4" fill="#f0d78c" opacity="0.28"/><circle cx="228.4" cy="71.1" r="0.8" fill="#f0d78c" opacity="0.29"/><circle cx="364.3" cy="554.5" r="1.5" fill="#f0d78c" opacity="0.38"/><circle cx="360.2" cy="233.7" r="1.8" fill="#f0d78c" opacity="0.38"/><circle cx="344.6" cy="512.0" r="1.7" fill="#f0d78c" opacity="0.41"/><circle cx="342.2" cy="345.6" r="1.2" fill="#f0d78c" opacity="0.26"/><circle cx="96.1" cy="287.5" r="0.7" fill="#f0d78c" opacity="0.24"/><circle cx="357.1" cy="185.6" r="1.3" fill="#f0d78c" opacity="0.22"/><circle cx="38.6" cy="53.7" r="1.1" fill="#f0d78c" opacity="0.63"/><circle cx="39.5" cy="196.1" r="0.6" fill="#f0d78c" opacity="0.69"/><circle cx="132.5" cy="25.0" r="0.8" fill="#f0d78c" opacity="0.58"/><circle cx="120.2" cy="52.2" r="0.6" fill="#f0d78c" opacity="0.31"/><circle cx="56.9" cy="332.8" r="0.8" fill="#f0d78c" opacity="0.57"/><circle cx="337.6" cy="403.8" r="1.0" fill="#f0d78c" opacity="0.30"/><circle cx="53.7" cy="154.4" r="0.6" fill="#f0d78c" opacity="0.64"/><circle cx="15.1" cy="511.1" r="1.1" fill="#f0d78c" opacity="0.21"/><circle cx="39.0" cy="15.1" r="1.5" fill="#f0d78c" opacity="0.23"/><circle cx="105.7" cy="173.6" r="0.8" fill="#f0d78c" opacity="0.45"/><circle cx="180.7" cy="544.1" r="0.7" fill="#f0d78c" opacity="0.44"/><circle cx="303.3" cy="352.3" r="1.7" fill="#f0d78c" opacity="0.69"/><circle cx="142.9" cy="483.2" r="0.6" fill="#f0d78c" opacity="0.57"/><circle cx="20.3" cy="245.3" r="0.8" fill="#f0d78c" opacity="0.60"/><circle cx="197.3" cy="108.8" r="1.3" fill="#f0d78c" opacity="0.53"/><circle cx="31.9" cy="336.5" r="1.0" fill="#f0d78c" opacity="0.35"/><circle cx="200.7" cy="548.0" r="0.9" fill="#f0d78c" opacity="0.51"/><circle cx="387.6" cy="217.9" r="1.1" fill="#f0d78c" opacity="0.57"/><circle cx="39.5" cy="106.8" r="1.5" fill="#f0d78c" opacity="0.60"/><circle cx="188.5" cy="145.4" r="1.9" fill="#f0d78c" opacity="0.52"/><circle cx="340.8" cy="492.9" r="0.7" fill="#f0d78c" opacity="0.64"/><circle cx="32.2" cy="167.5" r="1.7" fill="#f0d78c" opacity="0.67"/><circle cx="250.4" cy="531.1" r="1.8" fill="#f0d78c" opacity="0.45"/><circle cx="323.7" cy="187.2" r="1.0" fill="#f0d78c" opacity="0.59"/><circle cx="276.8" cy="331.9" r="0.9" fill="#f0d78c" opacity="0.39"/><circle cx="253.0" cy="398.2" r="1.7" fill="#f0d78c" opacity="0.65"/><circle cx="202.8" cy="234.1" r="1.7" fill="#f0d78c" opacity="0.24"/><circle cx="239.9" cy="413.3" r="1.8" fill="#f0d78c" opacity="0.59"/><circle cx="63.0" cy="120.1" r="1.1" fill="#f0d78c" opacity="0.43"/><circle cx="244.9" cy="446.9" r="0.6" fill="#f0d78c" opacity="0.43"/><circle cx="188.2" cy="225.1" r="0.7" fill="#f0d78c" opacity="0.60"/><circle cx="347.1" cy="70.2" r="0.8" fill="#f0d78c" opacity="0.64"/><circle cx="316.7" cy="78.9" r="1.8" fill="#f0d78c" opacity="0.48"/><circle cx="388.3" cy="140.6" r="1.8" fill="#f0d78c" opacity="0.27"/><circle cx="171.9" cy="61.8" r="0.6" fill="#f0d78c" opacity="0.61"/><circle cx="284.7" cy="63.6" r="1.8" fill="#f0d78c" opacity="0.24"/><circle cx="307.0" cy="533.2" r="1.5" fill="#f0d78c" opacity="0.41"/>
  <circle cx="200" cy="240" r="63.81865569272977" fill="none" stroke="#c9a84c" stroke-opacity="0.08" stroke-width="2.7517918381344306"/><circle cx="200" cy="240" r="89.35411522633746" fill="none" stroke="#c9a84c" stroke-opacity="0.12" stroke-width="1.5790723593964335"/><circle cx="200" cy="240" r="105.49862825788752" fill="none" stroke="#c9a84c" stroke-opacity="0.16" stroke-width="2.1079989711934157"/><circle cx="200" cy="240" r="133.68429355281208" fill="none" stroke="#c9a84c" stroke-opacity="0.20" stroke-width="1.3262259945130315"/><circle cx="200" cy="240" r="150.60246913580247" fill="none" stroke="#c9a84c" stroke-opacity="0.24" stroke-width="2.814000342935528"/><circle cx="200" cy="240" r="171.7593278463649" fill="none" stroke="#c9a84c" stroke-opacity="0.28" stroke-width="2.2997170781893006"/>
  <text x="200" y="270" font-family="serif" font-size="140" text-anchor="middle" fill="#f0d78c" opacity="0.85">🎷</text>
  <rect x="8" y="8" width="384" height="544" fill="none" stroke="#c9a84c" stroke-width="3" opacity="0.7"/>
  <rect x="20" y="440" width="360" height="100" fill="#000" opacity="0.55"/>
  <text x="200" y="475" font-family="serif" font-size="22" font-weight="bold" text-anchor="middle" fill="#f0d78c">Silk Empress</text>
  <text x="200" y="500" font-family="sans-serif" font-size="11" text-anchor="middle" fill="#c9a84c" letter-spacing="3">ROARING 1920S</text>
  <text x="200" y="525" font-family="sans-serif" font-size="10" text-anchor="middle" fill="#ffffff" opacity="0.7" letter-spacing="2">RARE</text>
</svg>