<svg xmlns="http://www.w3.org/2000/svg" viewBox="0 0 400 560" preserveAspectRatio="xMidYMid slice">
  <defs>
    <linearGradient id="bg" x1="0" y1="0" x2="0" y2="1">
      <stop offset="0" stop-color="#0a0a0a"/>
      <stop offset="1" stop-color="#1f1f1f"/>
    </linearGradient>
    <radialGradient id="glow" cx="50%" cy="42%" r="50%">
      <stop offset="0" stop-color="#c9a84c" stop-opacity="0.55"/>
      <stop offset="0.5" stop-color="#c9a84c" stop-opacity="0.12"/>
      <stop offset="1" stop-color="#c9a84c" stop-opacity="0"/>
    </radialGradient>
  </defs>
  <rect width="400" height="560" fill="url(#bg)"/>
  <rect width="400" height="560" fill="url(#glow)"/>
  <circle cx="137.6" cy="505.1" r="0.7" fill="#f0d78c" opacity="0.37"/><circle cx="365.6" cy="115.2" r="0.6" fill="#f0d78c" opacity="0.27"/><circle cx="256.2" cy="552.5" r="0.5" fill="#f0d78c" opacity="0.63"/><circle cx="189.6" cy="524.4" r="0.9" fill="#f0d78c" opacity="0.68"/><circle cx="131.2" cy="148.2" r="1.8" fill="#f0d78c" opacity="0.50"/><circle cx="120.6" cy="329.8" r="0.8" fill="#f0d78c" opacity="0.59"/><circle cx="226.8" cy="273.9" r="0.7" fill="#f0d78c" opacity="0.30"/><circle cx="370.9" cy="409.4" r="1.9" fill="#f0d78c" opacity="0.66"/><circle cx="14.5" cy="86.3" r="1.8" fill="#f0d78c" opacity="0.43"/><circle cx="115.8" cy="127.2" r="1.1" fill="#f0d78c" opacity="0.58"/><circle cx="151.3" cy="152.1" r="2.0" fill="#f0d78c" opacity="0.57"/><circle cx="204.8" cy="195.3" r="1.6" fill="#f0d78c" opacity="0.46"/><circle cx="123.4" cy="457.6" r="1.6" fill="#f0d78c" opacity="0.33"/><circle cx="139.1" cy="309.6" r="1.5" fill="#f0d78c" opacity="0.58"/><circle cx="158.0" cy="470.4" r="1.2" fill="#f0d78c" opacity="0.54"/><circle cx="116.1" cy="518.3" r="1.7" fill="#f0d78c" opacity="0.40"/><circle cx="200.9" cy="135.2" r="1.4" fill="#f0d78c" opacity="0.52"/><circle cx="140.9" cy="164.6" r="1.6" fill="#f0d78c" opacity="0.49"/><circle cx="360.7" cy="122.7" r="1.0" fill="#f0d78c" opacity="0.62"/><circle cx="203.5" cy="2.3" r="1.3" fill="#f0d78c" opacity="0.21"/><circle cx="20.0" cy="211.5" r="0.7" fill="#f0d78c" opacity="0.64"/><circle cx="323.8" cy="204.1" r="1.8" fill="#f0d78c" opacity="0.32"/><circle cx="13.6" cy="284.2" r="0.6" fill="#f0d78c" opacity="0.49"/><circle cx="62.2" cy="424.3" r="1.2" fill="#f0d78c" opacity="0.32"/><circle cx="272.1" cy="15.9" r="0.8" fill="#f0d78c" opacity="0.33"/><circle cx="297.7" cy="234.3" r="1.9" fill="#f0d78c" opacity="0.21"/><circle cx="133.9" cy="56.4" r="0.9" fill="#f0d78c" opacity="0.38"/><circle cx="72.2" cy="491.4" r="1.9" fill="#f0d78c" opacity="0.50"/><circle cx="122.5" cy="225.9" r="1.6" fill="#f0d78c" opacity="0.68"/><circle cx="102.0" cy="41.0" r="0.9" fill="#f0d78c" opacity="0.64"/><circle cx="390.9" cy="324.0" r="1.6" fill="#f0d78c" opacity="0.64"/><circle cx="154.7" cy="72.2" r="0.8" fill="#f0d78c" opacity="0.24"/><circle cx="233.0" cy="191.6" r="0.6" fill="#f0d78c" opacity="0.44"/><circle cx="294.7" cy="446.9" r="0.8" fill="#f0d78c" opacity="0.60"/><circle cx="261.0" cy="146.8" r="1.9" fill="#f0d78c" opacity="0.23"/><circle cx="393.6" cy="321.4" r="1.2" fill="#f0d78c" opacity="0.61"/><circle cx="50.4" cy="113.5" r="0.8" fill="#f0d78c" opacity="0.20"/><circle cx="308.1" cy="262.8" r="1.5" fill="#f0d78c" opacity="0.48"/><circle cx="50.5" cy="243.8" r="2.0" fill="#f0d78c" opacity="0.48"/><circle cx="324.7" cy="257.1" r="0.8" fill="#f0d78c" opacity="0.29"/><circle cx="162.6" cy="233.6" r="2.0" fill="#f0d78c" opacity="0.32"/><circle cx="270.4" cy="332.2" r="1.1" fill="#f0d78c" opacity="0.39"/><circle cx="184.1" cy="131.2" r="1.9" fill="#f0d78c" opacity="0.70"/><circle cx="91.1" cy="432.6" r="1.4" fill="#f0d78c" opacity="0.59"/><circle cx="120.0" cy="399.8" r="0.9" fill="#f0d78c" opacity="0.67"/><circle cx="295.3" cy="108.9" r="0.6" fill="#f0d78c" opacity="0.25"/><circle cx="360.4" cy="113.0" r="0.8" fill="#f0d78c" opacity="0.61"/><circle cx="265.8" cy="260.0" r="1.1" fill="#f0d78c" opacity="0.65"/><circle cx="125.1" cy="3.7" r="1.0" fill="#f0d78c" opacity="0.28"/><circle cx="37.1" cy="208.3" r="1.1" fill="#f0d78c" opacity="0.23"/><circle cx="174.6" cy="286.1" r="1.0" fill="#f0d78c" opacity="0.67"/><circle cx="340.1" cy="188.8" r="1.0" fill="#f0d78c" opacity="0.63"/><circle cx="187.8" cy="531.7" r="1.9" fill="#f0d78c" opacity="0.28"/><circle cx="113.0" cy="291.5" r="1.7" fill="#f0d78c" opacity="0.56"/><circle cx="6.9" cy="477.7" r="1.5" fill="#f0d78c" opacity="0.62"/><circle cx="279.3" cy="336.6" r="1.1" fill="#f0d78c" opacity="0.58"/><circle cx="347.7" cy="89.5" r="1.2" fill="#f0d78c" opacity="0.66"/><circle cx="192.2" cy="123.5" r="0.7" fill="#f0d78c" opacity="0.60"/><circle cx="178.3" cy="556.3" r="1.3" fill="#f0d78c" opacity="0.48"/><circle cx="345.4" cy="53.4" r="2.0" fill="#f0d78c" opacity="0.29"/>
  <circle cx="200" cy="240" r="64.45658436213992" fill="none" stroke="#c9a84c" stroke-opacity="0.08" stroke-width="2.0954303840877913"/><circle cx="200" cy="240" r="86.08257887517146" fill="none" stroke="#c9a84c" stroke-opacity="0.12" stroke-width="2.4391718106995883"/><circle cx="200" cy="240" r="104.63861454046639" fill="none" stroke="#c9a84c" stroke-opacity="0.16" stroke-width="2.361102537722908"/><circle cx="200" cy="240" r="126.14938271604939" fill="none" stroke="#c9a84c" stroke-opacity="0.20" stroke-width="2.7748028120713304"/><circle cx="200" cy="240" r="155.45438957475994" fill="none" stroke="#c9a84c" stroke-opacity="0.24" stroke-width="2.7420010288065844"/><circle cx="200" cy="240" r="173.0968449931413" fill="none" stroke="#c9a84c" stroke-opacity="0.28" stroke-width="2.361462620027435"/><circle cx="200" cy="240" r="197.54588477366255" fill="none" stroke="#c9a84c" stroke-opacity="0.32" stroke-width="2.9912122770919067"/>
  <text x="200" y="270" font-family="serif" font-size="140" text-anchor="middle" fill="#f0d78c" opacity="0.85">🎷</text>
  <rect x="12" y="12" width="376" height="536" fill="none" stroke="#c9a84c" stroke-width="4.5" opacity="0.7"/>
  <rect x="20" y="440" width="360" height="100" fill="#000" opacity="0.55"/>
  <text x="200" y="475" font-family="serif" font-size="22" font-weight="bold" text-anchor="middle" fill="#f0d78c">Silk Heiress</text>
  <text x="200" y="500" font-family="sans-serif" font-size="11" text-anchor="middle" fill="#c9a84c" letter-spacing="3">ROARING 1920S</text>
  <text x="200" y="525" font-family="sans-serif" font-size="10" text-anchor="middle" fill="#ffffff" opacity="0.7" letter-spacing="2">DIVINE</text>
</svg>