<svg xmlns="http://www.w3.org/2000/svg" viewBox="0 0 400 560" preserveAspectRatio="xMidYMid slice">
  <defs>
    <linearGradient id="bg" x1="0" y1="0" x2="0" y2="1">
      <stop offset="0" stop-color="#0a0a0a"/>
      <stop offset="1" stop-color="#1f1f1f"/>
    </linearGradient>
    <radialGradient id="glow" cx="50%" cy="42%" r="50%">
      <stop offset="0" stop-color="#c9a84c" stop-opacity="0.55"/>
      <stop offset="0.5" stop-color="#c9a84c" stop-opacity="0.12"/>
      <stop offset="1" stop-color="#c9a84c" stop-opacity="0"/>
    </radialGradient>
  </defs>
  <rect width="400" height="560" fill="url(#bg)"/>
  <rect width="400" height="560" fill="url(#glow)"/>
  <circle cx="388.7" cy="371.7" r="0.9" fill="#f0d78c" opacity="0.69"/><circle cx="320.0" cy="430.6" r="1.1" fill="#f0d78c" opacity="0.43"/><circle cx="249.7" cy="335.0" r="0.6" fill="#f0d78c" opacity="0.31"/><circle cx="9.8" cy="15.9" r="2.0" fill="#f0d78c" opacity="0.24"/><circle cx="306.6" cy="192.2" r="0.8" fill="#f0d78c" opacity="0.55"/><circle cx="275.8" cy="442.4" r="0.9" fill="#f0d78c" opacity="0.42"/><circle cx="105.0" cy="448.2" r="0.6" fill="#f0d78c" opacity="0.22"/><circle cx="322.8" cy="493.2" r="1.3" fill="#f0d78c" opacity="0.54"/><circle cx="153.7" cy="93.4" r="1.7" fill="#f0d78c" opacity="0.68"/><circle cx="141.0" cy="362.0" r="0.6" fill="#f0d78c" opacity="0.45"/><circle cx="235.3" cy="26.7" r="0.6" fill="#f0d78c" opacity="0.23"/><circle cx="150.1" cy="221.5" r="1.2" fill="#f0d78c" opacity="0.43"/><circle cx="384.3" cy="130.6" r="1.5" fill="#f0d78c" opacity="0.28"/><circle cx="310.7" cy="286.2" r="1.1" fill="#f0d78c" opacity="0.46"/><circle cx="131.8" cy="80.0" r="1.8" fill="#f0d78c" opacity="0.48"/><circle cx="301.8" cy="127.3" r="1.4" fill="#f0d78c" opacity="0.53"/><circle cx="15.8" cy="524.9" r="1.0" fill="#f0d78c" opacity="0.56"/><circle cx="365.2" cy="42.2" r="1.5" fill="#f0d78c" opacity="0.68"/><circle cx="159.9" cy="165.5" r="1.3" fill="#f0d78c" opacity="0.55"/><circle cx="17.2" cy="556.2" r="1.1" fill="#f0d78c" opacity="0.36"/><circle cx="317.2" cy="481.4" r="1.3" fill="#f0d78c" opacity="0.37"/><circle cx="225.5" cy="58.6" r="0.6" fill="#f0d78c" opacity="0.65"/><circle cx="181.5" cy="193.5" r="0.9" fill="#f0d78c" opacity="0.70"/><circle cx="254.4" cy="91.0" r="0.7" fill="#f0d78c" opacity="0.37"/><circle cx="365.2" cy="179.8" r="1.8" fill="#f0d78c" opacity="0.68"/><circle cx="375.5" cy="370.0" r="1.6" fill="#f0d78c" opacity="0.41"/><circle cx="43.5" cy="364.3" r="0.8" fill="#f0d78c" opacity="0.52"/><circle cx="45.6" cy="342.4" r="1.5" fill="#f0d78c" opacity="0.47"/><circle cx="65.8" cy="339.0" r="1.1" fill="#f0d78c" opacity="0.32"/><circle cx="351.0" cy="554.6" r="0.9" fill="#f0d78c" opacity="0.65"/><circle cx="333.4" cy="359.9" r="0.6" fill="#f0d78c" opacity="0.36"/><circle cx="319.0" cy="474.1" r="1.8" fill="#f0d78c" opacity="0.27"/><circle cx="243.7" cy="475.3" r="0.7" fill="#f0d78c" opacity="0.59"/><circle cx="295.2" cy="45.6" r="1.7" fill="#f0d78c" opacity="0.67"/><circle cx="201.9" cy="28.3" r="1.8" fill="#f0d78c" opacity="0.59"/><circle cx="388.3" cy="499.7" r="1.0" fill="#f0d78c" opacity="0.69"/><circle cx="197.8" cy="332.7" r="1.2" fill="#f0d78c" opacity="0.23"/><circle cx="381.0" cy="495.2" r="0.5" fill="#f0d78c" opacity="0.62"/><circle cx="251.4" cy="441.1" r="1.5" fill="#f0d78c" opacity="0.26"/><circle cx="307.9" cy="474.6" r="1.7" fill="#f0d78c" opacity="0.39"/><circle cx="323.1" cy="8.0" r="0.6" fill="#f0d78c" opacity="0.68"/><circle cx="99.7" cy="112.9" r="1.6" fill="#f0d78c" opacity="0.65"/><circle cx="92.0" cy="284.7" r="1.1" fill="#f0d78c" opacity="0.48"/><circle cx="294.9" cy="60.1" r="1.4" fill="#f0d78c" opacity="0.61"/><circle cx="199.9" cy="448.4" r="0.8" fill="#f0d78c" opacity="0.69"/><circle cx="216.8" cy="136.2" r="1.9" fill="#f0d78c" opacity="0.33"/><circle cx="162.9" cy="464.7" r="1.0" fill="#f0d78c" opacity="0.25"/><circle cx="18.5" cy="141.0" r="1.6" fill="#f0d78c" opacity="0.21"/><circle cx="149.0" cy="402.6" r="0.7" fill="#f0d78c" opacity="0.27"/><circle cx="193.9" cy="475.3" r="1.9" fill="#f0d78c" opacity="0.42"/>
  <circle cx="200" cy="240" r="63.49969135802469" fill="none" stroke="#c9a84c" stroke-opacity="0.08" stroke-width="1.0799725651577503"/><circle cx="200" cy="240" r="82.98988340192044" fill="none" stroke="#c9a84c" stroke-opacity="0.12" stroke-width="1.149022633744856"/><circle cx="200" cy="240" r="105.92863511659807" fill="none" stroke="#c9a84c" stroke-opacity="0.16" stroke-width="1.9814471879286693"/><circle cx="200" cy="240" r="129.4517489711934" fill="none" stroke="#c9a84c" stroke-opacity="0.20" stroke-width="1.601937585733882"/><circle cx="200" cy="240" r="152.17650891632374" fill="none" stroke="#c9a84c" stroke-opacity="0.24" stroke-width="2.85"/><circle cx="200" cy="240" r="175.0905692729767" fill="none" stroke="#c9a84c" stroke-opacity="0.28" stroke-width="2.268844307270233"/>
  <text x="200" y="270" font-family="serif" font-size="140" text-anchor="middle" fill="#f0d78c" opacity="0.85">🎷</text>
  <rect x="8" y="8" width="384" height="544" fill="none" stroke="#c9a84c" stroke-width="3" opacity="0.7"/>
  <rect x="20" y="440" width="360" height="100" fill="#000" opacity="0.55"/>
  <text x="200" y="475" font-family="serif" font-size="22" font-weight="bold" text-anchor="middle" fill="#f0d78c">Tommy Baron</text>
  <text x="200" y="500" font-family="sans-serif" font-size="11" text-anchor="middle" fill="#c9a84c" letter-spacing="3">ROARING 1920S</text>
  <text x="200" y="525" font-family="sans-serif" font-size="10" text-anchor="middle" fill="#ffffff" opacity="0.7" letter-spacing="2">RARE</text>
</svg>