<svg xmlns="http://www.w3.org/2000/svg" viewBox="0 0 400 560" preserveAspectRatio="xMidYMid slice">
  <defs>
    <linearGradient id="bg" x1="0" y1="0" x2="0" y2="1">
      <stop offset="0" stop-color="#050a1a"/>
      <stop offset="1" stop-color="#0f1f3d"/>
    </linearGradient>
    <radialGradient id="glow" cx="50%" cy="42%" r="50%">
      <stop offset="0" stop-color="#3acff5" stop-opacity="0.55"/>
      <stop offset="0.5" stop-color="#3acff5" stop-opacity="0.12"/>
      <stop offset="1" stop-color="#3acff5" stop-opacity="0"/>
    </radialGradient>
  </defs>
  <rect width="400" height="560" fill="url(#bg)"/>
  <rect width="400" height="560" fill="url(#glow)"/>
  <circle cx="101.4" cy="44.1" r="1.8" fill="#a855f7" opacity="0.53"/><circle cx="201.4" cy="249.2" r="1.2" fill="#a855f7" opacity="0.29"/><circle cx="309.7" cy="106.4" r="1.3" fill="#a855f7" opacity="0.32"/><circle cx="65.7" cy="521.3" r="0.9" fill="#a855f7" opacity="0.62"/><circle cx="338.6" cy="138.8" r="1.4" fill="#a855f7" opacity="0.54"/><circle cx="249.3" cy="507.6" r="1.8" fill="#a855f7" opacity="0.60"/><circle cx="59.7" cy="417.8" r="0.8" fill="#a855f7" opacity="0.58"/><circle cx="327.6" cy="132.1" r="0.7" fill="#a855f7" opacity="0.44"/><circle cx="129.7" cy="390.3" r="0.7" fill="#a855f7" opacity="0.64"/><circle cx="349.9" cy="106.9" r="1.0" fill="#a855f7" opacity="0.24"/><circle cx="35.2" cy="42.4" r="1.6" fill="#a855f7" opacity="0.32"/><circle cx="217.5" cy="127.8" r="0.6" fill="#a855f7" opacity="0.27"/><circle cx="3.2" cy="521.9" r="1.0" fill="#a855f7" opacity="0.44"/><circle cx="127.9" cy="243.1" r="0.6" fill="#a855f7" opacity="0.51"/><circle cx="379.4" cy="93.4" r="0.9" fill="#a855f7" opacity="0.33"/><circle cx="86.0" cy="356.2" r="1.7" fill="#a855f7" opacity="0.51"/><circle cx="72.5" cy="547.5" r="1.7" fill="#a855f7" opacity="0.35"/><circle cx="82.0" cy="100.5" r="1.1" fill="#a855f7" opacity="0.65"/><circle cx="65.2" cy="543.0" r="1.2" fill="#a855f7" opacity="0.29"/><circle cx="135.6" cy="208.9" r="1.4" fill="#a855f7" opacity="0.68"/><circle cx="392.0" cy="522.4" r="0.9" fill="#a855f7" opacity="0.56"/><circle cx="207.3" cy="335.8" r="0.5" fill="#a855f7" opacity="0.60"/><circle cx="183.9" cy="160.8" r="0.8" fill="#a855f7" opacity="0.32"/><circle cx="376.1" cy="52.5" r="1.0" fill="#a855f7" opacity="0.40"/><circle cx="379.1" cy="107.9" r="0.6" fill="#a855f7" opacity="0.28"/><circle cx="84.0" cy="216.3" r="0.7" fill="#a855f7" opacity="0.60"/><circle cx="301.0" cy="184.1" r="1.1" fill="#a855f7" opacity="0.49"/><circle cx="47.1" cy="232.5" r="1.0" fill="#a855f7" opacity="0.67"/><circle cx="102.7" cy="188.8" r="0.8" fill="#a855f7" opacity="0.37"/><circle cx="33.2" cy="170.4" r="0.6" fill="#a855f7" opacity="0.68"/><circle cx="278.1" cy="523.1" r="1.1" fill="#a855f7" opacity="0.59"/><circle cx="106.6" cy="451.7" r="2.0" fill="#a855f7" opacity="0.46"/><circle cx="239.5" cy="385.0" r="0.6" fill="#a855f7" opacity="0.30"/><circle cx="138.7" cy="232.9" r="0.5" fill="#a855f7" opacity="0.38"/><circle cx="362.3" cy="258.4" r="0.7" fill="#a855f7" opacity="0.69"/><circle cx="386.6" cy="81.0" r="0.6" fill="#a855f7" opacity="0.67"/><circle cx="295.7" cy="295.4" r="1.7" fill="#a855f7" opacity="0.38"/><circle cx="336.5" cy="542.0" r="1.1" fill="#a855f7" opacity="0.40"/><circle cx="341.0" cy="191.8" r="1.4" fill="#a855f7" opacity="0.64"/><circle cx="215.6" cy="523.7" r="1.2" fill="#a855f7" opacity="0.41"/><circle cx="295.9" cy="556.0" r="1.1" fill="#a855f7" opacity="0.43"/><circle cx="369.6" cy="530.8" r="1.3" fill="#a855f7" opacity="0.53"/><circle cx="165.1" cy="171.3" r="1.4" fill="#a855f7" opacity="0.32"/><circle cx="107.1" cy="113.8" r="1.8" fill="#a855f7" opacity="0.61"/><circle cx="338.9" cy="351.2" r="1.0" fill="#a855f7" opacity="0.68"/><circle cx="10.9" cy="171.5" r="1.9" fill="#a855f7" opacity="0.43"/><circle cx="36.9" cy="148.5" r="1.0" fill="#a855f7" opacity="0.26"/><circle cx="115.6" cy="26.5" r="1.7" fill="#a855f7" opacity="0.42"/><circle cx="19.7" cy="337.6" r="0.7" fill="#a855f7" opacity="0.57"/><circle cx="351.9" cy="473.7" r="1.3" fill="#a855f7" opacity="0.24"/>
  <circle cx="200" cy="240" r="65.99962277091906" fill="none" stroke="#3acff5" stroke-opacity="0.08" stroke-width="2.045490397805213"/><circle cx="200" cy="240" r="84.115329218107" fill="none" stroke="#3acff5" stroke-opacity="0.12" stroke-width="2.0919067215363514"/><circle cx="200" cy="240" r="104.98823731138546" fill="none" stroke="#3acff5" stroke-opacity="0.16" stroke-width="1.3214506172839506"/><circle cx="200" cy="240" r="126.93933470507545" fill="none" stroke="#3acff5" stroke-opacity="0.20" stroke-width="1.6106652949245541"/><circle cx="200" cy="240" r="148.88220164609052" fill="none" stroke="#3acff5" stroke-opacity="0.24" stroke-width="2.762019890260631"/><circle cx="200" cy="240" r="173.87856652949245" fill="none" stroke="#3acff5" stroke-opacity="0.28" stroke-width="2.059465020576132"/>
  <text x="200" y="270" font-family="sans-serif" font-size="140" text-anchor="middle" fill="#a855f7" opacity="0.85">💎</text>
  <rect x="8" y="8" width="384" height="544" fill="none" stroke="#3acff5" stroke-width="3" opacity="0.7"/>
  <rect x="20" y="440" width="360" height="100" fill="#000" opacity="0.55"/>
  <text x="200" y="475" font-family="sans-serif" font-size="22" font-weight="bold" text-anchor="middle" fill="#a855f7">Viral Baron</text>
  <text x="200" y="500" font-family="sans-serif" font-size="11" text-anchor="middle" fill="#3acff5" letter-spacing="3">NEON 2020S</text>
  <text x="200" y="525" font-family="sans-serif" font-size="10" text-anchor="middle" fill="#ffffff" opacity="0.7" letter-spacing="2">RARE</text>
</svg>