<svg xmlns="http://www.w3.org/2000/svg" viewBox="0 0 400 560" preserveAspectRatio="xMidYMid slice">
  <defs>
    <linearGradient id="bg" x1="0" y1="0" x2="0" y2="1">
      <stop offset="0" stop-color="#0a1a0f"/>
      <stop offset="1" stop-color="#1a3d24"/>
    </linearGradient>
    <radialGradient id="glow" cx="50%" cy="42%" r="50%">
      <stop offset="0" stop-color="#f5d23a" stop-opacity="0.55"/>
      <stop offset="0.5" stop-color="#f5d23a" stop-opacity="0.12"/>
      <stop offset="1" stop-color="#f5d23a" stop-opacity="0"/>
    </radialGradient>
  </defs>
  <rect width="400" height="560" fill="url(#bg)"/>
  <rect width="400" height="560" fill="url(#glow)"/>
  <circle cx="15.1" cy="217.2" r="0.9" fill="#3acf5c" opacity="0.43"/><circle cx="21.4" cy="21.4" r="2.0" fill="#3acf5c" opacity="0.52"/><circle cx="65.4" cy="16.8" r="1.3" fill="#3acf5c" opacity="0.25"/><circle cx="9.1" cy="113.7" r="0.9" fill="#3acf5c" opacity="0.39"/><circle cx="10.4" cy="14.6" r="1.3" fill="#3acf5c" opacity="0.42"/><circle cx="345.8" cy="459.5" r="1.7" fill="#3acf5c" opacity="0.29"/><circle cx="299.4" cy="362.8" r="1.1" fill="#3acf5c" opacity="0.55"/><circle cx="118.0" cy="485.0" r="0.6" fill="#3acf5c" opacity="0.29"/><circle cx="33.6" cy="197.0" r="1.6" fill="#3acf5c" opacity="0.42"/><circle cx="352.6" cy="217.8" r="1.0" fill="#3acf5c" opacity="0.25"/><circle cx="210.7" cy="125.7" r="1.2" fill="#3acf5c" opacity="0.49"/><circle cx="195.5" cy="162.6" r="1.9" fill="#3acf5c" opacity="0.48"/><circle cx="35.5" cy="52.1" r="1.8" fill="#3acf5c" opacity="0.32"/><circle cx="155.3" cy="430.1" r="0.8" fill="#3acf5c" opacity="0.33"/><circle cx="298.1" cy="169.7" r="0.7" fill="#3acf5c" opacity="0.30"/><circle cx="14.6" cy="238.9" r="1.3" fill="#3acf5c" opacity="0.60"/><circle cx="218.4" cy="91.5" r="2.0" fill="#3acf5c" opacity="0.66"/><circle cx="208.1" cy="31.7" r="1.9" fill="#3acf5c" opacity="0.21"/><circle cx="156.8" cy="31.7" r="0.6" fill="#3acf5c" opacity="0.41"/><circle cx="266.7" cy="43.3" r="1.3" fill="#3acf5c" opacity="0.30"/><circle cx="192.2" cy="121.7" r="0.6" fill="#3acf5c" opacity="0.54"/><circle cx="328.5" cy="363.8" r="0.7" fill="#3acf5c" opacity="0.59"/><circle cx="166.8" cy="98.8" r="1.3" fill="#3acf5c" opacity="0.58"/><circle cx="117.1" cy="253.3" r="0.7" fill="#3acf5c" opacity="0.64"/><circle cx="396.5" cy="488.4" r="1.0" fill="#3acf5c" opacity="0.48"/><circle cx="185.5" cy="71.4" r="1.3" fill="#3acf5c" opacity="0.35"/><circle cx="249.3" cy="239.7" r="1.7" fill="#3acf5c" opacity="0.33"/><circle cx="227.6" cy="219.0" r="1.2" fill="#3acf5c" opacity="0.40"/><circle cx="189.3" cy="334.3" r="1.0" fill="#3acf5c" opacity="0.43"/><circle cx="55.6" cy="454.2" r="1.7" fill="#3acf5c" opacity="0.44"/><circle cx="88.2" cy="488.8" r="0.6" fill="#3acf5c" opacity="0.69"/><circle cx="45.0" cy="140.9" r="1.3" fill="#3acf5c" opacity="0.67"/><circle cx="202.7" cy="150.2" r="1.6" fill="#3acf5c" opacity="0.32"/><circle cx="245.1" cy="551.2" r="1.8" fill="#3acf5c" opacity="0.69"/><circle cx="19.2" cy="424.6" r="1.7" fill="#3acf5c" opacity="0.38"/><circle cx="157.2" cy="261.0" r="1.0" fill="#3acf5c" opacity="0.28"/><circle cx="165.0" cy="219.6" r="1.2" fill="#3acf5c" opacity="0.23"/><circle cx="378.7" cy="438.6" r="1.7" fill="#3acf5c" opacity="0.41"/><circle cx="185.7" cy="40.0" r="0.8" fill="#3acf5c" opacity="0.67"/><circle cx="114.5" cy="427.2" r="1.5" fill="#3acf5c" opacity="0.63"/><circle cx="189.9" cy="556.3" r="0.8" fill="#3acf5c" opacity="0.58"/><circle cx="155.0" cy="420.4" r="0.6" fill="#3acf5c" opacity="0.33"/><circle cx="360.4" cy="427.4" r="0.5" fill="#3acf5c" opacity="0.24"/><circle cx="119.7" cy="31.1" r="1.5" fill="#3acf5c" opacity="0.24"/><circle cx="331.7" cy="95.7" r="1.3" fill="#3acf5c" opacity="0.57"/><circle cx="369.2" cy="33.5" r="0.8" fill="#3acf5c" opacity="0.38"/><circle cx="34.6" cy="356.2" r="1.9" fill="#3acf5c" opacity="0.21"/><circle cx="182.4" cy="559.1" r="0.9" fill="#3acf5c" opacity="0.24"/><circle cx="7.6" cy="178.9" r="1.9" fill="#3acf5c" opacity="0.40"/><circle cx="201.4" cy="225.1" r="1.3" fill="#3acf5c" opacity="0.33"/><circle cx="373.9" cy="504.0" r="0.5" fill="#3acf5c" opacity="0.67"/><circle cx="342.3" cy="116.9" r="1.7" fill="#3acf5c" opacity="0.62"/><circle cx="86.8" cy="11.0" r="0.9" fill="#3acf5c" opacity="0.44"/><circle cx="372.8" cy="303.7" r="1.1" fill="#3acf5c" opacity="0.69"/><circle cx="40.0" cy="220.8" r="1.4" fill="#3acf5c" opacity="0.37"/><circle cx="357.3" cy="87.2" r="1.6" fill="#3acf5c" opacity="0.35"/><circle cx="45.8" cy="331.6" r="0.6" fill="#3acf5c" opacity="0.64"/><circle cx="167.3" cy="304.0" r="1.8" fill="#3acf5c" opacity="0.50"/><circle cx="79.7" cy="267.2" r="1.3" fill="#3acf5c" opacity="0.42"/><circle cx="59.5" cy="400.9" r="1.5" fill="#3acf5c" opacity="0.35"/>
  <circle cx="200" cy="240" r="61.53412208504801" fill="none" stroke="#f5d23a" stroke-opacity="0.08" stroke-width="2.640020576131687"/><circle cx="200" cy="240" r="83.01608367626886" fill="none" stroke="#f5d23a" stroke-opacity="0.12" stroke-width="2.071210562414266"/><circle cx="200" cy="240" r="111.00833333333334" fill="none" stroke="#f5d23a" stroke-opacity="0.16" stroke-width="1.5497256515775035"/><circle cx="200" cy="240" r="131.68371056241426" fill="none" stroke="#f5d23a" stroke-opacity="0.20" stroke-width="1.4706275720164608"/><circle cx="200" cy="240" r="154.9187585733882" fill="none" stroke="#f5d23a" stroke-opacity="0.24" stroke-width="1.2660150891632374"/><circle cx="200" cy="240" r="172.5159465020576" fill="none" stroke="#f5d23a" stroke-opacity="0.28" stroke-width="1.6272462277091906"/><circle cx="200" cy="240" r="193.75922496570644" fill="none" stroke="#f5d23a" stroke-opacity="0.32" stroke-width="2.060493827160494"/>
  <text x="200" y="270" font-family="sans-serif" font-size="140" text-anchor="middle" fill="#3acf5c" opacity="0.85">🎤</text>
  <rect x="12" y="12" width="376" height="536" fill="none" stroke="#f5d23a" stroke-width="4.5" opacity="0.7"/>
  <rect x="20" y="440" width="360" height="100" fill="#000" opacity="0.55"/>
  <text x="200" y="475" font-family="sans-serif" font-size="22" font-weight="bold" text-anchor="middle" fill="#3acf5c">Turntable Prophet</text>
  <text x="200" y="500" font-family="sans-serif" font-size="11" text-anchor="middle" fill="#f5d23a" letter-spacing="3">BOOM-BAP 1990S</text>
  <text x="200" y="525" font-family="sans-serif" font-size="10" text-anchor="middle" fill="#ffffff" opacity="0.7" letter-spacing="2">DIVINE</text>
</svg>