<svg xmlns="http://www.w3.org/2000/svg" viewBox="0 0 400 560" preserveAspectRatio="xMidYMid slice">
  <defs>
    <linearGradient id="bg" x1="0" y1="0" x2="0" y2="1">
      <stop offset="0" stop-color="#0a0a0a"/>
      <stop offset="1" stop-color="#1f1f1f"/>
    </linearGradient>
    <radialGradient id="glow" cx="50%" cy="42%" r="50%">
      <stop offset="0" stop-color="#c9a84c" stop-opacity="0.55"/>
      <stop offset="0.5" stop-color="#c9a84c" stop-opacity="0.12"/>
      <stop offset="1" stop-color="#c9a84c" stop-opacity="0"/>
    </radialGradient>
  </defs>
  <rect width="400" height="560" fill="url(#bg)"/>
  <rect width="400" height="560" fill="url(#glow)"/>
  <circle cx="220.5" cy="294.8" r="1.9" fill="#f0d78c" opacity="0.64"/><circle cx="138.2" cy="479.8" r="1.5" fill="#f0d78c" opacity="0.59"/><circle cx="69.1" cy="220.0" r="0.8" fill="#f0d78c" opacity="0.36"/><circle cx="156.4" cy="68.5" r="1.6" fill="#f0d78c" opacity="0.25"/><circle cx="350.7" cy="433.3" r="1.9" fill="#f0d78c" opacity="0.65"/><circle cx="365.6" cy="208.1" r="1.4" fill="#f0d78c" opacity="0.48"/><circle cx="299.8" cy="257.1" r="0.7" fill="#f0d78c" opacity="0.46"/><circle cx="326.1" cy="552.8" r="0.6" fill="#f0d78c" opacity="0.26"/><circle cx="247.2" cy="486.6" r="1.7" fill="#f0d78c" opacity="0.41"/><circle cx="117.2" cy="113.9" r="1.7" fill="#f0d78c" opacity="0.59"/><circle cx="331.2" cy="91.5" r="1.6" fill="#f0d78c" opacity="0.23"/><circle cx="380.7" cy="308.8" r="1.0" fill="#f0d78c" opacity="0.49"/><circle cx="275.4" cy="12.1" r="1.2" fill="#f0d78c" opacity="0.47"/><circle cx="232.6" cy="542.8" r="1.3" fill="#f0d78c" opacity="0.41"/><circle cx="232.7" cy="48.0" r="1.9" fill="#f0d78c" opacity="0.55"/><circle cx="240.9" cy="325.2" r="1.6" fill="#f0d78c" opacity="0.45"/><circle cx="297.0" cy="40.0" r="0.8" fill="#f0d78c" opacity="0.62"/><circle cx="69.8" cy="77.6" r="1.0" fill="#f0d78c" opacity="0.42"/><circle cx="280.6" cy="306.3" r="0.9" fill="#f0d78c" opacity="0.36"/><circle cx="390.9" cy="76.5" r="1.1" fill="#f0d78c" opacity="0.21"/><circle cx="158.9" cy="210.8" r="0.6" fill="#f0d78c" opacity="0.44"/><circle cx="261.0" cy="329.0" r="1.7" fill="#f0d78c" opacity="0.52"/><circle cx="381.2" cy="465.6" r="1.7" fill="#f0d78c" opacity="0.50"/><circle cx="366.4" cy="261.2" r="1.9" fill="#f0d78c" opacity="0.45"/><circle cx="48.8" cy="206.5" r="2.0" fill="#f0d78c" opacity="0.28"/><circle cx="134.4" cy="460.6" r="0.5" fill="#f0d78c" opacity="0.32"/><circle cx="159.2" cy="41.9" r="1.3" fill="#f0d78c" opacity="0.27"/><circle cx="310.6" cy="312.1" r="1.2" fill="#f0d78c" opacity="0.47"/><circle cx="317.3" cy="434.9" r="1.6" fill="#f0d78c" opacity="0.52"/><circle cx="203.7" cy="486.3" r="1.3" fill="#f0d78c" opacity="0.24"/><circle cx="113.3" cy="459.3" r="1.8" fill="#f0d78c" opacity="0.41"/><circle cx="396.4" cy="201.8" r="1.5" fill="#f0d78c" opacity="0.42"/><circle cx="366.9" cy="287.7" r="1.4" fill="#f0d78c" opacity="0.69"/><circle cx="123.3" cy="461.2" r="1.9" fill="#f0d78c" opacity="0.44"/><circle cx="238.6" cy="134.6" r="1.2" fill="#f0d78c" opacity="0.36"/><circle cx="115.1" cy="379.5" r="1.1" fill="#f0d78c" opacity="0.45"/><circle cx="207.4" cy="131.3" r="0.9" fill="#f0d78c" opacity="0.41"/><circle cx="110.3" cy="46.6" r="1.7" fill="#f0d78c" opacity="0.66"/><circle cx="115.3" cy="15.0" r="1.4" fill="#f0d78c" opacity="0.36"/><circle cx="232.2" cy="402.8" r="1.4" fill="#f0d78c" opacity="0.63"/>
  <circle cx="200" cy="240" r="61.26694101508917" fill="none" stroke="#c9a84c" stroke-opacity="0.08" stroke-width="1.3772376543209877"/><circle cx="200" cy="240" r="86.44026063100137" fill="none" stroke="#c9a84c" stroke-opacity="0.12" stroke-width="2.1386745541838135"/><circle cx="200" cy="240" r="108.93868312757202" fill="none" stroke="#c9a84c" stroke-opacity="0.16" stroke-width="1.095584705075446"/><circle cx="200" cy="240" r="131.82393689986282" fill="none" stroke="#c9a84c" stroke-opacity="0.20" stroke-width="1.5319187242798353"/><circle cx="200" cy="240" r="155.19478737997255" fill="none" stroke="#c9a84c" stroke-opacity="0.24" stroke-width="1.1019975994513032"/>
  <text x="200" y="270" font-family="serif" font-size="140" text-anchor="middle" fill="#f0d78c" opacity="0.85">🎷</text>
  <rect x="4" y="4" width="392" height="552" fill="none" stroke="#c9a84c" stroke-width="1.5" opacity="0.7"/>
  <rect x="20" y="440" width="360" height="100" fill="#000" opacity="0.55"/>
  <text x="200" y="475" font-family="serif" font-size="22" font-weight="bold" text-anchor="middle" fill="#f0d78c">Pearl Gunner</text>
  <text x="200" y="500" font-family="sans-serif" font-size="11" text-anchor="middle" fill="#c9a84c" letter-spacing="3">ROARING 1920S</text>
  <text x="200" y="525" font-family="sans-serif" font-size="10" text-anchor="middle" fill="#ffffff" opacity="0.7" letter-spacing="2">COMMON</text>
</svg>