<svg xmlns="http://www.w3.org/2000/svg" viewBox="0 0 400 560" preserveAspectRatio="xMidYMid slice">
  <defs>
    <linearGradient id="bg" x1="0" y1="0" x2="0" y2="1">
      <stop offset="0" stop-color="#1a0533"/>
      <stop offset="1" stop-color="#3d0f5c"/>
    </linearGradient>
    <radialGradient id="glow" cx="50%" cy="42%" r="50%">
      <stop offset="0" stop-color="#e94ec7" stop-opacity="0.55"/>
      <stop offset="0.5" stop-color="#e94ec7" stop-opacity="0.12"/>
      <stop offset="1" stop-color="#e94ec7" stop-opacity="0"/>
    </radialGradient>
  </defs>
  <rect width="400" height="560" fill="url(#bg)"/>
  <rect width="400" height="560" fill="url(#glow)"/>
  <circle cx="16.3" cy="166.4" r="1.2" fill="#ff9f43" opacity="0.36"/><circle cx="228.3" cy="231.0" r="0.9" fill="#ff9f43" opacity="0.69"/><circle cx="265.8" cy="168.9" r="1.9" fill="#ff9f43" opacity="0.50"/><circle cx="331.3" cy="491.6" r="1.5" fill="#ff9f43" opacity="0.33"/><circle cx="79.1" cy="134.4" r="0.6" fill="#ff9f43" opacity="0.36"/><circle cx="304.2" cy="314.3" r="1.5" fill="#ff9f43" opacity="0.52"/><circle cx="98.1" cy="360.4" r="0.9" fill="#ff9f43" opacity="0.46"/><circle cx="270.6" cy="79.3" r="1.7" fill="#ff9f43" opacity="0.29"/><circle cx="239.0" cy="252.2" r="1.4" fill="#ff9f43" opacity="0.24"/><circle cx="383.4" cy="146.3" r="0.5" fill="#ff9f43" opacity="0.56"/><circle cx="269.5" cy="439.0" r="0.7" fill="#ff9f43" opacity="0.31"/><circle cx="336.6" cy="356.1" r="1.0" fill="#ff9f43" opacity="0.50"/><circle cx="254.0" cy="222.5" r="1.2" fill="#ff9f43" opacity="0.47"/><circle cx="342.5" cy="466.9" r="1.7" fill="#ff9f43" opacity="0.26"/><circle cx="63.9" cy="439.3" r="1.4" fill="#ff9f43" opacity="0.62"/><circle cx="376.3" cy="402.5" r="1.0" fill="#ff9f43" opacity="0.54"/><circle cx="356.2" cy="536.2" r="1.1" fill="#ff9f43" opacity="0.47"/><circle cx="87.5" cy="315.1" r="0.6" fill="#ff9f43" opacity="0.45"/><circle cx="217.2" cy="499.5" r="0.9" fill="#ff9f43" opacity="0.59"/><circle cx="177.3" cy="460.4" r="1.5" fill="#ff9f43" opacity="0.27"/><circle cx="274.1" cy="356.7" r="1.1" fill="#ff9f43" opacity="0.32"/><circle cx="43.3" cy="326.9" r="1.9" fill="#ff9f43" opacity="0.45"/><circle cx="72.5" cy="52.7" r="0.8" fill="#ff9f43" opacity="0.49"/><circle cx="90.3" cy="377.7" r="0.8" fill="#ff9f43" opacity="0.56"/><circle cx="121.2" cy="257.9" r="2.0" fill="#ff9f43" opacity="0.46"/><circle cx="308.5" cy="246.5" r="1.6" fill="#ff9f43" opacity="0.48"/><circle cx="202.8" cy="191.2" r="0.8" fill="#ff9f43" opacity="0.50"/><circle cx="317.6" cy="106.0" r="0.7" fill="#ff9f43" opacity="0.45"/><circle cx="351.8" cy="295.1" r="1.8" fill="#ff9f43" opacity="0.55"/><circle cx="78.2" cy="170.7" r="0.6" fill="#ff9f43" opacity="0.48"/><circle cx="99.3" cy="244.5" r="0.5" fill="#ff9f43" opacity="0.25"/><circle cx="69.3" cy="11.8" r="0.9" fill="#ff9f43" opacity="0.56"/><circle cx="383.3" cy="129.4" r="1.2" fill="#ff9f43" opacity="0.33"/><circle cx="132.7" cy="486.7" r="1.0" fill="#ff9f43" opacity="0.21"/><circle cx="127.4" cy="330.0" r="1.5" fill="#ff9f43" opacity="0.32"/><circle cx="184.7" cy="440.7" r="0.6" fill="#ff9f43" opacity="0.38"/><circle cx="284.7" cy="85.9" r="1.5" fill="#ff9f43" opacity="0.64"/><circle cx="393.0" cy="503.1" r="1.6" fill="#ff9f43" opacity="0.67"/><circle cx="149.0" cy="358.0" r="1.2" fill="#ff9f43" opacity="0.47"/><circle cx="21.9" cy="535.5" r="1.7" fill="#ff9f43" opacity="0.39"/><circle cx="332.7" cy="344.3" r="0.6" fill="#ff9f43" opacity="0.46"/><circle cx="143.0" cy="254.5" r="1.1" fill="#ff9f43" opacity="0.43"/><circle cx="11.0" cy="528.8" r="1.0" fill="#ff9f43" opacity="0.29"/><circle cx="213.1" cy="226.9" r="1.0" fill="#ff9f43" opacity="0.50"/><circle cx="33.3" cy="503.5" r="1.3" fill="#ff9f43" opacity="0.59"/><circle cx="118.5" cy="439.1" r="1.9" fill="#ff9f43" opacity="0.67"/><circle cx="300.9" cy="524.4" r="0.9" fill="#ff9f43" opacity="0.63"/><circle cx="86.5" cy="358.6" r="1.3" fill="#ff9f43" opacity="0.29"/><circle cx="211.2" cy="79.8" r="0.9" fill="#ff9f43" opacity="0.37"/><circle cx="62.7" cy="490.1" r="1.2" fill="#ff9f43" opacity="0.69"/><circle cx="169.4" cy="192.8" r="0.5" fill="#ff9f43" opacity="0.37"/><circle cx="155.8" cy="384.2" r="0.5" fill="#ff9f43" opacity="0.21"/><circle cx="165.3" cy="497.2" r="1.5" fill="#ff9f43" opacity="0.51"/><circle cx="148.5" cy="379.7" r="1.5" fill="#ff9f43" opacity="0.64"/><circle cx="218.9" cy="45.6" r="1.7" fill="#ff9f43" opacity="0.53"/><circle cx="75.4" cy="359.1" r="1.2" fill="#ff9f43" opacity="0.42"/><circle cx="290.6" cy="172.5" r="0.8" fill="#ff9f43" opacity="0.45"/><circle cx="267.2" cy="557.4" r="1.1" fill="#ff9f43" opacity="0.67"/><circle cx="59.5" cy="449.2" r="1.3" fill="#ff9f43" opacity="0.25"/><circle cx="62.4" cy="504.6" r="0.9" fill="#ff9f43" opacity="0.63"/>
  <circle cx="200" cy="240" r="63.1548353909465" fill="none" stroke="#e94ec7" stroke-opacity="0.08" stroke-width="1.2036351165980796"/><circle cx="200" cy="240" r="83.73144718792867" fill="none" stroke="#e94ec7" stroke-opacity="0.12" stroke-width="1.470216049382716"/><circle cx="200" cy="240" r="111.60847050754458" fill="none" stroke="#e94ec7" stroke-opacity="0.16" stroke-width="1.018689986282579"/><circle cx="200" cy="240" r="127.03281893004115" fill="none" stroke="#e94ec7" stroke-opacity="0.20" stroke-width="2.98485939643347"/><circle cx="200" cy="240" r="154.39955418381345" fill="none" stroke="#e94ec7" stroke-opacity="0.24" stroke-width="1.986008230452675"/><circle cx="200" cy="240" r="175.14077503429354" fill="none" stroke="#e94ec7" stroke-opacity="0.28" stroke-width="1.0097908093278463"/><circle cx="200" cy="240" r="197.94783950617284" fill="none" stroke="#e94ec7" stroke-opacity="0.32" stroke-width="1.6364540466392317"/>
  <text x="200" y="270" font-family="sans-serif" font-size="140" text-anchor="middle" fill="#ff9f43" opacity="0.85">🪩</text>
  <rect x="12" y="12" width="376" height="536" fill="none" stroke="#e94ec7" stroke-width="4.5" opacity="0.7"/>
  <rect x="20" y="440" width="360" height="100" fill="#000" opacity="0.55"/>
  <text x="200" y="475" font-family="sans-serif" font-size="22" font-weight="bold" text-anchor="middle" fill="#ff9f43">Astro Warlord</text>
  <text x="200" y="500" font-family="sans-serif" font-size="11" text-anchor="middle" fill="#e94ec7" letter-spacing="3">COSMIC 1970S</text>
  <text x="200" y="525" font-family="sans-serif" font-size="10" text-anchor="middle" fill="#ffffff" opacity="0.7" letter-spacing="2">DIVINE</text>
</svg>