<svg xmlns="http://www.w3.org/2000/svg" viewBox="0 0 400 560" preserveAspectRatio="xMidYMid slice">
  <defs>
    <linearGradient id="bg" x1="0" y1="0" x2="0" y2="1">
      <stop offset="0" stop-color="#1a0533"/>
      <stop offset="1" stop-color="#3d0f5c"/>
    </linearGradient>
    <radialGradient id="glow" cx="50%" cy="42%" r="50%">
      <stop offset="0" stop-color="#e94ec7" stop-opacity="0.55"/>
      <stop offset="0.5" stop-color="#e94ec7" stop-opacity="0.12"/>
      <stop offset="1" stop-color="#e94ec7" stop-opacity="0"/>
    </radialGradient>
  </defs>
  <rect width="400" height="560" fill="url(#bg)"/>
  <rect width="400" height="560" fill="url(#glow)"/>
  <circle cx="188.9" cy="441.7" r="1.6" fill="#ff9f43" opacity="0.58"/><circle cx="97.2" cy="18.9" r="0.8" fill="#ff9f43" opacity="0.37"/><circle cx="53.2" cy="153.8" r="1.2" fill="#ff9f43" opacity="0.41"/><circle cx="126.1" cy="51.3" r="1.0" fill="#ff9f43" opacity="0.59"/><circle cx="236.8" cy="140.1" r="0.6" fill="#ff9f43" opacity="0.40"/><circle cx="247.2" cy="330.3" r="1.9" fill="#ff9f43" opacity="0.62"/><circle cx="315.1" cy="324.6" r="1.0" fill="#ff9f43" opacity="0.23"/><circle cx="317.2" cy="302.8" r="1.8" fill="#ff9f43" opacity="0.69"/><circle cx="337.4" cy="299.4" r="1.3" fill="#ff9f43" opacity="0.54"/><circle cx="222.7" cy="514.9" r="1.2" fill="#ff9f43" opacity="0.36"/><circle cx="205.0" cy="320.3" r="0.9" fill="#ff9f43" opacity="0.57"/><circle cx="190.7" cy="434.4" r="0.5" fill="#ff9f43" opacity="0.49"/><circle cx="115.4" cy="435.6" r="0.9" fill="#ff9f43" opacity="0.31"/><circle cx="166.9" cy="5.9" r="2.0" fill="#ff9f43" opacity="0.38"/><circle cx="73.5" cy="548.7" r="0.5" fill="#ff9f43" opacity="0.31"/><circle cx="260.0" cy="460.0" r="1.3" fill="#ff9f43" opacity="0.40"/><circle cx="69.5" cy="293.0" r="1.5" fill="#ff9f43" opacity="0.45"/><circle cx="252.7" cy="455.5" r="0.8" fill="#ff9f43" opacity="0.33"/><circle cx="123.1" cy="401.4" r="1.8" fill="#ff9f43" opacity="0.47"/><circle cx="179.5" cy="434.9" r="1.9" fill="#ff9f43" opacity="0.61"/><circle cx="194.8" cy="528.3" r="0.9" fill="#ff9f43" opacity="0.39"/><circle cx="371.4" cy="73.3" r="1.9" fill="#ff9f43" opacity="0.36"/><circle cx="363.6" cy="245.0" r="1.3" fill="#ff9f43" opacity="0.70"/><circle cx="166.6" cy="20.4" r="1.7" fill="#ff9f43" opacity="0.33"/><circle cx="71.5" cy="408.8" r="1.1" fill="#ff9f43" opacity="0.40"/><circle cx="88.5" cy="96.6" r="0.7" fill="#ff9f43" opacity="0.54"/><circle cx="34.6" cy="425.0" r="1.3" fill="#ff9f43" opacity="0.46"/><circle cx="290.2" cy="101.3" r="1.9" fill="#ff9f43" opacity="0.42"/><circle cx="20.7" cy="362.9" r="1.0" fill="#ff9f43" opacity="0.48"/><circle cx="65.6" cy="435.6" r="0.7" fill="#ff9f43" opacity="0.64"/><circle cx="94.1" cy="84.2" r="0.8" fill="#ff9f43" opacity="0.25"/><circle cx="27.0" cy="297.5" r="1.7" fill="#ff9f43" opacity="0.34"/><circle cx="126.2" cy="425.4" r="0.8" fill="#ff9f43" opacity="0.68"/><circle cx="149.8" cy="170.9" r="1.8" fill="#ff9f43" opacity="0.24"/><circle cx="374.1" cy="273.5" r="0.9" fill="#ff9f43" opacity="0.47"/><circle cx="83.2" cy="207.9" r="1.3" fill="#ff9f43" opacity="0.43"/><circle cx="324.0" cy="174.5" r="1.5" fill="#ff9f43" opacity="0.70"/><circle cx="128.5" cy="104.3" r="1.0" fill="#ff9f43" opacity="0.68"/><circle cx="203.1" cy="156.2" r="1.5" fill="#ff9f43" opacity="0.21"/><circle cx="83.4" cy="468.5" r="0.7" fill="#ff9f43" opacity="0.48"/>
  <circle cx="200" cy="240" r="66.68933470507545" fill="none" stroke="#e94ec7" stroke-opacity="0.08" stroke-width="1.7981652949245541"/><circle cx="200" cy="240" r="82.63220164609054" fill="none" stroke="#e94ec7" stroke-opacity="0.12" stroke-width="1.449519890260631"/><circle cx="200" cy="240" r="109.62856652949246" fill="none" stroke="#e94ec7" stroke-opacity="0.16" stroke-width="1.2469650205761318"/><circle cx="200" cy="240" r="131.77719478737998" fill="none" stroke="#e94ec7" stroke-opacity="0.20" stroke-width="2.8448216735253773"/><circle cx="200" cy="240" r="152.4361111111111" fill="none" stroke="#e94ec7" stroke-opacity="0.24" stroke-width="2.4900034293552813"/>
  <text x="200" y="270" font-family="sans-serif" font-size="140" text-anchor="middle" fill="#ff9f43" opacity="0.85">🪩</text>
  <rect x="4" y="4" width="392" height="552" fill="none" stroke="#e94ec7" stroke-width="1.5" opacity="0.7"/>
  <rect x="20" y="440" width="360" height="100" fill="#000" opacity="0.55"/>
  <text x="200" y="475" font-family="sans-serif" font-size="22" font-weight="bold" text-anchor="middle" fill="#ff9f43">Wah-Wah Prophet</text>
  <text x="200" y="500" font-family="sans-serif" font-size="11" text-anchor="middle" fill="#e94ec7" letter-spacing="3">COSMIC 1970S</text>
  <text x="200" y="525" font-family="sans-serif" font-size="10" text-anchor="middle" fill="#ffffff" opacity="0.7" letter-spacing="2">COMMON</text>
</svg>