<svg xmlns="http://www.w3.org/2000/svg" viewBox="0 0 400 560" preserveAspectRatio="xMidYMid slice">
  <defs>
    <linearGradient id="bg" x1="0" y1="0" x2="0" y2="1">
      <stop offset="0" stop-color="#1a0533"/>
      <stop offset="1" stop-color="#3d0f5c"/>
    </linearGradient>
    <radialGradient id="glow" cx="50%" cy="42%" r="50%">
      <stop offset="0" stop-color="#e94ec7" stop-opacity="0.55"/>
      <stop offset="0.5" stop-color="#e94ec7" stop-opacity="0.12"/>
      <stop offset="1" stop-color="#e94ec7" stop-opacity="0"/>
    </radialGradient>
  </defs>
  <rect width="400" height="560" fill="url(#bg)"/>
  <rect width="400" height="560" fill="url(#glow)"/>
  <circle cx="349.7" cy="428.5" r="1.3" fill="#ff9f43" opacity="0.59"/><circle cx="88.1" cy="23.6" r="1.6" fill="#ff9f43" opacity="0.45"/><circle cx="338.3" cy="38.0" r="0.6" fill="#ff9f43" opacity="0.38"/><circle cx="117.8" cy="133.2" r="0.5" fill="#ff9f43" opacity="0.60"/><circle cx="206.7" cy="136.1" r="2.0" fill="#ff9f43" opacity="0.35"/><circle cx="170.6" cy="164.4" r="2.0" fill="#ff9f43" opacity="0.70"/><circle cx="48.8" cy="3.7" r="1.1" fill="#ff9f43" opacity="0.65"/><circle cx="310.6" cy="539.0" r="0.5" fill="#ff9f43" opacity="0.56"/><circle cx="76.9" cy="518.9" r="0.8" fill="#ff9f43" opacity="0.44"/><circle cx="9.4" cy="413.6" r="0.8" fill="#ff9f43" opacity="0.56"/><circle cx="266.3" cy="485.7" r="1.2" fill="#ff9f43" opacity="0.41"/><circle cx="323.9" cy="354.9" r="1.1" fill="#ff9f43" opacity="0.44"/><circle cx="266.4" cy="56.0" r="0.9" fill="#ff9f43" opacity="0.69"/><circle cx="340.5" cy="349.3" r="2.0" fill="#ff9f43" opacity="0.25"/><circle cx="378.4" cy="45.8" r="0.9" fill="#ff9f43" opacity="0.53"/><circle cx="286.3" cy="424.3" r="0.8" fill="#ff9f43" opacity="0.35"/><circle cx="399.9" cy="503.3" r="0.8" fill="#ff9f43" opacity="0.40"/><circle cx="106.9" cy="524.7" r="1.1" fill="#ff9f43" opacity="0.54"/><circle cx="335.8" cy="212.0" r="1.4" fill="#ff9f43" opacity="0.38"/><circle cx="311.2" cy="201.1" r="1.8" fill="#ff9f43" opacity="0.20"/><circle cx="176.2" cy="485.2" r="1.2" fill="#ff9f43" opacity="0.32"/><circle cx="281.6" cy="352.2" r="0.8" fill="#ff9f43" opacity="0.61"/><circle cx="340.9" cy="375.8" r="1.4" fill="#ff9f43" opacity="0.49"/><circle cx="52.9" cy="300.4" r="0.8" fill="#ff9f43" opacity="0.69"/><circle cx="390.4" cy="98.3" r="1.4" fill="#ff9f43" opacity="0.38"/><circle cx="355.9" cy="281.0" r="0.6" fill="#ff9f43" opacity="0.58"/><circle cx="3.7" cy="343.9" r="0.8" fill="#ff9f43" opacity="0.48"/><circle cx="128.8" cy="383.7" r="1.4" fill="#ff9f43" opacity="0.52"/><circle cx="222.7" cy="289.8" r="2.0" fill="#ff9f43" opacity="0.33"/><circle cx="295.2" cy="428.7" r="0.8" fill="#ff9f43" opacity="0.54"/><circle cx="163.5" cy="461.7" r="1.6" fill="#ff9f43" opacity="0.36"/><circle cx="208.0" cy="215.7" r="1.9" fill="#ff9f43" opacity="0.56"/><circle cx="394.1" cy="368.5" r="1.7" fill="#ff9f43" opacity="0.69"/><circle cx="361.2" cy="145.6" r="1.6" fill="#ff9f43" opacity="0.25"/><circle cx="178.5" cy="432.0" r="1.5" fill="#ff9f43" opacity="0.60"/><circle cx="167.1" cy="536.3" r="1.6" fill="#ff9f43" opacity="0.26"/><circle cx="188.5" cy="368.7" r="0.9" fill="#ff9f43" opacity="0.50"/><circle cx="0.9" cy="191.9" r="1.6" fill="#ff9f43" opacity="0.29"/><circle cx="280.8" cy="185.6" r="1.4" fill="#ff9f43" opacity="0.59"/><circle cx="312.1" cy="384.5" r="2.0" fill="#ff9f43" opacity="0.45"/><circle cx="341.8" cy="428.9" r="1.9" fill="#ff9f43" opacity="0.46"/><circle cx="201.9" cy="249.8" r="0.7" fill="#ff9f43" opacity="0.52"/><circle cx="198.7" cy="6.2" r="1.3" fill="#ff9f43" opacity="0.44"/><circle cx="267.9" cy="396.3" r="1.8" fill="#ff9f43" opacity="0.45"/><circle cx="197.1" cy="542.1" r="1.8" fill="#ff9f43" opacity="0.37"/><circle cx="114.9" cy="167.1" r="1.5" fill="#ff9f43" opacity="0.31"/><circle cx="45.8" cy="467.3" r="0.8" fill="#ff9f43" opacity="0.58"/><circle cx="133.1" cy="315.9" r="1.5" fill="#ff9f43" opacity="0.48"/><circle cx="327.4" cy="120.6" r="1.9" fill="#ff9f43" opacity="0.37"/><circle cx="342.2" cy="455.4" r="1.4" fill="#ff9f43" opacity="0.70"/>
  <circle cx="200" cy="240" r="61.56001371742113" fill="none" stroke="#e94ec7" stroke-opacity="0.08" stroke-width="2.8445387517146776"/><circle cx="200" cy="240" r="83.91028806584362" fill="none" stroke="#e94ec7" stroke-opacity="0.12" stroke-width="1.3199674211248285"/><circle cx="200" cy="240" r="105.75850480109739" fill="none" stroke="#e94ec7" stroke-opacity="0.16" stroke-width="2.385931069958848"/><circle cx="200" cy="240" r="129.8700960219479" fill="none" stroke="#e94ec7" stroke-opacity="0.20" stroke-width="2.3634173525377227"/><circle cx="200" cy="240" r="154.26975308641974" fill="none" stroke="#e94ec7" stroke-opacity="0.24" stroke-width="2.1660065157750346"/><circle cx="200" cy="240" r="175.79698216735252" fill="none" stroke="#e94ec7" stroke-opacity="0.28" stroke-width="2.8554269547325104"/>
  <text x="200" y="270" font-family="sans-serif" font-size="140" text-anchor="middle" fill="#ff9f43" opacity="0.85">🪩</text>
  <rect x="8" y="8" width="384" height="544" fill="none" stroke="#e94ec7" stroke-width="3" opacity="0.7"/>
  <rect x="20" y="440" width="360" height="100" fill="#000" opacity="0.55"/>
  <text x="200" y="475" font-family="sans-serif" font-size="22" font-weight="bold" text-anchor="middle" fill="#ff9f43">Cosmic Empress</text>
  <text x="200" y="500" font-family="sans-serif" font-size="11" text-anchor="middle" fill="#e94ec7" letter-spacing="3">COSMIC 1970S</text>
  <text x="200" y="525" font-family="sans-serif" font-size="10" text-anchor="middle" fill="#ffffff" opacity="0.7" letter-spacing="2">RARE</text>
</svg>