<svg xmlns="http://www.w3.org/2000/svg" viewBox="0 0 400 560" preserveAspectRatio="xMidYMid slice">
  <defs>
    <linearGradient id="bg" x1="0" y1="0" x2="0" y2="1">
      <stop offset="0" stop-color="#0a1a0f"/>
      <stop offset="1" stop-color="#1a3d24"/>
    </linearGradient>
    <radialGradient id="glow" cx="50%" cy="42%" r="50%">
      <stop offset="0" stop-color="#f5d23a" stop-opacity="0.55"/>
      <stop offset="0.5" stop-color="#f5d23a" stop-opacity="0.12"/>
      <stop offset="1" stop-color="#f5d23a" stop-opacity="0"/>
    </radialGradient>
  </defs>
  <rect width="400" height="560" fill="url(#bg)"/>
  <rect width="400" height="560" fill="url(#glow)"/>
  <circle cx="390.8" cy="37.3" r="0.6" fill="#3acf5c" opacity="0.58"/><circle cx="336.1" cy="288.6" r="0.8" fill="#3acf5c" opacity="0.58"/><circle cx="106.9" cy="413.1" r="0.8" fill="#3acf5c" opacity="0.56"/><circle cx="305.7" cy="362.5" r="0.9" fill="#3acf5c" opacity="0.55"/><circle cx="186.9" cy="192.0" r="2.0" fill="#3acf5c" opacity="0.25"/><circle cx="145.4" cy="558.5" r="1.9" fill="#3acf5c" opacity="0.57"/><circle cx="72.6" cy="231.3" r="1.8" fill="#3acf5c" opacity="0.67"/><circle cx="378.4" cy="136.9" r="1.6" fill="#3acf5c" opacity="0.67"/><circle cx="80.1" cy="496.5" r="1.8" fill="#3acf5c" opacity="0.29"/><circle cx="357.9" cy="17.2" r="1.4" fill="#3acf5c" opacity="0.28"/><circle cx="377.3" cy="496.6" r="0.6" fill="#3acf5c" opacity="0.70"/><circle cx="177.7" cy="40.4" r="1.4" fill="#3acf5c" opacity="0.55"/><circle cx="228.4" cy="93.4" r="0.6" fill="#3acf5c" opacity="0.69"/><circle cx="50.3" cy="524.4" r="1.6" fill="#3acf5c" opacity="0.64"/><circle cx="305.0" cy="123.5" r="1.8" fill="#3acf5c" opacity="0.67"/><circle cx="350.8" cy="273.4" r="1.9" fill="#3acf5c" opacity="0.26"/><circle cx="64.0" cy="33.8" r="1.0" fill="#3acf5c" opacity="0.35"/><circle cx="328.6" cy="559.3" r="1.0" fill="#3acf5c" opacity="0.50"/><circle cx="191.7" cy="370.4" r="1.8" fill="#3acf5c" opacity="0.30"/><circle cx="285.1" cy="517.9" r="1.4" fill="#3acf5c" opacity="0.65"/><circle cx="115.2" cy="41.0" r="1.5" fill="#3acf5c" opacity="0.37"/><circle cx="17.7" cy="197.7" r="1.3" fill="#3acf5c" opacity="0.66"/><circle cx="180.3" cy="110.2" r="0.7" fill="#3acf5c" opacity="0.38"/><circle cx="331.4" cy="61.9" r="1.2" fill="#3acf5c" opacity="0.61"/><circle cx="95.6" cy="128.8" r="1.4" fill="#3acf5c" opacity="0.67"/><circle cx="16.3" cy="304.0" r="1.5" fill="#3acf5c" opacity="0.36"/><circle cx="43.9" cy="435.4" r="1.2" fill="#3acf5c" opacity="0.55"/><circle cx="292.1" cy="536.9" r="1.6" fill="#3acf5c" opacity="0.67"/><circle cx="59.6" cy="352.6" r="1.7" fill="#3acf5c" opacity="0.44"/><circle cx="319.3" cy="414.9" r="1.0" fill="#3acf5c" opacity="0.53"/><circle cx="73.7" cy="115.4" r="1.4" fill="#3acf5c" opacity="0.47"/><circle cx="177.1" cy="69.4" r="0.8" fill="#3acf5c" opacity="0.44"/><circle cx="224.4" cy="373.6" r="1.6" fill="#3acf5c" opacity="0.38"/><circle cx="107.2" cy="357.6" r="1.9" fill="#3acf5c" opacity="0.42"/><circle cx="235.2" cy="387.6" r="1.4" fill="#3acf5c" opacity="0.20"/><circle cx="25.8" cy="124.9" r="1.0" fill="#3acf5c" opacity="0.43"/><circle cx="259.2" cy="516.8" r="1.0" fill="#3acf5c" opacity="0.36"/><circle cx="100.8" cy="0.6" r="1.5" fill="#3acf5c" opacity="0.56"/><circle cx="390.1" cy="42.2" r="1.6" fill="#3acf5c" opacity="0.52"/><circle cx="396.4" cy="406.4" r="1.1" fill="#3acf5c" opacity="0.61"/>
  <circle cx="200" cy="240" r="64.4306927297668" fill="none" stroke="#f5d23a" stroke-opacity="0.08" stroke-width="1.8909122085048011"/><circle cx="200" cy="240" r="85.18837448559671" fill="none" stroke="#f5d23a" stroke-opacity="0.12" stroke-width="1.1904149519890261"/><circle cx="200" cy="240" r="109.88844307270233" fill="none" stroke="#f5d23a" stroke-opacity="0.16" stroke-width="1.524897119341564"/><circle cx="200" cy="240" r="127.96299725651578" fill="none" stroke="#f5d23a" stroke-opacity="0.20" stroke-width="1.8820130315500685"/><circle cx="200" cy="240" r="148.1033950617284" fill="none" stroke="#f5d23a" stroke-opacity="0.24" stroke-width="1.8420096021947874"/>
  <text x="200" y="270" font-family="sans-serif" font-size="140" text-anchor="middle" fill="#3acf5c" opacity="0.85">🎤</text>
  <rect x="4" y="4" width="392" height="552" fill="none" stroke="#f5d23a" stroke-width="1.5" opacity="0.7"/>
  <rect x="20" y="440" width="360" height="100" fill="#000" opacity="0.55"/>
  <text x="200" y="475" font-family="sans-serif" font-size="22" font-weight="bold" text-anchor="middle" fill="#3acf5c">Sample Queen</text>
  <text x="200" y="500" font-family="sans-serif" font-size="11" text-anchor="middle" fill="#f5d23a" letter-spacing="3">BOOM-BAP 1990S</text>
  <text x="200" y="525" font-family="sans-serif" font-size="10" text-anchor="middle" fill="#ffffff" opacity="0.7" letter-spacing="2">COMMON</text>
</svg>