<svg xmlns="http://www.w3.org/2000/svg" viewBox="0 0 400 560" preserveAspectRatio="xMidYMid slice">
  <defs>
    <linearGradient id="bg" x1="0" y1="0" x2="0" y2="1">
      <stop offset="0" stop-color="#1a0f04"/>
      <stop offset="1" stop-color="#3d2410"/>
    </linearGradient>
    <radialGradient id="glow" cx="50%" cy="42%" r="50%">
      <stop offset="0" stop-color="#d4a84c" stop-opacity="0.55"/>
      <stop offset="0.5" stop-color="#d4a84c" stop-opacity="0.12"/>
      <stop offset="1" stop-color="#d4a84c" stop-opacity="0"/>
    </radialGradient>
  </defs>
  <rect width="400" height="560" fill="url(#bg)"/>
  <rect width="400" height="560" fill="url(#glow)"/>
  <circle cx="384.5" cy="78.7" r="1.4" fill="#f5d77a" opacity="0.26"/><circle cx="339.7" cy="136.3" r="1.4" fill="#f5d77a" opacity="0.38"/><circle cx="327.8" cy="482.1" r="0.6" fill="#f5d77a" opacity="0.58"/><circle cx="106.9" cy="258.6" r="1.2" fill="#f5d77a" opacity="0.33"/><circle cx="353.4" cy="205.7" r="0.9" fill="#f5d77a" opacity="0.59"/><circle cx="351.4" cy="357.8" r="1.3" fill="#f5d77a" opacity="0.41"/><circle cx="347.8" cy="355.6" r="1.1" fill="#f5d77a" opacity="0.37"/><circle cx="174.6" cy="129.8" r="1.2" fill="#f5d77a" opacity="0.39"/><circle cx="138.0" cy="399.5" r="1.8" fill="#f5d77a" opacity="0.28"/><circle cx="173.8" cy="183.0" r="0.6" fill="#f5d77a" opacity="0.24"/><circle cx="69.8" cy="282.1" r="0.6" fill="#f5d77a" opacity="0.61"/><circle cx="354.2" cy="420.5" r="1.5" fill="#f5d77a" opacity="0.51"/><circle cx="251.8" cy="114.0" r="0.7" fill="#f5d77a" opacity="0.24"/><circle cx="305.7" cy="475.9" r="1.3" fill="#f5d77a" opacity="0.60"/><circle cx="66.7" cy="234.0" r="1.6" fill="#f5d77a" opacity="0.45"/><circle cx="48.2" cy="522.1" r="0.9" fill="#f5d77a" opacity="0.24"/><circle cx="349.1" cy="524.5" r="1.5" fill="#f5d77a" opacity="0.67"/><circle cx="342.1" cy="213.5" r="1.4" fill="#f5d77a" opacity="0.43"/><circle cx="229.8" cy="100.6" r="0.8" fill="#f5d77a" opacity="0.54"/><circle cx="66.5" cy="241.3" r="0.7" fill="#f5d77a" opacity="0.68"/><circle cx="247.2" cy="172.2" r="1.9" fill="#f5d77a" opacity="0.28"/><circle cx="263.3" cy="342.8" r="1.2" fill="#f5d77a" opacity="0.50"/><circle cx="124.7" cy="559.5" r="1.3" fill="#f5d77a" opacity="0.44"/><circle cx="48.6" cy="483.5" r="1.3" fill="#f5d77a" opacity="0.33"/><circle cx="15.3" cy="502.0" r="1.8" fill="#f5d77a" opacity="0.43"/><circle cx="390.2" cy="172.5" r="1.3" fill="#f5d77a" opacity="0.30"/><circle cx="12.9" cy="400.7" r="1.9" fill="#f5d77a" opacity="0.42"/><circle cx="152.5" cy="391.6" r="2.0" fill="#f5d77a" opacity="0.68"/><circle cx="329.9" cy="13.7" r="1.8" fill="#f5d77a" opacity="0.58"/><circle cx="6.9" cy="297.2" r="1.9" fill="#f5d77a" opacity="0.38"/><circle cx="141.5" cy="384.9" r="1.2" fill="#f5d77a" opacity="0.58"/><circle cx="210.3" cy="456.4" r="0.7" fill="#f5d77a" opacity="0.62"/><circle cx="297.2" cy="546.3" r="0.5" fill="#f5d77a" opacity="0.55"/><circle cx="249.1" cy="295.2" r="0.6" fill="#f5d77a" opacity="0.46"/><circle cx="298.1" cy="193.9" r="0.6" fill="#f5d77a" opacity="0.25"/><circle cx="350.4" cy="401.3" r="0.5" fill="#f5d77a" opacity="0.25"/><circle cx="341.8" cy="495.9" r="1.1" fill="#f5d77a" opacity="0.65"/><circle cx="60.0" cy="159.5" r="0.9" fill="#f5d77a" opacity="0.31"/><circle cx="33.3" cy="235.6" r="1.3" fill="#f5d77a" opacity="0.32"/><circle cx="286.4" cy="240.3" r="0.8" fill="#f5d77a" opacity="0.50"/>
  <circle cx="200" cy="240" r="61.292832647462276" fill="none" stroke="#d4a84c" stroke-opacity="0.08" stroke-width="1.581755829903978"/><circle cx="200" cy="240" r="87.33446502057613" fill="none" stroke="#d4a84c" stroke-opacity="0.12" stroke-width="1.3874314128943759"/><circle cx="200" cy="240" r="111.68885459533608" fill="none" stroke="#d4a84c" stroke-opacity="0.16" stroke-width="1.93179012345679"/><circle cx="200" cy="240" r="130.01032235939644" fill="none" stroke="#d4a84c" stroke-opacity="0.20" stroke-width="2.4247085048010977"/><circle cx="200" cy="240" r="154.54578189300412" fill="none" stroke="#d4a84c" stroke-opacity="0.24" stroke-width="2.0019890260631"/>
  <text x="200" y="270" font-family="serif" font-size="140" text-anchor="middle" fill="#f5d77a" opacity="0.85">☥</text>
  <rect x="4" y="4" width="392" height="552" fill="none" stroke="#d4a84c" stroke-width="1.5" opacity="0.7"/>
  <rect x="20" y="440" width="360" height="100" fill="#000" opacity="0.55"/>
  <text x="200" y="475" font-family="serif" font-size="22" font-weight="bold" text-anchor="middle" fill="#f5d77a">Sun Oracle</text>
  <text x="200" y="500" font-family="sans-serif" font-size="11" text-anchor="middle" fill="#d4a84c" letter-spacing="3">DYNASTY</text>
  <text x="200" y="525" font-family="sans-serif" font-size="10" text-anchor="middle" fill="#ffffff" opacity="0.7" letter-spacing="2">COMMON</text>
</svg>