<svg xmlns="http://www.w3.org/2000/svg" viewBox="0 0 400 560" preserveAspectRatio="xMidYMid slice">
  <defs>
    <linearGradient id="bg" x1="0" y1="0" x2="0" y2="1">
      <stop offset="0" stop-color="#0a0a0a"/>
      <stop offset="1" stop-color="#1f1f1f"/>
    </linearGradient>
    <radialGradient id="glow" cx="50%" cy="42%" r="50%">
      <stop offset="0" stop-color="#c9a84c" stop-opacity="0.55"/>
      <stop offset="0.5" stop-color="#c9a84c" stop-opacity="0.12"/>
      <stop offset="1" stop-color="#c9a84c" stop-opacity="0"/>
    </radialGradient>
  </defs>
  <rect width="400" height="560" fill="url(#bg)"/>
  <rect width="400" height="560" fill="url(#glow)"/>
  <circle cx="354.2" cy="329.3" r="0.9" fill="#f0d78c" opacity="0.37"/><circle cx="58.0" cy="41.9" r="1.2" fill="#f0d78c" opacity="0.30"/><circle cx="347.7" cy="402.1" r="0.8" fill="#f0d78c" opacity="0.23"/><circle cx="196.3" cy="262.1" r="0.6" fill="#f0d78c" opacity="0.30"/><circle cx="206.3" cy="133.7" r="0.9" fill="#f0d78c" opacity="0.56"/><circle cx="31.8" cy="72.1" r="1.3" fill="#f0d78c" opacity="0.69"/><circle cx="68.1" cy="174.2" r="1.0" fill="#f0d78c" opacity="0.61"/><circle cx="206.4" cy="329.2" r="1.2" fill="#f0d78c" opacity="0.48"/><circle cx="56.7" cy="343.7" r="1.8" fill="#f0d78c" opacity="0.41"/><circle cx="236.1" cy="438.8" r="1.7" fill="#f0d78c" opacity="0.62"/><circle cx="325.1" cy="441.8" r="1.7" fill="#f0d78c" opacity="0.37"/><circle cx="288.9" cy="470.1" r="1.7" fill="#f0d78c" opacity="0.22"/><circle cx="167.1" cy="309.4" r="0.7" fill="#f0d78c" opacity="0.67"/><circle cx="28.9" cy="284.7" r="1.7" fill="#f0d78c" opacity="0.58"/><circle cx="195.2" cy="264.6" r="0.5" fill="#f0d78c" opacity="0.46"/><circle cx="127.8" cy="159.2" r="0.5" fill="#f0d78c" opacity="0.59"/><circle cx="384.6" cy="231.3" r="0.9" fill="#f0d78c" opacity="0.43"/><circle cx="42.3" cy="100.6" r="0.8" fill="#f0d78c" opacity="0.46"/><circle cx="384.7" cy="361.7" r="0.6" fill="#f0d78c" opacity="0.21"/><circle cx="58.8" cy="95.0" r="1.7" fill="#f0d78c" opacity="0.27"/><circle cx="96.7" cy="351.4" r="0.6" fill="#f0d78c" opacity="0.55"/><circle cx="4.6" cy="170.0" r="1.9" fill="#f0d78c" opacity="0.37"/><circle cx="118.2" cy="249.0" r="0.5" fill="#f0d78c" opacity="0.43"/><circle cx="225.3" cy="270.4" r="0.8" fill="#f0d78c" opacity="0.57"/><circle cx="54.1" cy="517.6" r="1.1" fill="#f0d78c" opacity="0.40"/><circle cx="29.5" cy="506.7" r="1.5" fill="#f0d78c" opacity="0.23"/><circle cx="294.6" cy="230.8" r="0.9" fill="#f0d78c" opacity="0.34"/><circle cx="400.0" cy="97.8" r="2.0" fill="#f0d78c" opacity="0.63"/><circle cx="59.3" cy="121.5" r="1.1" fill="#f0d78c" opacity="0.51"/><circle cx="171.2" cy="46.1" r="0.5" fill="#f0d78c" opacity="0.21"/><circle cx="108.7" cy="404.0" r="1.1" fill="#f0d78c" opacity="0.40"/><circle cx="74.2" cy="26.7" r="1.8" fill="#f0d78c" opacity="0.61"/><circle cx="122.0" cy="89.5" r="0.5" fill="#f0d78c" opacity="0.51"/><circle cx="247.2" cy="129.3" r="1.1" fill="#f0d78c" opacity="0.54"/><circle cx="341.0" cy="35.5" r="1.7" fill="#f0d78c" opacity="0.35"/><circle cx="13.5" cy="174.4" r="0.5" fill="#f0d78c" opacity="0.56"/><circle cx="281.9" cy="207.3" r="1.3" fill="#f0d78c" opacity="0.39"/><circle cx="326.4" cy="521.4" r="1.6" fill="#f0d78c" opacity="0.58"/><circle cx="112.4" cy="114.1" r="1.4" fill="#f0d78c" opacity="0.21"/><circle cx="79.5" cy="451.2" r="1.3" fill="#f0d78c" opacity="0.27"/>
  <circle cx="200" cy="240" r="62.54279835390947" fill="none" stroke="#c9a84c" stroke-opacity="0.08" stroke-width="2.064514746227709"/><circle cx="200" cy="240" r="87.89718792866941" fill="none" stroke="#c9a84c" stroke-opacity="0.12" stroke-width="1.8588734567901235"/><circle cx="200" cy="240" r="107.21865569272977" fill="none" stroke="#c9a84c" stroke-opacity="0.16" stroke-width="1.6017918381344307"/><circle cx="200" cy="240" r="132.75411522633746" fill="none" stroke="#c9a84c" stroke-opacity="0.20" stroke-width="2.429072359396433"/><circle cx="200" cy="240" r="148.8986282578875" fill="none" stroke="#c9a84c" stroke-opacity="0.24" stroke-width="2.9579989711934154"/>
  <text x="200" y="270" font-family="serif" font-size="140" text-anchor="middle" fill="#f0d78c" opacity="0.85">🎷</text>
  <rect x="4" y="4" width="392" height="552" fill="none" stroke="#c9a84c" stroke-width="1.5" opacity="0.7"/>
  <rect x="20" y="440" width="360" height="100" fill="#000" opacity="0.55"/>
  <text x="200" y="475" font-family="serif" font-size="22" font-weight="bold" text-anchor="middle" fill="#f0d78c">Charleston Hustler</text>
  <text x="200" y="500" font-family="sans-serif" font-size="11" text-anchor="middle" fill="#c9a84c" letter-spacing="3">ROARING 1920S</text>
  <text x="200" y="525" font-family="sans-serif" font-size="10" text-anchor="middle" fill="#ffffff" opacity="0.7" letter-spacing="2">COMMON</text>
</svg>