<svg xmlns="http://www.w3.org/2000/svg" viewBox="0 0 400 560" preserveAspectRatio="xMidYMid slice">
  <defs>
    <linearGradient id="bg" x1="0" y1="0" x2="0" y2="1">
      <stop offset="0" stop-color="#0a0a0a"/>
      <stop offset="1" stop-color="#1f1f1f"/>
    </linearGradient>
    <radialGradient id="glow" cx="50%" cy="42%" r="50%">
      <stop offset="0" stop-color="#c9a84c" stop-opacity="0.55"/>
      <stop offset="0.5" stop-color="#c9a84c" stop-opacity="0.12"/>
      <stop offset="1" stop-color="#c9a84c" stop-opacity="0"/>
    </radialGradient>
  </defs>
  <rect width="400" height="560" fill="url(#bg)"/>
  <rect width="400" height="560" fill="url(#glow)"/>
  <circle cx="17.5" cy="115.7" r="1.4" fill="#f0d78c" opacity="0.30"/><circle cx="35.3" cy="440.7" r="1.3" fill="#f0d78c" opacity="0.36"/><circle cx="66.2" cy="320.9" r="1.0" fill="#f0d78c" opacity="0.26"/><circle cx="253.5" cy="309.5" r="0.6" fill="#f0d78c" opacity="0.28"/><circle cx="147.8" cy="254.2" r="1.4" fill="#f0d78c" opacity="0.31"/><circle cx="262.6" cy="169.0" r="1.2" fill="#f0d78c" opacity="0.25"/><circle cx="296.8" cy="358.1" r="0.8" fill="#f0d78c" opacity="0.36"/><circle cx="23.2" cy="233.7" r="1.2" fill="#f0d78c" opacity="0.28"/><circle cx="44.3" cy="307.5" r="1.1" fill="#f0d78c" opacity="0.56"/><circle cx="14.3" cy="74.8" r="1.5" fill="#f0d78c" opacity="0.36"/><circle cx="328.3" cy="192.4" r="1.8" fill="#f0d78c" opacity="0.63"/><circle cx="77.7" cy="549.7" r="1.5" fill="#f0d78c" opacity="0.51"/><circle cx="72.4" cy="393.0" r="0.6" fill="#f0d78c" opacity="0.63"/><circle cx="129.7" cy="503.7" r="1.1" fill="#f0d78c" opacity="0.69"/><circle cx="229.7" cy="148.9" r="0.6" fill="#f0d78c" opacity="0.45"/><circle cx="338.0" cy="6.1" r="0.6" fill="#f0d78c" opacity="0.48"/><circle cx="94.0" cy="421.0" r="1.7" fill="#f0d78c" opacity="0.28"/><circle cx="366.9" cy="38.5" r="0.8" fill="#f0d78c" opacity="0.70"/><circle cx="277.7" cy="407.3" r="1.1" fill="#f0d78c" opacity="0.26"/><circle cx="88.0" cy="317.5" r="1.7" fill="#f0d78c" opacity="0.24"/><circle cx="356.0" cy="31.8" r="1.5" fill="#f0d78c" opacity="0.60"/><circle cx="158.1" cy="289.9" r="1.5" fill="#f0d78c" opacity="0.30"/><circle cx="378.3" cy="6.5" r="1.8" fill="#f0d78c" opacity="0.40"/><circle cx="63.5" cy="502.1" r="0.9" fill="#f0d78c" opacity="0.48"/><circle cx="245.9" cy="27.4" r="1.4" fill="#f0d78c" opacity="0.43"/><circle cx="31.5" cy="421.6" r="1.8" fill="#f0d78c" opacity="0.60"/><circle cx="156.2" cy="142.8" r="1.4" fill="#f0d78c" opacity="0.67"/><circle cx="7.7" cy="553.1" r="1.7" fill="#f0d78c" opacity="0.49"/><circle cx="114.4" cy="255.8" r="1.1" fill="#f0d78c" opacity="0.67"/><circle cx="100.8" cy="447.2" r="1.1" fill="#f0d78c" opacity="0.51"/><circle cx="110.3" cy="0.2" r="0.5" fill="#f0d78c" opacity="0.31"/><circle cx="93.5" cy="442.7" r="0.6" fill="#f0d78c" opacity="0.45"/><circle cx="163.9" cy="108.6" r="0.8" fill="#f0d78c" opacity="0.34"/><circle cx="20.4" cy="422.1" r="1.7" fill="#f0d78c" opacity="0.22"/><circle cx="235.6" cy="235.5" r="1.4" fill="#f0d78c" opacity="0.26"/><circle cx="212.2" cy="60.4" r="1.6" fill="#f0d78c" opacity="0.48"/><circle cx="4.5" cy="512.2" r="1.9" fill="#f0d78c" opacity="0.56"/><circle cx="7.4" cy="7.6" r="1.5" fill="#f0d78c" opacity="0.44"/><circle cx="112.4" cy="115.9" r="1.6" fill="#f0d78c" opacity="0.26"/><circle cx="329.3" cy="83.7" r="2.0" fill="#f0d78c" opacity="0.65"/><circle cx="75.4" cy="132.2" r="1.8" fill="#f0d78c" opacity="0.33"/><circle cx="131.0" cy="88.5" r="1.6" fill="#f0d78c" opacity="0.53"/><circle cx="61.5" cy="70.1" r="1.5" fill="#f0d78c" opacity="0.34"/><circle cx="306.4" cy="422.8" r="2.0" fill="#f0d78c" opacity="0.25"/><circle cx="134.9" cy="351.4" r="1.3" fill="#f0d78c" opacity="0.62"/><circle cx="267.9" cy="284.6" r="1.5" fill="#f0d78c" opacity="0.46"/><circle cx="167.1" cy="132.6" r="1.4" fill="#f0d78c" opacity="0.54"/><circle cx="390.6" cy="158.0" r="1.6" fill="#f0d78c" opacity="0.35"/><circle cx="14.9" cy="540.6" r="1.4" fill="#f0d78c" opacity="0.33"/><circle cx="324.0" cy="195.0" r="1.1" fill="#f0d78c" opacity="0.54"/><circle cx="364.8" cy="441.7" r="2.0" fill="#f0d78c" opacity="0.56"/><circle cx="369.4" cy="91.5" r="0.8" fill="#f0d78c" opacity="0.30"/><circle cx="243.9" cy="423.4" r="0.5" fill="#f0d78c" opacity="0.57"/><circle cx="324.2" cy="455.7" r="2.0" fill="#f0d78c" opacity="0.59"/><circle cx="397.9" cy="430.4" r="0.6" fill="#f0d78c" opacity="0.69"/><circle cx="193.4" cy="71.0" r="0.8" fill="#f0d78c" opacity="0.48"/><circle cx="135.5" cy="13.4" r="1.1" fill="#f0d78c" opacity="0.27"/><circle cx="367.2" cy="250.9" r="1.9" fill="#f0d78c" opacity="0.34"/><circle cx="39.3" cy="71.2" r="1.3" fill="#f0d78c" opacity="0.59"/><circle cx="65.2" cy="48.2" r="1.8" fill="#f0d78c" opacity="0.42"/>
  <circle cx="200" cy="240" r="64.775548696845" fill="none" stroke="#c9a84c" stroke-opacity="0.08" stroke-width="1.7672496570644718"/><circle cx="200" cy="240" r="84.44681069958848" fill="none" stroke="#c9a84c" stroke-opacity="0.12" stroke-width="2.8692215363511657"/><circle cx="200" cy="240" r="104.20860768175584" fill="none" stroke="#c9a84c" stroke-opacity="0.16" stroke-width="2.4876543209876543"/><circle cx="200" cy="240" r="130.38192729766803" fill="none" stroke="#c9a84c" stroke-opacity="0.20" stroke-width="2.49909122085048"/><circle cx="200" cy="240" r="153.8803497942387" fill="none" stroke="#c9a84c" stroke-opacity="0.24" stroke-width="2.7060013717421123"/><circle cx="200" cy="240" r="177.76560356652948" fill="none" stroke="#c9a84c" stroke-opacity="0.28" stroke-width="2.392335390946502"/><circle cx="200" cy="240" r="194.13645404663924" fill="none" stroke="#c9a84c" stroke-opacity="0.32" stroke-width="1.2124142661179698"/>
  <text x="200" y="270" font-family="serif" font-size="140" text-anchor="middle" fill="#f0d78c" opacity="0.85">🎷</text>
  <rect x="12" y="12" width="376" height="536" fill="none" stroke="#c9a84c" stroke-width="4.5" opacity="0.7"/>
  <rect x="20" y="440" width="360" height="100" fill="#000" opacity="0.55"/>
  <text x="200" y="475" font-family="serif" font-size="22" font-weight="bold" text-anchor="middle" fill="#f0d78c">Bootleg Maven</text>
  <text x="200" y="500" font-family="sans-serif" font-size="11" text-anchor="middle" fill="#c9a84c" letter-spacing="3">ROARING 1920S</text>
  <text x="200" y="525" font-family="sans-serif" font-size="10" text-anchor="middle" fill="#ffffff" opacity="0.7" letter-spacing="2">DIVINE</text>
</svg>