<svg xmlns="http://www.w3.org/2000/svg" viewBox="0 0 400 560" preserveAspectRatio="xMidYMid slice">
  <defs>
    <linearGradient id="bg" x1="0" y1="0" x2="0" y2="1">
      <stop offset="0" stop-color="#050a1a"/>
      <stop offset="1" stop-color="#0f1f3d"/>
    </linearGradient>
    <radialGradient id="glow" cx="50%" cy="42%" r="50%">
      <stop offset="0" stop-color="#3acff5" stop-opacity="0.55"/>
      <stop offset="0.5" stop-color="#3acff5" stop-opacity="0.12"/>
      <stop offset="1" stop-color="#3acff5" stop-opacity="0"/>
    </radialGradient>
  </defs>
  <rect width="400" height="560" fill="url(#bg)"/>
  <rect width="400" height="560" fill="url(#glow)"/>
  <circle cx="330.9" cy="106.0" r="1.3" fill="#a855f7" opacity="0.68"/><circle cx="378.7" cy="168.9" r="1.5" fill="#a855f7" opacity="0.58"/><circle cx="103.8" cy="208.7" r="0.6" fill="#a855f7" opacity="0.61"/><circle cx="197.7" cy="114.8" r="1.1" fill="#a855f7" opacity="0.42"/><circle cx="270.2" cy="253.7" r="1.5" fill="#a855f7" opacity="0.63"/><circle cx="138.5" cy="286.7" r="0.8" fill="#a855f7" opacity="0.46"/><circle cx="183.0" cy="40.7" r="1.1" fill="#a855f7" opacity="0.65"/><circle cx="369.1" cy="193.5" r="0.9" fill="#a855f7" opacity="0.28"/><circle cx="336.2" cy="530.6" r="0.8" fill="#a855f7" opacity="0.34"/><circle cx="153.5" cy="257.0" r="0.6" fill="#a855f7" opacity="0.69"/><circle cx="142.1" cy="361.3" r="0.7" fill="#a855f7" opacity="0.35"/><circle cx="163.5" cy="193.7" r="1.6" fill="#a855f7" opacity="0.59"/><circle cx="375.9" cy="16.9" r="0.8" fill="#a855f7" opacity="0.38"/><circle cx="255.8" cy="10.6" r="0.6" fill="#a855f7" opacity="0.68"/><circle cx="287.1" cy="209.5" r="1.2" fill="#a855f7" opacity="0.55"/><circle cx="316.8" cy="253.9" r="1.0" fill="#a855f7" opacity="0.55"/><circle cx="176.9" cy="74.8" r="1.3" fill="#a855f7" opacity="0.61"/><circle cx="173.7" cy="391.2" r="2.0" fill="#a855f7" opacity="0.54"/><circle cx="242.9" cy="221.3" r="0.9" fill="#a855f7" opacity="0.54"/><circle cx="172.1" cy="367.1" r="1.0" fill="#a855f7" opacity="0.46"/><circle cx="89.9" cy="552.1" r="0.6" fill="#a855f7" opacity="0.40"/><circle cx="20.8" cy="292.3" r="1.4" fill="#a855f7" opacity="0.67"/><circle cx="108.1" cy="140.9" r="0.6" fill="#a855f7" opacity="0.57"/><circle cx="302.4" cy="505.6" r="1.0" fill="#a855f7" opacity="0.47"/><circle cx="317.2" cy="280.4" r="0.5" fill="#a855f7" opacity="0.29"/><circle cx="251.4" cy="329.5" r="1.2" fill="#a855f7" opacity="0.27"/><circle cx="277.8" cy="65.1" r="1.2" fill="#a855f7" opacity="0.57"/><circle cx="198.9" cy="558.9" r="0.7" fill="#a855f7" opacity="0.22"/><circle cx="68.9" cy="186.2" r="0.8" fill="#a855f7" opacity="0.40"/><circle cx="282.9" cy="163.8" r="0.6" fill="#a855f7" opacity="0.55"/><circle cx="332.3" cy="381.1" r="1.5" fill="#a855f7" opacity="0.30"/><circle cx="227.0" cy="84.4" r="1.7" fill="#a855f7" opacity="0.29"/><circle cx="184.3" cy="55.1" r="1.9" fill="#a855f7" opacity="0.22"/><circle cx="184.3" cy="120.3" r="1.0" fill="#a855f7" opacity="0.36"/><circle cx="192.6" cy="397.5" r="0.6" fill="#a855f7" opacity="0.27"/><circle cx="248.6" cy="112.4" r="1.4" fill="#a855f7" opacity="0.44"/><circle cx="21.5" cy="149.9" r="1.5" fill="#a855f7" opacity="0.24"/><circle cx="232.3" cy="378.7" r="1.5" fill="#a855f7" opacity="0.67"/><circle cx="342.6" cy="148.9" r="1.7" fill="#a855f7" opacity="0.52"/><circle cx="110.5" cy="283.2" r="1.2" fill="#a855f7" opacity="0.26"/><circle cx="212.6" cy="401.4" r="0.8" fill="#a855f7" opacity="0.34"/><circle cx="332.9" cy="538.0" r="0.7" fill="#a855f7" opacity="0.31"/><circle cx="318.1" cy="333.5" r="1.0" fill="#a855f7" opacity="0.26"/><circle cx="0.4" cy="278.8" r="1.1" fill="#a855f7" opacity="0.60"/><circle cx="86.1" cy="533.0" r="1.1" fill="#a855f7" opacity="0.64"/><circle cx="110.8" cy="114.2" r="1.8" fill="#a855f7" opacity="0.58"/><circle cx="262.3" cy="384.5" r="1.8" fill="#a855f7" opacity="0.28"/><circle cx="268.9" cy="507.3" r="0.7" fill="#a855f7" opacity="0.33"/><circle cx="155.4" cy="558.6" r="1.8" fill="#a855f7" opacity="0.55"/><circle cx="64.9" cy="531.6" r="0.9" fill="#a855f7" opacity="0.22"/>
  <circle cx="200" cy="240" r="66.31858710562415" fill="none" stroke="#3acff5" stroke-opacity="0.08" stroke-width="1.717309670781893"/><circle cx="200" cy="240" r="82.47956104252401" fill="none" stroke="#3acff5" stroke-opacity="0.12" stroke-width="2.5219564471879288"/><circle cx="200" cy="240" r="104.55823045267489" fill="none" stroke="#3acff5" stroke-opacity="0.16" stroke-width="1.4480024005486969"/><circle cx="200" cy="240" r="131.1718792866941" fill="none" stroke="#3acff5" stroke-opacity="0.20" stroke-width="1.3349537037037038"/><circle cx="200" cy="240" r="155.30816186556928" fill="none" stroke="#3acff5" stroke-opacity="0.24" stroke-width="2.7260202331961594"/><circle cx="200" cy="240" r="170.54732510288065" fill="none" stroke="#3acff5" stroke-opacity="0.28" stroke-width="2.090337791495199"/>
  <text x="200" y="270" font-family="sans-serif" font-size="140" text-anchor="middle" fill="#a855f7" opacity="0.85">💎</text>
  <rect x="8" y="8" width="384" height="544" fill="none" stroke="#3acff5" stroke-width="3" opacity="0.7"/>
  <rect x="20" y="440" width="360" height="100" fill="#000" opacity="0.55"/>
  <text x="200" y="475" font-family="sans-serif" font-size="22" font-weight="bold" text-anchor="middle" fill="#a855f7">Drill Knight</text>
  <text x="200" y="500" font-family="sans-serif" font-size="11" text-anchor="middle" fill="#3acff5" letter-spacing="3">NEON 2020S</text>
  <text x="200" y="525" font-family="sans-serif" font-size="10" text-anchor="middle" fill="#ffffff" opacity="0.7" letter-spacing="2">RARE</text>
</svg>