<svg xmlns="http://www.w3.org/2000/svg" viewBox="0 0 400 560" preserveAspectRatio="xMidYMid slice">
  <defs>
    <linearGradient id="bg" x1="0" y1="0" x2="0" y2="1">
      <stop offset="0" stop-color="#1a0f04"/>
      <stop offset="1" stop-color="#3d2410"/>
    </linearGradient>
    <radialGradient id="glow" cx="50%" cy="42%" r="50%">
      <stop offset="0" stop-color="#d4a84c" stop-opacity="0.55"/>
      <stop offset="0.5" stop-color="#d4a84c" stop-opacity="0.12"/>
      <stop offset="1" stop-color="#d4a84c" stop-opacity="0"/>
    </radialGradient>
  </defs>
  <rect width="400" height="560" fill="url(#bg)"/>
  <rect width="400" height="560" fill="url(#glow)"/>
  <circle cx="18.7" cy="64.9" r="1.6" fill="#f5d77a" opacity="0.23"/><circle cx="242.3" cy="90.4" r="1.8" fill="#f5d77a" opacity="0.54"/><circle cx="266.6" cy="473.0" r="1.6" fill="#f5d77a" opacity="0.52"/><circle cx="175.7" cy="127.4" r="1.3" fill="#f5d77a" opacity="0.23"/><circle cx="216.5" cy="374.0" r="0.7" fill="#f5d77a" opacity="0.25"/><circle cx="221.0" cy="23.8" r="1.0" fill="#f5d77a" opacity="0.49"/><circle cx="95.6" cy="355.7" r="0.7" fill="#f5d77a" opacity="0.26"/><circle cx="175.9" cy="388.0" r="0.7" fill="#f5d77a" opacity="0.28"/><circle cx="249.6" cy="362.8" r="0.8" fill="#f5d77a" opacity="0.38"/><circle cx="45.1" cy="3.3" r="1.0" fill="#f5d77a" opacity="0.67"/><circle cx="387.1" cy="505.8" r="1.3" fill="#f5d77a" opacity="0.46"/><circle cx="218.9" cy="183.2" r="0.6" fill="#f5d77a" opacity="0.53"/><circle cx="290.9" cy="3.5" r="1.5" fill="#f5d77a" opacity="0.28"/><circle cx="316.9" cy="540.5" r="0.5" fill="#f5d77a" opacity="0.61"/><circle cx="395.6" cy="418.5" r="1.3" fill="#f5d77a" opacity="0.27"/><circle cx="299.7" cy="169.6" r="1.8" fill="#f5d77a" opacity="0.42"/><circle cx="231.9" cy="305.7" r="0.9" fill="#f5d77a" opacity="0.59"/><circle cx="246.3" cy="321.9" r="0.9" fill="#f5d77a" opacity="0.44"/><circle cx="338.1" cy="315.0" r="1.4" fill="#f5d77a" opacity="0.44"/><circle cx="398.7" cy="174.5" r="1.8" fill="#f5d77a" opacity="0.21"/><circle cx="37.8" cy="266.8" r="0.5" fill="#f5d77a" opacity="0.37"/><circle cx="272.8" cy="253.0" r="1.2" fill="#f5d77a" opacity="0.66"/><circle cx="284.0" cy="520.4" r="1.4" fill="#f5d77a" opacity="0.31"/><circle cx="36.7" cy="66.5" r="1.1" fill="#f5d77a" opacity="0.40"/><circle cx="370.5" cy="356.9" r="0.9" fill="#f5d77a" opacity="0.41"/><circle cx="154.5" cy="36.7" r="0.6" fill="#f5d77a" opacity="0.22"/><circle cx="109.7" cy="94.3" r="0.6" fill="#f5d77a" opacity="0.34"/><circle cx="97.8" cy="440.1" r="1.3" fill="#f5d77a" opacity="0.54"/><circle cx="276.9" cy="216.6" r="1.8" fill="#f5d77a" opacity="0.29"/><circle cx="123.4" cy="163.7" r="1.5" fill="#f5d77a" opacity="0.55"/><circle cx="121.4" cy="315.8" r="2.0" fill="#f5d77a" opacity="0.37"/><circle cx="117.8" cy="313.6" r="1.7" fill="#f5d77a" opacity="0.34"/><circle cx="344.6" cy="87.8" r="1.9" fill="#f5d77a" opacity="0.35"/><circle cx="308.0" cy="357.5" r="0.9" fill="#f5d77a" opacity="0.24"/><circle cx="343.8" cy="141.0" r="1.2" fill="#f5d77a" opacity="0.70"/><circle cx="239.8" cy="240.1" r="1.2" fill="#f5d77a" opacity="0.58"/><circle cx="124.2" cy="378.5" r="0.7" fill="#f5d77a" opacity="0.48"/><circle cx="21.8" cy="72.0" r="1.4" fill="#f5d77a" opacity="0.21"/><circle cx="75.7" cy="433.9" r="2.0" fill="#f5d77a" opacity="0.56"/><circle cx="236.7" cy="192.0" r="0.7" fill="#f5d77a" opacity="0.42"/><circle cx="218.2" cy="480.1" r="1.6" fill="#f5d77a" opacity="0.70"/><circle cx="119.1" cy="482.5" r="0.7" fill="#f5d77a" opacity="0.64"/><circle cx="112.1" cy="171.5" r="0.5" fill="#f5d77a" opacity="0.40"/><circle cx="399.8" cy="58.6" r="1.4" fill="#f5d77a" opacity="0.50"/><circle cx="236.5" cy="199.3" r="1.3" fill="#f5d77a" opacity="0.64"/><circle cx="17.2" cy="130.2" r="1.1" fill="#f5d77a" opacity="0.24"/><circle cx="33.3" cy="300.8" r="1.9" fill="#f5d77a" opacity="0.46"/><circle cx="294.7" cy="517.5" r="1.9" fill="#f5d77a" opacity="0.40"/><circle cx="218.6" cy="441.5" r="1.9" fill="#f5d77a" opacity="0.30"/><circle cx="185.3" cy="460.0" r="0.9" fill="#f5d77a" opacity="0.39"/><circle cx="160.2" cy="130.5" r="2.0" fill="#f5d77a" opacity="0.26"/><circle cx="182.9" cy="358.7" r="1.1" fill="#f5d77a" opacity="0.39"/><circle cx="322.5" cy="349.6" r="1.1" fill="#f5d77a" opacity="0.64"/><circle cx="99.9" cy="531.7" r="0.9" fill="#f5d77a" opacity="0.54"/><circle cx="176.9" cy="255.2" r="1.0" fill="#f5d77a" opacity="0.35"/><circle cx="311.5" cy="342.9" r="1.9" fill="#f5d77a" opacity="0.54"/><circle cx="380.3" cy="414.4" r="1.4" fill="#f5d77a" opacity="0.58"/><circle cx="67.2" cy="504.3" r="1.2" fill="#f5d77a" opacity="0.51"/><circle cx="19.1" cy="253.2" r="1.3" fill="#f5d77a" opacity="0.42"/><circle cx="68.1" cy="151.9" r="1.3" fill="#f5d77a" opacity="0.21"/>
  <circle cx="200" cy="240" r="66.39626200274348" fill="none" stroke="#d4a84c" stroke-opacity="0.08" stroke-width="2.330864197530864"/><circle cx="200" cy="240" r="85.16217421124828" fill="none" stroke="#d4a84c" stroke-opacity="0.12" stroke-width="2.268227023319616"/><circle cx="200" cy="240" r="104.80874485596708" fill="none" stroke="#d4a84c" stroke-opacity="0.16" stroke-width="1.9566186556927296"/><circle cx="200" cy="240" r="133.7310356652949" fill="none" stroke="#d4a84c" stroke-opacity="0.20" stroke-width="2.01332304526749"/><circle cx="200" cy="240" r="153.36114540466392" fill="none" stroke="#d4a84c" stroke-opacity="0.24" stroke-width="1.4259945130315501"/><circle cx="200" cy="240" r="172.39043209876544" fill="none" stroke="#d4a84c" stroke-opacity="0.28" stroke-width="1.7748799725651576"/><circle cx="200" cy="240" r="198.32506858710562" fill="none" stroke="#d4a84c" stroke-opacity="0.32" stroke-width="2.788374485596708"/>
  <text x="200" y="270" font-family="serif" font-size="140" text-anchor="middle" fill="#f5d77a" opacity="0.85">☥</text>
  <rect x="12" y="12" width="376" height="536" fill="none" stroke="#d4a84c" stroke-width="4.5" opacity="0.7"/>
  <rect x="20" y="440" width="360" height="100" fill="#000" opacity="0.55"/>
  <text x="200" y="475" font-family="serif" font-size="22" font-weight="bold" text-anchor="middle" fill="#f5d77a">Ash Warden</text>
  <text x="200" y="500" font-family="sans-serif" font-size="11" text-anchor="middle" fill="#d4a84c" letter-spacing="3">DYNASTY</text>
  <text x="200" y="525" font-family="sans-serif" font-size="10" text-anchor="middle" fill="#ffffff" opacity="0.7" letter-spacing="2">DIVINE</text>
</svg>