<svg xmlns="http://www.w3.org/2000/svg" viewBox="0 0 400 560" preserveAspectRatio="xMidYMid slice">
  <defs>
    <linearGradient id="bg" x1="0" y1="0" x2="0" y2="1">
      <stop offset="0" stop-color="#1a0533"/>
      <stop offset="1" stop-color="#3d0f5c"/>
    </linearGradient>
    <radialGradient id="glow" cx="50%" cy="42%" r="50%">
      <stop offset="0" stop-color="#e94ec7" stop-opacity="0.55"/>
      <stop offset="0.5" stop-color="#e94ec7" stop-opacity="0.12"/>
      <stop offset="1" stop-color="#e94ec7" stop-opacity="0"/>
    </radialGradient>
  </defs>
  <rect width="400" height="560" fill="url(#bg)"/>
  <rect width="400" height="560" fill="url(#glow)"/>
  <circle cx="156.1" cy="484.9" r="1.4" fill="#ff9f43" opacity="0.36"/><circle cx="296.9" cy="311.6" r="1.2" fill="#ff9f43" opacity="0.51"/><circle cx="1.5" cy="101.4" r="1.9" fill="#ff9f43" opacity="0.37"/><circle cx="376.0" cy="13.3" r="2.0" fill="#ff9f43" opacity="0.27"/><circle cx="156.3" cy="185.6" r="0.8" fill="#ff9f43" opacity="0.41"/><circle cx="330.0" cy="300.3" r="1.3" fill="#ff9f43" opacity="0.64"/><circle cx="225.5" cy="80.9" r="1.8" fill="#ff9f43" opacity="0.55"/><circle cx="267.5" cy="163.4" r="1.0" fill="#ff9f43" opacity="0.46"/><circle cx="199.3" cy="540.8" r="0.7" fill="#ff9f43" opacity="0.66"/><circle cx="371.3" cy="501.1" r="2.0" fill="#ff9f43" opacity="0.53"/><circle cx="97.3" cy="58.1" r="1.4" fill="#ff9f43" opacity="0.49"/><circle cx="276.0" cy="76.1" r="1.0" fill="#ff9f43" opacity="0.28"/><circle cx="280.1" cy="527.2" r="1.9" fill="#ff9f43" opacity="0.55"/><circle cx="312.3" cy="243.3" r="1.4" fill="#ff9f43" opacity="0.34"/><circle cx="26.7" cy="399.5" r="1.8" fill="#ff9f43" opacity="0.33"/><circle cx="218.5" cy="532.6" r="1.1" fill="#ff9f43" opacity="0.44"/><circle cx="379.1" cy="532.1" r="1.9" fill="#ff9f43" opacity="0.34"/><circle cx="118.2" cy="204.4" r="1.0" fill="#ff9f43" opacity="0.63"/><circle cx="53.3" cy="330.6" r="0.6" fill="#ff9f43" opacity="0.54"/><circle cx="164.4" cy="178.0" r="1.1" fill="#ff9f43" opacity="0.31"/><circle cx="17.1" cy="424.1" r="1.2" fill="#ff9f43" opacity="0.53"/><circle cx="50.9" cy="294.5" r="1.4" fill="#ff9f43" opacity="0.67"/><circle cx="334.9" cy="114.2" r="1.4" fill="#ff9f43" opacity="0.61"/><circle cx="390.1" cy="311.9" r="1.8" fill="#ff9f43" opacity="0.35"/><circle cx="78.2" cy="237.7" r="1.4" fill="#ff9f43" opacity="0.67"/><circle cx="357.3" cy="154.2" r="0.8" fill="#ff9f43" opacity="0.55"/><circle cx="303.8" cy="241.3" r="0.9" fill="#ff9f43" opacity="0.43"/><circle cx="1.8" cy="533.4" r="1.7" fill="#ff9f43" opacity="0.38"/><circle cx="98.2" cy="111.2" r="1.8" fill="#ff9f43" opacity="0.47"/><circle cx="25.0" cy="25.4" r="0.9" fill="#ff9f43" opacity="0.61"/><circle cx="88.4" cy="435.1" r="1.8" fill="#ff9f43" opacity="0.62"/><circle cx="224.3" cy="358.5" r="1.0" fill="#ff9f43" opacity="0.20"/><circle cx="220.2" cy="37.7" r="1.3" fill="#ff9f43" opacity="0.21"/><circle cx="204.6" cy="316.0" r="1.2" fill="#ff9f43" opacity="0.23"/><circle cx="202.2" cy="149.6" r="0.7" fill="#ff9f43" opacity="0.59"/><circle cx="356.1" cy="91.5" r="1.7" fill="#ff9f43" opacity="0.57"/><circle cx="217.1" cy="549.6" r="0.8" fill="#ff9f43" opacity="0.55"/><circle cx="298.6" cy="417.7" r="0.6" fill="#ff9f43" opacity="0.45"/><circle cx="299.5" cy="0.1" r="1.5" fill="#ff9f43" opacity="0.52"/><circle cx="392.5" cy="389.0" r="1.7" fill="#ff9f43" opacity="0.40"/>
  <circle cx="200" cy="240" r="60.28415637860083" fill="none" stroke="#e94ec7" stroke-opacity="0.08" stroke-width="2.157261659807956"/><circle cx="200" cy="240" r="82.45336076817559" fill="none" stroke="#e94ec7" stroke-opacity="0.12" stroke-width="1.5997685185185184"/><circle cx="200" cy="240" r="107.47853223593964" fill="none" stroke="#e94ec7" stroke-opacity="0.16" stroke-width="1.8797239368998628"/><circle cx="200" cy="240" r="128.93991769547324" fill="none" stroke="#e94ec7" stroke-opacity="0.20" stroke-width="1.4662637174211248"/><circle cx="200" cy="240" r="152.5659122085048" fill="none" stroke="#e94ec7" stroke-opacity="0.24" stroke-width="2.310005144032922"/>
  <text x="200" y="270" font-family="sans-serif" font-size="140" text-anchor="middle" fill="#ff9f43" opacity="0.85">🪩</text>
  <rect x="4" y="4" width="392" height="552" fill="none" stroke="#e94ec7" stroke-width="1.5" opacity="0.7"/>
  <rect x="20" y="440" width="360" height="100" fill="#000" opacity="0.55"/>
  <text x="200" y="475" font-family="sans-serif" font-size="22" font-weight="bold" text-anchor="middle" fill="#ff9f43">Stardust Slinger</text>
  <text x="200" y="500" font-family="sans-serif" font-size="11" text-anchor="middle" fill="#e94ec7" letter-spacing="3">COSMIC 1970S</text>
  <text x="200" y="525" font-family="sans-serif" font-size="10" text-anchor="middle" fill="#ffffff" opacity="0.7" letter-spacing="2">COMMON</text>
</svg>