<svg xmlns="http://www.w3.org/2000/svg" viewBox="0 0 400 560" preserveAspectRatio="xMidYMid slice">
  <defs>
    <linearGradient id="bg" x1="0" y1="0" x2="0" y2="1">
      <stop offset="0" stop-color="#1a0f04"/>
      <stop offset="1" stop-color="#3d2410"/>
    </linearGradient>
    <radialGradient id="glow" cx="50%" cy="42%" r="50%">
      <stop offset="0" stop-color="#d4a84c" stop-opacity="0.55"/>
      <stop offset="0.5" stop-color="#d4a84c" stop-opacity="0.12"/>
      <stop offset="1" stop-color="#d4a84c" stop-opacity="0"/>
    </radialGradient>
  </defs>
  <rect width="400" height="560" fill="url(#bg)"/>
  <rect width="400" height="560" fill="url(#glow)"/>
  <circle cx="27.7" cy="314.9" r="1.9" fill="#f5d77a" opacity="0.30"/><circle cx="152.0" cy="277.6" r="0.6" fill="#f5d77a" opacity="0.41"/><circle cx="161.1" cy="71.9" r="0.6" fill="#f5d77a" opacity="0.24"/><circle cx="301.9" cy="458.6" r="1.9" fill="#f5d77a" opacity="0.39"/><circle cx="6.5" cy="248.4" r="1.1" fill="#f5d77a" opacity="0.25"/><circle cx="381.0" cy="160.3" r="1.2" fill="#f5d77a" opacity="0.65"/><circle cx="161.3" cy="332.6" r="1.6" fill="#f5d77a" opacity="0.29"/><circle cx="335.0" cy="447.3" r="0.6" fill="#f5d77a" opacity="0.52"/><circle cx="230.5" cy="227.9" r="1.1" fill="#f5d77a" opacity="0.43"/><circle cx="272.5" cy="310.4" r="1.8" fill="#f5d77a" opacity="0.34"/><circle cx="204.3" cy="127.8" r="1.5" fill="#f5d77a" opacity="0.54"/><circle cx="376.3" cy="88.1" r="1.3" fill="#f5d77a" opacity="0.41"/><circle cx="102.3" cy="205.1" r="0.7" fill="#f5d77a" opacity="0.38"/><circle cx="281.0" cy="223.1" r="1.8" fill="#f5d77a" opacity="0.66"/><circle cx="285.1" cy="114.2" r="1.2" fill="#f5d77a" opacity="0.43"/><circle cx="317.3" cy="390.3" r="0.6" fill="#f5d77a" opacity="0.22"/><circle cx="31.7" cy="546.5" r="1.1" fill="#f5d77a" opacity="0.21"/><circle cx="223.5" cy="119.6" r="1.9" fill="#f5d77a" opacity="0.33"/><circle cx="384.1" cy="119.1" r="1.2" fill="#f5d77a" opacity="0.22"/><circle cx="123.2" cy="351.4" r="1.8" fill="#f5d77a" opacity="0.51"/><circle cx="58.3" cy="477.6" r="1.4" fill="#f5d77a" opacity="0.42"/><circle cx="169.4" cy="325.0" r="1.9" fill="#f5d77a" opacity="0.70"/><circle cx="22.1" cy="11.1" r="2.0" fill="#f5d77a" opacity="0.41"/><circle cx="55.9" cy="441.5" r="0.6" fill="#f5d77a" opacity="0.55"/><circle cx="339.9" cy="261.2" r="0.7" fill="#f5d77a" opacity="0.49"/><circle cx="395.1" cy="458.9" r="1.1" fill="#f5d77a" opacity="0.23"/><circle cx="83.2" cy="384.7" r="0.7" fill="#f5d77a" opacity="0.55"/><circle cx="362.3" cy="301.2" r="1.6" fill="#f5d77a" opacity="0.43"/><circle cx="308.8" cy="388.3" r="1.6" fill="#f5d77a" opacity="0.31"/><circle cx="6.8" cy="120.4" r="1.0" fill="#f5d77a" opacity="0.26"/><circle cx="103.2" cy="258.2" r="1.1" fill="#f5d77a" opacity="0.35"/><circle cx="30.0" cy="172.4" r="1.6" fill="#f5d77a" opacity="0.49"/><circle cx="93.4" cy="22.1" r="1.1" fill="#f5d77a" opacity="0.50"/><circle cx="229.3" cy="505.5" r="1.7" fill="#f5d77a" opacity="0.59"/><circle cx="225.2" cy="184.7" r="0.6" fill="#f5d77a" opacity="0.59"/><circle cx="209.6" cy="463.0" r="1.9" fill="#f5d77a" opacity="0.61"/><circle cx="207.2" cy="296.6" r="1.5" fill="#f5d77a" opacity="0.47"/><circle cx="361.1" cy="238.5" r="1.0" fill="#f5d77a" opacity="0.45"/><circle cx="222.1" cy="136.6" r="1.6" fill="#f5d77a" opacity="0.43"/><circle cx="303.6" cy="4.7" r="1.3" fill="#f5d77a" opacity="0.34"/><circle cx="304.5" cy="147.1" r="0.8" fill="#f5d77a" opacity="0.40"/><circle cx="397.5" cy="536.0" r="1.0" fill="#f5d77a" opacity="0.28"/><circle cx="385.2" cy="3.2" r="0.8" fill="#f5d77a" opacity="0.52"/><circle cx="321.9" cy="283.8" r="1.1" fill="#f5d77a" opacity="0.28"/><circle cx="202.6" cy="354.8" r="1.2" fill="#f5d77a" opacity="0.51"/><circle cx="318.7" cy="105.4" r="0.9" fill="#f5d77a" opacity="0.35"/><circle cx="280.1" cy="462.1" r="1.3" fill="#f5d77a" opacity="0.42"/><circle cx="304.0" cy="526.1" r="1.7" fill="#f5d77a" opacity="0.44"/><circle cx="370.7" cy="124.6" r="1.1" fill="#f5d77a" opacity="0.66"/><circle cx="45.7" cy="495.1" r="1.0" fill="#f5d77a" opacity="0.65"/>
  <circle cx="200" cy="240" r="65.43936899862825" fill="none" stroke="#d4a84c" stroke-opacity="0.08" stroke-width="1.315406378600823"/><circle cx="200" cy="240" r="82.06947873799726" fill="none" stroke="#d4a84c" stroke-opacity="0.12" stroke-width="2.9780778463648834"/><circle cx="200" cy="240" r="106.09876543209876" fill="none" stroke="#d4a84c" stroke-opacity="0.16" stroke-width="1.576963305898491"/><circle cx="200" cy="240" r="129.03340192043896" fill="none" stroke="#d4a84c" stroke-opacity="0.20" stroke-width="2.840457818930041"/><circle cx="200" cy="240" r="150.0832647462277" fill="none" stroke="#d4a84c" stroke-opacity="0.24" stroke-width="1.5339934842249656"/><circle cx="200" cy="240" r="174.38415637860084" fill="none" stroke="#d4a84c" stroke-opacity="0.28" stroke-width="1.682261659807956"/>
  <text x="200" y="270" font-family="serif" font-size="140" text-anchor="middle" fill="#f5d77a" opacity="0.85">☥</text>
  <rect x="8" y="8" width="384" height="544" fill="none" stroke="#d4a84c" stroke-width="3" opacity="0.7"/>
  <rect x="20" y="440" width="360" height="100" fill="#000" opacity="0.55"/>
  <text x="200" y="475" font-family="serif" font-size="22" font-weight="bold" text-anchor="middle" fill="#f5d77a">Gold Lion</text>
  <text x="200" y="500" font-family="sans-serif" font-size="11" text-anchor="middle" fill="#d4a84c" letter-spacing="3">DYNASTY</text>
  <text x="200" y="525" font-family="sans-serif" font-size="10" text-anchor="middle" fill="#ffffff" opacity="0.7" letter-spacing="2">RARE</text>
</svg>