<svg xmlns="http://www.w3.org/2000/svg" viewBox="0 0 400 560" preserveAspectRatio="xMidYMid slice">
  <defs>
    <linearGradient id="bg" x1="0" y1="0" x2="0" y2="1">
      <stop offset="0" stop-color="#0a1a0f"/>
      <stop offset="1" stop-color="#1a3d24"/>
    </linearGradient>
    <radialGradient id="glow" cx="50%" cy="42%" r="50%">
      <stop offset="0" stop-color="#f5d23a" stop-opacity="0.55"/>
      <stop offset="0.5" stop-color="#f5d23a" stop-opacity="0.12"/>
      <stop offset="1" stop-color="#f5d23a" stop-opacity="0"/>
    </radialGradient>
  </defs>
  <rect width="400" height="560" fill="url(#bg)"/>
  <rect width="400" height="560" fill="url(#glow)"/>
  <circle cx="28.9" cy="173.1" r="1.5" fill="#3acf5c" opacity="0.59"/><circle cx="165.2" cy="415.1" r="1.6" fill="#3acf5c" opacity="0.64"/><circle cx="3.5" cy="150.2" r="0.7" fill="#3acf5c" opacity="0.63"/><circle cx="353.7" cy="304.6" r="1.6" fill="#3acf5c" opacity="0.69"/><circle cx="233.2" cy="539.8" r="1.9" fill="#3acf5c" opacity="0.52"/><circle cx="22.1" cy="122.7" r="0.7" fill="#3acf5c" opacity="0.40"/><circle cx="86.0" cy="291.0" r="1.1" fill="#3acf5c" opacity="0.37"/><circle cx="64.2" cy="270.3" r="0.5" fill="#3acf5c" opacity="0.45"/><circle cx="26.0" cy="385.6" r="1.9" fill="#3acf5c" opacity="0.48"/><circle cx="292.3" cy="505.5" r="1.1" fill="#3acf5c" opacity="0.49"/><circle cx="324.9" cy="540.2" r="1.5" fill="#3acf5c" opacity="0.24"/><circle cx="281.7" cy="192.2" r="0.7" fill="#3acf5c" opacity="0.21"/><circle cx="39.4" cy="201.5" r="1.0" fill="#3acf5c" opacity="0.36"/><circle cx="81.8" cy="42.6" r="1.2" fill="#3acf5c" opacity="0.24"/><circle cx="255.9" cy="475.9" r="1.1" fill="#3acf5c" opacity="0.43"/><circle cx="393.8" cy="312.3" r="1.9" fill="#3acf5c" opacity="0.33"/><circle cx="1.7" cy="270.9" r="0.6" fill="#3acf5c" opacity="0.27"/><circle cx="215.3" cy="489.9" r="1.1" fill="#3acf5c" opacity="0.45"/><circle cx="22.4" cy="91.3" r="1.7" fill="#3acf5c" opacity="0.22"/><circle cx="351.2" cy="478.5" r="0.9" fill="#3acf5c" opacity="0.68"/><circle cx="26.6" cy="47.7" r="1.7" fill="#3acf5c" opacity="0.63"/><circle cx="391.6" cy="471.8" r="1.5" fill="#3acf5c" opacity="0.37"/><circle cx="197.0" cy="478.7" r="1.4" fill="#3acf5c" opacity="0.28"/><circle cx="356.3" cy="82.4" r="0.9" fill="#3acf5c" opacity="0.29"/><circle cx="168.3" cy="147.0" r="0.7" fill="#3acf5c" opacity="0.62"/><circle cx="205.8" cy="84.9" r="1.7" fill="#3acf5c" opacity="0.43"/><circle cx="271.3" cy="407.6" r="1.3" fill="#3acf5c" opacity="0.26"/><circle cx="19.1" cy="50.4" r="1.8" fill="#3acf5c" opacity="0.29"/><circle cx="244.2" cy="230.3" r="1.3" fill="#3acf5c" opacity="0.44"/><circle cx="38.1" cy="276.4" r="0.7" fill="#3acf5c" opacity="0.38"/><circle cx="210.6" cy="555.3" r="1.4" fill="#3acf5c" opacity="0.21"/><circle cx="179.0" cy="168.2" r="1.1" fill="#3acf5c" opacity="0.66"/><circle cx="323.4" cy="62.3" r="1.8" fill="#3acf5c" opacity="0.48"/><circle cx="209.5" cy="355.0" r="2.0" fill="#3acf5c" opacity="0.24"/><circle cx="276.6" cy="272.1" r="0.8" fill="#3acf5c" opacity="0.42"/><circle cx="194.0" cy="138.5" r="0.9" fill="#3acf5c" opacity="0.40"/><circle cx="282.5" cy="382.9" r="1.5" fill="#3acf5c" opacity="0.68"/><circle cx="3.9" cy="355.3" r="1.2" fill="#3acf5c" opacity="0.55"/><circle cx="316.3" cy="318.5" r="0.7" fill="#3acf5c" opacity="0.46"/><circle cx="296.2" cy="452.2" r="0.9" fill="#3acf5c" opacity="0.39"/><circle cx="27.5" cy="231.1" r="1.9" fill="#3acf5c" opacity="0.38"/><circle cx="157.2" cy="415.5" r="0.6" fill="#3acf5c" opacity="0.51"/><circle cx="117.3" cy="376.4" r="1.3" fill="#3acf5c" opacity="0.69"/><circle cx="214.1" cy="272.7" r="0.8" fill="#3acf5c" opacity="0.25"/><circle cx="383.3" cy="242.9" r="1.6" fill="#3acf5c" opacity="0.37"/><circle cx="12.5" cy="528.7" r="0.6" fill="#3acf5c" opacity="0.42"/><circle cx="30.3" cy="293.7" r="0.6" fill="#3acf5c" opacity="0.48"/><circle cx="61.2" cy="173.9" r="1.7" fill="#3acf5c" opacity="0.38"/><circle cx="248.5" cy="162.5" r="1.4" fill="#3acf5c" opacity="0.40"/><circle cx="142.8" cy="107.2" r="0.6" fill="#3acf5c" opacity="0.42"/>
  <circle cx="200" cy="240" r="60.89619341563786" fill="none" stroke="#f5d23a" stroke-opacity="0.08" stroke-width="1.2963820301783264"/><circle cx="200" cy="240" r="86.28762002743484" fill="none" stroke="#f5d23a" stroke-opacity="0.12" stroke-width="1.211111111111111"/><circle cx="200" cy="240" r="111.86834705075447" fill="none" stroke="#f5d23a" stroke-opacity="0.16" stroke-width="1.296622085048011"/><circle cx="200" cy="240" r="131.21862139917695" fill="none" stroke="#f5d23a" stroke-opacity="0.20" stroke-width="2.022050754458162"/><circle cx="200" cy="240" r="150.06683813443072" fill="none" stroke="#f5d23a" stroke-opacity="0.24" stroke-width="1.338014403292181"/><circle cx="200" cy="240" r="171.1784293552812" fill="none" stroke="#f5d23a" stroke-opacity="0.28" stroke-width="1.5655006858710563"/>
  <text x="200" y="270" font-family="sans-serif" font-size="140" text-anchor="middle" fill="#3acf5c" opacity="0.85">🎤</text>
  <rect x="8" y="8" width="384" height="544" fill="none" stroke="#f5d23a" stroke-width="3" opacity="0.7"/>
  <rect x="20" y="440" width="360" height="100" fill="#000" opacity="0.55"/>
  <text x="200" y="475" font-family="sans-serif" font-size="22" font-weight="bold" text-anchor="middle" fill="#3acf5c">Graffiti Prophet</text>
  <text x="200" y="500" font-family="sans-serif" font-size="11" text-anchor="middle" fill="#f5d23a" letter-spacing="3">BOOM-BAP 1990S</text>
  <text x="200" y="525" font-family="sans-serif" font-size="10" text-anchor="middle" fill="#ffffff" opacity="0.7" letter-spacing="2">RARE</text>
</svg>