<svg xmlns="http://www.w3.org/2000/svg" viewBox="0 0 400 560" preserveAspectRatio="xMidYMid slice">
  <defs>
    <linearGradient id="bg" x1="0" y1="0" x2="0" y2="1">
      <stop offset="0" stop-color="#0a1a0f"/>
      <stop offset="1" stop-color="#1a3d24"/>
    </linearGradient>
    <radialGradient id="glow" cx="50%" cy="42%" r="50%">
      <stop offset="0" stop-color="#f5d23a" stop-opacity="0.55"/>
      <stop offset="0.5" stop-color="#f5d23a" stop-opacity="0.12"/>
      <stop offset="1" stop-color="#f5d23a" stop-opacity="0"/>
    </radialGradient>
  </defs>
  <rect width="400" height="560" fill="url(#bg)"/>
  <rect width="400" height="560" fill="url(#glow)"/>
  <circle cx="258.3" cy="106.5" r="1.4" fill="#3acf5c" opacity="0.52"/><circle cx="175.6" cy="532.9" r="1.6" fill="#3acf5c" opacity="0.50"/><circle cx="264.2" cy="217.2" r="0.6" fill="#3acf5c" opacity="0.29"/><circle cx="385.6" cy="189.6" r="1.9" fill="#3acf5c" opacity="0.65"/><circle cx="298.0" cy="152.8" r="1.4" fill="#3acf5c" opacity="0.57"/><circle cx="277.9" cy="286.6" r="1.6" fill="#3acf5c" opacity="0.49"/><circle cx="9.2" cy="65.4" r="1.0" fill="#3acf5c" opacity="0.48"/><circle cx="138.9" cy="249.8" r="1.3" fill="#3acf5c" opacity="0.61"/><circle cx="99.0" cy="210.7" r="2.0" fill="#3acf5c" opacity="0.29"/><circle cx="195.8" cy="107.1" r="1.5" fill="#3acf5c" opacity="0.35"/><circle cx="364.9" cy="77.2" r="0.8" fill="#3acf5c" opacity="0.47"/><circle cx="394.2" cy="363.0" r="1.3" fill="#3acf5c" opacity="0.52"/><circle cx="12.0" cy="128.0" r="1.3" fill="#3acf5c" opacity="0.59"/><circle cx="42.9" cy="8.3" r="0.9" fill="#3acf5c" opacity="0.48"/><circle cx="230.2" cy="556.8" r="0.5" fill="#3acf5c" opacity="0.50"/><circle cx="124.4" cy="501.6" r="1.3" fill="#3acf5c" opacity="0.53"/><circle cx="239.3" cy="416.4" r="1.2" fill="#3acf5c" opacity="0.47"/><circle cx="273.5" cy="45.4" r="0.7" fill="#3acf5c" opacity="0.58"/><circle cx="399.9" cy="481.0" r="1.1" fill="#3acf5c" opacity="0.51"/><circle cx="20.9" cy="554.8" r="1.0" fill="#3acf5c" opacity="0.28"/><circle cx="390.9" cy="322.1" r="1.4" fill="#3acf5c" opacity="0.58"/><circle cx="305.0" cy="439.7" r="1.7" fill="#3acf5c" opacity="0.35"/><circle cx="54.4" cy="237.0" r="1.4" fill="#3acf5c" opacity="0.23"/><circle cx="49.1" cy="80.4" r="2.0" fill="#3acf5c" opacity="0.35"/><circle cx="106.4" cy="191.1" r="1.0" fill="#3acf5c" opacity="0.41"/><circle cx="206.4" cy="396.2" r="0.5" fill="#3acf5c" opacity="0.67"/><circle cx="314.7" cy="253.4" r="0.5" fill="#3acf5c" opacity="0.20"/><circle cx="70.7" cy="108.3" r="1.7" fill="#3acf5c" opacity="0.50"/><circle cx="343.6" cy="285.8" r="0.7" fill="#3acf5c" opacity="0.42"/><circle cx="254.3" cy="94.6" r="1.0" fill="#3acf5c" opacity="0.48"/><circle cx="64.7" cy="4.8" r="1.6" fill="#3acf5c" opacity="0.46"/><circle cx="332.6" cy="279.1" r="1.5" fill="#3acf5c" opacity="0.32"/><circle cx="134.7" cy="537.3" r="1.5" fill="#3acf5c" opacity="0.52"/><circle cx="354.9" cy="253.9" r="1.8" fill="#3acf5c" opacity="0.62"/><circle cx="40.2" cy="189.4" r="0.9" fill="#3acf5c" opacity="0.70"/><circle cx="222.5" cy="274.8" r="1.3" fill="#3acf5c" opacity="0.66"/><circle cx="8.2" cy="108.9" r="1.7" fill="#3acf5c" opacity="0.32"/><circle cx="132.9" cy="390.1" r="1.4" fill="#3acf5c" opacity="0.39"/><circle cx="384.4" cy="240.4" r="1.7" fill="#3acf5c" opacity="0.21"/><circle cx="91.0" cy="503.2" r="1.0" fill="#3acf5c" opacity="0.39"/>
  <circle cx="200" cy="240" r="66.98240740740741" fill="none" stroke="#f5d23a" stroke-opacity="0.08" stroke-width="1.265466392318244"/><circle cx="200" cy="240" r="88.10222908093279" fill="none" stroke="#f5d23a" stroke-opacity="0.12" stroke-width="2.630812757201646"/><circle cx="200" cy="240" r="106.44838820301783" fill="none" stroke="#f5d23a" stroke-opacity="0.16" stroke-width="2.5373113854595335"/><circle cx="200" cy="240" r="129.82335390946503" fill="none" stroke="#f5d23a" stroke-opacity="0.20" stroke-width="1.6763203017832646"/><circle cx="200" cy="240" r="151.5110768175583" fill="none" stroke="#f5d23a" stroke-opacity="0.24" stroke-width="1.5540123456790123"/>
  <text x="200" y="270" font-family="sans-serif" font-size="140" text-anchor="middle" fill="#3acf5c" opacity="0.85">🎤</text>
  <rect x="4" y="4" width="392" height="552" fill="none" stroke="#f5d23a" stroke-width="1.5" opacity="0.7"/>
  <rect x="20" y="440" width="360" height="100" fill="#000" opacity="0.55"/>
  <text x="200" y="475" font-family="sans-serif" font-size="22" font-weight="bold" text-anchor="middle" fill="#3acf5c">Block Titan</text>
  <text x="200" y="500" font-family="sans-serif" font-size="11" text-anchor="middle" fill="#f5d23a" letter-spacing="3">BOOM-BAP 1990S</text>
  <text x="200" y="525" font-family="sans-serif" font-size="10" text-anchor="middle" fill="#ffffff" opacity="0.7" letter-spacing="2">COMMON</text>
</svg>