<svg xmlns="http://www.w3.org/2000/svg" viewBox="0 0 400 560" preserveAspectRatio="xMidYMid slice">
  <defs>
    <linearGradient id="bg" x1="0" y1="0" x2="0" y2="1">
      <stop offset="0" stop-color="#050a1a"/>
      <stop offset="1" stop-color="#0f1f3d"/>
    </linearGradient>
    <radialGradient id="glow" cx="50%" cy="42%" r="50%">
      <stop offset="0" stop-color="#3acff5" stop-opacity="0.55"/>
      <stop offset="0.5" stop-color="#3acff5" stop-opacity="0.12"/>
      <stop offset="1" stop-color="#3acff5" stop-opacity="0"/>
    </radialGradient>
  </defs>
  <rect width="400" height="560" fill="url(#bg)"/>
  <rect width="400" height="560" fill="url(#glow)"/>
  <circle cx="393.3" cy="244.8" r="1.7" fill="#a855f7" opacity="0.41"/><circle cx="254.7" cy="461.5" r="1.8" fill="#a855f7" opacity="0.35"/><circle cx="178.6" cy="385.5" r="1.8" fill="#a855f7" opacity="0.25"/><circle cx="145.3" cy="404.0" r="0.8" fill="#a855f7" opacity="0.34"/><circle cx="120.2" cy="74.5" r="1.8" fill="#a855f7" opacity="0.21"/><circle cx="142.9" cy="302.7" r="0.9" fill="#a855f7" opacity="0.34"/><circle cx="282.5" cy="293.6" r="0.9" fill="#a855f7" opacity="0.59"/><circle cx="59.9" cy="475.7" r="0.8" fill="#a855f7" opacity="0.49"/><circle cx="136.9" cy="199.2" r="0.8" fill="#a855f7" opacity="0.30"/><circle cx="271.5" cy="286.9" r="1.7" fill="#a855f7" opacity="0.49"/><circle cx="340.3" cy="358.4" r="1.2" fill="#a855f7" opacity="0.53"/><circle cx="27.2" cy="448.3" r="1.0" fill="#a855f7" opacity="0.46"/><circle cx="379.1" cy="197.2" r="1.1" fill="#a855f7" opacity="0.37"/><circle cx="28.1" cy="95.9" r="1.1" fill="#a855f7" opacity="0.66"/><circle cx="80.4" cy="303.3" r="1.0" fill="#a855f7" opacity="0.66"/><circle cx="71.8" cy="397.9" r="1.6" fill="#a855f7" opacity="0.57"/><circle cx="190.0" cy="61.5" r="1.4" fill="#a855f7" opacity="0.22"/><circle cx="163.3" cy="137.6" r="1.7" fill="#a855f7" opacity="0.23"/><circle cx="16.4" cy="142.3" r="1.2" fill="#a855f7" opacity="0.41"/><circle cx="292.6" cy="68.6" r="1.7" fill="#a855f7" opacity="0.54"/><circle cx="142.4" cy="324.5" r="1.3" fill="#a855f7" opacity="0.51"/><circle cx="79.5" cy="363.7" r="1.0" fill="#a855f7" opacity="0.23"/><circle cx="202.6" cy="490.5" r="1.4" fill="#a855f7" opacity="0.45"/><circle cx="284.5" cy="117.3" r="0.6" fill="#a855f7" opacity="0.32"/><circle cx="127.8" cy="315.5" r="1.8" fill="#a855f7" opacity="0.37"/><circle cx="186.7" cy="20.6" r="1.5" fill="#a855f7" opacity="0.29"/><circle cx="56.3" cy="449.3" r="0.6" fill="#a855f7" opacity="0.50"/><circle cx="27.9" cy="371.0" r="1.8" fill="#a855f7" opacity="0.66"/><circle cx="111.5" cy="152.2" r="1.6" fill="#a855f7" opacity="0.38"/><circle cx="124.3" cy="14.0" r="1.0" fill="#a855f7" opacity="0.39"/><circle cx="46.6" cy="343.6" r="1.8" fill="#a855f7" opacity="0.43"/><circle cx="243.8" cy="138.6" r="1.2" fill="#a855f7" opacity="0.57"/><circle cx="355.3" cy="304.5" r="1.1" fill="#a855f7" opacity="0.31"/><circle cx="50.4" cy="46.5" r="1.5" fill="#a855f7" opacity="0.51"/><circle cx="50.1" cy="353.1" r="1.2" fill="#a855f7" opacity="0.69"/><circle cx="216.0" cy="14.4" r="0.6" fill="#a855f7" opacity="0.60"/><circle cx="306.1" cy="413.1" r="1.8" fill="#a855f7" opacity="0.24"/><circle cx="197.1" cy="49.1" r="1.1" fill="#a855f7" opacity="0.56"/><circle cx="372.9" cy="76.8" r="1.7" fill="#a855f7" opacity="0.60"/><circle cx="280.4" cy="136.8" r="0.7" fill="#a855f7" opacity="0.46"/>
  <circle cx="200" cy="240" r="64.08583676268861" fill="none" stroke="#3acff5" stroke-opacity="0.08" stroke-width="2.0145747599451305"/><circle cx="200" cy="240" r="85.92993827160494" fill="none" stroke="#3acff5" stroke-opacity="0.12" stroke-width="1.511608367626886"/><circle cx="200" cy="240" r="107.56827846364884" fill="none" stroke="#3acff5" stroke-opacity="0.16" stroke-width="2.5621399176954736"/><circle cx="200" cy="240" r="133.5440672153635" fill="none" stroke="#3acff5" stroke-opacity="0.20" stroke-width="1.2649348422496571"/><circle cx="200" cy="240" r="150.32644032921812" fill="none" stroke="#3acff5" stroke-opacity="0.24" stroke-width="2.9780178326474624"/>
  <text x="200" y="270" font-family="sans-serif" font-size="140" text-anchor="middle" fill="#a855f7" opacity="0.85">💎</text>
  <rect x="4" y="4" width="392" height="552" fill="none" stroke="#3acff5" stroke-width="1.5" opacity="0.7"/>
  <rect x="20" y="440" width="360" height="100" fill="#000" opacity="0.55"/>
  <text x="200" y="475" font-family="sans-serif" font-size="22" font-weight="bold" text-anchor="middle" fill="#a855f7">Drill CEO</text>
  <text x="200" y="500" font-family="sans-serif" font-size="11" text-anchor="middle" fill="#3acff5" letter-spacing="3">NEON 2020S</text>
  <text x="200" y="525" font-family="sans-serif" font-size="10" text-anchor="middle" fill="#ffffff" opacity="0.7" letter-spacing="2">COMMON</text>
</svg>