<svg xmlns="http://www.w3.org/2000/svg" viewBox="0 0 400 560" preserveAspectRatio="xMidYMid slice">
  <defs>
    <linearGradient id="bg" x1="0" y1="0" x2="0" y2="1">
      <stop offset="0" stop-color="#1a0f04"/>
      <stop offset="1" stop-color="#3d2410"/>
    </linearGradient>
    <radialGradient id="glow" cx="50%" cy="42%" r="50%">
      <stop offset="0" stop-color="#d4a84c" stop-opacity="0.55"/>
      <stop offset="0.5" stop-color="#d4a84c" stop-opacity="0.12"/>
      <stop offset="1" stop-color="#d4a84c" stop-opacity="0"/>
    </radialGradient>
  </defs>
  <rect width="400" height="560" fill="url(#bg)"/>
  <rect width="400" height="560" fill="url(#glow)"/>
  <circle cx="118.3" cy="113.2" r="1.9" fill="#f5d77a" opacity="0.48"/><circle cx="259.5" cy="258.5" r="1.1" fill="#f5d77a" opacity="0.59"/><circle cx="206.4" cy="104.2" r="0.6" fill="#f5d77a" opacity="0.44"/><circle cx="146.8" cy="452.2" r="1.7" fill="#f5d77a" opacity="0.38"/><circle cx="209.0" cy="466.1" r="1.3" fill="#f5d77a" opacity="0.50"/><circle cx="17.7" cy="221.9" r="1.2" fill="#f5d77a" opacity="0.62"/><circle cx="116.1" cy="272.6" r="1.4" fill="#f5d77a" opacity="0.53"/><circle cx="54.8" cy="466.3" r="1.9" fill="#f5d77a" opacity="0.61"/><circle cx="347.5" cy="256.7" r="1.9" fill="#f5d77a" opacity="0.28"/><circle cx="292.8" cy="507.9" r="0.7" fill="#f5d77a" opacity="0.27"/><circle cx="63.6" cy="72.4" r="0.7" fill="#f5d77a" opacity="0.25"/><circle cx="262.4" cy="21.8" r="0.7" fill="#f5d77a" opacity="0.25"/><circle cx="143.5" cy="411.3" r="1.8" fill="#f5d77a" opacity="0.44"/><circle cx="102.0" cy="217.8" r="1.7" fill="#f5d77a" opacity="0.27"/><circle cx="29.2" cy="450.6" r="1.7" fill="#f5d77a" opacity="0.37"/><circle cx="335.0" cy="356.2" r="1.4" fill="#f5d77a" opacity="0.37"/><circle cx="36.7" cy="155.8" r="1.6" fill="#f5d77a" opacity="0.49"/><circle cx="314.6" cy="236.5" r="1.2" fill="#f5d77a" opacity="0.47"/><circle cx="333.9" cy="155.9" r="1.9" fill="#f5d77a" opacity="0.39"/><circle cx="134.4" cy="259.7" r="1.2" fill="#f5d77a" opacity="0.24"/><circle cx="185.1" cy="312.8" r="1.9" fill="#f5d77a" opacity="0.39"/><circle cx="6.9" cy="183.8" r="1.4" fill="#f5d77a" opacity="0.34"/><circle cx="261.7" cy="342.9" r="1.6" fill="#f5d77a" opacity="0.37"/><circle cx="307.4" cy="492.7" r="1.7" fill="#f5d77a" opacity="0.45"/><circle cx="20.7" cy="253.1" r="0.9" fill="#f5d77a" opacity="0.55"/><circle cx="285.3" cy="218.6" r="0.8" fill="#f5d77a" opacity="0.20"/><circle cx="148.3" cy="29.7" r="1.6" fill="#f5d77a" opacity="0.50"/><circle cx="241.8" cy="177.3" r="1.2" fill="#f5d77a" opacity="0.35"/><circle cx="71.9" cy="260.3" r="1.3" fill="#f5d77a" opacity="0.57"/><circle cx="374.4" cy="417.1" r="1.1" fill="#f5d77a" opacity="0.36"/><circle cx="137.0" cy="329.6" r="0.6" fill="#f5d77a" opacity="0.57"/><circle cx="288.1" cy="281.2" r="1.0" fill="#f5d77a" opacity="0.31"/><circle cx="52.3" cy="348.1" r="1.2" fill="#f5d77a" opacity="0.37"/><circle cx="372.9" cy="523.4" r="1.3" fill="#f5d77a" opacity="0.56"/><circle cx="0.6" cy="94.8" r="1.1" fill="#f5d77a" opacity="0.25"/><circle cx="248.8" cy="196.2" r="1.4" fill="#f5d77a" opacity="0.36"/><circle cx="16.3" cy="11.9" r="1.5" fill="#f5d77a" opacity="0.63"/><circle cx="276.0" cy="74.2" r="0.9" fill="#f5d77a" opacity="0.23"/><circle cx="30.4" cy="334.7" r="1.3" fill="#f5d77a" opacity="0.67"/><circle cx="133.7" cy="288.7" r="0.7" fill="#f5d77a" opacity="0.64"/>
  <circle cx="200" cy="240" r="62.56868998628258" fill="none" stroke="#d4a84c" stroke-opacity="0.08" stroke-width="2.2690329218106995"/><circle cx="200" cy="240" r="88.79139231824416" fill="none" stroke="#d4a84c" stroke-opacity="0.12" stroke-width="1.107630315500686"/><circle cx="200" cy="240" r="109.96882716049383" fill="none" stroke="#d4a84c" stroke-opacity="0.16" stroke-width="2.437997256515775"/><circle cx="200" cy="240" r="130.94050068587106" fill="none" stroke="#d4a84c" stroke-opacity="0.20" stroke-width="1.3218621399176955"/><circle cx="200" cy="240" r="148.24962277091907" fill="none" stroke="#d4a84c" stroke-opacity="0.24" stroke-width="1.8579903978052126"/>
  <text x="200" y="270" font-family="serif" font-size="140" text-anchor="middle" fill="#f5d77a" opacity="0.85">☥</text>
  <rect x="4" y="4" width="392" height="552" fill="none" stroke="#d4a84c" stroke-width="1.5" opacity="0.7"/>
  <rect x="20" y="440" width="360" height="100" fill="#000" opacity="0.55"/>
  <text x="200" y="475" font-family="serif" font-size="22" font-weight="bold" text-anchor="middle" fill="#f5d77a">Bone Lion</text>
  <text x="200" y="500" font-family="sans-serif" font-size="11" text-anchor="middle" fill="#d4a84c" letter-spacing="3">DYNASTY</text>
  <text x="200" y="525" font-family="sans-serif" font-size="10" text-anchor="middle" fill="#ffffff" opacity="0.7" letter-spacing="2">COMMON</text>
</svg>