<svg xmlns="http://www.w3.org/2000/svg" viewBox="0 0 400 560" preserveAspectRatio="xMidYMid slice">
  <defs>
    <linearGradient id="bg" x1="0" y1="0" x2="0" y2="1">
      <stop offset="0" stop-color="#050a1a"/>
      <stop offset="1" stop-color="#0f1f3d"/>
    </linearGradient>
    <radialGradient id="glow" cx="50%" cy="42%" r="50%">
      <stop offset="0" stop-color="#3acff5" stop-opacity="0.55"/>
      <stop offset="0.5" stop-color="#3acff5" stop-opacity="0.12"/>
      <stop offset="1" stop-color="#3acff5" stop-opacity="0"/>
    </radialGradient>
  </defs>
  <rect width="400" height="560" fill="url(#bg)"/>
  <rect width="400" height="560" fill="url(#glow)"/>
  <circle cx="159.9" cy="236.1" r="0.9" fill="#a855f7" opacity="0.35"/><circle cx="374.7" cy="290.9" r="1.1" fill="#a855f7" opacity="0.42"/><circle cx="108.9" cy="60.0" r="1.1" fill="#a855f7" opacity="0.66"/><circle cx="335.3" cy="75.6" r="1.8" fill="#a855f7" opacity="0.21"/><circle cx="56.4" cy="289.4" r="0.6" fill="#a855f7" opacity="0.61"/><circle cx="126.4" cy="196.7" r="1.3" fill="#a855f7" opacity="0.53"/><circle cx="140.4" cy="454.3" r="2.0" fill="#a855f7" opacity="0.43"/><circle cx="389.8" cy="391.6" r="0.6" fill="#a855f7" opacity="0.43"/><circle cx="84.5" cy="374.9" r="1.6" fill="#a855f7" opacity="0.67"/><circle cx="241.8" cy="65.6" r="1.0" fill="#a855f7" opacity="0.36"/><circle cx="41.8" cy="410.8" r="0.8" fill="#a855f7" opacity="0.24"/><circle cx="250.1" cy="408.0" r="1.2" fill="#a855f7" opacity="0.40"/><circle cx="106.1" cy="402.9" r="1.2" fill="#a855f7" opacity="0.32"/><circle cx="79.0" cy="160.4" r="0.6" fill="#a855f7" opacity="0.37"/><circle cx="89.8" cy="109.2" r="1.3" fill="#a855f7" opacity="0.56"/><circle cx="0.1" cy="159.4" r="0.8" fill="#a855f7" opacity="0.66"/><circle cx="368.0" cy="13.7" r="1.0" fill="#a855f7" opacity="0.64"/><circle cx="270.1" cy="411.9" r="1.4" fill="#a855f7" opacity="0.47"/><circle cx="190.4" cy="268.5" r="0.6" fill="#a855f7" opacity="0.70"/><circle cx="375.6" cy="344.0" r="1.5" fill="#a855f7" opacity="0.40"/><circle cx="257.9" cy="9.3" r="0.9" fill="#a855f7" opacity="0.48"/><circle cx="143.6" cy="543.5" r="1.7" fill="#a855f7" opacity="0.27"/><circle cx="368.3" cy="404.7" r="1.7" fill="#a855f7" opacity="0.47"/><circle cx="319.8" cy="395.0" r="0.8" fill="#a855f7" opacity="0.41"/><circle cx="126.4" cy="237.8" r="0.5" fill="#a855f7" opacity="0.22"/><circle cx="212.9" cy="9.1" r="0.9" fill="#a855f7" opacity="0.69"/><circle cx="322.4" cy="262.1" r="0.7" fill="#a855f7" opacity="0.61"/><circle cx="5.6" cy="284.6" r="1.2" fill="#a855f7" opacity="0.37"/><circle cx="176.0" cy="90.5" r="1.8" fill="#a855f7" opacity="0.38"/><circle cx="132.4" cy="544.0" r="1.6" fill="#a855f7" opacity="0.39"/><circle cx="47.7" cy="497.4" r="1.6" fill="#a855f7" opacity="0.55"/><circle cx="124.3" cy="462.3" r="0.7" fill="#a855f7" opacity="0.40"/><circle cx="16.5" cy="494.1" r="1.3" fill="#a855f7" opacity="0.61"/><circle cx="119.5" cy="129.5" r="1.3" fill="#a855f7" opacity="0.61"/><circle cx="324.5" cy="377.8" r="1.8" fill="#a855f7" opacity="0.56"/><circle cx="241.4" cy="485.7" r="1.1" fill="#a855f7" opacity="0.58"/><circle cx="87.5" cy="114.1" r="1.3" fill="#a855f7" opacity="0.37"/><circle cx="243.1" cy="210.4" r="1.5" fill="#a855f7" opacity="0.20"/><circle cx="273.6" cy="332.0" r="1.7" fill="#a855f7" opacity="0.64"/><circle cx="218.5" cy="264.7" r="1.1" fill="#a855f7" opacity="0.67"/>
  <circle cx="200" cy="240" r="63.766872427983536" fill="none" stroke="#3acff5" stroke-opacity="0.08" stroke-width="2.34275548696845"/><circle cx="200" cy="240" r="87.56570644718794" fill="none" stroke="#3acff5" stroke-opacity="0.12" stroke-width="1.0815586419753087"/><circle cx="200" cy="240" r="107.9982853223594" fill="none" stroke="#3acff5" stroke-opacity="0.16" stroke-width="2.435588134430727"/><circle cx="200" cy="240" r="129.31152263374486" fill="none" stroke="#3acff5" stroke-opacity="0.20" stroke-width="1.5406464334705077"/><circle cx="200" cy="240" r="151.90048010973936" fill="none" stroke="#3acff5" stroke-opacity="0.24" stroke-width="1.014017489711934"/>
  <text x="200" y="270" font-family="sans-serif" font-size="140" text-anchor="middle" fill="#a855f7" opacity="0.85">💎</text>
  <rect x="4" y="4" width="392" height="552" fill="none" stroke="#3acff5" stroke-width="1.5" opacity="0.7"/>
  <rect x="20" y="440" width="360" height="100" fill="#000" opacity="0.55"/>
  <text x="200" y="475" font-family="sans-serif" font-size="22" font-weight="bold" text-anchor="middle" fill="#a855f7">Drip Specter</text>
  <text x="200" y="500" font-family="sans-serif" font-size="11" text-anchor="middle" fill="#3acff5" letter-spacing="3">NEON 2020S</text>
  <text x="200" y="525" font-family="sans-serif" font-size="10" text-anchor="middle" fill="#ffffff" opacity="0.7" letter-spacing="2">COMMON</text>
</svg>