<svg xmlns="http://www.w3.org/2000/svg" viewBox="0 0 400 560" preserveAspectRatio="xMidYMid slice">
  <defs>
    <linearGradient id="bg" x1="0" y1="0" x2="0" y2="1">
      <stop offset="0" stop-color="#050a1a"/>
      <stop offset="1" stop-color="#0f1f3d"/>
    </linearGradient>
    <radialGradient id="glow" cx="50%" cy="42%" r="50%">
      <stop offset="0" stop-color="#3acff5" stop-opacity="0.55"/>
      <stop offset="0.5" stop-color="#3acff5" stop-opacity="0.12"/>
      <stop offset="1" stop-color="#3acff5" stop-opacity="0"/>
    </radialGradient>
  </defs>
  <rect width="400" height="560" fill="url(#bg)"/>
  <rect width="400" height="560" fill="url(#glow)"/>
  <circle cx="242.3" cy="246.6" r="1.6" fill="#a855f7" opacity="0.32"/><circle cx="68.6" cy="262.3" r="0.8" fill="#a855f7" opacity="0.37"/><circle cx="189.7" cy="476.1" r="1.1" fill="#a855f7" opacity="0.27"/><circle cx="259.7" cy="383.4" r="1.8" fill="#a855f7" opacity="0.20"/><circle cx="273.7" cy="81.0" r="1.0" fill="#a855f7" opacity="0.60"/><circle cx="123.2" cy="18.3" r="1.1" fill="#a855f7" opacity="0.60"/><circle cx="217.9" cy="1.6" r="0.6" fill="#a855f7" opacity="0.34"/><circle cx="375.1" cy="252.3" r="1.5" fill="#a855f7" opacity="0.52"/><circle cx="175.2" cy="37.5" r="1.3" fill="#a855f7" opacity="0.41"/><circle cx="383.4" cy="34.7" r="1.7" fill="#a855f7" opacity="0.57"/><circle cx="239.5" cy="29.5" r="1.7" fill="#a855f7" opacity="0.49"/><circle cx="212.3" cy="347.1" r="1.1" fill="#a855f7" opacity="0.54"/><circle cx="223.1" cy="295.8" r="1.8" fill="#a855f7" opacity="0.22"/><circle cx="133.4" cy="346.0" r="1.3" fill="#a855f7" opacity="0.32"/><circle cx="101.4" cy="200.3" r="1.5" fill="#a855f7" opacity="0.31"/><circle cx="3.5" cy="38.5" r="1.9" fill="#a855f7" opacity="0.64"/><circle cx="323.7" cy="455.1" r="1.1" fill="#a855f7" opacity="0.36"/><circle cx="108.9" cy="530.7" r="0.5" fill="#a855f7" opacity="0.56"/><circle cx="391.3" cy="196.0" r="1.4" fill="#a855f7" opacity="0.65"/><circle cx="276.9" cy="170.1" r="0.7" fill="#a855f7" opacity="0.44"/><circle cx="101.7" cy="31.4" r="0.7" fill="#a855f7" opacity="0.63"/><circle cx="53.1" cy="21.6" r="1.3" fill="#a855f7" opacity="0.58"/><circle cx="259.8" cy="424.4" r="1.0" fill="#a855f7" opacity="0.38"/><circle cx="346.2" cy="195.8" r="1.4" fill="#a855f7" opacity="0.35"/><circle cx="55.8" cy="448.8" r="1.2" fill="#a855f7" opacity="0.27"/><circle cx="138.9" cy="471.3" r="1.7" fill="#a855f7" opacity="0.53"/><circle cx="309.4" cy="277.2" r="0.8" fill="#a855f7" opacity="0.55"/><circle cx="265.8" cy="170.7" r="0.6" fill="#a855f7" opacity="0.56"/><circle cx="181.1" cy="124.1" r="0.6" fill="#a855f7" opacity="0.22"/><circle cx="257.6" cy="89.0" r="1.2" fill="#a855f7" opacity="0.57"/><circle cx="149.9" cy="120.8" r="1.8" fill="#a855f7" opacity="0.27"/><circle cx="252.8" cy="316.1" r="1.8" fill="#a855f7" opacity="0.28"/><circle cx="57.8" cy="4.5" r="0.8" fill="#a855f7" opacity="0.23"/><circle cx="374.7" cy="112.3" r="1.6" fill="#a855f7" opacity="0.24"/><circle cx="220.9" cy="300.8" r="1.8" fill="#a855f7" opacity="0.54"/><circle cx="376.5" cy="397.1" r="2.0" fill="#a855f7" opacity="0.37"/><circle cx="7.0" cy="518.7" r="0.7" fill="#a855f7" opacity="0.31"/><circle cx="351.9" cy="451.4" r="1.6" fill="#a855f7" opacity="0.34"/><circle cx="280.3" cy="520.0" r="1.3" fill="#a855f7" opacity="0.33"/><circle cx="113.3" cy="33.2" r="1.9" fill="#a855f7" opacity="0.30"/><circle cx="112.5" cy="21.2" r="0.6" fill="#a855f7" opacity="0.51"/><circle cx="36.0" cy="186.6" r="1.2" fill="#a855f7" opacity="0.44"/><circle cx="160.3" cy="149.2" r="1.4" fill="#a855f7" opacity="0.54"/><circle cx="169.4" cy="503.6" r="1.4" fill="#a855f7" opacity="0.38"/><circle cx="310.2" cy="330.3" r="1.2" fill="#a855f7" opacity="0.52"/><circle cx="14.8" cy="120.0" r="1.9" fill="#a855f7" opacity="0.39"/><circle cx="389.3" cy="32.0" r="0.5" fill="#a855f7" opacity="0.29"/><circle cx="169.6" cy="204.3" r="0.9" fill="#a855f7" opacity="0.43"/><circle cx="343.3" cy="319.0" r="1.4" fill="#a855f7" opacity="0.65"/><circle cx="238.9" cy="99.6" r="1.9" fill="#a855f7" opacity="0.57"/><circle cx="280.9" cy="182.0" r="1.1" fill="#a855f7" opacity="0.48"/><circle cx="212.6" cy="559.5" r="0.7" fill="#a855f7" opacity="0.68"/><circle cx="384.7" cy="519.8" r="0.5" fill="#a855f7" opacity="0.55"/><circle cx="110.7" cy="76.8" r="1.4" fill="#a855f7" opacity="0.51"/><circle cx="289.3" cy="94.7" r="1.1" fill="#a855f7" opacity="0.30"/><circle cx="293.5" cy="545.9" r="2.0" fill="#a855f7" opacity="0.57"/><circle cx="325.6" cy="261.9" r="1.4" fill="#a855f7" opacity="0.36"/><circle cx="40.1" cy="418.1" r="1.9" fill="#a855f7" opacity="0.34"/><circle cx="231.9" cy="551.3" r="1.2" fill="#a855f7" opacity="0.46"/><circle cx="392.4" cy="550.8" r="2.0" fill="#a855f7" opacity="0.35"/><circle cx="131.6" cy="223.0" r="1.1" fill="#a855f7" opacity="0.65"/><circle cx="66.6" cy="349.3" r="0.6" fill="#a855f7" opacity="0.56"/><circle cx="177.8" cy="196.7" r="1.2" fill="#a855f7" opacity="0.33"/><circle cx="30.5" cy="442.7" r="1.2" fill="#a855f7" opacity="0.54"/><circle cx="64.3" cy="313.2" r="1.4" fill="#a855f7" opacity="0.69"/><circle cx="348.3" cy="132.9" r="1.5" fill="#a855f7" opacity="0.62"/><circle cx="3.5" cy="330.6" r="1.9" fill="#a855f7" opacity="0.37"/><circle cx="91.6" cy="256.3" r="1.4" fill="#a855f7" opacity="0.69"/><circle cx="370.6" cy="172.9" r="0.9" fill="#a855f7" opacity="0.56"/><circle cx="317.2" cy="259.9" r="0.9" fill="#a855f7" opacity="0.45"/>
  <circle cx="200" cy="240" r="60.23237311385459" fill="none" stroke="#3acff5" stroke-opacity="0.08" stroke-width="1.7482253086419752"/><circle cx="200" cy="240" r="88.66495198902606" fill="none" stroke="#3acff5" stroke-opacity="0.12" stroke-width="1.1022548010973936"/><circle cx="200" cy="240" r="109.97818930041153" fill="none" stroke="#3acff5" stroke-opacity="0.16" stroke-width="2.207313100137174"/><circle cx="200" cy="240" r="132.56714677640605" fill="none" stroke="#3acff5" stroke-opacity="0.20" stroke-width="1.6806841563786008"/><circle cx="200" cy="240" r="153.8639231824417" fill="none" stroke="#3acff5" stroke-opacity="0.24" stroke-width="2.510022290809328"/><circle cx="200" cy="240" r="174.55987654320987" fill="none" stroke="#3acff5" stroke-opacity="0.28" stroke-width="2.275574417009602"/><circle cx="200" cy="240" r="194.16117969821673" fill="none" stroke="#3acff5" stroke-opacity="0.32" stroke-width="2.705735596707819"/><circle cx="200" cy="240" r="219.87770919067216" fill="none" stroke="#3acff5" stroke-opacity="0.36" stroke-width="2.56593792866941"/>
  <text x="200" y="270" font-family="sans-serif" font-size="140" text-anchor="middle" fill="#a855f7" opacity="0.85">💎</text>
  <rect x="16" y="16" width="368" height="528" fill="none" stroke="#3acff5" stroke-width="6" opacity="0.7"/>
  <rect x="20" y="440" width="360" height="100" fill="#000" opacity="0.55"/>
  <text x="200" y="475" font-family="sans-serif" font-size="22" font-weight="bold" text-anchor="middle" fill="#a855f7">Cyber Empress</text>
  <text x="200" y="500" font-family="sans-serif" font-size="11" text-anchor="middle" fill="#3acff5" letter-spacing="3">NEON 2020S</text>
  <text x="200" y="525" font-family="sans-serif" font-size="10" text-anchor="middle" fill="#ffffff" opacity="0.7" letter-spacing="2">LEGENDARY</text>
</svg>