<svg xmlns="http://www.w3.org/2000/svg" viewBox="0 0 400 560" preserveAspectRatio="xMidYMid slice">
  <defs>
    <linearGradient id="bg" x1="0" y1="0" x2="0" y2="1">
      <stop offset="0" stop-color="#1a0533"/>
      <stop offset="1" stop-color="#3d0f5c"/>
    </linearGradient>
    <radialGradient id="glow" cx="50%" cy="42%" r="50%">
      <stop offset="0" stop-color="#e94ec7" stop-opacity="0.55"/>
      <stop offset="0.5" stop-color="#e94ec7" stop-opacity="0.12"/>
      <stop offset="1" stop-color="#e94ec7" stop-opacity="0"/>
    </radialGradient>
  </defs>
  <rect width="400" height="560" fill="url(#bg)"/>
  <rect width="400" height="560" fill="url(#glow)"/>
  <circle cx="89.2" cy="467.7" r="1.1" fill="#ff9f43" opacity="0.25"/><circle cx="137.0" cy="530.5" r="1.3" fill="#ff9f43" opacity="0.65"/><circle cx="262.2" cy="10.3" r="1.9" fill="#ff9f43" opacity="0.69"/><circle cx="356.0" cy="476.5" r="1.0" fill="#ff9f43" opacity="0.50"/><circle cx="28.5" cy="55.4" r="1.3" fill="#ff9f43" opacity="0.21"/><circle cx="296.9" cy="88.3" r="0.6" fill="#ff9f43" opacity="0.53"/><circle cx="341.4" cy="402.4" r="0.9" fill="#ff9f43" opacity="0.22"/><circle cx="127.4" cy="555.1" r="0.7" fill="#ff9f43" opacity="0.35"/><circle cx="94.5" cy="332.2" r="0.6" fill="#ff9f43" opacity="0.41"/><circle cx="311.9" cy="58.6" r="2.0" fill="#ff9f43" opacity="0.27"/><circle cx="300.4" cy="163.0" r="0.6" fill="#ff9f43" opacity="0.43"/><circle cx="321.8" cy="555.4" r="1.4" fill="#ff9f43" opacity="0.66"/><circle cx="134.2" cy="378.6" r="0.6" fill="#ff9f43" opacity="0.46"/><circle cx="14.1" cy="372.3" r="1.9" fill="#ff9f43" opacity="0.26"/><circle cx="45.4" cy="11.1" r="1.0" fill="#ff9f43" opacity="0.62"/><circle cx="75.1" cy="55.6" r="0.9" fill="#ff9f43" opacity="0.63"/><circle cx="335.3" cy="436.5" r="1.2" fill="#ff9f43" opacity="0.68"/><circle cx="332.0" cy="192.8" r="1.8" fill="#ff9f43" opacity="0.61"/><circle cx="1.2" cy="22.9" r="0.8" fill="#ff9f43" opacity="0.61"/><circle cx="330.5" cy="168.8" r="0.8" fill="#ff9f43" opacity="0.53"/><circle cx="248.2" cy="353.8" r="2.0" fill="#ff9f43" opacity="0.47"/><circle cx="179.1" cy="94.0" r="1.3" fill="#ff9f43" opacity="0.25"/><circle cx="266.4" cy="502.5" r="2.0" fill="#ff9f43" opacity="0.64"/><circle cx="60.7" cy="307.3" r="0.9" fill="#ff9f43" opacity="0.54"/><circle cx="75.6" cy="82.1" r="1.9" fill="#ff9f43" opacity="0.36"/><circle cx="9.8" cy="131.1" r="1.1" fill="#ff9f43" opacity="0.34"/><circle cx="36.1" cy="426.8" r="1.0" fill="#ff9f43" opacity="0.64"/><circle cx="357.2" cy="360.6" r="0.6" fill="#ff9f43" opacity="0.29"/><circle cx="227.2" cy="547.9" r="0.6" fill="#ff9f43" opacity="0.47"/><circle cx="41.2" cy="525.5" r="2.0" fill="#ff9f43" opacity="0.62"/><circle cx="90.7" cy="182.8" r="1.4" fill="#ff9f43" opacity="0.37"/><circle cx="385.4" cy="446.1" r="1.6" fill="#ff9f43" opacity="0.36"/><circle cx="342.6" cy="416.8" r="1.7" fill="#ff9f43" opacity="0.30"/><circle cx="342.7" cy="482.0" r="0.8" fill="#ff9f43" opacity="0.43"/><circle cx="350.9" cy="199.2" r="2.0" fill="#ff9f43" opacity="0.34"/><circle cx="7.0" cy="474.0" r="1.2" fill="#ff9f43" opacity="0.51"/><circle cx="179.8" cy="511.6" r="1.4" fill="#ff9f43" opacity="0.31"/><circle cx="390.6" cy="180.3" r="1.3" fill="#ff9f43" opacity="0.25"/><circle cx="100.9" cy="510.5" r="1.5" fill="#ff9f43" opacity="0.60"/><circle cx="268.9" cy="84.8" r="1.0" fill="#ff9f43" opacity="0.33"/>
  <circle cx="200" cy="240" r="67.64622770919067" fill="none" stroke="#e94ec7" stroke-opacity="0.08" stroke-width="2.8136231138545953"/><circle cx="200" cy="240" r="85.72489711934156" fill="none" stroke="#e94ec7" stroke-opacity="0.12" stroke-width="2.739669067215363"/><circle cx="200" cy="240" r="108.33854595336076" fill="none" stroke="#e94ec7" stroke-opacity="0.16" stroke-width="1.6266203703703703"/><circle cx="200" cy="240" r="128.47482853223593" fill="none" stroke="#e94ec7" stroke-opacity="0.20" stroke-width="2.0176868998628255"/><circle cx="200" cy="240" r="155.71399176954733" fill="none" stroke="#e94ec7" stroke-opacity="0.24" stroke-width="2.3820044581618656"/>
  <text x="200" y="270" font-family="sans-serif" font-size="140" text-anchor="middle" fill="#ff9f43" opacity="0.85">🪩</text>
  <rect x="4" y="4" width="392" height="552" fill="none" stroke="#e94ec7" stroke-width="1.5" opacity="0.7"/>
  <rect x="20" y="440" width="360" height="100" fill="#000" opacity="0.55"/>
  <text x="200" y="475" font-family="sans-serif" font-size="22" font-weight="bold" text-anchor="middle" fill="#ff9f43">Stardust Knight</text>
  <text x="200" y="500" font-family="sans-serif" font-size="11" text-anchor="middle" fill="#e94ec7" letter-spacing="3">COSMIC 1970S</text>
  <text x="200" y="525" font-family="sans-serif" font-size="10" text-anchor="middle" fill="#ffffff" opacity="0.7" letter-spacing="2">COMMON</text>
</svg>