<svg xmlns="http://www.w3.org/2000/svg" viewBox="0 0 400 560" preserveAspectRatio="xMidYMid slice">
  <defs>
    <linearGradient id="bg" x1="0" y1="0" x2="0" y2="1">
      <stop offset="0" stop-color="#1a0f04"/>
      <stop offset="1" stop-color="#3d2410"/>
    </linearGradient>
    <radialGradient id="glow" cx="50%" cy="42%" r="50%">
      <stop offset="0" stop-color="#d4a84c" stop-opacity="0.55"/>
      <stop offset="0.5" stop-color="#d4a84c" stop-opacity="0.12"/>
      <stop offset="1" stop-color="#d4a84c" stop-opacity="0"/>
    </radialGradient>
  </defs>
  <rect width="400" height="560" fill="url(#bg)"/>
  <rect width="400" height="560" fill="url(#glow)"/>
  <circle cx="18.6" cy="139.2" r="1.4" fill="#f5d77a" opacity="0.65"/><circle cx="299.3" cy="210.1" r="1.6" fill="#f5d77a" opacity="0.38"/><circle cx="15.4" cy="520.7" r="1.2" fill="#f5d77a" opacity="0.22"/><circle cx="376.7" cy="317.4" r="1.7" fill="#f5d77a" opacity="0.29"/><circle cx="0.7" cy="381.4" r="0.6" fill="#f5d77a" opacity="0.31"/><circle cx="67.4" cy="539.9" r="1.4" fill="#f5d77a" opacity="0.53"/><circle cx="142.3" cy="350.4" r="1.3" fill="#f5d77a" opacity="0.52"/><circle cx="265.0" cy="158.6" r="0.8" fill="#f5d77a" opacity="0.27"/><circle cx="104.6" cy="289.5" r="1.2" fill="#f5d77a" opacity="0.65"/><circle cx="382.0" cy="51.6" r="1.4" fill="#f5d77a" opacity="0.67"/><circle cx="159.0" cy="475.1" r="1.9" fill="#f5d77a" opacity="0.61"/><circle cx="393.6" cy="142.8" r="1.6" fill="#f5d77a" opacity="0.43"/><circle cx="162.4" cy="354.3" r="1.5" fill="#f5d77a" opacity="0.59"/><circle cx="349.2" cy="24.2" r="1.7" fill="#f5d77a" opacity="0.64"/><circle cx="1.1" cy="473.1" r="0.6" fill="#f5d77a" opacity="0.68"/><circle cx="150.2" cy="511.8" r="1.0" fill="#f5d77a" opacity="0.60"/><circle cx="302.5" cy="299.3" r="1.3" fill="#f5d77a" opacity="0.22"/><circle cx="393.9" cy="533.8" r="0.8" fill="#f5d77a" opacity="0.25"/><circle cx="212.0" cy="337.4" r="0.9" fill="#f5d77a" opacity="0.53"/><circle cx="285.3" cy="553.5" r="1.6" fill="#f5d77a" opacity="0.67"/><circle cx="238.5" cy="138.2" r="1.5" fill="#f5d77a" opacity="0.47"/><circle cx="214.7" cy="204.5" r="0.8" fill="#f5d77a" opacity="0.22"/><circle cx="164.5" cy="40.4" r="0.8" fill="#f5d77a" opacity="0.32"/><circle cx="201.6" cy="219.6" r="0.9" fill="#f5d77a" opacity="0.67"/><circle cx="24.7" cy="486.5" r="1.7" fill="#f5d77a" opacity="0.51"/><circle cx="206.6" cy="253.2" r="1.2" fill="#f5d77a" opacity="0.50"/><circle cx="149.9" cy="31.4" r="1.3" fill="#f5d77a" opacity="0.68"/><circle cx="308.8" cy="436.5" r="1.4" fill="#f5d77a" opacity="0.22"/><circle cx="278.4" cy="445.2" r="0.9" fill="#f5d77a" opacity="0.56"/><circle cx="350.0" cy="507.0" r="0.9" fill="#f5d77a" opacity="0.34"/><circle cx="133.6" cy="428.1" r="1.2" fill="#f5d77a" opacity="0.69"/><circle cx="246.4" cy="429.9" r="0.9" fill="#f5d77a" opacity="0.32"/><circle cx="268.7" cy="339.5" r="0.6" fill="#f5d77a" opacity="0.49"/><circle cx="165.8" cy="274.5" r="1.8" fill="#f5d77a" opacity="0.25"/><circle cx="377.4" cy="20.5" r="0.7" fill="#f5d77a" opacity="0.62"/><circle cx="172.5" cy="462.4" r="1.4" fill="#f5d77a" opacity="0.45"/><circle cx="272.2" cy="349.0" r="1.4" fill="#f5d77a" opacity="0.24"/><circle cx="138.1" cy="150.3" r="1.2" fill="#f5d77a" opacity="0.29"/><circle cx="328.2" cy="129.0" r="1.3" fill="#f5d77a" opacity="0.55"/><circle cx="319.2" cy="465.0" r="1.0" fill="#f5d77a" opacity="0.49"/>
  <circle cx="200" cy="240" r="63.52558299039781" fill="none" stroke="#d4a84c" stroke-opacity="0.08" stroke-width="1.2844907407407407"/><circle cx="200" cy="240" r="83.8840877914952" fill="none" stroke="#d4a84c" stroke-opacity="0.12" stroke-width="2.3977794924554185"/><circle cx="200" cy="240" r="108.67880658436214" fill="none" stroke="#d4a84c" stroke-opacity="0.16" stroke-width="2.8176526063100136"/><circle cx="200" cy="240" r="127.63813443072702" fill="none" stroke="#d4a84c" stroke-opacity="0.20" stroke-width="2.494727366255144"/><circle cx="200" cy="240" r="151.52750342935528" fill="none" stroke="#d4a84c" stroke-opacity="0.24" stroke-width="1.749991426611797"/>
  <text x="200" y="270" font-family="serif" font-size="140" text-anchor="middle" fill="#f5d77a" opacity="0.85">☥</text>
  <rect x="4" y="4" width="392" height="552" fill="none" stroke="#d4a84c" stroke-width="1.5" opacity="0.7"/>
  <rect x="20" y="440" width="360" height="100" fill="#000" opacity="0.55"/>
  <text x="200" y="475" font-family="serif" font-size="22" font-weight="bold" text-anchor="middle" fill="#f5d77a">Stone Scribe</text>
  <text x="200" y="500" font-family="sans-serif" font-size="11" text-anchor="middle" fill="#d4a84c" letter-spacing="3">DYNASTY</text>
  <text x="200" y="525" font-family="sans-serif" font-size="10" text-anchor="middle" fill="#ffffff" opacity="0.7" letter-spacing="2">COMMON</text>
</svg>