<svg xmlns="http://www.w3.org/2000/svg" viewBox="0 0 400 560" preserveAspectRatio="xMidYMid slice">
  <defs>
    <linearGradient id="bg" x1="0" y1="0" x2="0" y2="1">
      <stop offset="0" stop-color="#0a1a0f"/>
      <stop offset="1" stop-color="#1a3d24"/>
    </linearGradient>
    <radialGradient id="glow" cx="50%" cy="42%" r="50%">
      <stop offset="0" stop-color="#f5d23a" stop-opacity="0.55"/>
      <stop offset="0.5" stop-color="#f5d23a" stop-opacity="0.12"/>
      <stop offset="1" stop-color="#f5d23a" stop-opacity="0"/>
    </radialGradient>
  </defs>
  <rect width="400" height="560" fill="url(#bg)"/>
  <rect width="400" height="560" fill="url(#glow)"/>
  <circle cx="191.4" cy="89.2" r="1.2" fill="#3acf5c" opacity="0.41"/><circle cx="15.7" cy="191.8" r="1.8" fill="#3acf5c" opacity="0.64"/><circle cx="124.8" cy="126.2" r="0.7" fill="#3acf5c" opacity="0.60"/><circle cx="365.6" cy="92.8" r="0.9" fill="#3acf5c" opacity="0.38"/><circle cx="170.2" cy="22.6" r="1.9" fill="#3acf5c" opacity="0.36"/><circle cx="244.7" cy="74.5" r="0.9" fill="#3acf5c" opacity="0.39"/><circle cx="125.0" cy="386.9" r="1.6" fill="#3acf5c" opacity="0.65"/><circle cx="398.8" cy="81.6" r="1.0" fill="#3acf5c" opacity="0.50"/><circle cx="394.3" cy="2.2" r="1.9" fill="#3acf5c" opacity="0.54"/><circle cx="136.3" cy="224.6" r="1.5" fill="#3acf5c" opacity="0.58"/><circle cx="168.0" cy="182.0" r="1.5" fill="#3acf5c" opacity="0.40"/><circle cx="40.1" cy="282.4" r="1.7" fill="#3acf5c" opacity="0.40"/><circle cx="266.1" cy="539.4" r="1.5" fill="#3acf5c" opacity="0.49"/><circle cx="144.7" cy="137.3" r="1.5" fill="#3acf5c" opacity="0.40"/><circle cx="248.9" cy="168.5" r="1.2" fill="#3acf5c" opacity="0.30"/><circle cx="381.0" cy="24.5" r="1.1" fill="#3acf5c" opacity="0.21"/><circle cx="195.5" cy="320.7" r="1.9" fill="#3acf5c" opacity="0.32"/><circle cx="87.3" cy="33.9" r="1.6" fill="#3acf5c" opacity="0.56"/><circle cx="347.8" cy="173.4" r="1.3" fill="#3acf5c" opacity="0.58"/><circle cx="187.0" cy="545.6" r="0.7" fill="#3acf5c" opacity="0.50"/><circle cx="222.0" cy="251.8" r="0.7" fill="#3acf5c" opacity="0.53"/><circle cx="33.2" cy="239.2" r="1.6" fill="#3acf5c" opacity="0.43"/><circle cx="385.9" cy="65.3" r="0.5" fill="#3acf5c" opacity="0.27"/><circle cx="119.7" cy="75.8" r="1.0" fill="#3acf5c" opacity="0.54"/><circle cx="103.7" cy="35.5" r="1.5" fill="#3acf5c" opacity="0.60"/><circle cx="258.9" cy="373.2" r="0.8" fill="#3acf5c" opacity="0.47"/><circle cx="47.0" cy="438.9" r="0.7" fill="#3acf5c" opacity="0.41"/><circle cx="26.0" cy="495.4" r="0.5" fill="#3acf5c" opacity="0.41"/><circle cx="72.6" cy="162.5" r="0.9" fill="#3acf5c" opacity="0.42"/><circle cx="270.6" cy="34.7" r="0.7" fill="#3acf5c" opacity="0.49"/><circle cx="66.9" cy="312.4" r="1.2" fill="#3acf5c" opacity="0.21"/><circle cx="93.7" cy="366.7" r="0.6" fill="#3acf5c" opacity="0.47"/><circle cx="257.2" cy="356.4" r="1.9" fill="#3acf5c" opacity="0.61"/><circle cx="93.0" cy="419.8" r="1.4" fill="#3acf5c" opacity="0.32"/><circle cx="188.9" cy="239.0" r="0.6" fill="#3acf5c" opacity="0.45"/><circle cx="273.3" cy="97.3" r="0.9" fill="#3acf5c" opacity="0.60"/><circle cx="370.9" cy="70.9" r="0.8" fill="#3acf5c" opacity="0.58"/><circle cx="224.9" cy="152.7" r="0.6" fill="#3acf5c" opacity="0.68"/><circle cx="185.8" cy="190.8" r="1.6" fill="#3acf5c" opacity="0.29"/><circle cx="367.4" cy="199.0" r="1.8" fill="#3acf5c" opacity="0.32"/>
  <circle cx="200" cy="240" r="66.34447873799726" fill="none" stroke="#f5d23a" stroke-opacity="0.08" stroke-width="1.9218278463648835"/><circle cx="200" cy="240" r="83.37376543209876" fill="none" stroke="#f5d23a" stroke-opacity="0.12" stroke-width="1.7707133058984912"/><circle cx="200" cy="240" r="107.30840192043895" fill="none" stroke="#f5d23a" stroke-opacity="0.16" stroke-width="2.2842078189300414"/><circle cx="200" cy="240" r="129.35826474622772" fill="none" stroke="#f5d23a" stroke-opacity="0.20" stroke-width="2.2277434842249657"/><circle cx="200" cy="240" r="154.6591563786008" fill="none" stroke="#f5d23a" stroke-opacity="0.24" stroke-width="1.6260116598079561"/>
  <text x="200" y="270" font-family="sans-serif" font-size="140" text-anchor="middle" fill="#3acf5c" opacity="0.85">🎤</text>
  <rect x="4" y="4" width="392" height="552" fill="none" stroke="#f5d23a" stroke-width="1.5" opacity="0.7"/>
  <rect x="20" y="440" width="360" height="100" fill="#000" opacity="0.55"/>
  <text x="200" y="475" font-family="sans-serif" font-size="22" font-weight="bold" text-anchor="middle" fill="#3acf5c">Turntable Cipher</text>
  <text x="200" y="500" font-family="sans-serif" font-size="11" text-anchor="middle" fill="#f5d23a" letter-spacing="3">BOOM-BAP 1990S</text>
  <text x="200" y="525" font-family="sans-serif" font-size="10" text-anchor="middle" fill="#ffffff" opacity="0.7" letter-spacing="2">COMMON</text>
</svg>