<svg xmlns="http://www.w3.org/2000/svg" viewBox="0 0 400 560" preserveAspectRatio="xMidYMid slice">
  <defs>
    <linearGradient id="bg" x1="0" y1="0" x2="0" y2="1">
      <stop offset="0" stop-color="#1a0533"/>
      <stop offset="1" stop-color="#3d0f5c"/>
    </linearGradient>
    <radialGradient id="glow" cx="50%" cy="42%" r="50%">
      <stop offset="0" stop-color="#e94ec7" stop-opacity="0.55"/>
      <stop offset="0.5" stop-color="#e94ec7" stop-opacity="0.12"/>
      <stop offset="1" stop-color="#e94ec7" stop-opacity="0"/>
    </radialGradient>
  </defs>
  <rect width="400" height="560" fill="url(#bg)"/>
  <rect width="400" height="560" fill="url(#glow)"/>
  <circle cx="55.2" cy="407.1" r="1.1" fill="#ff9f43" opacity="0.36"/><circle cx="177.4" cy="456.8" r="1.2" fill="#ff9f43" opacity="0.65"/><circle cx="174.6" cy="531.7" r="1.3" fill="#ff9f43" opacity="0.55"/><circle cx="86.2" cy="417.7" r="0.5" fill="#ff9f43" opacity="0.54"/><circle cx="381.3" cy="439.7" r="1.6" fill="#ff9f43" opacity="0.49"/><circle cx="180.9" cy="466.2" r="0.5" fill="#ff9f43" opacity="0.41"/><circle cx="146.8" cy="407.5" r="0.7" fill="#ff9f43" opacity="0.58"/><circle cx="37.0" cy="526.3" r="1.1" fill="#ff9f43" opacity="0.47"/><circle cx="128.0" cy="442.2" r="1.2" fill="#ff9f43" opacity="0.53"/><circle cx="103.7" cy="190.0" r="1.1" fill="#ff9f43" opacity="0.33"/><circle cx="211.2" cy="530.0" r="0.8" fill="#ff9f43" opacity="0.43"/><circle cx="282.4" cy="273.1" r="1.3" fill="#ff9f43" opacity="0.25"/><circle cx="223.6" cy="138.3" r="1.3" fill="#ff9f43" opacity="0.61"/><circle cx="370.6" cy="264.0" r="1.5" fill="#ff9f43" opacity="0.21"/><circle cx="111.0" cy="332.0" r="1.9" fill="#ff9f43" opacity="0.39"/><circle cx="373.2" cy="65.9" r="0.8" fill="#ff9f43" opacity="0.27"/><circle cx="381.9" cy="101.7" r="1.4" fill="#ff9f43" opacity="0.64"/><circle cx="280.3" cy="432.5" r="0.9" fill="#ff9f43" opacity="0.29"/><circle cx="19.0" cy="346.1" r="0.6" fill="#ff9f43" opacity="0.62"/><circle cx="111.6" cy="416.5" r="1.4" fill="#ff9f43" opacity="0.54"/><circle cx="256.9" cy="387.7" r="0.9" fill="#ff9f43" opacity="0.29"/><circle cx="227.8" cy="232.3" r="1.6" fill="#ff9f43" opacity="0.52"/><circle cx="226.6" cy="461.6" r="1.0" fill="#ff9f43" opacity="0.27"/><circle cx="307.7" cy="11.2" r="1.3" fill="#ff9f43" opacity="0.21"/><circle cx="66.2" cy="97.6" r="2.0" fill="#ff9f43" opacity="0.28"/><circle cx="193.4" cy="50.5" r="1.2" fill="#ff9f43" opacity="0.64"/><circle cx="299.2" cy="236.1" r="1.6" fill="#ff9f43" opacity="0.39"/><circle cx="200.9" cy="315.6" r="1.1" fill="#ff9f43" opacity="0.25"/><circle cx="278.7" cy="116.3" r="1.5" fill="#ff9f43" opacity="0.49"/><circle cx="98.1" cy="315.8" r="1.4" fill="#ff9f43" opacity="0.66"/><circle cx="98.6" cy="139.5" r="1.5" fill="#ff9f43" opacity="0.26"/><circle cx="349.2" cy="472.6" r="1.4" fill="#ff9f43" opacity="0.66"/><circle cx="371.1" cy="63.6" r="1.7" fill="#ff9f43" opacity="0.36"/><circle cx="25.9" cy="502.7" r="1.1" fill="#ff9f43" opacity="0.64"/><circle cx="271.6" cy="372.6" r="1.9" fill="#ff9f43" opacity="0.47"/><circle cx="184.8" cy="413.0" r="1.9" fill="#ff9f43" opacity="0.31"/><circle cx="249.5" cy="98.5" r="1.1" fill="#ff9f43" opacity="0.22"/><circle cx="312.5" cy="189.5" r="1.1" fill="#ff9f43" opacity="0.27"/><circle cx="206.0" cy="57.1" r="1.5" fill="#ff9f43" opacity="0.36"/><circle cx="236.0" cy="420.1" r="0.8" fill="#ff9f43" opacity="0.34"/>
  <circle cx="200" cy="240" r="65.41347736625514" fill="none" stroke="#e94ec7" stroke-opacity="0.08" stroke-width="1.1108882030178326"/><circle cx="200" cy="240" r="89.17527434842249" fill="none" stroke="#e94ec7" stroke-opacity="0.12" stroke-width="1.729320987654321"/><circle cx="200" cy="240" r="111.34859396433471" fill="none" stroke="#e94ec7" stroke-opacity="0.16" stroke-width="2.7407578875171468"/><circle cx="200" cy="240" r="130.84701646090534" fill="none" stroke="#e94ec7" stroke-opacity="0.20" stroke-width="1.947668038408779"/><circle cx="200" cy="240" r="150.73227023319615" fill="none" stroke="#e94ec7" stroke-opacity="0.24" stroke-width="2.6340020576131686"/>
  <text x="200" y="270" font-family="sans-serif" font-size="140" text-anchor="middle" fill="#ff9f43" opacity="0.85">🪩</text>
  <rect x="4" y="4" width="392" height="552" fill="none" stroke="#e94ec7" stroke-width="1.5" opacity="0.7"/>
  <rect x="20" y="440" width="360" height="100" fill="#000" opacity="0.55"/>
  <text x="200" y="475" font-family="sans-serif" font-size="22" font-weight="bold" text-anchor="middle" fill="#ff9f43">Galactic Ghost</text>
  <text x="200" y="500" font-family="sans-serif" font-size="11" text-anchor="middle" fill="#e94ec7" letter-spacing="3">COSMIC 1970S</text>
  <text x="200" y="525" font-family="sans-serif" font-size="10" text-anchor="middle" fill="#ffffff" opacity="0.7" letter-spacing="2">COMMON</text>
</svg>